<?xml version="1.0" encoding="utf-8"?>
<!-- Generator: Adobe Illustrator 24.3.0, SVG Export Plug-In . SVG Version: 6.00 Build 0)  -->
<svg version="1.1" id="Capa_1" xmlns="http://www.w3.org/2000/svg" xmlns:xlink="http://www.w3.org/1999/xlink" x="0px" y="0px"
	 viewBox="0 0 512 512" style="enable-background:new 0 0 512 512;" xml:space="preserve">
<style type="text/css">
	.st0{fill:#D9A02D;}
</style>
<g>
	<g>
		<path class="st0" d="M305.7,201.4c-4.4,0-6.3,0.5-9.5,6.1l-8.1,14.1l-8.1-14.1c-3.2-5.7-5.1-6.1-9.5-6.1c-3.1,0-6.1,1.6-6.1,6.1
			v47.6c0,2.5,3.1,3.8,6.1,3.8s6.1-1.3,6.1-3.8v-30.3l7.5,13.7c0.9,1.8,2.4,2.3,3.9,2.3c1.5,0,3.1-0.6,4.1-2.3l7.5-12.9v29.5
			c0,2.5,3.1,3.8,6.1,3.8s6.1-1.3,6.1-3.8v-47.6C311.8,203.1,308.8,201.4,305.7,201.4z"/>
	</g>
</g>
<g>
	<g>
		<path class="st0" d="M361.9,253L347.2,205c-0.9-2.8-4.4-4.1-8-4.1s-7.2,1.3-8,4.1L316.5,253c-0.9,3.6,4.3,5.9,7.7,5.9
			c2,0,3.5-0.6,4-2.3l2.7-9.8h16.6l2.7,9.8c0.5,1.6,2,2.3,4,2.3C357.6,258.9,362.8,256.6,361.9,253z M333.4,237.3l5.7-21.1l5.7,21.1
			H333.4z"/>
	</g>
</g>
<g>
	<g>
		<path class="st0" d="M396.8,248.2h-17.9v-43.1c0-2.6-3.1-3.7-6.1-3.7s-6.1,1.1-6.1,3.7v50c0,2.5,2.7,3.8,5.3,3.8h24.8
			c2.4,0,3.5-2.7,3.5-5.3C400.3,250.9,399.1,248.2,396.8,248.2z"/>
	</g>
</g>
<g>
	<g>
		<path class="st0" d="M435.4,248.2h-17.9v-43.1c0-2.6-3.1-3.7-6.1-3.7s-6.1,1.1-6.1,3.7v50c0,2.5,2.7,3.8,5.3,3.8h24.8
			c2.4,0,3.5-2.7,3.5-5.3C439,250.9,437.8,248.2,435.4,248.2z"/>
	</g>
</g>
<g>
	<g>
		<path class="st0" d="M491.9,420.9h-3.8v-73.6c0-4.1-3.4-7.5-7.5-7.5s-7.5,3.4-7.5,7.5v73.6h-50.9V308.7c0-5.8-4.7-10.5-10.5-10.5
			c-5.4,0-118.2,0-123.7,0c-5.8,0-10.4,4.7-10.4,10.4v112.3h-50.9v-136h246.6v27.4c0,4.1,3.4,7.5,7.5,7.5s7.5-3.4,7.5-7.5
			c0-4.2,0-123.3,0-125.7c0-7.5-6.1-13.6-13.6-13.6h-52.3v-19.9c4-0.1,7.2-3.4,7.2-7.5s-3.2-7.3-7.2-7.5v-15.7
			c4-0.1,7.2-3.4,7.2-7.5s-3.2-7.3-7.2-7.5v-44c0-4.9-2.4-9.5-6.4-12.4c-4-2.8-9.1-3.6-13.7-2L47.4,169.7
			c-9.5,3.2-15.9,12.2-15.9,22.2v228.9H20.1C9,420.9,0,429.9,0,440.9v2.8c0,11.1,9,20.1,20.1,20.1h218.4c4.1,0,7.5-3.4,7.5-7.5
			s-3.4-7.5-7.5-7.5H20.1c-2.8,0-5.1-2.3-5.1-5.1v-2.8c0-2.8,2.3-5.1,5.1-5.1h471.8c2.8,0,5.1,2.3,5.1,5.1v2.8
			c0,2.8-2.3,5.1-5.1,5.1H273.5c-4.1,0-7.5,3.4-7.5,7.5s3.4,7.5,7.5,7.5h218.4c11.1,0,20.1-9,20.1-20.1v-2.8
			C512,429.9,503,420.9,491.9,420.9z M173.3,420.9H85v-22.8h88.3V420.9z M173.3,383.1H85v-22.8h88.3V383.1z M173.3,345.4H85v-22.8
			h88.3V345.4z M173.3,307.6H85l0-22.8h88.3V307.6z M211.6,186.4c0,11.2,0,223.8,0,234.5h-23.3c0-6.7,0-131.8,0-136.1
			c0-8.2-6.7-14.9-14.9-14.9H85c-8.2,0-14.9,6.7-14.9,14.9c0,4.8,0,131.2,0,136.1H46.5V191.9c0-3.6,2.3-6.9,5.8-8L407,63.2
			c0.1,0,0.1,0,0.2,0c0.1,0.1,0.1,0.1,0.1,0.2v44h-57.3c-4.1,0-7.5,3.4-7.5,7.5s3.4,7.5,7.5,7.5h57.3v15.7h-57.3
			c-4.1,0-7.5,3.4-7.5,7.5s3.4,7.5,7.5,7.5h57.3V173H225C217.6,173,211.6,179,211.6,186.4z M226.6,188h188.1h58.4v81.9H226.6V188z
			 M342.4,420.9h-49.8V313.2h49.8V420.9z M407.2,420.9h-49.8V313.2h49.8V420.9z"/>
	</g>
</g>
</svg>
