<?xml version="1.0" encoding="utf-8"?>
<!-- Generator: Adobe Illustrator 24.3.0, SVG Export Plug-In . SVG Version: 6.00 Build 0)  -->
<svg version="1.1" id="svg249" xmlns:svg="http://www.w3.org/2000/svg"
	 xmlns="http://www.w3.org/2000/svg" xmlns:xlink="http://www.w3.org/1999/xlink" x="0px" y="0px" viewBox="0 0 682.7 682.7"
	 style="enable-background:new 0 0 682.7 682.7;" xml:space="preserve">
<style type="text/css">
	.st0{fill:none;stroke:#D9A02D;stroke-width:20;stroke-linecap:round;stroke-linejoin:round;stroke-miterlimit:13.3333;}
	.st1{clip-path:url(#SVGID_2_);}
	
		.st2{fill:none;stroke:#D9A02D;stroke-width:20;stroke-linecap:round;stroke-linejoin:round;stroke-miterlimit:13.3333;stroke-dasharray:26.6667,53.3333;}
</style>
<g id="g255" transform="matrix(1.3333333,0,0,-1.3333333,0,682.66667)">
	<g id="g257" transform="translate(429.2178,418.7583)">
		<path id="path259" class="st0" d="M0,0v-73.8h39.7v94.6"/>
	</g>
	<g id="g261">
		<g>
			<defs>
				<rect id="SVGID_1_" x="-85.3" y="-85.3" width="682.7" height="682.7"/>
			</defs>
			<clipPath id="SVGID_2_">
				<use xlink:href="#SVGID_1_"  style="overflow:visible;"/>
			</clipPath>
			<g id="g263" class="st1">
				<g id="g269" transform="translate(485.7393,311.8311)">
					<path id="path271" class="st0" d="M0,0h-73.4v20.9c0,6.7,5.4,12.2,12.2,12.2h49C-5.4,33.1,0,27.7,0,20.9V0z"/>
				</g>
				<g id="g273" transform="translate(324.8965,334.0029)">
					<path id="path275" class="st0" d="M0,0v-103.2h39.7V39.9"/>
				</g>
				<g id="g277" transform="translate(381.418,196.8042)">
					<path id="path279" class="st0" d="M0,0h-73.4v21.7c0,6.8,5.5,12.3,12.3,12.3h48.7C-5.5,34,0,28.5,0,21.7V0z"/>
				</g>
				<g id="g281" transform="translate(285.7666,153.2764)">
					<path id="path283" class="st0" d="M0,0c-42.2,141.7,78.4,245.2,218.3,301.6v49.6c-79-9.6-175.2-26.1-249.9-54.4l-0.7-0.3"/>
				</g>
				<g id="g285" transform="translate(298.1865,120.4688)">
					<path id="path287" class="st0" d="M0,0c18.6-40.8,49.4-84.8,87.2-113h-339.9c-2.9,6-1.4,3.8-4.1,10
						C-279-53-291.5-11.2-290.2,43.2c1.4,57.4,19.4,111.9,55.6,157.5c42.3,53.4,95.7,88.3,157.6,115.5"/>
				</g>
				<g id="g289" transform="translate(427.4033,457.9946)">
					<path id="path291" class="st2" d="M0,0c-61.8-15.7-124.7-46-174.1-82.3c-26.8-19.7-50.2-43.2-67.6-70.4
						c-24-37.5-36.1-81.1-38.6-124.4c-1.3-22.6,0.5-45.4,4.4-67.8c4.3-24.4,11.5-51.5,24.3-73.4"/>
				</g>
			</g>
			<use xlink:href="#SVGID_1_"  style="overflow:visible;fill:none;stroke:#D9A02D;stroke-miterlimit:10;"/>
		</g>
	</g>
</g>
</svg>
