<?xml version="1.0" encoding="UTF-8"?>
<svg xmlns="http://www.w3.org/2000/svg" version="1.1" viewBox="0 0 5000 4000">
  <!-- Generator: Adobe Illustrator 29.1.0, SVG Export Plug-In . SVG Version: 2.1.0 Build 142)  -->
  <defs>
    <style>
      .st0, .st1, .st2, .st3, .st4, .st5, .st6, .st7 {
        stroke-miterlimit: 10;
      }

      .st0, .st1, .st4, .st6, .st7 {
        fill: none;
        stroke-linecap: round;
      }

      .st0, .st1, .st6 {
        stroke-width: 20px;
      }

      .st0, .st2, .st7 {
        stroke: #acbcf8;
      }

      .st1 {
        stroke: #cdd7fb;
      }

      .st8, .st9 {
        fill: #fff;
      }

      .st10, .st11 {
        fill: #040c2b;
      }

      .st10, .st12 {
        opacity: .1;
      }

      .st13 {
        fill: #db965f;
      }

      .st14 {
        fill: #c9885b;
      }

      .st15, .st2 {
        fill: #e3e9f7;
      }

      .st2, .st7 {
        stroke-width: 8px;
      }

      .st16 {
        fill: #cc8b5b;
      }

      .st17 {
        fill: #829cf8;
      }

      .st18, .st5 {
        fill: #9aaaf7;
      }

      .st3, .st19 {
        fill: #131a3f;
      }

      .st3, .st5 {
        stroke: #131a3f;
        stroke-width: .9px;
      }

      .st20 {
        fill: #dee4fc;
      }

      .st21 {
        opacity: .2;
      }

      .st9 {
        opacity: .8;
      }

      .st22 {
        fill: #0f31ac;
      }

      .st4 {
        stroke: #829cf8;
        stroke-width: 7px;
      }

      .st23 {
        fill: #f6471e;
      }

      .st24 {
        fill: #acbcf8;
      }

      .st6 {
        stroke: #0f31ac;
        stroke-dasharray: 50 50 50 50 50 50;
      }

      .st25 {
        fill: #6275ba;
      }

      .st26 {
        fill: #fbb5a5;
      }
    </style>
  </defs>
  <g id="Background">
    <g class="st21">
      <g>
        <path class="st6" d="M1284.2,1141.9c-55.3-26-146.8,16.3-175.9,78.2-55.7,118.1,124.4,289.2,189.9,270.8,73.2-20.5,87.6-301.2-13.9-349Z"/>
        <path class="st6" d="M1007.6,1409.5c-19.7-11.4-228.8-132.4-347.1-36.6-83.1,67.2-83.9,210.9-21.4,291.6,123.6,159.9,507.1,88.2,546.9-26.2,26.8-77.1-99-182.9-178.3-228.7Z"/>
        <path class="st6" d="M1276.6,3384c508.9-126.3,1087.1-254.9,1985-233,502.1,12.2,615.9-143.6,996.5-337.3,339.2-172.7,505.8-516.1,403.5-710.7-103.3-196.5-417.9-118.2-675.6-410.7-117.4-133.2-96.7-226.6-164.5-374.3-214.5-467.7-1018.7-833.3-1415.2-639.8-523.9,255.6-76,1360-661.6,1661.6-370.4,190.8-650.4-175.5-1016.1,104.2-181.2,138.6-402.9,332.9-420,544,0,0-24,516,968,396Z"/>
      </g>
      <path class="st24" d="M4088.1,2809.3s-92.2,122.2-184.4,289.9c-83.1,151.2-146.3,355-160.3,525.1-39.1-1.9-82.1-3.6-128.6-5.2-275.3-9.8-672.8-15.9-1114.8-15.9s-947.4,7.9-1220.8,20.1c-9.4.4-18.6.8-27.6,1.3-341.3-423-1028.5-1159.9-396.1-1463.1,0,0,46.3-14.1,115.8-44.4,219.8-95.9,671.6-354.1,621.4-840.9,0,0-17.1-90.8-17.1-217.2,0-295.6,93.6-785.5,718.2-763.1,378.3,13.6,726.7,206.1,937.3,514.2,206.6,302.2,536.9,674,806,461.8,62.1-49,144.2-67.2,220.9-45.6,193.6,54.4,413.6,336-169.8,1583.2Z"/>
    </g>
    <path class="st10" d="M4590.5,3640.8c0,20-935.9,36.2-2090.5,36.2s-1233.3-5.2-1616.7-13.3c-88.3-1.9-166.1-3.9-231.7-6-43.3-1.4-81.3-2.9-113.6-4.4-83.1-3.9-128.5-8.1-128.5-12.5s73.7-10.9,205.2-15.7c53.9-1.9,117.4-3.8,189.6-5.5,379.7-9.1,997.8-15,1695.7-15s1166.1,4.6,1548.5,11.9c336.8,6.4,542,15,542,24.3Z"/>
  </g>
  <g id="Design">
    <g>
      <g>
        <rect class="st17" x="1662.3" y="1568.4" width="1522.1" height="2043.6" rx="80" ry="80"/>
        <rect class="st8" x="1733.1" y="1646" width="1380.6" height="1888.3"/>
        <path class="st22" d="M2686.8,1648.5l-53.2-100.6-24.7-46.6-.3-.6h-75.4v-48.2c0-55.8-49.2-101-109.8-101s-109.8,45.2-109.8,101v48.2h-75.4l-.3.6-24.7,46.6-53.2,100.6c-10.3,19.5,3.1,43.5,24.3,43.5h478.3c21.2,0,34.6-24,24.3-43.5ZM2423.4,1399c27.4,0,49.5,20.4,49.5,45.5s-22.2,45.6-49.5,45.6-49.5-20.4-49.5-45.6,22.2-45.5,49.5-45.5Z"/>
        <polygon class="st12" points="2633.6 1547.9 2213.1 1547.9 2237.8 1501.3 2608.9 1501.3 2633.6 1547.9"/>
        <rect class="st15" x="1818" y="1736" width="1210.7" height="253.7"/>
        <g>
          <line class="st1" x1="2012.7" y1="2077.5" x2="2969.7" y2="2077.5"/>
          <line class="st1" x1="1877" y1="2158.5" x2="2969.7" y2="2158.5"/>
          <line class="st1" x1="1877" y1="2239.5" x2="2969.7" y2="2239.5"/>
          <line class="st1" x1="1877" y1="2320.5" x2="2881" y2="2320.5"/>
          <line class="st1" x1="1983.1" y1="2401.5" x2="2969.7" y2="2401.5"/>
          <line class="st1" x1="1877" y1="2482.5" x2="2969.7" y2="2482.5"/>
          <line class="st1" x1="1877" y1="2563.5" x2="2969.7" y2="2563.5"/>
        </g>
        <polygon class="st7" points="3028.7 2650.6 1818 2650.6 1818 3009 3028.9 3009 3028.7 2650.6"/>
        <polygon class="st2" points="3028.7 2650.6 1818 2650.6 1818 2759 3028.9 2759 3028.7 2650.6"/>
        <polygon class="st7" points="3028.8 2650.6 2409.4 2650.6 2409.4 3008.6 3028.9 3008.6 3028.8 2650.6"/>
        <g>
          <path class="st17" d="M2155,1934.4v-142.8h30.3v117.8h57.9v25h-88.2Z"/>
          <path class="st17" d="M2397.5,1862.8c0,23.6-5.9,41.8-17.6,54.5-11.7,12.7-28.5,19-50.4,19s-38.7-6.3-50.4-19c-11.7-12.7-17.6-30.9-17.6-54.7s5.9-41.9,17.6-54.4c11.8-12.5,28.6-18.8,50.5-18.8s38.7,6.3,50.3,18.9c11.6,12.6,17.4,30.8,17.4,54.5ZM2293.3,1862.8c0,16,3,28,9.1,36,6.1,8.1,15.1,12.1,27.1,12.1,24.2,0,36.2-16,36.2-48.1s-12-48.2-36-48.2-21.1,4.1-27.2,12.2c-6.1,8.1-9.2,20.1-9.2,36.1Z"/>
          <path class="st17" d="M2514.5,1934.4l-10.4-34h-52.1l-10.4,34h-32.6l50.4-143.4h37l50.6,143.4h-32.6ZM2497,1875c-9.6-30.8-15-48.2-16.2-52.2-1.2-4-2.1-7.2-2.6-9.6-2.1,8.3-8.3,28.9-18.5,61.8h37.2Z"/>
          <path class="st17" d="M2691.8,1934.4h-38.5l-62.1-108h-.9c1.2,19.1,1.9,32.7,1.9,40.8v67.2h-27.1v-142.8h38.2l62,106.9h.7c-1-18.6-1.5-31.7-1.5-39.4v-67.6h27.2v142.8Z"/>
        </g>
        <line class="st0" x1="2549.4" y1="3375.3" x2="2969.7" y2="3375.3"/>
        <path class="st4" d="M2641.2,3324.7c-4.6-4-5.7-10.7-6.2-16.8-3.1-37.7,5.6-76.3,24.8-108.9,9.3-15.8,21.2-30.5,36.9-40,2.7-1.7,5.7-3.2,8.9-3,4,.2,7.3,2.8,10.3,5.5,26.2,23.9,42.1,58.6,43.2,94,1.1,35.4-12.7,71.1-37.3,96.5-2.8,2.9-6.1,5.9-10.2,6.2-5.6.4-10.2-4.5-12.2-9.7-5.7-15.4,5.3-31.7,16.8-43.4,15.1-15.5,32.3-29,50.8-40.1,3.7,4,7,8.6,9.5,13.5-.8-8.2,1.8-16.7,7-23,.8,5.3,9,5.7,13,2.1,4-3.6,5.8-9.1,9.4-13.1,7.5-8,20.2-7.1,30.9-4.8s22.4,5.4,32,.3c2.2,7.2,8.6,12.9,15.9,14.3"/>
        <g>
          <path class="st26" d="M2012.2,3105c-74.6,0-135.2,60.5-135.2,135.2s60.5,135.2,135.2,135.2,135.2-60.5,135.2-135.2-60.5-135.2-135.2-135.2ZM2012.2,3360.2c-66.3,0-120.1-53.8-120.1-120.1s53.8-120.1,120.1-120.1,120.1,53.8,120.1,120.1-53.8,120.1-120.1,120.1Z"/>
          <circle class="st26" cx="2012.2" cy="3240.2" r="99.6"/>
        </g>
      </g>
      <g>
        <path class="st13" d="M3390.3,3498.7s9.4,79.5,0,97.6l69.4,13.2-20.9-130.4-48.5,19.5Z"/>
        <path class="st11" d="M3392.7,3646.6s-56.9,14.5-100.5,2.9c-6.5-1.7-10.6-8.4-9.1-15.2,1.7-8.2,8.9-18.1,32.3-22,0,0,62.7-28,80.1-50.3,0,0,36.1,18.7,57.6,4.2,0,0,16.4,12.2,19.1,36.2,1.9,17.5-10.3,33.2-27.1,35.3-17.7,2.2-41.2,5.6-52.3,9.1Z"/>
        <path class="st13" d="M3482.1,3489.7s9.4,79.5,0,97.6l69.4,13.2-20.9-130.4-48.5,19.5Z"/>
        <path class="st11" d="M3483.2,3646.4s-56.9,14.5-100.5,2.9c-6.5-1.7-10.6-8.4-9.1-15.2,1.7-8.2,8.9-18.1,32.3-22,0,0,62.7-28,80.1-50.3,0,0,38,14.4,59.5,0,0,0,14.5,16.4,17.2,40.4,1.9,17.5-10.3,33.2-27.1,35.3-17.7,2.2-41.2,5.6-52.3,9.1Z"/>
        <path class="st11" d="M3464.3,2898.9l-44.4,296.5,27,309.5-13.9,2.2-56.9,9-53.2-298.6c-5.4-30.5-7.9-61.4-7.4-92.4l4-261.6,146.9,20.9-2.2,14.4Z"/>
        <polygon class="st12" points="3419.9 3195.5 3446.9 3505 3433 3507.2 3383.3 3202.5 3373.5 2898.9 3464.3 2898.9 3419.9 3195.5"/>
        <path class="st11" d="M3526.8,2873s21.6,50.9,11.5,175.7l-8.5,157.6,16.9,309.8-74.5,4.5-50.7-263c-9.1-47.7-14-96.1-14.6-144.7l-3.7-257.7,123.7,17.8Z"/>
        <path class="st14" d="M3487.7,2584.9l-.3,56.1-83.3,15.2-48.4-24.7,20.9-27.2,11.6-15c2.3-3,3.3-6.9,2.7-10.7l-10.1-64.4,81.2-36.4-6.8,51.2-1.1,8.4c-2.5,27.3,33.7,47.5,33.7,47.5Z"/>
        <path class="st12" d="M3462,2477.8l-7.7,58c-28.5,51.2-64.5,63.2-77.7,68.5l11.6-15c2.3-3,3.3-6.9,2.7-10.7l-10.1-64.4,81.2-36.4Z"/>
        <path class="st13" d="M3473.7,2483.5l-9.5,24.4c-10.4,15.7-20.6,27.7-30.2,37-27,26.3-48,29.9-48,29.9-9,1.5-16.3-5.3-22.2-16.2-16.6-30.6-21.9-93.5-21.9-93.5l103.6-12.7,28.2,31.1Z"/>
        <path d="M3474.1,2502.5c-1.2,39.7-20.2,37.1-20.2,37.1l1.6-19,7-11.7c11-27.9-8.6-24.7-8.6-24.7-15.9,4.4-15.3,24.7-15.3,24.7h-5.5c-3.7-5.7-4.9-25.4-4.9-25.4-38.8-46.3-84.1,2-84.1,2-36.4-26.7-6.7-45.3-6.7-45.3-5.2-38.6,32.7-31.2,32.7-31.2,0,0,25.3-22.3,40.1-8.2,0,0,23-1.5,31.2,22.3,0,0,20.8-4.5,27.5,17.1,0,0,.6.7,1.5,2,10,14.3,12.3,32.6,6.5,49.1-1.5,4.2-2.7,8.4-2.8,11.3Z"/>
        <polygon class="st13" points="3272.4 2756.9 3270.8 2756.3 3282.5 2708.1 3307.4 2711.9 3319.5 2713.7 3321.4 2714 3324.7 2775.6 3307.7 2769.5 3272.4 2756.9"/>
        <path class="st13" d="M3343.7,2731.6l-30.5,105c-1.3,4.5-14.4,7.2-17.8,12.4l-25.5-25.3,8.8-92.7,65,.6Z"/>
        <path class="st13" d="M3317.9,2816.4c.8,6,16.9,7.9,12.4,14.6l-37,57-62.4,95.6c-11.1,63.1-38.1,65.4-38.1,65.4-26.6,11.2-37.9-20.3-37.9-20.3-6.5-22.7,19.5-54.4,19.5-54.4l-11.8,7.4c-4,2.5-9.3,0-10.1-4.8,20.7-19.8,40.3-25.2,40.3-25.2l43.5-72.8,34.9-57v-.2c-.1,0,46.7-5.4,46.7-5.4Z"/>
        <path class="st8" d="M3324.7,2775.6l-17-6.1-35.3-12.6-1.7-.6-6.1-2.2c19.4-105.3,38.2-126.8,46.8-130.7,3.1-1.4,4.9-.6,4.9-.6l5,90.9v.3s3.4,61.7,3.4,61.7Z"/>
        <path class="st12" d="M3348.2,2720.8l-33.5,89.9-6.9-39.2,1.5-56.5,2.3-86.7c3.1-1.4,4.9-.6,4.9-.6l5,89,26.8,3.9Z"/>
        <path class="st8" d="M3560.7,2738.9l-1,52.3-.5,23.2-.8,41-.3,16.8v6.5c-.1,0-.5,16.7-.5,16.7l-.2,12.1v5.4c0,0,.4,23.3.4,23.3l.3,20.2-256.2-10.4.9-10.9,1.9-23.3,1.3-16.4,1.7-17.7.5-5.5,1.7-17.8,3.7-39.9,2-21.1c0-.7,0-1.4,0-2.1h0c0-.1-1.9-57.7-1.9-57.7l-.8-23.2-1.5-45.1-.8-23.2-.4-13.1c-.1-3.1,1.7-6,4.4-7.2l52.9-23.6,2.1-1,19.3-8.6c-7.4,19.5,0,30,9.2,35.7,4.3,2.7,9.1,4.2,13.9,4.6,1.2.1,2.3.2,3.5.1,4.9,0,9.8-1.2,14.3-3.4,56.3-27.1,44.1-50.5,44.1-50.5l17.2,11.6,2.9,1.9,61.2,41.4.6,12,1.2,23.2,2.3,45.1.6,11,.6,12.2.2,4.2c0,.4,0,.8,0,1.2Z"/>
        <line class="st18" x1="3404.3" y1="2941.6" x2="3404.3" y2="2941.6"/>
        <polygon class="st12" points="3560.7 2738.2 3557.4 2907.4 3546.6 2908.1 3522 2718.4 3559.8 2721.2 3560.7 2738.2"/>
        <path class="st12" d="M3421.5,2636.4c-4.9-1.1-5.7-7-5.7-7.4.8,3.4,3.3,5.8,5.7,7.4Z"/>
        <path d="M3438.5,2508.4l-3.7,29.7c-.5,4.4-2.7,8.5-6,11.5-24.5,21.9-42.8,25.1-42.8,25.1-9,1.5-16.3-5.3-22.2-16.2,37.1-3.4,68.8-53,68.8-53l5.9,2.9Z"/>
        <g>
          <polygon class="st16" points="3655.3 2727.6 3005.1 3130.9 2926 3214 2886.9 3255 2941.6 3238.1 3050.6 3204.4 3050.6 3204.3 3700.8 2801 3655.3 2727.6"/>
          <path class="st23" d="M3684.5,2674.3h86.3v107.6c0,6-4.8,10.8-10.8,10.8h-64.8c-6,0-10.8-4.8-10.8-10.8v-107.6h0Z" transform="translate(3369.5 7342.1) rotate(-121.8)"/>
          <path class="st11" d="M2926,3214l-39.1,41.1,54.7-16.9c3.5-7,4.2-13.2,1.5-17.7-2.8-4.6-8.9-6.7-17.1-6.5Z"/>
          <path class="st24" d="M3693,2788.5l-661.8,410.5c36.9-17.8,30.7-5.4,26,1.2l643.6-399.2-7.7-12.5Z"/>
          <path class="st11" d="M3682.7,2771.9l-662.4,410.8c44-15.4,10.6,16.3,10.6,16.3l421-261,241.1-149.4-10.3-16.7Z"/>
          <path class="st24" d="M3673.3,2756.7l-661.3,410.2c43.8-16.4,8.3,15.8,8.3,15.8l662.4-410.7-9.5-15.2Z"/>
          <path class="st11" d="M3663.8,2741.4l-660.5,409.7c43.8-16.4,8.3,15.8,8.3,15.8l661.6-410.2-9.5-15.2Z"/>
          <path class="st24" d="M3655.3,2727.6l-642.8,398.7c32.1-8.2-9.4,24.9-9.4,24.9l.2-.2,660.6-409.6-8.6-13.8Z"/>
        </g>
        <g>
          <path class="st13" d="M3582.2,2705l-58.3,28.6,29.4,87-103.7,110.2s-20.3.6-45.2,14.9c-.3,4.9,4.2,8.5,8.7,7l13.2-4.4s-32.9,24.5-32,48.1c0,0,3.4,33.2,31.9,28.7,0,0,26.7,4.3,52.6-54.4l115.5-123.8c12-11,9.4-25.3,7.7-34.5l-19.9-107.5Z"/>
          <path class="st8" d="M3542.9,2623.6s37.5-1,51,132.1l-65,24.7s-49.9-148.2,13.9-156.8Z"/>
        </g>
      </g>
      <g>
        <g>
          <path class="st13" d="M1521.4,3487.6s3.4,82,33.7,104.6l-24.3,24.9-17.1-8.4-11.9-16.9-30.7-49-11.9-18.4,16.2-43.7,46,6.9Z"/>
          <path class="st11" d="M1455.3,3544.7s-13.8-15.6,10.6-38.4c0,0,18.4,42.3,35.5,70.6,0,0,11.9,19.2,35.8,22.2,0,0,17.9,0,2.6-27.6,0,0,45.2,43.7,41.8,58.2,0,0-1.3,3.4-14.5,3.1,0,0-28.8.4-47.1-7.1-7.3-3-12.7-8.9-15-15.8-4.3-13-16.7-42.6-42.3-57.9l-1.7,25.3c0,1.6-1.6,2.9-3.4,2.8h0c-1.7-.1-3-1.4-3-2.9l.8-32.5Z"/>
          <polygon class="st13" points="1421.2 3513.2 1457 3616.7 1411 3622.1 1398.2 3599.1 1381.1 3550.8 1382.8 3502.5 1421.2 3513.2"/>
          <path class="st11" d="M1381.1,3566.9s-16.2-11.5-5.1-41.4l6.2-4.2s16,77,27.1,82.4c0,0,17.9,11.5,36.7,0,0,0,6-2,0-19,0,0,25.6,37.4,23,55.8,0,0-.4,5.7-26.4,0,0,0-40.9-9.2-42.6-21.5,0,0-6.8-30.7-11.9-36.8v16.9c0,1.7-1.5,3.1-3.4,3.1h0c-1.9,0-3.4-1.4-3.4-3.1v-32.2Z"/>
          <path class="st11" d="M1370.9,2877.3s-45.2,48.3-40.1,141c0,0,1.7,24.5,6.8,54.4,0,0,22.2,88.9,8.5,206.1,0,0-7.7,60.5-5.1,163.2l-1.7,94.2s62.2,28.4,94.6-11.5l-11.1-121.1v-129.5l6.8-68.2,16.2-180.1,11.9-141-87-7.7Z"/>
          <path class="st11" d="M1393.9,2887.2l4.2,15.4,1.9,6.9,42.4,156.6,3.6,13.4,39.2,105.7s12.8,24.5,5.1,100.4l-11.1,99.6-21.3,124.9s1,.5,2.9,1.3c.8.3,1.7.7,2.7,1.1,1.8.7,3.9,1.6,6.4,2.5,13.3,4.9,35.5,11.3,55.7,8.8,11.1-1.3,21.5-5.4,29.6-13.8l8.5-191.6s7.7-59,2.6-102.7l-19.6-193.9s-.2-8.6-1-21.5c-1.8-29.5-6.9-81.4-20.5-104.8-.4-.7-.9-1.4-1.3-2.1-1.2-1.9-2.5-3.5-3.9-4.8-1.8-1.8-3.7-3.2-5.7-4l-14.6.3h-6.1c0,.1-35.7.8-35.7.8l-63.9,1.2Z"/>
        </g>
        <path class="st19" d="M1384.5,2416.8s4.3-12.2,34.7-12.8c0,0,35.3-2.8,56.6,29.3,1.3,1.9,2.7,3.8,4.3,5.5,3.2,3.4,8.7,10.3,9.3,17.8.2,2.9.5,5.8,1.1,8.6.9,4.8,2.4,10.8,4,12.4.5.5,1,1,1.4,1.7,2.1,3.6,7.4,14.3,5.7,28.3,0,0-1.9,6.4-2.3,12.9-.2,3.7.5,7.5,2,10.9,2,4.5,5.5,14.4,3.5,23.8-1.1,4.9-1.7,9.9-1.6,15,0,2.8.3,5.4.8,7,0,0,4.6,21-28.9,24.1,0,0-35.7,2-46.7-12.6l-75.6-32.6,18.1-130.5,13.6-8.9Z"/>
        <path class="st14" d="M1442.6,2543.2s-8.1,69.2,0,84.6l-27.9,29.9-51.7-40.3,22.8-115.5,56.7,41.3Z"/>
        <path class="st8" d="M1475.3,2687.5c15.7,25.3,54.5,56.8,83.1,78.1,19.2,14.2,33.8,23.8,33.8,23.8l30.5-52.1-76.1-92.8-11.3-13.7c-56.8-39.2-60.1,56.7-60.1,56.7Z"/>
        <path class="st13" d="M1654.4,2776.3l86.4-54.9s69.6-9.5,76.4-54.5c0,0,10.1-39.7-51.3-15.8l-10.3,6,7.1-11.1c2.9-4.6,1.6-10.6-3-13.6h0s-32.5,28-39.3,52.5c0,0-7.9,14.4-28.6,22.1l-60.2,31.4,22.8,37.9Z"/>
        <path class="st8" d="M1582.2,2762.1s-2.6,44.9,48.1,30.9l36.9-20.9,23.5-13.3s-16.5-30.6-12-47.7c0,0-11,4.3-26.4,11.3-21.2,9.6-50.5,24.3-70.1,39.6Z"/>
        <path class="st15" d="M1361.6,2599.3l.5,20.5v2.2c0,0,2.8,106.8,2.8,106.8l14,139.6.9,9.3,2.5,25,19.6,1.2,59.9,3.6,11.2.7,28.5-19,5.3-3.5,11.7-7.8.8-.5-37-143.5-5.3-20.3-22.2-80.6-.7-1.5-.9-2-15.2-33.4c-.5,12.5-9.8,22.7-13.4,26.2-.4.3-.7.6-.9.8-.3.3-.5.5-.5.5-1.8-.8-3.6-1.6-5.4-2.5-.3-.1-.5-.3-.8-.4-26.3-13.5-52.2-40.1-52.2-40.1l-3.4,18.8Z"/>
        <polygon class="st18" points="1363.7 2865.2 1363.7 2908.1 1403.9 2911.2 1453 2914.9 1461.5 2912.9 1505.8 2903 1533.2 2896.8 1533.5 2896.7 1531.9 2894.6 1527.9 2889.5 1518.7 2877.8 1514.1 2871.9 1497.6 2875 1450.3 2884 1379 2868.5 1363.7 2865.2"/>
        <rect class="st5" x="1442.9" y="2882" width="23.5" height="34.9" transform="translate(3089.6 5701.1) rotate(176.4)"/>
        <path class="st12" d="M1362.2,2619.8v2.2c0,0,37.7,32.3,37.7,32.3l18.1-33.4c-.3-.1-.5-.3-.8-.4l-19.4,27.1-35.7-27.8Z"/>
        <path class="st12" d="M1423.9,2623l23.7,36.7,6.7-28.4-.9-2-6.4,22.4-22.1-29.5c-.4.3-.7.6-.9.8Z"/>
        <path class="st8" d="M1328.1,2937c-10.1,36.3-13.4,63.8-13.4,63.8,35.5,10.1,84.4,18.5,103.4,21.6,4.4.7,8.5-2.4,9-6.8,9.7-86.9,8.5-197.4,8.5-197.4l-.6-3.6-.2-1.3-13.3-75.7c-10.7-71.8-57.8-149.3-57.8-149.3l-18.5,23.2-.9,1.1h-.1c-18.2,3.4-31.3,7.1-39.8,10.1-9.1,3.2-13.2,5.5-13.2,5.5l38.9,147c1.7,6.9,3.1,13.7,4.2,20.6,6,35.8,4.7,70.1,1.8,96-1.8,15.7-4.2,28.3-5.9,36.2-1.3,5.9-2.2,9.1-2.2,9.1Z"/>
        <path class="st12" d="M1330.2,2927.9l8.9,5.3,24.9,25.1c51,24.8,57.1-1.9,57.1-1.9-.7-20.1-34.4-39.7-34.4-39.7l15.3,5.8c2.7,1,5.6,1,8.1,0,2.5-1,4.7-2.8,6.1-5.3-41.2-21.2-60.9-15.7-60.9-15.7-5.4-1.6-12.4-5.4-19.2-9.8-1.8,15.7-4.2,28.3-5.9,36.2Z"/>
        <path class="st12" d="M1291.1,2628.2l38.9,147c1.7,6.9,3.1,13.7,4.2,20.6-6.7-90.5-15.1-133.7-32.5-158.3-9.1,3.2-10.7-9.3-10.7-9.3Z"/>
        <path class="st12" d="M1475.3,2687.5c15.7,25.3,54.5,56.8,83.1,78.1-6.8-71.4-18.4-102.7-28.2-128.9l-18-4.3c-56.8-39.2-36.9,55.2-36.9,55.2Z"/>
        <polygon class="st12" points="1340.2 2628.8 1434.9 2814.6 1434.7 2813.3 1344.9 2629.5 1352.2 2622.1 1345.2 2611.5 1344.3 2612.6 1348.9 2622.1 1340.2 2628.8"/>
        <path class="st8" d="M1437.9,2596.3c.1.5,3.8,16.8,9.1,40.6,0,0,8.8,74.9,27.8,170.5.1.6.2,1.2.4,1.8.1.6.3,1.3.4,1.9l1.3,51.7s6.7,114.1,25.5,149.7c0,0,66.5-16.8,65.1-46.3,0,0-34.6-121.2-36.6-146.7,0,0,.7-35.6,4.7-79.2,0,0,12.1-117.5-21.5-118.2l-47.4-4.8h-1.4c0-.1-.7-.2-.7-.2l-10.2-1-16.4-19.8Z"/>
        <path class="st12" d="M1481.8,2763.8l-7.1,43.6c.1.6.2,1.2.4,1.8,2.7-11.4,6.2-26.8,6.3-26.3,5.6-54.7,12.9-131.7,4.5-160.8l-13.4,4.7-5.8-9.5h-1.4c0-.1-.7-.2-.7-.2l5.2,13.7,12.1-4.7s10.7,16.1,0,137.6Z"/>
        <path class="st3" d="M1478.5,2821.5s0,0,0,0"/>
        <path class="st8" d="M1223.3,2782.4l-18.5,54.9c-6.1,18.2,12.4,34.9,29.9,27.1l26-11.7,12.1-32.2,20.5-57.9,15.7-42.8c20.3-84.4-10.8-91.7-10.8-91.7-17.8-10.7-35.8,47.6-35.8,47.6l-39.1,106.7Z"/>
        <path class="st13" d="M1392.1,2555.6s49.2,46.2,68.7,18.7c0,0,50.5-100.8-4.1-142.7,0,0-46.6-38.4-68.2,15.8,0,0-49.7,52.4,3.6,108.1Z"/>
        <path class="st19" d="M1425.9,2414.3c65.1-5.2,59,105.5,59,105.5-6.8-48-33.5-78.8-47.1-81.3-5.1-.9-10.3.1-14.7,2.9-14.8,9.7-48,41.2-31.6,123.8,0,0,14,51.5-47.8,29.7,0,0-33.7-11.8-24-32.3,0,0,8.1-13.5,1.8-28.1,0,0-3.8-11.6,5.1-24.1,3.1-4.4,4.8-9.7,4.8-15.1,0-8.3.9-20.3,5.9-27.3,2.4-3.3,4.4-6.8,5.9-10.6,1.4-3.7,2.9-8.1,3.9-11.9,1.3-5.2,3.6-10.1,6.9-14.3,6.9-9,19.6-20.6,38-17.4l33.7.6Z"/>
        <path class="st19" d="M1450.6,2431.8s4,30.9-72.5,82.6c-76.5,51.7,15.4-91.3,15.4-91.3l57.1,8.7Z"/>
        <path class="st15" d="M1678.7,2711.2s-11,4.3-26.4,11.3c-.3,13.4,2.6,31.1,14.8,49.7l23.5-13.3s-16.5-30.6-12-47.7Z"/>
        <path class="st5" d="M1660.9,2613.5h0s0,0,0,0Z"/>
        <g>
          <path class="st13" d="M1421.1,2961.6s-6.1,26.8-57.1,1.9l-5.1-5.2-19.8-20-24-14.4-16.9-10.1-4.3-2.6-1.6-1,17.4-32.6s1.7,1.4,4.4,3.5c.8.6,1.7,1.3,2.7,2.1,4.4,3.3,10.2,7.6,16.4,11.7,7.7,5.1,15.8,9.7,21.9,11.5,0,0,19.7-5.5,60.9,15.7-1.4,2.5-3.6,4.4-6.1,5.3-1.2.5-2.5.7-3.8.7-1.4,0-2.9-.2-4.3-.8l-4.6-1.8h0l-10.6-4c.3.2,3.9,2.3,8.6,5.7,10,7.3,25.3,20.5,25.8,34Z"/>
          <path class="st8" d="M1313.8,2928.3c.2-.7.4-1.5.6-2.3,3.4-10.3,14.7-25.3,18.7-30.5.9-1.1,1.4-1.8,1.4-1.8l-17.8-15.2-50.7-43.4-37.1-25.4-20.3,24.4c-8.6,10.4-6.6,25.9,4.3,33.8l22.7,16.3,56.6,31.9,21.5,12.1Z"/>
          <path class="st15" d="M1313.8,2928.3c.2-.7.4-1.5.6-2.3,3.4-10.3,14.7-25.3,18.7-30.5.9-1.1,1.4-1.8,1.4-1.8l-17.8-15.2c-7,7.6-20.3,23.4-24.5,37.7l21.5,12.1Z"/>
        </g>
        <polygon class="st24" points="1536.9 3027.5 1353.2 3027.5 1441.6 2814.5 1625.4 2814.5 1536.9 3027.5"/>
        <path class="st13" d="M1421.1,2961.6s-6.1,26.8-57.1,1.9l-5.1-5.2,35.5-31.4c10,7.3,26.3,21.1,26.7,34.6Z"/>
      </g>
    </g>
    <g>
      <g>
        <path class="st20" d="M3953.4,1507.2h-199.8c-22.2,0-40.2-18-40.2-40.2v-174.3c0-22.2,18-40.2,40.2-40.2h199.8c22.2,0,40.2,18,40.2,40.2v174.3c0,22.2-18,40.2-40.2,40.2Z"/>
        <g>
          <rect class="st8" x="3763.6" y="1272.4" width="179.9" height="214.9" rx="9.3" ry="9.3"/>
          <rect class="st15" x="3781.7" y="1291.5" width="143.7" height="43.6"/>
          <rect class="st15" x="3861.7" y="1397.5" width="26.8" height="27.3"/>
          <rect class="st15" x="3821.7" y="1397.5" width="26.8" height="27.3"/>
          <rect class="st15" x="3781.7" y="1397.5" width="26.8" height="27.3"/>
          <rect class="st15" x="3861.7" y="1354" width="26.8" height="27.3"/>
          <rect class="st15" x="3821.7" y="1354" width="26.8" height="27.3"/>
          <rect class="st15" x="3781.7" y="1354" width="26.8" height="27.3"/>
          <rect class="st15" x="3861.7" y="1440.9" width="26.8" height="27.3"/>
          <rect class="st15" x="3821.7" y="1440.9" width="26.8" height="27.3"/>
          <rect class="st15" x="3781.7" y="1440.9" width="26.8" height="27.3"/>
          <rect class="st15" x="3902.3" y="1354" width="23.1" height="57.1"/>
          <rect class="st25" x="3902.3" y="1424.8" width="23.1" height="43.4"/>
          <path class="st22" d="M3906.8,1324.7v-2.8c-1.7,0-3.4-.5-4.4-1.2l.7-1.9c1,.7,2.5,1.2,4.1,1.2s3.4-1.1,3.4-2.7-1.1-2.5-3.2-3.3c-2.9-1.1-4.7-2.4-4.7-4.8s1.7-4.1,4.3-4.5v-2.8h1.8v2.7c1.7,0,2.9.5,3.7,1l-.7,1.8c-.6-.3-1.8-.9-3.6-.9s-3,1.3-3,2.4,1.1,2.2,3.5,3.2c2.9,1.2,4.4,2.6,4.4,5.1s-1.6,4.3-4.5,4.7v2.9h-1.8Z"/>
        </g>
      </g>
      <g>
        <path class="st20" d="M3191.9,911.3l-199.7,3.8c-22.2.4-40.5-17.2-40.9-39.4l-3.3-174.3c-.4-22.2,17.2-40.5,39.4-40.9l199.7-3.8c22.2-.4,40.5,17.2,40.9,39.4l3.3,174.3c.4,22.2-17.2,40.5-39.4,40.9Z"/>
        <g>
          <path class="st8" d="M3167,753.6c-4.2-9.9-10.3-18.8-18-26.4-7.7-7.6-16.7-13.6-26.7-17.8-10.4-4.3-21.4-6.5-32.7-6.5s-22.3,2.2-32.7,6.5c-10,4.2-19,10.2-26.7,17.8-7.7,7.6-13.8,16.5-18,26.4-4.4,10.2-6.6,21.1-6.6,32.3s2.2,22.1,6.6,32.3c4.2,9.9,10.3,18.8,18,26.4,7.7,7.6,16.7,13.6,26.7,17.8,10.4,4.3,21.4,6.5,32.7,6.5s22.3-2.2,32.7-6.5c10-4.2,19-10.2,26.7-17.8,7.7-7.6,13.8-16.5,18-26.4,4.4-10.2,6.6-21.1,6.6-32.3s-2.2-22.1-6.6-32.3ZM3089.5,862.2c-42.6,0-77.2-34.1-77.2-76.3s34.6-76.3,77.2-76.3,77.2,34.1,77.2,76.3-34.6,76.3-77.2,76.3Z"/>
          <rect class="st8" x="3084.6" y="702.9" width="9.9" height="9.8"/>
          <rect class="st8" x="3084.6" y="856.2" width="9.9" height="9.8"/>
          <rect class="st8" x="3161.7" y="781.5" width="9.8" height="9.9" transform="translate(3960.7 -2378.3) rotate(90.1)"/>
          <rect class="st8" x="3006.4" y="780.8" width="9.8" height="9.9" transform="translate(3804.2 -2223.6) rotate(90.1)"/>
          <path class="st8" d="M3074.3,779h0c.7-1.5,2-2.5,2.7-2.1l61.9,29.6,5,6.1h0l-7.7-.6-61.9-29.6c-.8-.4-.8-1.9,0-3.4Z"/>
          <path class="st8" d="M3089.7,799.5h0c-1.7,0-3.1-.4-3.1-.9l-.3-39.4,3.3-6.8h0l3,6.8.3,39.4c0,.5-1.4.9-3.1.9Z"/>
          <ellipse class="st8" cx="3089.5" cy="786.6" rx="8.3" ry="8.2"/>
        </g>
      </g>
      <g>
        <path class="st20" d="M4525.4,2141.2h-199.8c-22.2,0-40.2-18-40.2-40.2v-174.3c0-22.2,18-40.2,40.2-40.2h199.8c22.2,0,40.2,18,40.2,40.2v174.3c0,22.2-18,40.2-40.2,40.2Z"/>
        <path class="st8" d="M4418.8,2093.8v-19.7c-11.6-.2-23.5-3.7-30.5-8.6l4.8-13c7.2,4.7,17.5,8.4,28.7,8.4s23.7-8,23.7-19.1-7.8-17.3-22.5-23.2c-20.3-7.8-32.9-16.7-32.9-33.7s11.8-28.4,30.1-31.3v-19.7h12.3v18.9c12,.4,20.1,3.5,25.9,6.8l-5,12.8c-4.2-2.3-12.3-6.6-25.1-6.6s-21.1,9-21.1,16.7,7.4,15.2,24.7,22.2c20.5,8.2,30.9,18.3,30.9,35.6s-11,29.8-31.5,33.1v20.2h-12.5Z"/>
      </g>
      <g>
        <path class="st20" d="M790.4,2601.2h-199.8c-22.2,0-40.2-18-40.2-40.2v-174.3c0-22.2,18-40.2,40.2-40.2h199.8c22.2,0,40.2,18,40.2,40.2v174.3c0,22.2-18,40.2-40.2,40.2Z"/>
        <g>
          <path class="st9" d="M771.5,2468.9c-6.2-8.1-15.1-12.2-26.7-12.2s-1.2,0-1.8,0c-.6,0-1.1,0-1.7,0-23.7,0-35.5,15.7-35.5,47.1s3.1,27,9.3,35.2c6.2,8.1,14.9,12.2,26.3,12.2.6,0,1.2,0,1.8,0,.6,0,1.1,0,1.7,0,11.8,0,20.8-4,26.9-11.9,6.1-7.9,9.2-19.8,9.2-35.5s-3.1-26.7-9.3-34.9ZM737.5,2523.5c-1.5-4.3-2.3-10.8-2.3-19.5s.8-15.2,2.3-19.4c1.3-3.5,3.2-5.5,5.7-6.1,5.5,1.4,8.2,9.9,8.2,25.5s-2.7,24.3-8.2,25.7c-2.5-.6-4.4-2.7-5.7-6.2Z"/>
          <polygon class="st9" points="742.8 2398.7 721.5 2398.7 718 2398.7 634.5 2549.3 637.9 2549.3 659.2 2549.3 662.7 2549.3 746.2 2398.7 742.8 2398.7"/>
          <path class="st9" d="M637.6,2491.1c.6,0,1.1,0,1.7,0,11.8,0,20.8-4,26.9-11.9,6.1-7.9,9.2-19.8,9.2-35.6s-3.1-26.7-9.3-34.9c-6.2-8.1-15.1-12.2-26.7-12.2s-1.2,0-1.8,0c-.6,0-1.1,0-1.7,0-23.7,0-35.5,15.7-35.5,47.1s3.1,27.1,9.3,35.3c6.2,8.1,14.9,12.2,26.3,12.2s1.2,0,1.8,0ZM632,2463.4c-1.5-4.3-2.3-10.8-2.3-19.5s.8-15.2,2.3-19.4c1.3-3.5,3.2-5.5,5.7-6.1,5.5,1.4,8.2,9.9,8.2,25.5s-2.7,24.3-8.2,25.7c-2.5-.6-4.4-2.7-5.7-6.2Z"/>
        </g>
      </g>
    </g>
  </g>
</svg>