<?xml version="1.0" encoding="UTF-8"?>
<!DOCTYPE svg PUBLIC "-//W3C//DTD SVG 1.1//EN" "http://www.w3.org/Graphics/SVG/1.1/DTD/svg11.dtd">
<!-- Creator: CorelDRAW 2019 (64-Bit) -->
<svg xmlns="http://www.w3.org/2000/svg" xml:space="preserve" width="496px" height="351px" version="1.1" style="shape-rendering:geometricPrecision; text-rendering:geometricPrecision; image-rendering:optimizeQuality; fill-rule:evenodd; clip-rule:evenodd"
viewBox="0 0 26.77 18.95"
 xmlns:xlink="http://www.w3.org/1999/xlink">
 <defs>
  <style type="text/css">
   <![CDATA[
    .str0 {stroke:#FCC200;stroke-width:0.01;stroke-miterlimit:22.9256}
    .fil42 {fill:none}
    .fil17 {fill:#2D343A}
    .fil28 {fill:#315891}
    .fil14 {fill:#343D44}
    .fil13 {fill:#384148}
    .fil30 {fill:#3A69A1}
    .fil29 {fill:#487C7B}
    .fil10 {fill:#5477AD}
    .fil7 {fill:#597CB4}
    .fil12 {fill:#647184}
    .fil22 {fill:#79A8D4}
    .fil43 {fill:#804C0C}
    .fil2 {fill:#82A5CF}
    .fil69 {fill:#992819}
    .fil19 {fill:#9EBEFF}
    .fil39 {fill:#A1C8E5}
    .fil20 {fill:#B0D3F1}
    .fil33 {fill:#B55812}
    .fil41 {fill:#BA5700}
    .fil25 {fill:#BED8EF}
    .fil9 {fill:#C0D3F4}
    .fil77 {fill:#C76802}
    .fil38 {fill:#CAE4F9}
    .fil40 {fill:#D1803E}
    .fil45 {fill:#D58E02}
    .fil37 {fill:#DA7C2A}
    .fil24 {fill:#DBEBFA}
    .fil34 {fill:#DD7828}
    .fil32 {fill:#DD7923}
    .fil11 {fill:#E4522B}
    .fil26 {fill:#E47929}
    .fil67 {fill:#E78314}
    .fil75 {fill:#EB9219}
    .fil4 {fill:#F09A47}
    .fil27 {fill:#F1FFFF}
    .fil48 {fill:#F3AC04}
    .fil35 {fill:#F49B46}
    .fil15 {fill:#F4B30F}
    .fil57 {fill:#F5E61B}
    .fil54 {fill:#F5E724}
    .fil55 {fill:#F5ED20}
    .fil53 {fill:#F6E91F}
    .fil52 {fill:#F8F328}
    .fil65 {fill:#F98202}
    .fil47 {fill:#F9C100}
    .fil46 {fill:#F9EC22}
    .fil36 {fill:#FBD3B1}
    .fil56 {fill:#FBEF29}
    .fil60 {fill:#FCC200}
    .fil21 {fill:#FDB964}
    .fil63 {fill:#FDBC0A}
    .fil64 {fill:#FDC202}
    .fil61 {fill:#FDC30A}
    .fil5 {fill:#FEC26C}
    .fil16 {fill:#FEE969}
    .fil31 {fill:#FEE9D4}
    .fil49 {fill:#FEF0A5}
    .fil73 {fill:#FF8B09}
    .fil71 {fill:#FF9A01}
    .fil68 {fill:#FF9F00}
    .fil23 {fill:#FFBA64}
    .fil74 {fill:#FFBC02}
    .fil70 {fill:#FFBC03}
    .fil62 {fill:#FFBD0C}
    .fil72 {fill:#FFD173}
    .fil18 {fill:#FFDC50}
    .fil58 {fill:#FFE320}
    .fil66 {fill:#FFE44F}
    .fil51 {fill:#FFE726}
    .fil44 {fill:#FFEB13}
    .fil59 {fill:#FFEC31}
    .fil50 {fill:#FFEF29}
    .fil76 {fill:#FFF196}
    .fil8 {fill:#FFFDFE}
    .fil3 {fill:white}
    .fil1 {fill:#73CCD8;fill-rule:nonzero}
    .fil6 {fill:#597CB4;fill-opacity:0.250980}
    .fil0 {fill:url(#id0)}
   ]]>
  </style>
  <linearGradient id="id0" gradientUnits="userSpaceOnUse" x1="22.56" y1="18" x2="-13.02" y2="-16.03">
   <stop offset="0" style="stop-opacity:1; stop-color:white"/>
   <stop offset="1" style="stop-opacity:1; stop-color:#0CB7E7"/>
  </linearGradient>
 </defs>
 <g id="Layer_x0020_1">
  <metadata id="CorelCorpID_0Corel-Layer"/>
  <g id="_2083425585408">
   <path class="fil0" d="M19.74 18.48c1.37,0 2.79,-0.12 3.98,-0.47 4.77,-1.39 3.27,-7.7 0.04,-9.99 -1.43,-1.01 -0.08,-1.64 -1.07,-4.45 -0.65,-1.87 -2.5,-2.73 -4.41,-2.73 -0.59,0 -1.17,0.08 -1.73,0.23 -0.36,0.1 -0.66,0.17 -0.99,0.17 -0.6,0 -1.31,-0.21 -2.77,-0.8 -0.74,-0.3 -1.56,-0.44 -2.38,-0.44 -1.6,0 -3.18,0.53 -4.09,1.46 -1.44,1.47 -0.18,3.5 -2.74,4.36 -1.99,0.67 -3.25,2.8 -2.81,5.76 0.13,0.86 0.33,2.25 0.26,2.66 -2.17,2.72 -2.35,4.22 14.48,3.92 1.09,0.15 2.63,0.32 4.23,0.32z"/>
   <path class="fil1" d="M13.77 18.94c-7.25,0 -13.13,-0.22 -13.13,-0.49 0,-0.21 3.3,-0.38 8.01,-0.46 -0.03,0.12 0.09,0.17 0.22,0.17 0.14,0 0.29,-0.06 0.33,-0.17 1.42,-0.02 2.96,-0.03 4.57,-0.03 0.69,0 11.94,-0.16 12.51,0.45 0.6,0.63 -11.14,0.53 -12.51,0.53z"/>
   <g>
    <path class="fil2" d="M23.54 2.73l0 15.11c0,0.3 -0.24,0.54 -0.54,0.54l-11.02 0c-0.04,0 -0.07,0 -0.1,-0.01 -0.25,-0.04 -0.44,-0.26 -0.44,-0.53l0 -15.11c0,-0.3 0.24,-0.54 0.54,-0.54l11.02 0c0.29,0 0.52,0.21 0.54,0.49 0,0.01 0,0.03 0,0.05z"/>
    <rect class="fil3" transform="matrix(-2.30119E-08 0.0526258 -0.0526259 -2.30119E-08 22.6574 3.07322)" width="274.08" height="196.38"/>
    <path class="fil4" d="M20.6 2.43l0 0.26c0,0.45 -0.36,0.81 -0.81,0.81l-4.6 0c-0.45,0 -0.81,-0.36 -0.81,-0.81l0 -0.26c0,0.45 0.36,0.82 0.81,0.82l4.6 0c0.45,0 0.81,-0.37 0.81,-0.82z"/>
    <path class="fil5" d="M20.6 2.23l0 0.2c0,0.45 -0.36,0.82 -0.81,0.82l-4.6 0c-0.45,0 -0.81,-0.37 -0.81,-0.82l0 -0.2c0,-0.16 0.12,-0.28 0.27,-0.28l0.39 0c0.07,0 0.14,-0.03 0.19,-0.07 0.04,-0.05 0.07,-0.12 0.07,-0.19 0,-0.29 0.24,-0.53 0.53,-0.53l3.32 0c0.29,0 0.53,0.24 0.53,0.53 0,0.15 0.11,0.26 0.26,0.26l0.39 0c0.15,0 0.27,0.12 0.27,0.28z"/>
    <path class="fil6" d="M20.7 3.07c-0.15,0.36 -0.5,0.61 -0.91,0.61l-4.6 0c-0.41,0 -0.76,-0.25 -0.91,-0.61l6.42 0z"/>
    <path class="fil7" d="M20.78 2.23l0 0.46c0,0.14 -0.03,0.27 -0.08,0.38l-6.42 0c-0.05,-0.11 -0.08,-0.24 -0.08,-0.38l0 -0.46c0,-0.02 0,-0.03 0,-0.04l6.58 0c0,0.01 0,0.02 0,0.04z"/>
    <path class="fil5" d="M20.33 1.95l-0.39 0c-0.15,0 -0.26,-0.11 -0.26,-0.26 0,-0.29 -0.24,-0.53 -0.53,-0.53l-3.32 0c-0.29,0 -0.53,0.24 -0.53,0.53 0,0.07 -0.03,0.14 -0.07,0.19 -0.05,0.04 -0.12,0.07 -0.19,0.07l-0.39 0c-0.15,0 -0.27,0.12 -0.27,0.28l0 0.2 0 0.26c0,0.45 0.36,0.81 0.81,0.81l4.6 0c0.45,0 0.81,-0.36 0.81,-0.81l0 -0.26 0 -0.2c0,-0.16 -0.12,-0.28 -0.27,-0.28z"/>
    <rect class="fil4" transform="matrix(-9.66721E-18 0.0526258 -0.0526259 -9.6672E-18 19.1101 1.73113)" width="13.08" height="61.57"/>
    <rect class="fil8" transform="matrix(-9.66721E-18 0.0526258 -0.0526259 -9.6672E-18 18.9626 1.87863)" width="7.47" height="55.96"/>
    <g>
     <g>
      <g>
       <path class="fil9" d="M15.63 7.66l-2.87 0c-0.01,0 -0.02,-0.01 -0.02,-0.02l0 -0.39c0,-0.01 0.01,-0.02 0.02,-0.02l2.87 0c0.02,0 0.02,0.01 0.02,0.02l0 0.39c0,0.01 0,0.02 -0.02,0.02z"/>
       <path class="fil9" d="M16.26 7.66l5.96 0c0.01,0 0.02,-0.01 0.02,-0.02l0 -0.39c0,-0.01 -0.01,-0.02 -0.02,-0.02l-5.96 0c-0.02,0 -0.02,0.01 -0.02,0.02l0 0.39c0,0.01 0,0.02 0.02,0.02z"/>
      </g>
      <g>
       <path class="fil9" d="M17.07 6.79l-4.31 0c-0.01,0 -0.02,-0.01 -0.02,-0.02l0 -0.39c0,-0.01 0.01,-0.02 0.02,-0.02l4.31 0c0.01,0 0.02,0.01 0.02,0.02l0 0.39c0,0.01 -0.01,0.02 -0.02,0.02z"/>
       <path class="fil9" d="M17.83 6.79l4.39 0c0.01,0 0.02,-0.01 0.02,-0.02l0 -0.39c0,-0.01 -0.01,-0.02 -0.02,-0.02l-4.39 0c-0.01,0 -0.02,0.01 -0.02,0.02l0 0.39c0,0.01 0.01,0.02 0.02,0.02z"/>
      </g>
      <g>
       <path class="fil9" d="M18.91 5.92l-5.02 0c-0.01,0 -0.02,-0.01 -0.02,-0.02l0 -0.39c0,-0.01 0.01,-0.02 0.02,-0.02l5.02 0c0.01,0 0.02,0.01 0.02,0.02l0 0.39c0,0.01 -0.01,0.02 -0.02,0.02z"/>
       <path class="fil9" d="M19.47 5.92l2.75 0c0.01,0 0.02,-0.01 0.02,-0.02l0 -0.39c0,-0.01 -0.01,-0.02 -0.02,-0.02l-2.75 0c-0.01,0 -0.01,0.01 -0.01,0.02l0 0.39c0,0.01 0,0.02 0.01,0.02z"/>
      </g>
      <g>
       <path class="fil9" d="M18.21 8.53l-2.7 0c-0.02,0 -0.02,-0.01 -0.02,-0.02l0 -0.39c0,-0.01 0,-0.02 0.02,-0.02l2.7 0c0.01,0 0.02,0.01 0.02,0.02l0 0.39c0,0.01 -0.01,0.02 -0.02,0.02z"/>
       <path class="fil9" d="M14.98 8.53l-2.22 0c-0.01,0 -0.02,-0.01 -0.02,-0.02l0 -0.39c0,-0.01 0.01,-0.02 0.02,-0.02l2.22 0c0.01,0 0.02,0.01 0.02,0.02l0 0.39c0,0.01 -0.01,0.02 -0.02,0.02z"/>
       <path class="fil9" d="M22.22 8.53l-3.37 0c-0.01,0 -0.02,-0.01 -0.02,-0.02l0 -0.39c0,-0.01 0.01,-0.02 0.02,-0.02l3.37 0c0.01,0 0.02,0.01 0.02,0.02l0 0.39c0,0.01 -0.01,0.02 -0.02,0.02z"/>
      </g>
      <g>
       <path class="fil9" d="M16.94 9.4l-4.18 0c-0.01,0 -0.02,-0.01 -0.02,-0.02l0 -0.39c0,-0.01 0.01,-0.02 0.02,-0.02l4.18 0c0.01,0 0.01,0.01 0.01,0.02l0 0.39c0,0.01 0,0.02 -0.01,0.02z"/>
       <path class="fil9" d="M22.22 9.4l-4.71 0c-0.01,0 -0.02,-0.01 -0.02,-0.02l0 -0.39c0,-0.01 0.01,-0.02 0.02,-0.02l4.71 0c0.01,0 0.02,0.01 0.02,0.02l0 0.39c0,0.01 -0.01,0.02 -0.02,0.02z"/>
      </g>
      <g>
       <path class="fil9" d="M22.22 10.27l-2.56 0c-0.01,0 -0.02,-0.01 -0.02,-0.02l0 -0.39c0,-0.01 0.01,-0.02 0.02,-0.02l2.56 0c0.01,0 0.02,0.01 0.02,0.02l0 0.39c0,0.01 -0.01,0.02 -0.02,0.02z"/>
       <path class="fil9" d="M18.88 10.27l-6.12 0c-0.01,0 -0.02,-0.01 -0.02,-0.02l0 -0.39c0,-0.01 0.01,-0.02 0.02,-0.02l6.12 0c0.01,0 0.02,0.01 0.02,0.02l0 0.39c0,0.01 -0.01,0.02 -0.02,0.02z"/>
      </g>
      <g>
       <path class="fil9" d="M16.77 12.87l2.7 0c0.02,0 0.02,0 0.02,-0.01l0 -0.4c0,-0.01 0,-0.02 -0.02,-0.02l-2.7 0c-0.01,0 -0.02,0.01 -0.02,0.02l0 0.4c0,0.01 0.01,0.01 0.02,0.01z"/>
       <path class="fil9" d="M20 12.87l2.22 0c0.01,0 0.02,0 0.02,-0.01l0 -0.4c0,-0.01 -0.01,-0.02 -0.02,-0.02l-2.22 0c-0.01,0 -0.02,0.01 -0.02,0.02l0 0.4c0,0.01 0.01,0.01 0.02,0.01z"/>
       <path class="fil9" d="M12.76 12.87l3.37 0c0.01,0 0.02,0 0.02,-0.01l0 -0.4c0,-0.01 -0.01,-0.02 -0.02,-0.02l-3.37 0c-0.01,0 -0.02,0.01 -0.02,0.02l0 0.4c0,0.01 0.01,0.01 0.02,0.01z"/>
      </g>
      <g>
       <path class="fil9" d="M18.05 13.74l4.17 0c0.01,0 0.02,-0.01 0.02,-0.02l0 -0.39c0,-0.01 -0.01,-0.02 -0.02,-0.02l-4.17 0c-0.02,0 -0.02,0.01 -0.02,0.02l0 0.39c0,0.01 0,0.02 0.02,0.02z"/>
       <path class="fil9" d="M12.76 13.74l4.71 0c0.01,0 0.02,-0.01 0.02,-0.02l0 -0.39c0,-0.01 -0.01,-0.02 -0.02,-0.02l-4.71 0c-0.01,0 -0.02,0.01 -0.02,0.02l0 0.39c0,0.01 0.01,0.02 0.02,0.02z"/>
      </g>
      <g>
       <path class="fil9" d="M12.76 14.61l2.56 0c0.01,0 0.02,-0.01 0.02,-0.02l0 -0.39c0,-0.01 -0.01,-0.02 -0.02,-0.02l-2.56 0c-0.01,0 -0.02,0.01 -0.02,0.02l0 0.39c0,0.01 0.01,0.02 0.02,0.02z"/>
       <path class="fil9" d="M16.1 14.61l6.12 0c0.01,0 0.02,-0.01 0.02,-0.02l0 -0.39c0,-0.01 -0.01,-0.02 -0.02,-0.02l-6.12 0c-0.01,0 -0.02,0.01 -0.02,0.02l0 0.39c0,0.01 0.01,0.02 0.02,0.02z"/>
      </g>
      <path class="fil9" d="M22.22 11.14l-9.46 0c-0.01,0 -0.02,-0.01 -0.02,-0.02l0 -0.4c0,-0.01 0.01,-0.01 0.02,-0.01l9.46 0c0.01,0 0.02,0 0.02,0.01l0 0.4c0,0.01 -0.01,0.02 -0.02,0.02z"/>
      <g>
       <path class="fil9" d="M14.67 12l-1.91 0c-0.01,0 -0.02,0 -0.02,-0.01l0 -0.4c0,-0.01 0.01,-0.01 0.02,-0.01l1.91 0c0.01,0 0.01,0 0.01,0.01l0 0.4c0,0.01 0,0.01 -0.01,0.01z"/>
       <path class="fil9" d="M22.22 12l-6.99 0c-0.01,0 -0.02,0 -0.02,-0.01l0 -0.4c0,-0.01 0.01,-0.01 0.02,-0.01l6.99 0c0.01,0 0.02,0 0.02,0.01l0 0.4c0,0.01 -0.01,0.01 -0.02,0.01z"/>
      </g>
     </g>
     <g>
      <g>
       <path class="fil10" d="M20.11 17c-0.03,0 -0.06,-0.02 -0.1,-0.05 -0.12,-0.11 -0.15,-0.28 -0.16,-0.45 -0.06,0.07 -0.11,0.13 -0.17,0.19l-0.03 -0.03c0.07,-0.07 0.13,-0.15 0.2,-0.22 -0.01,-0.23 0,-0.45 0.03,-0.68 0.02,-0.13 0.04,-0.28 0.1,-0.41 0.02,-0.04 0.05,-0.1 0.1,-0.14 0.06,-0.04 0.13,-0.05 0.18,-0.01 0.06,0.04 0.07,0.11 0.08,0.16 0.04,0.29 -0.08,0.56 -0.18,0.73 -0.08,0.13 -0.17,0.25 -0.27,0.37 0.01,0.16 0.03,0.35 0.15,0.46 0.03,0.02 0.05,0.04 0.07,0.03 0.04,0 0.06,-0.03 0.09,-0.06 0.1,-0.15 0.18,-0.31 0.24,-0.48 0,-0.05 0.02,-0.1 0.04,-0.15l0.04 0.02c-0.01,0.04 -0.03,0.09 -0.04,0.14 -0.01,0.05 0,0.1 0,0.14 0.01,0.03 0.03,0.11 0.09,0.12 0.05,0.01 0.1,-0.02 0.15,-0.1l0.22 -0.33 -0.03 0.12c-0.01,0.04 -0.03,0.14 0.03,0.16 0.03,0.01 0.07,-0.01 0.11,-0.03 0.04,-0.02 0.08,-0.04 0.13,-0.04l0.02 0 0 0.03c0,0.01 -0.02,0.12 0.04,0.13 0.02,0.01 0.04,-0.01 0.08,-0.04 0.02,-0.02 0.05,-0.05 0.09,-0.06l0.01 0.05c-0.03,0 -0.05,0.02 -0.07,0.04 -0.04,0.03 -0.07,0.07 -0.12,0.06 -0.07,-0.02 -0.09,-0.09 -0.08,-0.16 -0.02,0 -0.05,0.01 -0.08,0.03 -0.04,0.02 -0.09,0.05 -0.15,0.03 -0.04,-0.02 -0.06,-0.06 -0.06,-0.12l-0.1 0.15c-0.04,0.06 -0.11,0.14 -0.2,0.13 -0.06,-0.01 -0.1,-0.07 -0.12,-0.16 0,-0.01 0,-0.02 0,-0.03 -0.06,0.13 -0.13,0.25 -0.21,0.37 -0.02,0.04 -0.06,0.09 -0.12,0.09 0,0 0,0 0,0zm0.08 -1.78c-0.03,0 -0.06,0.01 -0.08,0.02 -0.05,0.04 -0.08,0.09 -0.09,0.13 -0.06,0.12 -0.08,0.26 -0.1,0.4 -0.02,0.2 -0.03,0.41 -0.03,0.62 0.09,-0.1 0.17,-0.2 0.23,-0.32 0.1,-0.17 0.21,-0.43 0.18,-0.71 -0.01,-0.06 -0.03,-0.11 -0.06,-0.13 -0.02,-0.01 -0.04,-0.01 -0.05,-0.01z"/>
      </g>
     </g>
    </g>
    <g>
     <g>
      <polygon class="fil11" points="14.92,5.01 14.92,4.61 14.72,4.93 14.63,4.93 14.44,4.62 14.44,5.01 14.24,5.01 14.24,4.25 14.41,4.25 14.68,4.69 14.94,4.25 15.11,4.25 15.12,5.01 "/>
      <path class="fil11" d="M15.23 4.63c0,-0.23 0.18,-0.39 0.42,-0.39 0.24,0 0.42,0.16 0.42,0.39 0,0.23 -0.18,0.39 -0.42,0.39 -0.24,0 -0.42,-0.16 -0.42,-0.39zm0.62 0c0,-0.13 -0.09,-0.22 -0.2,-0.22 -0.12,0 -0.21,0.09 -0.21,0.22 0,0.13 0.09,0.21 0.21,0.21 0.11,0 0.2,-0.08 0.2,-0.21z"/>
      <path class="fil11" d="M16.51 4.81l-0.12 0 0 0.2 -0.21 0 0 -0.76 0.34 0c0.21,0 0.34,0.11 0.34,0.28 0,0.11 -0.05,0.19 -0.15,0.24l0.16 0.24 -0.22 0 -0.14 -0.2zm0 -0.39l-0.12 0 0 0.22 0.12 0c0.09,0 0.13,-0.04 0.13,-0.11 0,-0.07 -0.04,-0.11 -0.13,-0.11z"/>
      <polygon class="fil11" points="17.13,4.42 16.89,4.42 16.89,4.25 17.57,4.25 17.57,4.42 17.34,4.42 17.34,5.01 17.13,5.01 17.13,4.42 "/>
      <path class="fil11" d="M18.14 4.61l0.19 0 0 0.32c-0.08,0.06 -0.2,0.09 -0.31,0.09 -0.24,0 -0.42,-0.16 -0.42,-0.39 0,-0.23 0.18,-0.39 0.42,-0.39 0.14,0 0.26,0.05 0.33,0.13l-0.14 0.13c-0.05,-0.06 -0.11,-0.09 -0.18,-0.09 -0.13,0 -0.21,0.09 -0.21,0.22 0,0.13 0.08,0.21 0.21,0.21 0.04,0 0.08,0 0.11,-0.02l0 -0.21 0 0z"/>
      <path class="fil11" d="M18.97 4.86l-0.31 0 -0.06 0.15 -0.22 0 0.33 -0.76 0.21 0 0.34 0.76 -0.23 0 -0.06 -0.15zm-0.06 -0.16l-0.09 -0.24 -0.1 0.24 0.19 0z"/>
      <path class="fil11" d="M19.81 4.61l0.19 0 0 0.32c-0.09,0.06 -0.21,0.09 -0.32,0.09 -0.24,0 -0.41,-0.16 -0.41,-0.39 0,-0.23 0.17,-0.39 0.42,-0.39 0.14,0 0.25,0.05 0.33,0.13l-0.14 0.13c-0.05,-0.06 -0.11,-0.09 -0.18,-0.09 -0.13,0 -0.22,0.09 -0.22,0.22 0,0.13 0.09,0.21 0.22,0.21 0.04,0 0.07,0 0.11,-0.02l0 -0.21 0 0z"/>
      <polygon class="fil11" points="20.74,4.84 20.74,5.01 20.14,5.01 20.14,4.25 20.73,4.25 20.73,4.42 20.35,4.42 20.35,4.54 20.68,4.54 20.68,4.7 20.35,4.7 20.35,4.84 20.74,4.84 "/>
     </g>
    </g>
   </g>
   <g>
    <g>
     <path class="fil12" d="M22.88 17.99l0.2 0.02 -0.04 0.29c0,0 0,0.01 0,0.01l-0.19 -0.02c-0.01,-0.01 0,-0.01 0,-0.02l0.03 -0.28z"/>
     <path class="fil13" d="M22.85 18.29l0.19 0.02c-0.01,0.05 -0.06,0.08 -0.11,0.07 -0.02,0 -0.05,-0.02 -0.06,-0.04 -0.02,-0.01 -0.02,-0.03 -0.02,-0.05z"/>
     <path class="fil14" d="M22.76 16.8l0.73 0.09 -0.27 1.05c-0.01,0.05 -0.06,0.08 -0.11,0.08l-0.26 -0.03c-0.05,-0.01 -0.09,-0.06 -0.09,-0.11l0 -1.08z"/>
     <polygon class="fil12" points="22.99,12.27 23.94,12.38 23.31,16.1 22.72,16.03 "/>
     <polygon class="fil14" points="23.94,12.38 24.35,12.43 23.71,16.15 23.31,16.1 "/>
     <polygon class="fil15" points="23.31,16.1 23.71,16.15 23.63,16.59 23.24,16.54 "/>
     <polygon class="fil16" points="22.72,16.03 23.31,16.1 23.24,16.54 22.68,16.47 "/>
     <path class="fil12" d="M22.68 16.47l0.95 0.12 -0.03 0.22c-0.01,0.05 -0.06,0.09 -0.12,0.08l-0.72 -0.09c-0.06,0 -0.1,-0.05 -0.09,-0.1l0.01 -0.23z"/>
     <path class="fil14" d="M24.13 5.34l0.79 0.1c0.15,0.02 0.27,0.16 0.25,0.32l-0.76 6.22 -0.41 -0.05 0.72 -5.88c0,-0.06 -0.04,-0.12 -0.1,-0.13l-0.84 -0.1 0.03 -0.22c0.02,-0.16 0.16,-0.28 0.32,-0.26z"/>
     <path class="fil12" d="M23.78 5.82l0.84 0.1c0.06,0.01 0.1,0.07 0.1,0.13l-0.72 5.88 -0.95 -0.12 0.73 -5.99z"/>
     <rect class="fil16" transform="matrix(0.00639404 -0.0522363 0.0522364 0.00639403 22.9912 12.2648)" width="8.67" height="18.2"/>
     <rect class="fil15" transform="matrix(0.00639404 -0.0522363 0.0522364 0.00639403 23.9418 12.3812)" width="8.67" height="7.83"/>
     <path class="fil17" d="M24.44 4.54l0.36 0.05c0.12,0.01 0.21,0.12 0.19,0.24l-0.04 0.31 -0.78 -0.1 0.04 -0.31c0.01,-0.12 0.12,-0.2 0.23,-0.19z"/>
     <rect class="fil12" transform="matrix(0.00639404 -0.0522363 0.0522364 0.00639403 24.13 5.34314)" width="5.73" height="15.04"/>
    </g>
    <g>
     <path class="fil18" d="M23.63 6.07l-0.06 0.51c-0.07,0.01 -0.13,0.07 -0.14,0.14l-0.47 3.83 -0.05 -0.01c-0.06,0 -0.11,-0.07 -0.11,-0.14l0.4 -3.85 0.02 -0.13c0.02,-0.21 0.2,-0.36 0.41,-0.35z"/>
     <path class="fil15" d="M23.66 6.07l0.09 0.01 -0.06 0.5 -0.07 -0.01c-0.02,0 -0.04,0 -0.05,0.01l0.06 -0.51c0.01,0 0.02,0 0.03,0z"/>
    </g>
   </g>
   <g>
    <rect class="fil19" x="1.61" y="11.8" width="6.82" height="6.58"/>
    <polygon class="fil20" points="7.3,11.31 7.3,11.8 6.16,11.8 6.16,18.38 1.61,18.38 1.61,11.31 "/>
    <rect class="fil3" x="1.48" y="18.2" width="13.88" height="0.18"/>
    <rect class="fil21" x="1.34" y="18.21" width="14.16" height="0.18"/>
    <rect class="fil22" x="1.61" y="11.31" width="5.7" height="0.35"/>
    <polygon class="fil23" points="11.02,8.63 11.02,6.98 4.13,6.98 4.13,6.98 4.13,6.98 1.04,11.31 11.02,11.31 "/>
    <rect class="fil22" x="6.16" y="11.66" width="2.26" height="6.72"/>
    <polygon class="fil24" points="14.99,10.49 14.99,18.38 6.52,18.38 6.52,10.52 10.77,6.68 "/>
    <polygon class="fil25" points="14.99,10.49 14.99,10.97 14.75,10.76 10.77,7.16 6.76,10.79 6.52,11 6.52,10.52 10.77,6.68 "/>
    <polygon class="fil26" points="16.19,10.69 15.21,10.69 14.99,10.49 10.77,6.68 6.52,10.52 6.34,10.69 5.36,10.69 6.52,9.64 10.28,6.24 10.68,5.88 10.77,5.8 10.86,5.88 11.26,6.24 14.99,9.61 "/>
    <rect class="fil21" x="6" y="18.21" width="9.5" height="0.18"/>
    <g>
     <g>
      <rect class="fil27" x="11.55" y="13.44" width="2.73" height="4.76"/>
      <rect class="fil28" x="11.74" y="13.62" width="2.37" height="4.58"/>
     </g>
     <rect class="fil27" x="12.03" y="15.6" width="0.13" height="0.41"/>
    </g>
    <g>
     <rect class="fil27" x="9.45" y="9.78" width="2.6" height="2.68"/>
     <polygon class="fil28" points="10.68,11.19 10.68,12.08 9.76,11.19 "/>
     <polygon class="fil28" points="10.28,12.28 9.63,12.28 9.6,12.24 9.6,11.62 "/>
     <polygon class="fil28" points="10.68,9.92 10.68,10.04 10.56,9.92 "/>
     <polygon class="fil28" points="10.65,11.01 9.6,11.01 9.6,9.99 "/>
     <polygon class="fil29" points="11.91,11.19 11.91,11.23 11.87,11.19 "/>
     <polygon class="fil28" points="11.91,12.22 11.91,12.28 10.89,12.28 10.82,12.22 10.82,11.19 10.84,11.19 "/>
     <polygon class="fil28" points="11.91,9.92 11.91,11.01 11.68,11.01 10.82,10.18 10.82,9.92 "/>
     <polygon class="fil30" points="9.63,12.28 9.6,12.28 9.6,12.24 "/>
     <polygon class="fil29" points="10.89,12.28 10.82,12.28 10.82,12.22 "/>
     <polygon class="fil30" points="10.68,12.08 10.68,12.28 10.28,12.28 9.6,11.62 9.6,11.19 9.76,11.19 "/>
     <polygon class="fil30" points="10.68,10.04 10.68,11.01 10.65,11.01 9.6,9.99 9.6,9.92 10.56,9.92 "/>
     <polygon class="fil30" points="11.68,11.01 10.82,11.01 10.82,10.18 "/>
     <polygon class="fil30" points="11.91,11.23 11.91,12.22 10.84,11.19 11.87,11.19 "/>
     <polygon class="fil27" points="11.68,11.01 11.87,11.19 10.84,11.19 10.65,11.01 10.68,11.01 10.68,10.04 10.82,10.18 10.82,11.01 "/>
    </g>
    <g>
     <rect class="fil27" x="7.78" y="13.44" width="2.6" height="2.68"/>
     <polygon class="fil28" points="9.01,14.85 9.01,15.74 8.09,14.85 "/>
     <polygon class="fil28" points="8.6,15.94 7.96,15.94 7.92,15.9 7.92,15.28 "/>
     <polygon class="fil28" points="9.01,13.58 9.01,13.7 8.88,13.58 "/>
     <polygon class="fil28" points="8.98,14.67 7.92,14.67 7.92,13.65 "/>
     <polygon class="fil29" points="10.23,14.85 10.23,14.89 10.19,14.85 "/>
     <polygon class="fil28" points="10.23,15.88 10.23,15.94 9.21,15.94 9.15,15.88 9.15,14.85 9.17,14.85 "/>
     <polygon class="fil28" points="10.23,13.58 10.23,14.67 10.01,14.67 9.15,13.84 9.15,13.58 "/>
     <polygon class="fil30" points="7.96,15.94 7.92,15.94 7.92,15.9 "/>
     <polygon class="fil29" points="9.21,15.94 9.15,15.94 9.15,15.88 "/>
     <polygon class="fil30" points="9.01,15.74 9.01,15.94 8.6,15.94 7.92,15.28 7.92,14.85 8.09,14.85 "/>
     <polygon class="fil30" points="9.01,13.7 9.01,14.67 8.98,14.67 7.92,13.65 7.92,13.58 8.88,13.58 "/>
     <polygon class="fil30" points="10.01,14.67 9.15,14.67 9.15,13.84 "/>
     <polygon class="fil30" points="10.23,14.89 10.23,15.88 9.17,14.85 10.19,14.85 "/>
     <polygon class="fil27" points="10.01,14.67 10.19,14.85 9.17,14.85 8.98,14.67 9.01,14.67 9.01,13.7 9.15,13.84 9.15,14.67 "/>
    </g>
    <g>
     <rect class="fil27" x="2.48" y="13.44" width="2.6" height="2.68"/>
     <polygon class="fil28" points="3.71,14.85 3.71,15.74 2.79,14.85 "/>
     <polygon class="fil28" points="3.3,15.94 2.66,15.94 2.62,15.9 2.62,15.28 "/>
     <polygon class="fil28" points="3.71,13.58 3.71,13.7 3.58,13.58 "/>
     <polygon class="fil28" points="3.68,14.67 2.62,14.67 2.62,13.65 "/>
     <polygon class="fil29" points="4.94,14.85 4.94,14.89 4.9,14.85 "/>
     <polygon class="fil28" points="4.94,15.88 4.94,15.94 3.91,15.94 3.85,15.88 3.85,14.85 3.87,14.85 "/>
     <polygon class="fil28" points="4.94,13.58 4.94,14.67 4.71,14.67 3.85,13.84 3.85,13.58 "/>
     <polygon class="fil30" points="2.66,15.94 2.62,15.94 2.62,15.9 "/>
     <polygon class="fil29" points="3.91,15.94 3.85,15.94 3.85,15.88 "/>
     <polygon class="fil30" points="3.71,15.74 3.71,15.94 3.3,15.94 2.62,15.28 2.62,14.85 2.79,14.85 "/>
     <polygon class="fil30" points="3.71,13.7 3.71,14.67 3.68,14.67 2.62,13.65 2.62,13.58 3.58,13.58 "/>
     <polygon class="fil30" points="4.71,14.67 3.85,14.67 3.85,13.84 "/>
     <polygon class="fil30" points="4.94,14.89 4.94,15.88 3.87,14.85 4.9,14.85 "/>
     <polygon class="fil27" points="4.71,14.67 4.9,14.85 3.87,14.85 3.68,14.67 3.71,14.67 3.71,13.7 3.85,13.84 3.85,14.67 "/>
    </g>
    <rect class="fil31" x="4.33" y="5.76" width="1.62" height="0.4"/>
    <rect class="fil32" x="4.69" y="6.16" width="1.26" height="0.3"/>
    <rect class="fil33" x="5.95" y="6.16" width="0.75" height="0.3"/>
    <polygon class="fil34" points="6.71,7.64 6.71,6.46 5.95,6.46 5.95,8.35 "/>
    <rect class="fil35" x="4.69" y="6.46" width="1.26" height="1.89"/>
    <rect class="fil36" x="5.95" y="5.76" width="0.98" height="0.4"/>
    <polygon class="fil37" points="1.04,11.31 1.04,11.87 6.52,11.87 6.52,11.31 "/>
    <rect class="fil22" x="1.61" y="11.87" width="4.91" height="0.37"/>
    <path class="fil38" d="M7.76 12.99l-0.72 0c-0.01,0 -0.02,-0.01 -0.02,-0.02l0 -0.26c0,-0.01 0.01,-0.02 0.02,-0.02l0.72 0c0.01,0 0.02,0.01 0.02,0.02l0 0.26c0,0.01 -0.01,0.02 -0.02,0.02z"/>
    <path class="fil38" d="M8.96 12.17l-0.72 0c-0.01,0 -0.02,-0.01 -0.02,-0.02l0 -0.26c0,-0.01 0.01,-0.02 0.02,-0.02l0.72 0c0.01,0 0.02,0.01 0.02,0.02l0 0.26c0,0.01 -0.01,0.02 -0.02,0.02z"/>
    <path class="fil39" d="M2.64 12.88l-0.72 0c-0.01,0 -0.02,-0.01 -0.02,-0.02l0 -0.25c0,-0.01 0.01,-0.02 0.02,-0.02l0.72 0c0.01,0 0.02,0.01 0.02,0.02l0 0.25c0,0.01 -0.01,0.02 -0.02,0.02z"/>
    <path class="fil39" d="M4 13.28l-0.71 0c-0.01,0 -0.02,-0.01 -0.02,-0.02l0 -0.25c0,-0.01 0.01,-0.02 0.02,-0.02l0.71 0c0.01,0 0.02,0.01 0.02,0.02l0 0.25c0,0.01 -0.01,0.02 -0.02,0.02z"/>
    <path class="fil39" d="M5.81 12.88l-0.71 0c-0.01,0 -0.02,-0.01 -0.02,-0.02l0 -0.25c0,-0.01 0.01,-0.02 0.02,-0.02l0.71 0c0.02,0 0.02,0.01 0.02,0.02l0 0.25c0,0.01 0,0.02 -0.02,0.02z"/>
    <path class="fil39" d="M6.01 14.16l-0.71 0c-0.02,0 -0.02,-0.01 -0.02,-0.02l0 -0.25c0,-0.02 0,-0.02 0.02,-0.02l0.71 0c0.01,0 0.02,0 0.02,0.02l0 0.25c0,0.01 -0.01,0.02 -0.02,0.02z"/>
    <path class="fil39" d="M5.98 15.44l-0.71 0c-0.01,0 -0.02,-0.01 -0.02,-0.02l0 -0.25c0,-0.01 0.01,-0.02 0.02,-0.02l0.71 0c0.02,0 0.02,0.01 0.02,0.02l0 0.25c0,0.01 0,0.02 -0.02,0.02z"/>
    <path class="fil39" d="M4.92 16.69l-0.72 0c-0.01,0 -0.02,-0.01 -0.02,-0.02l0 -0.26c0,-0.01 0.01,-0.02 0.02,-0.02l0.72 0c0.01,0 0.02,0.01 0.02,0.02l0 0.26c0,0.01 -0.01,0.02 -0.02,0.02z"/>
    <path class="fil39" d="M5.98 17.52l-0.71 0c-0.01,0 -0.02,-0.01 -0.02,-0.02l0 -0.25c0,-0.02 0.01,-0.02 0.02,-0.02l0.71 0c0.02,0 0.02,0 0.02,0.02l0 0.25c0,0.01 0,0.02 -0.02,0.02z"/>
    <path class="fil39" d="M4.32 17.96l-0.72 0c-0.01,0 -0.02,-0.01 -0.02,-0.02l0 -0.25c0,-0.01 0.01,-0.02 0.02,-0.02l0.72 0c0.01,0 0.02,0.01 0.02,0.02l0 0.25c0,0.01 -0.01,0.02 -0.02,0.02z"/>
    <path class="fil39" d="M3.21 17.12l-0.71 0c-0.01,0 -0.02,-0.01 -0.02,-0.02l0 -0.25c0,-0.01 0.01,-0.02 0.02,-0.02l0.71 0c0.02,0 0.02,0.01 0.02,0.02l0 0.25c0,0.01 0,0.02 -0.02,0.02z"/>
    <path class="fil39" d="M2.52 17.82l-0.71 0c-0.01,0 -0.02,-0.01 -0.02,-0.02l0 -0.26c0,-0.01 0.01,-0.02 0.02,-0.02l0.71 0c0.01,0 0.02,0.01 0.02,0.02l0 0.26c0,0.01 -0.01,0.02 -0.02,0.02z"/>
    <path class="fil39" d="M2.52 16.54l-0.71 0c-0.01,0 -0.02,-0.01 -0.02,-0.02l0 -0.25c0,-0.01 0.01,-0.02 0.02,-0.02l0.71 0c0.01,0 0.02,0.01 0.02,0.02l0 0.25c0,0.01 -0.01,0.02 -0.02,0.02z"/>
    <path class="fil39" d="M2.4 15.17l-0.71 0c-0.01,0 -0.02,-0.01 -0.02,-0.02l0 -0.25c0,-0.01 0.01,-0.02 0.02,-0.02l0.71 0c0.01,0 0.02,0.01 0.02,0.02l0 0.25c0,0.01 -0.01,0.02 -0.02,0.02z"/>
    <path class="fil39" d="M2.4 14.01l-0.71 0c-0.01,0 -0.02,-0.01 -0.02,-0.02l0 -0.25c0,-0.01 0.01,-0.02 0.02,-0.02l0.71 0c0.01,0 0.02,0.01 0.02,0.02l0 0.25c0,0.01 -0.01,0.02 -0.02,0.02z"/>
    <path class="fil38" d="M7.66 11.56l-0.71 0c-0.01,0 -0.02,-0.01 -0.02,-0.02l0 -0.25c0,-0.02 0.01,-0.02 0.02,-0.02l0.71 0c0.01,0 0.02,0 0.02,0.02l0 0.25c0,0.01 -0.01,0.02 -0.02,0.02z"/>
    <path class="fil38" d="M9.24 10.74l-0.72 0c-0.01,0 -0.02,-0.01 -0.02,-0.02l0 -0.25c0,-0.01 0.01,-0.02 0.02,-0.02l0.72 0c0.01,0 0.02,0.01 0.02,0.02l0 0.25c0,0.01 -0.01,0.02 -0.02,0.02z"/>
    <path class="fil38" d="M9.81 9.58l-0.71 0c-0.01,0 -0.02,0 -0.02,-0.02l0 -0.25c0,-0.01 0.01,-0.02 0.02,-0.02l0.71 0c0.01,0 0.02,0.01 0.02,0.02l0 0.25c0,0.02 -0.01,0.02 -0.02,0.02z"/>
    <path class="fil38" d="M10.8 8.9l-0.71 0c-0.01,0 -0.02,-0.01 -0.02,-0.02l0 -0.25c0,-0.01 0.01,-0.02 0.02,-0.02l0.71 0c0.02,0 0.02,0.01 0.02,0.02l0 0.25c0,0.01 0,0.02 -0.02,0.02z"/>
    <path class="fil38" d="M11.62 9.53l-0.72 0c-0.01,0 -0.02,-0.01 -0.02,-0.02l0 -0.26c0,-0.01 0.01,-0.02 0.02,-0.02l0.72 0c0.01,0 0.02,0.01 0.02,0.02l0 0.26c0,0.01 -0.01,0.02 -0.02,0.02z"/>
    <path class="fil38" d="M11.75 8.54l-0.71 0c-0.01,0 -0.02,-0.01 -0.02,-0.02l0 -0.26c0,-0.01 0.01,-0.02 0.02,-0.02l0.71 0c0.01,0 0.02,0.01 0.02,0.02l0 0.26c0,0.01 -0.01,0.02 -0.02,0.02z"/>
    <path class="fil38" d="M12.9 9.73l-0.71 0c-0.02,0 -0.02,-0.01 -0.02,-0.02l0 -0.25c0,-0.01 0,-0.02 0.02,-0.02l0.71 0c0.01,0 0.02,0.01 0.02,0.02l0 0.25c0,0.01 -0.01,0.02 -0.02,0.02z"/>
    <path class="fil38" d="M13.55 10.74l-0.72 0c-0.01,0 -0.02,-0.01 -0.02,-0.02l0 -0.25c0,-0.01 0.01,-0.02 0.02,-0.02l0.72 0c0.01,0 0.02,0.01 0.02,0.02l0 0.25c0,0.01 -0.01,0.02 -0.02,0.02z"/>
    <path class="fil38" d="M12.9 11.81l-0.71 0c-0.02,0 -0.02,-0.01 -0.02,-0.02l0 -0.25c0,-0.01 0,-0.02 0.02,-0.02l0.71 0c0.01,0 0.02,0.01 0.02,0.02l0 0.25c0,0.01 -0.01,0.02 -0.02,0.02z"/>
    <path class="fil38" d="M14.46 11.85l-0.71 0c-0.02,0 -0.02,-0.01 -0.02,-0.02l0 -0.25c0,-0.01 0,-0.02 0.02,-0.02l0.71 0c0.01,0 0.02,0.01 0.02,0.02l0 0.25c0,0.01 -0.01,0.02 -0.02,0.02z"/>
    <path class="fil38" d="M12.9 12.84l-0.71 0c-0.02,0 -0.02,-0.01 -0.02,-0.02l0 -0.25c0,-0.01 0,-0.02 0.02,-0.02l0.71 0c0.01,0 0.02,0.01 0.02,0.02l0 0.25c0,0.01 -0.01,0.02 -0.02,0.02z"/>
    <path class="fil38" d="M14.59 13.13l-0.72 0c-0.01,0 -0.02,-0.01 -0.02,-0.02l0 -0.25c0,-0.01 0.01,-0.02 0.02,-0.02l0.72 0c0.01,0 0.02,0.01 0.02,0.02l0 0.25c0,0.01 -0.01,0.02 -0.02,0.02z"/>
    <path class="fil38" d="M11.36 14.67l-0.72 0c-0.01,0 -0.02,-0.01 -0.02,-0.02l0 -0.25c0,-0.01 0.01,-0.02 0.02,-0.02l0.72 0c0.01,0 0.02,0.01 0.02,0.02l0 0.25c0,0.01 -0.01,0.02 -0.02,0.02z"/>
    <path class="fil38" d="M11.04 13.19l-0.71 0c-0.02,0 -0.02,-0.01 -0.02,-0.02l0 -0.26c0,-0.01 0,-0.02 0.02,-0.02l0.71 0c0.01,0 0.02,0.01 0.02,0.02l0 0.26c0,0.01 -0.01,0.02 -0.02,0.02z"/>
    <path class="fil38" d="M7.49 14.67l-0.72 0c-0.01,0 -0.02,-0.01 -0.02,-0.02l0 -0.25c0,-0.01 0.01,-0.02 0.02,-0.02l0.72 0c0.01,0 0.02,0.01 0.02,0.02l0 0.25c0,0.01 -0.01,0.02 -0.02,0.02z"/>
    <path class="fil38" d="M7.56 16.21l-0.71 0c-0.01,0 -0.02,-0.01 -0.02,-0.02l0 -0.25c0,-0.02 0.01,-0.02 0.02,-0.02l0.71 0c0.01,0 0.02,0 0.02,0.02l0 0.25c0,0.01 -0.01,0.02 -0.02,0.02z"/>
    <path class="fil38" d="M8.67 17.08l-0.71 0c-0.01,0 -0.02,-0.01 -0.02,-0.02l0 -0.26c0,-0.01 0.01,-0.02 0.02,-0.02l0.71 0c0.01,0 0.02,0.01 0.02,0.02l0 0.26c0,0.01 -0.01,0.02 -0.02,0.02z"/>
    <path class="fil38" d="M10.67 16.78l-0.71 0c-0.01,0 -0.02,-0.01 -0.02,-0.02l0 -0.25c0,-0.01 0.01,-0.02 0.02,-0.02l0.71 0c0.01,0 0.02,0.01 0.02,0.02l0 0.25c0,0.01 -0.01,0.02 -0.02,0.02z"/>
    <path class="fil38" d="M10.98 17.75l-0.72 0c-0.01,0 -0.02,-0.01 -0.02,-0.02l0 -0.25c0,-0.01 0.01,-0.02 0.02,-0.02l0.72 0c0.01,0 0.02,0.01 0.02,0.02l0 0.25c0,0.01 -0.01,0.02 -0.02,0.02z"/>
    <path class="fil38" d="M9.71 17.96l-0.71 0c-0.01,0 -0.02,-0.01 -0.02,-0.02l0 -0.25c0,-0.01 0.01,-0.02 0.02,-0.02l0.71 0c0.01,0 0.02,0.01 0.02,0.02l0 0.25c0,0.01 -0.01,0.02 -0.02,0.02z"/>
    <path class="fil38" d="M11.42 15.8l-0.72 0c-0.01,0 -0.02,-0.01 -0.02,-0.02l0 -0.25c0,-0.01 0.01,-0.02 0.02,-0.02l0.72 0c0.01,0 0.02,0.01 0.02,0.02l0 0.25c0,0.01 -0.01,0.02 -0.02,0.02z"/>
    <path class="fil38" d="M7.49 17.41l-0.72 0c-0.01,0 -0.02,-0.01 -0.02,-0.02l0 -0.25c0,-0.01 0.01,-0.02 0.02,-0.02l0.72 0c0.01,0 0.02,0.01 0.02,0.02l0 0.25c0,0.01 -0.01,0.02 -0.02,0.02z"/>
   </g>
   <g>
    <g>
     <path class="fil40" d="M6.11 17.8c-0.16,0.12 -0.36,0.23 -0.57,0.32 -0.2,0.09 -0.51,0.15 -0.87,0.19 -0.52,0.07 -1.16,0.09 -1.76,0.06 -0.28,-0.01 -0.56,-0.03 -0.8,-0.06 -0.17,-0.01 -0.32,-0.04 -0.45,-0.07 -0.06,-0.01 -0.12,-0.02 -0.17,-0.03 -0.04,-0.01 -0.08,-0.02 -0.11,-0.03 0,-0.01 -0.01,-0.01 -0.01,-0.01 -0.03,-0.01 -0.06,-0.02 -0.08,-0.03 -0.02,0 -0.04,-0.01 -0.05,-0.02 -0.02,0 -0.03,-0.01 -0.04,-0.02 -0.03,-0.01 -0.06,-0.02 -0.09,-0.04 -0.03,-0.01 -0.06,-0.03 -0.09,-0.05 -0.03,-0.01 -0.05,-0.03 -0.08,-0.05 -0.03,-0.02 -0.06,-0.04 -0.09,-0.06 0,0 -0.01,0 -0.01,-0.01 -0.02,-0.01 -0.03,-0.02 -0.05,-0.03 0,-0.01 0,-0.01 -0.01,-0.01 0,-0.01 -0.01,-0.01 -0.01,-0.01 -0.02,-0.02 -0.03,-0.03 -0.05,-0.04 -0.01,-0.02 -0.02,-0.03 -0.04,-0.04 -0.01,-0.01 -0.03,-0.03 -0.04,-0.04 -0.02,-0.03 -0.05,-0.05 -0.07,-0.08 0,0 0,0 -0.01,-0.01 -0.01,-0.02 -0.03,-0.04 -0.04,-0.06 -0.06,-0.07 -0.11,-0.15 -0.14,-0.23 -0.04,-0.07 -0.06,-0.14 -0.09,-0.21 -0.01,-0.03 -0.01,-0.06 -0.02,-0.09 0,0 0,0 0,0 -0.01,-0.02 -0.01,-0.04 -0.02,-0.07 0,-0.02 -0.01,-0.05 -0.01,-0.07 -0.02,-0.11 -0.03,-0.23 -0.03,-0.35 0,-0.01 0,-0.02 0,-0.04 0,-0.04 0,-0.09 0.01,-0.14 0,-0.02 0,-0.04 0,-0.07 0.01,-0.09 0.02,-0.19 0.04,-0.29 0.06,-0.3 0.16,-0.63 0.31,-0.99 0.08,-0.22 0.18,-0.44 0.29,-0.66 0.17,-0.35 0.36,-0.71 0.57,-1.06 0.09,-0.16 0.18,-0.32 0.28,-0.48 0.07,-0.12 0.14,-0.23 0.21,-0.35 0.02,-0.04 0.05,-0.08 0.07,-0.12 0.03,-0.05 0.06,-0.1 0.09,-0.15l2.63 0c0.03,0.05 0.06,0.1 0.09,0.15 0.01,0.03 0.03,0.05 0.04,0.08 0.15,0.25 0.3,0.52 0.45,0.78 0.06,0.12 0.13,0.23 0.19,0.34 0.26,0.49 0.51,0.99 0.73,1.47 0.72,1.58 0.54,2.31 -0.1,2.78z"/>
     <path class="fil41" d="M2.5 10.22c0.72,0.01 1.83,0.22 2.6,0.2 0.77,-0.03 0.8,0.25 0.8,0.25l-1.19 1.53 -2.63 0 -1.24 -1.85c0,0 0.82,-0.15 1.66,-0.13z"/>
     <path class="fil40" d="M0.84 10.35l1.24 1.85 2.27 0 1.39 -1.81c0,0 0,-0.01 0,-0.01 -0.12,-0.09 -0.31,-0.17 -0.64,-0.16 -0.77,0.03 -1.59,0.36 -2.31,0.39 -0.91,0.04 -1.74,-0.19 -1.92,-0.24 -0.02,-0.01 -0.03,-0.02 -0.03,-0.02z"/>
     <path class="fil41" d="M6.11 17.8c-0.16,0.12 -0.36,0.23 -0.57,0.32 -0.2,0.09 -0.51,0.15 -0.87,0.19 -0.52,0.07 -1.16,0.09 -1.76,0.06 0.28,-0.01 0.56,-0.03 0.81,-0.06 0.36,-0.04 0.67,-0.1 0.86,-0.19 0.28,-0.12 0.55,-0.26 0.76,-0.47 0.09,-0.09 0.16,-0.18 0.22,-0.29 0.23,-0.43 0.17,-0.9 0.05,-1.35 0,0 0,-0.01 -0.01,-0.02 -0.15,-0.58 -0.37,-1.14 -0.57,-1.71 -0.2,-0.58 -0.41,-1.16 -0.65,-1.73 0,-0.02 -0.02,-0.07 -0.04,-0.12 -0.01,-0.03 -0.02,-0.05 -0.03,-0.08 -0.01,-0.02 -0.02,-0.04 -0.03,-0.05 -0.03,-0.06 -0.06,-0.1 -0.1,-0.1l0.53 0c0.03,0.05 0.06,0.1 0.09,0.15 0.01,0.03 0.03,0.05 0.04,0.08 0.15,0.25 0.3,0.52 0.45,0.78 0.06,0.12 0.13,0.23 0.19,0.34 0.26,0.49 0.51,0.99 0.73,1.47 0.72,1.58 0.54,2.31 -0.1,2.78z"/>
     <line class="fil42" x1="4.23" y1="12.38" x2="4.35" y2= "12.2" />
     <path class="fil41" d="M4.26 12.2l0.45 0 1.19 -1.53c0,0 -0.01,-0.16 -0.16,-0.29 0,0 0,0.01 0,0.01l-1.48 1.81z"/>
     <path class="fil43" d="M1.96 12.08l2.91 0c0.06,0 0.12,0.05 0.12,0.1l0 0.08c0,0.05 -0.06,0.09 -0.12,0.09l-2.91 0c-0.07,0 -0.12,-0.04 -0.12,-0.09l0 -0.08c0,-0.05 0.05,-0.1 0.12,-0.1z"/>
    </g>
   </g>
   <g>
    <g>
     <g>
      <g>
       <g>
        <g>
         <path class="fil44" d="M9.77 17.97l-2.59 0c0.01,-0.03 0.03,-0.05 0.06,-0.05l2.47 0c0.03,0 0.06,0.02 0.06,0.05z"/>
         <path class="fil45" d="M9.77 18.33c0,0.03 -0.03,0.05 -0.06,0.05l-2.47 0c-0.03,0 -0.05,-0.02 -0.06,-0.05l2.59 0z"/>
         <path class="fil46" d="M7.83 17.97l0 0.36 -0.65 0c0,0 0,0 0,-0.01l0 -0.34c0,0 0,-0.01 0,-0.01l0.65 0z"/>
         <rect class="fil47" x="7.83" y="17.97" width="1.19" height="0.36"/>
         <path class="fil48" d="M9.77 17.98l0 0.34c0,0.01 0,0.01 0,0.01l-0.76 0 0 -0.36 0.76 0c0,0 0,0.01 0,0.01z"/>
         <g>
          <path class="fil49" d="M7.29 18.3l0 0c-0.02,0 -0.03,-0.01 -0.03,-0.03l0 -0.24c0,-0.01 0.01,-0.03 0.03,-0.03l0 0c0.01,0 0.03,0.02 0.03,0.03l0 0.24c0,0.02 -0.02,0.03 -0.03,0.03z"/>
          <path class="fil49" d="M7.41 18.3l0 0c-0.02,0 -0.03,-0.01 -0.03,-0.03l0 -0.24c0,-0.01 0.01,-0.03 0.03,-0.03l0 0c0.01,0 0.03,0.02 0.03,0.03l0 0.24c0,0.02 -0.02,0.03 -0.03,0.03z"/>
          <path class="fil49" d="M7.53 18.3l0 0c-0.02,0 -0.03,-0.01 -0.03,-0.03l0 -0.24c0,-0.01 0.01,-0.03 0.03,-0.03l0 0c0.01,0 0.02,0.02 0.02,0.03l0 0.24c0,0.02 -0.01,0.03 -0.02,0.03z"/>
          <path class="fil49" d="M7.64 18.3l0 0c-0.01,0 -0.02,-0.01 -0.02,-0.03l0 -0.24c0,-0.01 0.01,-0.03 0.02,-0.03l0 0c0.02,0 0.03,0.02 0.03,0.03l0 0.24c0,0.02 -0.01,0.03 -0.03,0.03z"/>
          <path class="fil49" d="M7.76 18.3l0 0c-0.01,0 -0.03,-0.01 -0.03,-0.03l0 -0.24c0,-0.01 0.02,-0.03 0.03,-0.03l0 0c0.02,0 0.03,0.02 0.03,0.03l0 0.24c0,0.02 -0.01,0.03 -0.03,0.03z"/>
          <path class="fil50" d="M7.88 18.3l0 0c-0.01,0 -0.03,-0.01 -0.03,-0.03l0 -0.24c0,-0.01 0.02,-0.03 0.03,-0.03l0 0c0.02,0 0.03,0.02 0.03,0.03l0 0.24c0,0.02 -0.01,0.03 -0.03,0.03z"/>
          <path class="fil51" d="M8 18.3l0 0c-0.01,0 -0.03,-0.01 -0.03,-0.03l0 -0.24c0,-0.01 0.02,-0.03 0.03,-0.03l0 0c0.02,0 0.03,0.02 0.03,0.03l0 0.24c0,0.02 -0.01,0.03 -0.03,0.03z"/>
          <path class="fil52" d="M8.12 18.3l0 0c-0.02,0 -0.03,-0.01 -0.03,-0.03l0 -0.24c0,-0.01 0.01,-0.03 0.03,-0.03l0 0c0.02,0 0.03,0.02 0.03,0.03l0 0.24c0,0.02 -0.01,0.03 -0.03,0.03z"/>
          <path class="fil53" d="M8.24 18.3l0 0c-0.02,0 -0.03,-0.01 -0.03,-0.03l0 -0.24c0,-0.01 0.01,-0.03 0.03,-0.03l0 0c0.01,0 0.03,0.02 0.03,0.03l0 0.24c0,0.02 -0.02,0.03 -0.03,0.03z"/>
          <path class="fil54" d="M8.36 18.3l0 0c-0.02,0 -0.03,-0.01 -0.03,-0.03l0 -0.24c0,-0.01 0.01,-0.03 0.03,-0.03l0 0c0.01,0 0.03,0.02 0.03,0.03l0 0.24c0,0.02 -0.02,0.03 -0.03,0.03z"/>
          <path class="fil55" d="M8.48 18.3l0 0c-0.02,0 -0.03,-0.01 -0.03,-0.03l0 -0.24c0,-0.01 0.01,-0.03 0.03,-0.03l0 0c0.01,0 0.02,0.02 0.02,0.03l0 0.24c0,0.02 -0.01,0.03 -0.02,0.03z"/>
          <path class="fil56" d="M8.59 18.3l0 0c-0.01,0 -0.02,-0.01 -0.02,-0.03l0 -0.24c0,-0.01 0.01,-0.03 0.02,-0.03l0 0c0.02,0 0.03,0.02 0.03,0.03l0 0.24c0,0.02 -0.01,0.03 -0.03,0.03z"/>
          <path class="fil57" d="M8.71 18.3l0 0c-0.01,0 -0.03,-0.01 -0.03,-0.03l0 -0.24c0,-0.01 0.02,-0.03 0.03,-0.03l0 0c0.02,0 0.03,0.02 0.03,0.03l0 0.24c0,0.02 -0.01,0.03 -0.03,0.03z"/>
          <path class="fil58" d="M8.83 18.3l0 0c-0.01,0 -0.03,-0.01 -0.03,-0.03l0 -0.24c0,-0.01 0.02,-0.03 0.03,-0.03l0 0c0.02,0 0.03,0.02 0.03,0.03l0 0.24c0,0.02 -0.01,0.03 -0.03,0.03z"/>
          <path class="fil59" d="M8.95 18.3l0 0c-0.01,0 -0.03,-0.01 -0.03,-0.03l0 -0.24c0,-0.01 0.02,-0.03 0.03,-0.03l0 0c0.02,0 0.03,0.02 0.03,0.03l0 0.24c0,0.02 -0.01,0.03 -0.03,0.03z"/>
          <path class="fil60" d="M9.07 18.3l0 0c-0.02,0 -0.03,-0.01 -0.03,-0.03l0 -0.24c0,-0.01 0.01,-0.03 0.03,-0.03l0 0c0.02,0 0.03,0.02 0.03,0.03l0 0.24c0,0.02 -0.01,0.03 -0.03,0.03z"/>
          <path class="fil61" d="M9.19 18.3l0 0c-0.02,0 -0.03,-0.01 -0.03,-0.03l0 -0.24c0,-0.01 0.01,-0.03 0.03,-0.03l0 0c0.01,0 0.03,0.02 0.03,0.03l0 0.24c0,0.02 -0.02,0.03 -0.03,0.03z"/>
          <path class="fil62" d="M9.31 18.3l0 0c-0.02,0 -0.03,-0.01 -0.03,-0.03l0 -0.24c0,-0.01 0.01,-0.03 0.03,-0.03l0 0c0.01,0 0.03,0.02 0.03,0.03l0 0.24c0,0.02 -0.02,0.03 -0.03,0.03z"/>
          <path class="fil63" d="M9.43 18.3l0 0c-0.02,0 -0.03,-0.01 -0.03,-0.03l0 -0.24c0,-0.01 0.01,-0.03 0.03,-0.03l0 0c0.01,0 0.03,0.02 0.03,0.03l0 0.24c0,0.02 -0.02,0.03 -0.03,0.03z"/>
          <path class="fil64" d="M9.55 18.3l0 0c-0.02,0 -0.03,-0.01 -0.03,-0.03l0 -0.24c0,-0.01 0.01,-0.03 0.03,-0.03l0 0c0.01,0 0.02,0.02 0.02,0.03l0 0.24c0,0.02 -0.01,0.03 -0.02,0.03z"/>
          <path class="fil60" d="M9.66 18.3l0 0c-0.01,0 -0.02,-0.01 -0.02,-0.03l0 -0.24c0,-0.01 0.01,-0.03 0.02,-0.03l0 0c0.02,0 0.03,0.02 0.03,0.03l0 0.24c0,0.02 -0.01,0.03 -0.03,0.03z"/>
         </g>
        </g>
        <g>
         <path class="fil44" d="M9.21 17.51l-2.59 0c0,-0.03 0.03,-0.05 0.06,-0.05l2.47 0c0.03,0 0.05,0.02 0.06,0.05z"/>
         <path class="fil45" d="M9.21 17.87c-0.01,0.03 -0.03,0.05 -0.06,0.05l-2.47 0c-0.03,0 -0.06,-0.02 -0.06,-0.05l2.59 0z"/>
         <path class="fil46" d="M7.26 17.51l0 0.36 -0.64 0c-0.01,0 -0.01,-0.01 -0.01,-0.01l0 -0.34c0,0 0,-0.01 0.01,-0.01l0.64 0z"/>
         <rect class="fil47" x="7.26" y="17.51" width="1.19" height="0.36"/>
         <path class="fil48" d="M9.21 17.52l0 0.34c0,0 0,0.01 0,0.01l-0.76 0 0 -0.36 0.76 0c0,0 0,0.01 0,0.01z"/>
         <g>
          <path class="fil49" d="M6.72 17.84l0 0c-0.01,0 -0.03,-0.01 -0.03,-0.03l0 -0.24c0,-0.02 0.02,-0.03 0.03,-0.03l0 0c0.02,0 0.03,0.01 0.03,0.03l0 0.24c0,0.02 -0.01,0.03 -0.03,0.03z"/>
          <path class="fil49" d="M6.84 17.84l0 0c-0.01,0 -0.03,-0.01 -0.03,-0.03l0 -0.24c0,-0.02 0.02,-0.03 0.03,-0.03l0 0c0.02,0 0.03,0.01 0.03,0.03l0 0.24c0,0.02 -0.01,0.03 -0.03,0.03z"/>
          <path class="fil49" d="M6.96 17.84l0 0c-0.02,0 -0.03,-0.01 -0.03,-0.03l0 -0.24c0,-0.02 0.01,-0.03 0.03,-0.03l0 0c0.02,0 0.03,0.01 0.03,0.03l0 0.24c0,0.02 -0.01,0.03 -0.03,0.03z"/>
          <path class="fil49" d="M7.08 17.84l0 0c-0.02,0 -0.03,-0.01 -0.03,-0.03l0 -0.24c0,-0.02 0.01,-0.03 0.03,-0.03l0 0c0.02,0 0.03,0.01 0.03,0.03l0 0.24c0,0.02 -0.01,0.03 -0.03,0.03z"/>
          <path class="fil49" d="M7.2 17.84l0 0c-0.02,0 -0.03,-0.01 -0.03,-0.03l0 -0.24c0,-0.02 0.01,-0.03 0.03,-0.03l0 0c0.01,0 0.03,0.01 0.03,0.03l0 0.24c0,0.02 -0.02,0.03 -0.03,0.03z"/>
          <path class="fil50" d="M7.32 17.84l0 0c-0.02,0 -0.03,-0.01 -0.03,-0.03l0 -0.24c0,-0.02 0.01,-0.03 0.03,-0.03l0 0c0.01,0 0.03,0.01 0.03,0.03l0 0.24c0,0.02 -0.02,0.03 -0.03,0.03z"/>
          <path class="fil51" d="M7.44 17.84l0 0c-0.02,0 -0.03,-0.01 -0.03,-0.03l0 -0.24c0,-0.02 0.01,-0.03 0.03,-0.03l0 0c0.01,0 0.02,0.01 0.02,0.03l0 0.24c0,0.02 -0.01,0.03 -0.02,0.03z"/>
          <path class="fil52" d="M7.55 17.84l0 0c-0.01,0 -0.02,-0.01 -0.02,-0.03l0 -0.24c0,-0.02 0.01,-0.03 0.02,-0.03l0 0c0.02,0 0.03,0.01 0.03,0.03l0 0.24c0,0.02 -0.01,0.03 -0.03,0.03z"/>
          <path class="fil53" d="M7.67 17.84l0 0c-0.01,0 -0.03,-0.01 -0.03,-0.03l0 -0.24c0,-0.02 0.02,-0.03 0.03,-0.03l0 0c0.02,0 0.03,0.01 0.03,0.03l0 0.24c0,0.02 -0.01,0.03 -0.03,0.03z"/>
          <path class="fil54" d="M7.79 17.84l0 0c-0.01,0 -0.03,-0.01 -0.03,-0.03l0 -0.24c0,-0.02 0.02,-0.03 0.03,-0.03l0 0c0.02,0 0.03,0.01 0.03,0.03l0 0.24c0,0.02 -0.01,0.03 -0.03,0.03z"/>
          <path class="fil55" d="M7.91 17.84l0 0c-0.01,0 -0.03,-0.01 -0.03,-0.03l0 -0.24c0,-0.02 0.02,-0.03 0.03,-0.03l0 0c0.02,0 0.03,0.01 0.03,0.03l0 0.24c0,0.02 -0.01,0.03 -0.03,0.03z"/>
          <path class="fil56" d="M8.03 17.84l0 0c-0.02,0 -0.03,-0.01 -0.03,-0.03l0 -0.24c0,-0.02 0.01,-0.03 0.03,-0.03l0 0c0.02,0 0.03,0.01 0.03,0.03l0 0.24c0,0.02 -0.01,0.03 -0.03,0.03z"/>
          <path class="fil57" d="M8.15 17.84l0 0c-0.02,0 -0.03,-0.01 -0.03,-0.03l0 -0.24c0,-0.02 0.01,-0.03 0.03,-0.03l0 0c0.01,0 0.03,0.01 0.03,0.03l0 0.24c0,0.02 -0.02,0.03 -0.03,0.03z"/>
          <path class="fil58" d="M8.27 17.84l0 0c-0.02,0 -0.03,-0.01 -0.03,-0.03l0 -0.24c0,-0.02 0.01,-0.03 0.03,-0.03l0 0c0.01,0 0.03,0.01 0.03,0.03l0 0.24c0,0.02 -0.02,0.03 -0.03,0.03z"/>
          <path class="fil59" d="M8.39 17.84l0 0c-0.02,0 -0.03,-0.01 -0.03,-0.03l0 -0.24c0,-0.02 0.01,-0.03 0.03,-0.03l0 0c0.01,0 0.02,0.01 0.02,0.03l0 0.24c0,0.02 -0.01,0.03 -0.02,0.03z"/>
          <path class="fil60" d="M8.51 17.84l0 0c-0.02,0 -0.03,-0.01 -0.03,-0.03l0 -0.24c0,-0.02 0.01,-0.03 0.03,-0.03l0 0c0.01,0 0.02,0.01 0.02,0.03l0 0.24c0,0.02 -0.01,0.03 -0.02,0.03z"/>
          <path class="fil61" d="M8.62 17.84l0 0c-0.01,0 -0.02,-0.01 -0.02,-0.03l0 -0.24c0,-0.02 0.01,-0.03 0.02,-0.03l0 0c0.02,0 0.03,0.01 0.03,0.03l0 0.24c0,0.02 -0.01,0.03 -0.03,0.03z"/>
          <path class="fil62" d="M8.74 17.84l0 0c-0.01,0 -0.03,-0.01 -0.03,-0.03l0 -0.24c0,-0.02 0.02,-0.03 0.03,-0.03l0 0c0.02,0 0.03,0.01 0.03,0.03l0 0.24c0,0.02 -0.01,0.03 -0.03,0.03z"/>
          <path class="fil63" d="M8.86 17.84l0 0c-0.01,0 -0.03,-0.01 -0.03,-0.03l0 -0.24c0,-0.02 0.02,-0.03 0.03,-0.03l0 0c0.02,0 0.03,0.01 0.03,0.03l0 0.24c0,0.02 -0.01,0.03 -0.03,0.03z"/>
          <path class="fil64" d="M8.98 17.84l0 0c-0.02,0 -0.03,-0.01 -0.03,-0.03l0 -0.24c0,-0.02 0.01,-0.03 0.03,-0.03l0 0c0.02,0 0.03,0.01 0.03,0.03l0 0.24c0,0.02 -0.01,0.03 -0.03,0.03z"/>
          <path class="fil60" d="M9.1 17.84l0 0c-0.02,0 -0.03,-0.01 -0.03,-0.03l0 -0.24c0,-0.02 0.01,-0.03 0.03,-0.03l0 0c0.01,0 0.03,0.01 0.03,0.03l0 0.24c0,0.02 -0.02,0.03 -0.03,0.03z"/>
         </g>
        </g>
        <g>
         <path class="fil44" d="M10.04 17.05l-2.6 0c0.01,-0.03 0.03,-0.05 0.06,-0.05l2.48 0c0.03,0 0.05,0.02 0.06,0.05z"/>
         <path class="fil45" d="M10.04 17.41c-0.01,0.03 -0.03,0.05 -0.06,0.05l-2.48 0c-0.03,0 -0.05,-0.02 -0.06,-0.05l2.6 0z"/>
         <path class="fil46" d="M8.09 17.05l0 0.36 -0.65 0c0,0 0,-0.01 0,-0.01l0 -0.34c0,-0.01 0,-0.01 0,-0.01l0.65 0z"/>
         <rect class="fil47" x="8.09" y="17.05" width="1.19" height="0.36"/>
         <path class="fil48" d="M10.04 17.06l0 0.34c0,0 0,0.01 0,0.01l-0.76 0 0 -0.36 0.76 0c0,0 0,0 0,0.01z"/>
         <g>
          <path class="fil49" d="M7.55 17.38l0 0c-0.01,0 -0.03,-0.02 -0.03,-0.03l0 -0.24c0,-0.02 0.02,-0.03 0.03,-0.03l0 0c0.02,0 0.03,0.01 0.03,0.03l0 0.24c0,0.01 -0.01,0.03 -0.03,0.03z"/>
          <path class="fil49" d="M7.67 17.38l0 0c-0.01,0 -0.03,-0.02 -0.03,-0.03l0 -0.24c0,-0.02 0.02,-0.03 0.03,-0.03l0 0c0.02,0 0.03,0.01 0.03,0.03l0 0.24c0,0.01 -0.01,0.03 -0.03,0.03z"/>
          <path class="fil49" d="M7.79 17.38l0 0c-0.02,0 -0.03,-0.02 -0.03,-0.03l0 -0.24c0,-0.02 0.01,-0.03 0.03,-0.03l0 0c0.02,0 0.03,0.01 0.03,0.03l0 0.24c0,0.01 -0.01,0.03 -0.03,0.03z"/>
          <path class="fil49" d="M7.91 17.38l0 0c-0.02,0 -0.03,-0.02 -0.03,-0.03l0 -0.24c0,-0.02 0.01,-0.03 0.03,-0.03l0 0c0.01,0 0.03,0.01 0.03,0.03l0 0.24c0,0.01 -0.02,0.03 -0.03,0.03z"/>
          <path class="fil49" d="M8.03 17.38l0 0c-0.02,0 -0.03,-0.02 -0.03,-0.03l0 -0.24c0,-0.02 0.01,-0.03 0.03,-0.03l0 0c0.01,0 0.03,0.01 0.03,0.03l0 0.24c0,0.01 -0.02,0.03 -0.03,0.03z"/>
          <path class="fil50" d="M8.15 17.38l0 0c-0.02,0 -0.03,-0.02 -0.03,-0.03l0 -0.24c0,-0.02 0.01,-0.03 0.03,-0.03l0 0c0.01,0 0.03,0.01 0.03,0.03l0 0.24c0,0.01 -0.02,0.03 -0.03,0.03z"/>
          <path class="fil51" d="M8.27 17.38l0 0c-0.02,0 -0.03,-0.02 -0.03,-0.03l0 -0.24c0,-0.02 0.01,-0.03 0.03,-0.03l0 0c0.01,0 0.02,0.01 0.02,0.03l0 0.24c0,0.01 -0.01,0.03 -0.02,0.03z"/>
          <path class="fil52" d="M8.38 17.38l0 0c-0.01,0 -0.02,-0.02 -0.02,-0.03l0 -0.24c0,-0.02 0.01,-0.03 0.02,-0.03l0 0c0.02,0 0.03,0.01 0.03,0.03l0 0.24c0,0.01 -0.01,0.03 -0.03,0.03z"/>
          <path class="fil53" d="M8.5 17.38l0 0c-0.01,0 -0.03,-0.02 -0.03,-0.03l0 -0.24c0,-0.02 0.02,-0.03 0.03,-0.03l0 0c0.02,0 0.03,0.01 0.03,0.03l0 0.24c0,0.01 -0.01,0.03 -0.03,0.03z"/>
          <path class="fil54" d="M8.62 17.38l0 0c-0.01,0 -0.03,-0.02 -0.03,-0.03l0 -0.24c0,-0.02 0.02,-0.03 0.03,-0.03l0 0c0.02,0 0.03,0.01 0.03,0.03l0 0.24c0,0.01 -0.01,0.03 -0.03,0.03z"/>
          <path class="fil55" d="M8.74 17.38l0 0c-0.02,0 -0.03,-0.02 -0.03,-0.03l0 -0.24c0,-0.02 0.01,-0.03 0.03,-0.03l0 0c0.02,0 0.03,0.01 0.03,0.03l0 0.24c0,0.01 -0.01,0.03 -0.03,0.03z"/>
          <path class="fil56" d="M8.86 17.38l0 0c-0.02,0 -0.03,-0.02 -0.03,-0.03l0 -0.24c0,-0.02 0.01,-0.03 0.03,-0.03l0 0c0.02,0 0.03,0.01 0.03,0.03l0 0.24c0,0.01 -0.01,0.03 -0.03,0.03z"/>
          <path class="fil57" d="M8.98 17.38l0 0c-0.02,0 -0.03,-0.02 -0.03,-0.03l0 -0.24c0,-0.02 0.01,-0.03 0.03,-0.03l0 0c0.01,0 0.03,0.01 0.03,0.03l0 0.24c0,0.01 -0.02,0.03 -0.03,0.03z"/>
          <path class="fil58" d="M9.1 17.38l0 0c-0.02,0 -0.03,-0.02 -0.03,-0.03l0 -0.24c0,-0.02 0.01,-0.03 0.03,-0.03l0 0c0.01,0 0.03,0.01 0.03,0.03l0 0.24c0,0.01 -0.02,0.03 -0.03,0.03z"/>
          <path class="fil59" d="M9.22 17.38l0 0c-0.02,0 -0.03,-0.02 -0.03,-0.03l0 -0.24c0,-0.02 0.01,-0.03 0.03,-0.03l0 0c0.01,0 0.02,0.01 0.02,0.03l0 0.24c0,0.01 -0.01,0.03 -0.02,0.03z"/>
          <path class="fil60" d="M9.33 17.38l0 0c-0.01,0 -0.02,-0.02 -0.02,-0.03l0 -0.24c0,-0.02 0.01,-0.03 0.02,-0.03l0 0c0.02,0 0.03,0.01 0.03,0.03l0 0.24c0,0.01 -0.01,0.03 -0.03,0.03z"/>
          <path class="fil61" d="M9.45 17.38l0 0c-0.01,0 -0.03,-0.02 -0.03,-0.03l0 -0.24c0,-0.02 0.02,-0.03 0.03,-0.03l0 0c0.02,0 0.03,0.01 0.03,0.03l0 0.24c0,0.01 -0.01,0.03 -0.03,0.03z"/>
          <path class="fil62" d="M9.57 17.38l0 0c-0.01,0 -0.03,-0.02 -0.03,-0.03l0 -0.24c0,-0.02 0.02,-0.03 0.03,-0.03l0 0c0.02,0 0.03,0.01 0.03,0.03l0 0.24c0,0.01 -0.01,0.03 -0.03,0.03z"/>
          <path class="fil63" d="M9.69 17.38l0 0c-0.02,0 -0.03,-0.02 -0.03,-0.03l0 -0.24c0,-0.02 0.01,-0.03 0.03,-0.03l0 0c0.02,0 0.03,0.01 0.03,0.03l0 0.24c0,0.01 -0.01,0.03 -0.03,0.03z"/>
          <path class="fil64" d="M9.81 17.38l0 0c-0.02,0 -0.03,-0.02 -0.03,-0.03l0 -0.24c0,-0.02 0.01,-0.03 0.03,-0.03l0 0c0.02,0 0.03,0.01 0.03,0.03l0 0.24c0,0.01 -0.01,0.03 -0.03,0.03z"/>
          <path class="fil60" d="M9.93 17.38l0 0c-0.02,0 -0.03,-0.02 -0.03,-0.03l0 -0.24c0,-0.02 0.01,-0.03 0.03,-0.03l0 0c0.01,0 0.03,0.01 0.03,0.03l0 0.24c0,0.01 -0.02,0.03 -0.03,0.03z"/>
         </g>
        </g>
        <g>
         <path class="fil44" d="M9.96 16.59l-2.6 0c0.01,-0.03 0.04,-0.05 0.07,-0.05l2.47 0c0.03,0 0.05,0.02 0.06,0.05z"/>
         <path class="fil45" d="M9.96 16.95c-0.01,0.03 -0.03,0.05 -0.06,0.05l-2.47 0c-0.03,0 -0.06,-0.02 -0.07,-0.05l2.6 0z"/>
         <path class="fil46" d="M8.01 16.59l0 0.36 -0.65 0c0,-0.01 0,-0.01 0,-0.01l0 -0.34c0,-0.01 0,-0.01 0,-0.01l0.65 0z"/>
         <rect class="fil47" x="8.01" y="16.59" width="1.19" height="0.36"/>
         <path class="fil48" d="M9.96 16.6l0 0.34c0,0 0,0 0,0.01l-0.76 0 0 -0.36 0.76 0c0,0 0,0 0,0.01z"/>
         <g>
          <path class="fil49" d="M7.47 16.91l0 0c-0.01,0 -0.03,-0.01 -0.03,-0.02l0 -0.24c0,-0.02 0.02,-0.03 0.03,-0.03l0 0c0.02,0 0.03,0.01 0.03,0.03l0 0.24c0,0.01 -0.01,0.02 -0.03,0.02z"/>
          <path class="fil49" d="M7.59 16.91l0 0c-0.01,0 -0.03,-0.01 -0.03,-0.02l0 -0.24c0,-0.02 0.02,-0.03 0.03,-0.03l0 0c0.02,0 0.03,0.01 0.03,0.03l0 0.24c0,0.01 -0.01,0.02 -0.03,0.02z"/>
          <path class="fil49" d="M7.71 16.91l0 0c-0.02,0 -0.03,-0.01 -0.03,-0.02l0 -0.24c0,-0.02 0.01,-0.03 0.03,-0.03l0 0c0.02,0 0.03,0.01 0.03,0.03l0 0.24c0,0.01 -0.01,0.02 -0.03,0.02z"/>
          <path class="fil49" d="M7.83 16.91l0 0c-0.02,0 -0.03,-0.01 -0.03,-0.02l0 -0.24c0,-0.02 0.01,-0.03 0.03,-0.03l0 0c0.02,0 0.03,0.01 0.03,0.03l0 0.24c0,0.01 -0.01,0.02 -0.03,0.02z"/>
          <path class="fil49" d="M7.95 16.91l0 0c-0.02,0 -0.03,-0.01 -0.03,-0.02l0 -0.24c0,-0.02 0.01,-0.03 0.03,-0.03l0 0c0.01,0 0.03,0.01 0.03,0.03l0 0.24c0,0.01 -0.02,0.02 -0.03,0.02z"/>
          <path class="fil50" d="M8.07 16.91l0 0c-0.02,0 -0.03,-0.01 -0.03,-0.02l0 -0.24c0,-0.02 0.01,-0.03 0.03,-0.03l0 0c0.01,0 0.03,0.01 0.03,0.03l0 0.24c0,0.01 -0.02,0.02 -0.03,0.02z"/>
          <path class="fil51" d="M8.19 16.91l0 0c-0.02,0 -0.03,-0.01 -0.03,-0.02l0 -0.24c0,-0.02 0.01,-0.03 0.03,-0.03l0 0c0.01,0 0.02,0.01 0.02,0.03l0 0.24c0,0.01 -0.01,0.02 -0.02,0.02z"/>
          <path class="fil52" d="M8.3 16.91l0 0c-0.01,0 -0.02,-0.01 -0.02,-0.02l0 -0.24c0,-0.02 0.01,-0.03 0.02,-0.03l0 0c0.02,0 0.03,0.01 0.03,0.03l0 0.24c0,0.01 -0.01,0.02 -0.03,0.02z"/>
          <path class="fil53" d="M8.42 16.91l0 0c-0.01,0 -0.03,-0.01 -0.03,-0.02l0 -0.24c0,-0.02 0.02,-0.03 0.03,-0.03l0 0c0.02,0 0.03,0.01 0.03,0.03l0 0.24c0,0.01 -0.01,0.02 -0.03,0.02z"/>
          <path class="fil54" d="M8.54 16.91l0 0c-0.01,0 -0.03,-0.01 -0.03,-0.02l0 -0.24c0,-0.02 0.02,-0.03 0.03,-0.03l0 0c0.02,0 0.03,0.01 0.03,0.03l0 0.24c0,0.01 -0.01,0.02 -0.03,0.02z"/>
          <path class="fil55" d="M8.66 16.91l0 0c-0.02,0 -0.03,-0.01 -0.03,-0.02l0 -0.24c0,-0.02 0.01,-0.03 0.03,-0.03l0 0c0.02,0 0.03,0.01 0.03,0.03l0 0.24c0,0.01 -0.01,0.02 -0.03,0.02z"/>
          <path class="fil56" d="M8.78 16.91l0 0c-0.02,0 -0.03,-0.01 -0.03,-0.02l0 -0.24c0,-0.02 0.01,-0.03 0.03,-0.03l0 0c0.02,0 0.03,0.01 0.03,0.03l0 0.24c0,0.01 -0.01,0.02 -0.03,0.02z"/>
          <path class="fil57" d="M8.9 16.91l0 0c-0.02,0 -0.03,-0.01 -0.03,-0.02l0 -0.24c0,-0.02 0.01,-0.03 0.03,-0.03l0 0c0.01,0 0.03,0.01 0.03,0.03l0 0.24c0,0.01 -0.02,0.02 -0.03,0.02z"/>
          <path class="fil58" d="M9.02 16.91l0 0c-0.02,0 -0.03,-0.01 -0.03,-0.02l0 -0.24c0,-0.02 0.01,-0.03 0.03,-0.03l0 0c0.01,0 0.03,0.01 0.03,0.03l0 0.24c0,0.01 -0.02,0.02 -0.03,0.02z"/>
          <path class="fil59" d="M9.14 16.91l0 0c-0.02,0 -0.03,-0.01 -0.03,-0.02l0 -0.24c0,-0.02 0.01,-0.03 0.03,-0.03l0 0c0.01,0 0.02,0.01 0.02,0.03l0 0.24c0,0.01 -0.01,0.02 -0.02,0.02z"/>
          <path class="fil60" d="M9.25 16.91l0 0c-0.01,0 -0.02,-0.01 -0.02,-0.02l0 -0.24c0,-0.02 0.01,-0.03 0.02,-0.03l0 0c0.02,0 0.03,0.01 0.03,0.03l0 0.24c0,0.01 -0.01,0.02 -0.03,0.02z"/>
          <path class="fil61" d="M9.37 16.91l0 0c-0.01,0 -0.03,-0.01 -0.03,-0.02l0 -0.24c0,-0.02 0.02,-0.03 0.03,-0.03l0 0c0.02,0 0.03,0.01 0.03,0.03l0 0.24c0,0.01 -0.01,0.02 -0.03,0.02z"/>
          <path class="fil62" d="M9.49 16.91l0 0c-0.01,0 -0.03,-0.01 -0.03,-0.02l0 -0.24c0,-0.02 0.02,-0.03 0.03,-0.03l0 0c0.02,0 0.03,0.01 0.03,0.03l0 0.24c0,0.01 -0.01,0.02 -0.03,0.02z"/>
          <path class="fil63" d="M9.61 16.91l0 0c-0.01,0 -0.03,-0.01 -0.03,-0.02l0 -0.24c0,-0.02 0.02,-0.03 0.03,-0.03l0 0c0.02,0 0.03,0.01 0.03,0.03l0 0.24c0,0.01 -0.01,0.02 -0.03,0.02z"/>
          <path class="fil64" d="M9.73 16.91l0 0c-0.02,0 -0.03,-0.01 -0.03,-0.02l0 -0.24c0,-0.02 0.01,-0.03 0.03,-0.03l0 0c0.02,0 0.03,0.01 0.03,0.03l0 0.24c0,0.01 -0.01,0.02 -0.03,0.02z"/>
          <path class="fil60" d="M9.85 16.91l0 0c-0.02,0 -0.03,-0.01 -0.03,-0.02l0 -0.24c0,-0.02 0.01,-0.03 0.03,-0.03l0 0c0.01,0 0.03,0.01 0.03,0.03l0 0.24c0,0.01 -0.02,0.02 -0.03,0.02z"/>
         </g>
        </g>
        <g>
         <path class="fil44" d="M9.57 16.12l-2.59 0c0.01,-0.03 0.03,-0.05 0.06,-0.05l2.47 0c0.03,0 0.06,0.02 0.06,0.05z"/>
         <path class="fil45" d="M9.57 16.48c0,0.03 -0.03,0.06 -0.06,0.06l-2.47 0c-0.03,0 -0.05,-0.03 -0.06,-0.06l2.59 0z"/>
         <path class="fil46" d="M7.63 16.12l0 0.36 -0.65 0c0,0 0,0 0,-0.01l0 -0.34c0,0 0,0 0,-0.01l0.65 0z"/>
         <rect class="fil47" x="7.63" y="16.12" width="1.19" height="0.36"/>
         <path class="fil48" d="M9.57 16.13l0 0.34c0,0.01 0,0.01 0,0.01l-0.76 0 0 -0.36 0.76 0c0,0.01 0,0.01 0,0.01z"/>
         <g>
          <path class="fil49" d="M7.09 16.45l0 0c-0.02,0 -0.03,-0.01 -0.03,-0.03l0 -0.24c0,-0.01 0.01,-0.02 0.03,-0.02l0 0c0.01,0 0.03,0.01 0.03,0.02l0 0.24c0,0.02 -0.02,0.03 -0.03,0.03z"/>
          <path class="fil49" d="M7.21 16.45l0 0c-0.02,0 -0.03,-0.01 -0.03,-0.03l0 -0.24c0,-0.01 0.01,-0.02 0.03,-0.02l0 0c0.01,0 0.03,0.01 0.03,0.02l0 0.24c0,0.02 -0.02,0.03 -0.03,0.03z"/>
          <path class="fil49" d="M7.33 16.45l0 0c-0.02,0 -0.03,-0.01 -0.03,-0.03l0 -0.24c0,-0.01 0.01,-0.02 0.03,-0.02l0 0c0.01,0 0.02,0.01 0.02,0.02l0 0.24c0,0.02 -0.01,0.03 -0.02,0.03z"/>
          <path class="fil49" d="M7.44 16.45l0 0c-0.01,0 -0.02,-0.01 -0.02,-0.03l0 -0.24c0,-0.01 0.01,-0.02 0.02,-0.02l0 0c0.02,0 0.03,0.01 0.03,0.02l0 0.24c0,0.02 -0.01,0.03 -0.03,0.03z"/>
          <path class="fil49" d="M7.56 16.45l0 0c-0.01,0 -0.03,-0.01 -0.03,-0.03l0 -0.24c0,-0.01 0.02,-0.02 0.03,-0.02l0 0c0.02,0 0.03,0.01 0.03,0.02l0 0.24c0,0.02 -0.01,0.03 -0.03,0.03z"/>
          <path class="fil50" d="M7.68 16.45l0 0c-0.01,0 -0.03,-0.01 -0.03,-0.03l0 -0.24c0,-0.01 0.02,-0.02 0.03,-0.02l0 0c0.02,0 0.03,0.01 0.03,0.02l0 0.24c0,0.02 -0.01,0.03 -0.03,0.03z"/>
          <path class="fil51" d="M7.8 16.45l0 0c-0.02,0 -0.03,-0.01 -0.03,-0.03l0 -0.24c0,-0.01 0.01,-0.02 0.03,-0.02l0 0c0.02,0 0.03,0.01 0.03,0.02l0 0.24c0,0.02 -0.01,0.03 -0.03,0.03z"/>
          <path class="fil52" d="M7.92 16.45l0 0c-0.02,0 -0.03,-0.01 -0.03,-0.03l0 -0.24c0,-0.01 0.01,-0.02 0.03,-0.02l0 0c0.02,0 0.03,0.01 0.03,0.02l0 0.24c0,0.02 -0.01,0.03 -0.03,0.03z"/>
          <path class="fil53" d="M8.04 16.45l0 0c-0.02,0 -0.03,-0.01 -0.03,-0.03l0 -0.24c0,-0.01 0.01,-0.02 0.03,-0.02l0 0c0.01,0 0.03,0.01 0.03,0.02l0 0.24c0,0.02 -0.02,0.03 -0.03,0.03z"/>
          <path class="fil54" d="M8.16 16.45l0 0c-0.02,0 -0.03,-0.01 -0.03,-0.03l0 -0.24c0,-0.01 0.01,-0.02 0.03,-0.02l0 0c0.01,0 0.03,0.01 0.03,0.02l0 0.24c0,0.02 -0.02,0.03 -0.03,0.03z"/>
          <path class="fil55" d="M8.28 16.45l0 0c-0.02,0 -0.03,-0.01 -0.03,-0.03l0 -0.24c0,-0.01 0.01,-0.02 0.03,-0.02l0 0c0.01,0 0.02,0.01 0.02,0.02l0 0.24c0,0.02 -0.01,0.03 -0.02,0.03z"/>
          <path class="fil56" d="M8.39 16.45l0 0c-0.01,0 -0.02,-0.01 -0.02,-0.03l0 -0.24c0,-0.01 0.01,-0.02 0.02,-0.02l0 0c0.02,0 0.03,0.01 0.03,0.02l0 0.24c0,0.02 -0.01,0.03 -0.03,0.03z"/>
          <path class="fil57" d="M8.51 16.45l0 0c-0.01,0 -0.03,-0.01 -0.03,-0.03l0 -0.24c0,-0.01 0.02,-0.02 0.03,-0.02l0 0c0.02,0 0.03,0.01 0.03,0.02l0 0.24c0,0.02 -0.01,0.03 -0.03,0.03z"/>
          <path class="fil58" d="M8.63 16.45l0 0c-0.01,0 -0.03,-0.01 -0.03,-0.03l0 -0.24c0,-0.01 0.02,-0.02 0.03,-0.02l0 0c0.02,0 0.03,0.01 0.03,0.02l0 0.24c0,0.02 -0.01,0.03 -0.03,0.03z"/>
          <path class="fil59" d="M8.75 16.45l0 0c-0.01,0 -0.03,-0.01 -0.03,-0.03l0 -0.24c0,-0.01 0.02,-0.02 0.03,-0.02l0 0c0.02,0 0.03,0.01 0.03,0.02l0 0.24c0,0.02 -0.01,0.03 -0.03,0.03z"/>
          <path class="fil60" d="M8.87 16.45l0 0c-0.02,0 -0.03,-0.01 -0.03,-0.03l0 -0.24c0,-0.01 0.01,-0.02 0.03,-0.02l0 0c0.02,0 0.03,0.01 0.03,0.02l0 0.24c0,0.02 -0.01,0.03 -0.03,0.03z"/>
          <path class="fil61" d="M8.99 16.45l0 0c-0.02,0 -0.03,-0.01 -0.03,-0.03l0 -0.24c0,-0.01 0.01,-0.02 0.03,-0.02l0 0c0.01,0 0.03,0.01 0.03,0.02l0 0.24c0,0.02 -0.02,0.03 -0.03,0.03z"/>
          <path class="fil62" d="M9.11 16.45l0 0c-0.02,0 -0.03,-0.01 -0.03,-0.03l0 -0.24c0,-0.01 0.01,-0.02 0.03,-0.02l0 0c0.01,0 0.03,0.01 0.03,0.02l0 0.24c0,0.02 -0.02,0.03 -0.03,0.03z"/>
          <path class="fil63" d="M9.23 16.45l0 0c-0.02,0 -0.03,-0.01 -0.03,-0.03l0 -0.24c0,-0.01 0.01,-0.02 0.03,-0.02l0 0c0.01,0 0.02,0.01 0.02,0.02l0 0.24c0,0.02 -0.01,0.03 -0.02,0.03z"/>
          <path class="fil64" d="M9.34 16.45l0 0c-0.01,0 -0.02,-0.01 -0.02,-0.03l0 -0.24c0,-0.01 0.01,-0.02 0.02,-0.02l0 0c0.02,0 0.03,0.01 0.03,0.02l0 0.24c0,0.02 -0.01,0.03 -0.03,0.03z"/>
          <path class="fil60" d="M9.46 16.45l0 0c-0.01,0 -0.02,-0.01 -0.02,-0.03l0 -0.24c0,-0.01 0.01,-0.02 0.02,-0.02l0 0c0.02,0 0.03,0.01 0.03,0.02l0 0.24c0,0.02 -0.01,0.03 -0.03,0.03z"/>
         </g>
        </g>
        <g>
         <path class="fil44" d="M9.98 15.66l-2.59 0c0,-0.03 0.03,-0.05 0.06,-0.05l2.47 0c0.03,0 0.05,0.02 0.06,0.05z"/>
         <path class="fil45" d="M9.98 16.02c-0.01,0.03 -0.03,0.05 -0.06,0.05l-2.47 0c-0.03,0 -0.06,-0.02 -0.06,-0.05l2.59 0z"/>
         <path class="fil46" d="M8.03 15.66l0 0.36 -0.64 0c0,0 0,0 0,-0.01l0 -0.34c0,0 0,-0.01 0,-0.01l0.64 0z"/>
         <rect class="fil47" x="8.03" y="15.66" width="1.19" height="0.36"/>
         <path class="fil48" d="M9.98 15.67l0 0.34c0,0.01 0,0.01 0,0.01l-0.76 0 0 -0.36 0.76 0c0,0 0,0.01 0,0.01z"/>
         <g>
          <path class="fil49" d="M7.5 15.99l0 0c-0.02,0 -0.03,-0.01 -0.03,-0.03l0 -0.24c0,-0.01 0.01,-0.03 0.03,-0.03l0 0c0.01,0 0.02,0.02 0.02,0.03l0 0.24c0,0.02 -0.01,0.03 -0.02,0.03z"/>
          <path class="fil49" d="M7.61 15.99l0 0c-0.01,0 -0.02,-0.01 -0.02,-0.03l0 -0.24c0,-0.01 0.01,-0.03 0.02,-0.03l0 0c0.02,0 0.03,0.02 0.03,0.03l0 0.24c0,0.02 -0.01,0.03 -0.03,0.03z"/>
          <path class="fil49" d="M7.73 15.99l0 0c-0.01,0 -0.03,-0.01 -0.03,-0.03l0 -0.24c0,-0.01 0.02,-0.03 0.03,-0.03l0 0c0.02,0 0.03,0.02 0.03,0.03l0 0.24c0,0.02 -0.01,0.03 -0.03,0.03z"/>
          <path class="fil49" d="M7.85 15.99l0 0c-0.01,0 -0.03,-0.01 -0.03,-0.03l0 -0.24c0,-0.01 0.02,-0.03 0.03,-0.03l0 0c0.02,0 0.03,0.02 0.03,0.03l0 0.24c0,0.02 -0.01,0.03 -0.03,0.03z"/>
          <path class="fil49" d="M7.97 15.99l0 0c-0.02,0 -0.03,-0.01 -0.03,-0.03l0 -0.24c0,-0.01 0.01,-0.03 0.03,-0.03l0 0c0.02,0 0.03,0.02 0.03,0.03l0 0.24c0,0.02 -0.01,0.03 -0.03,0.03z"/>
          <path class="fil50" d="M8.09 15.99l0 0c-0.02,0 -0.03,-0.01 -0.03,-0.03l0 -0.24c0,-0.01 0.01,-0.03 0.03,-0.03l0 0c0.02,0 0.03,0.02 0.03,0.03l0 0.24c0,0.02 -0.01,0.03 -0.03,0.03z"/>
          <path class="fil51" d="M8.21 15.99l0 0c-0.02,0 -0.03,-0.01 -0.03,-0.03l0 -0.24c0,-0.01 0.01,-0.03 0.03,-0.03l0 0c0.01,0 0.03,0.02 0.03,0.03l0 0.24c0,0.02 -0.02,0.03 -0.03,0.03z"/>
          <path class="fil52" d="M8.33 15.99l0 0c-0.02,0 -0.03,-0.01 -0.03,-0.03l0 -0.24c0,-0.01 0.01,-0.03 0.03,-0.03l0 0c0.01,0 0.03,0.02 0.03,0.03l0 0.24c0,0.02 -0.02,0.03 -0.03,0.03z"/>
          <path class="fil53" d="M8.45 15.99l0 0c-0.02,0 -0.03,-0.01 -0.03,-0.03l0 -0.24c0,-0.01 0.01,-0.03 0.03,-0.03l0 0c0.01,0 0.02,0.02 0.02,0.03l0 0.24c0,0.02 -0.01,0.03 -0.02,0.03z"/>
          <path class="fil54" d="M8.56 15.99l0 0c-0.01,0 -0.02,-0.01 -0.02,-0.03l0 -0.24c0,-0.01 0.01,-0.03 0.02,-0.03l0 0c0.02,0 0.03,0.02 0.03,0.03l0 0.24c0,0.02 -0.01,0.03 -0.03,0.03z"/>
          <path class="fil55" d="M8.68 15.99l0 0c-0.01,0 -0.03,-0.01 -0.03,-0.03l0 -0.24c0,-0.01 0.02,-0.03 0.03,-0.03l0 0c0.02,0 0.03,0.02 0.03,0.03l0 0.24c0,0.02 -0.01,0.03 -0.03,0.03z"/>
          <path class="fil56" d="M8.8 15.99l0 0c-0.01,0 -0.03,-0.01 -0.03,-0.03l0 -0.24c0,-0.01 0.02,-0.03 0.03,-0.03l0 0c0.02,0 0.03,0.02 0.03,0.03l0 0.24c0,0.02 -0.01,0.03 -0.03,0.03z"/>
          <path class="fil57" d="M8.92 15.99l0 0c-0.02,0 -0.03,-0.01 -0.03,-0.03l0 -0.24c0,-0.01 0.01,-0.03 0.03,-0.03l0 0c0.02,0 0.03,0.02 0.03,0.03l0 0.24c0,0.02 -0.01,0.03 -0.03,0.03z"/>
          <path class="fil58" d="M9.04 15.99l0 0c-0.02,0 -0.03,-0.01 -0.03,-0.03l0 -0.24c0,-0.01 0.01,-0.03 0.03,-0.03l0 0c0.02,0 0.03,0.02 0.03,0.03l0 0.24c0,0.02 -0.01,0.03 -0.03,0.03z"/>
          <path class="fil59" d="M9.16 15.99l0 0c-0.02,0 -0.03,-0.01 -0.03,-0.03l0 -0.24c0,-0.01 0.01,-0.03 0.03,-0.03l0 0c0.01,0 0.03,0.02 0.03,0.03l0 0.24c0,0.02 -0.02,0.03 -0.03,0.03z"/>
          <path class="fil60" d="M9.28 15.99l0 0c-0.02,0 -0.03,-0.01 -0.03,-0.03l0 -0.24c0,-0.01 0.01,-0.03 0.03,-0.03l0 0c0.01,0 0.03,0.02 0.03,0.03l0 0.24c0,0.02 -0.02,0.03 -0.03,0.03z"/>
          <path class="fil61" d="M9.4 15.99l0 0c-0.02,0 -0.03,-0.01 -0.03,-0.03l0 -0.24c0,-0.01 0.01,-0.03 0.03,-0.03l0 0c0.01,0 0.02,0.02 0.02,0.03l0 0.24c0,0.02 -0.01,0.03 -0.02,0.03z"/>
          <path class="fil62" d="M9.51 15.99l0 0c-0.01,0 -0.02,-0.01 -0.02,-0.03l0 -0.24c0,-0.01 0.01,-0.03 0.02,-0.03l0 0c0.02,0 0.03,0.02 0.03,0.03l0 0.24c0,0.02 -0.01,0.03 -0.03,0.03z"/>
          <path class="fil63" d="M9.63 15.99l0 0c-0.01,0 -0.03,-0.01 -0.03,-0.03l0 -0.24c0,-0.01 0.02,-0.03 0.03,-0.03l0 0c0.02,0 0.03,0.02 0.03,0.03l0 0.24c0,0.02 -0.01,0.03 -0.03,0.03z"/>
          <path class="fil64" d="M9.75 15.99l0 0c-0.01,0 -0.03,-0.01 -0.03,-0.03l0 -0.24c0,-0.01 0.02,-0.03 0.03,-0.03l0 0c0.02,0 0.03,0.02 0.03,0.03l0 0.24c0,0.02 -0.01,0.03 -0.03,0.03z"/>
          <path class="fil60" d="M9.87 15.99l0 0c-0.01,0 -0.03,-0.01 -0.03,-0.03l0 -0.24c0,-0.01 0.02,-0.03 0.03,-0.03l0 0c0.02,0 0.03,0.02 0.03,0.03l0 0.24c0,0.02 -0.01,0.03 -0.03,0.03z"/>
         </g>
        </g>
        <g>
         <path class="fil44" d="M9.42 15.2l-2.6 0c0.01,-0.03 0.03,-0.05 0.06,-0.05l2.48 0c0.03,0 0.05,0.02 0.06,0.05z"/>
         <path class="fil45" d="M9.42 15.56c-0.01,0.03 -0.03,0.05 -0.06,0.05l-2.48 0c-0.03,0 -0.05,-0.02 -0.06,-0.05l2.6 0z"/>
         <path class="fil46" d="M7.47 15.2l0 0.36 -0.65 0c0,0 0,-0.01 0,-0.01l0 -0.34c0,0 0,-0.01 0,-0.01l0.65 0z"/>
         <rect class="fil47" x="7.47" y="15.2" width="1.19" height="0.36"/>
         <path class="fil48" d="M9.42 15.21l0 0.34c0,0 0,0.01 0,0.01l-0.76 0 0 -0.36 0.76 0c0,0 0,0.01 0,0.01z"/>
         <g>
          <path class="fil49" d="M6.93 15.53l0 0c-0.01,0 -0.03,-0.01 -0.03,-0.03l0 -0.24c0,-0.02 0.02,-0.03 0.03,-0.03l0 0c0.02,0 0.03,0.01 0.03,0.03l0 0.24c0,0.02 -0.01,0.03 -0.03,0.03z"/>
          <path class="fil49" d="M7.05 15.53l0 0c-0.02,0 -0.03,-0.01 -0.03,-0.03l0 -0.24c0,-0.02 0.01,-0.03 0.03,-0.03l0 0c0.02,0 0.03,0.01 0.03,0.03l0 0.24c0,0.02 -0.01,0.03 -0.03,0.03z"/>
          <path class="fil49" d="M7.17 15.53l0 0c-0.02,0 -0.03,-0.01 -0.03,-0.03l0 -0.24c0,-0.02 0.01,-0.03 0.03,-0.03l0 0c0.02,0 0.03,0.01 0.03,0.03l0 0.24c0,0.02 -0.01,0.03 -0.03,0.03z"/>
          <path class="fil49" d="M7.29 15.53l0 0c-0.02,0 -0.03,-0.01 -0.03,-0.03l0 -0.24c0,-0.02 0.01,-0.03 0.03,-0.03l0 0c0.01,0 0.03,0.01 0.03,0.03l0 0.24c0,0.02 -0.02,0.03 -0.03,0.03z"/>
          <path class="fil49" d="M7.41 15.53l0 0c-0.02,0 -0.03,-0.01 -0.03,-0.03l0 -0.24c0,-0.02 0.01,-0.03 0.03,-0.03l0 0c0.01,0 0.03,0.01 0.03,0.03l0 0.24c0,0.02 -0.02,0.03 -0.03,0.03z"/>
          <path class="fil50" d="M7.53 15.53l0 0c-0.02,0 -0.03,-0.01 -0.03,-0.03l0 -0.24c0,-0.02 0.01,-0.03 0.03,-0.03l0 0c0.01,0 0.02,0.01 0.02,0.03l0 0.24c0,0.02 -0.01,0.03 -0.02,0.03z"/>
          <path class="fil51" d="M7.64 15.53l0 0c-0.01,0 -0.02,-0.01 -0.02,-0.03l0 -0.24c0,-0.02 0.01,-0.03 0.02,-0.03l0 0c0.02,0 0.03,0.01 0.03,0.03l0 0.24c0,0.02 -0.01,0.03 -0.03,0.03z"/>
          <path class="fil52" d="M7.76 15.53l0 0c-0.01,0 -0.03,-0.01 -0.03,-0.03l0 -0.24c0,-0.02 0.02,-0.03 0.03,-0.03l0 0c0.02,0 0.03,0.01 0.03,0.03l0 0.24c0,0.02 -0.01,0.03 -0.03,0.03z"/>
          <path class="fil53" d="M7.88 15.53l0 0c-0.01,0 -0.03,-0.01 -0.03,-0.03l0 -0.24c0,-0.02 0.02,-0.03 0.03,-0.03l0 0c0.02,0 0.03,0.01 0.03,0.03l0 0.24c0,0.02 -0.01,0.03 -0.03,0.03z"/>
          <path class="fil54" d="M8 15.53l0 0c-0.01,0 -0.03,-0.01 -0.03,-0.03l0 -0.24c0,-0.02 0.02,-0.03 0.03,-0.03l0 0c0.02,0 0.03,0.01 0.03,0.03l0 0.24c0,0.02 -0.01,0.03 -0.03,0.03z"/>
          <path class="fil55" d="M8.12 15.53l0 0c-0.02,0 -0.03,-0.01 -0.03,-0.03l0 -0.24c0,-0.02 0.01,-0.03 0.03,-0.03l0 0c0.02,0 0.03,0.01 0.03,0.03l0 0.24c0,0.02 -0.01,0.03 -0.03,0.03z"/>
          <path class="fil56" d="M8.24 15.53l0 0c-0.02,0 -0.03,-0.01 -0.03,-0.03l0 -0.24c0,-0.02 0.01,-0.03 0.03,-0.03l0 0c0.01,0 0.03,0.01 0.03,0.03l0 0.24c0,0.02 -0.02,0.03 -0.03,0.03z"/>
          <path class="fil57" d="M8.36 15.53l0 0c-0.02,0 -0.03,-0.01 -0.03,-0.03l0 -0.24c0,-0.02 0.01,-0.03 0.03,-0.03l0 0c0.01,0 0.03,0.01 0.03,0.03l0 0.24c0,0.02 -0.02,0.03 -0.03,0.03z"/>
          <path class="fil58" d="M8.48 15.53l0 0c-0.02,0 -0.03,-0.01 -0.03,-0.03l0 -0.24c0,-0.02 0.01,-0.03 0.03,-0.03l0 0c0.01,0 0.02,0.01 0.02,0.03l0 0.24c0,0.02 -0.01,0.03 -0.02,0.03z"/>
          <path class="fil59" d="M8.59 15.53l0 0c-0.01,0 -0.02,-0.01 -0.02,-0.03l0 -0.24c0,-0.02 0.01,-0.03 0.02,-0.03l0 0c0.02,0 0.03,0.01 0.03,0.03l0 0.24c0,0.02 -0.01,0.03 -0.03,0.03z"/>
          <path class="fil60" d="M8.71 15.53l0 0c-0.01,0 -0.03,-0.01 -0.03,-0.03l0 -0.24c0,-0.02 0.02,-0.03 0.03,-0.03l0 0c0.02,0 0.03,0.01 0.03,0.03l0 0.24c0,0.02 -0.01,0.03 -0.03,0.03z"/>
          <path class="fil61" d="M8.83 15.53l0 0c-0.01,0 -0.03,-0.01 -0.03,-0.03l0 -0.24c0,-0.02 0.02,-0.03 0.03,-0.03l0 0c0.02,0 0.03,0.01 0.03,0.03l0 0.24c0,0.02 -0.01,0.03 -0.03,0.03z"/>
          <path class="fil62" d="M8.95 15.53l0 0c-0.01,0 -0.03,-0.01 -0.03,-0.03l0 -0.24c0,-0.02 0.02,-0.03 0.03,-0.03l0 0c0.02,0 0.03,0.01 0.03,0.03l0 0.24c0,0.02 -0.01,0.03 -0.03,0.03z"/>
          <path class="fil63" d="M9.07 15.53l0 0c-0.02,0 -0.03,-0.01 -0.03,-0.03l0 -0.24c0,-0.02 0.01,-0.03 0.03,-0.03l0 0c0.02,0 0.03,0.01 0.03,0.03l0 0.24c0,0.02 -0.01,0.03 -0.03,0.03z"/>
          <path class="fil64" d="M9.19 15.53l0 0c-0.02,0 -0.03,-0.01 -0.03,-0.03l0 -0.24c0,-0.02 0.01,-0.03 0.03,-0.03l0 0c0.01,0 0.03,0.01 0.03,0.03l0 0.24c0,0.02 -0.02,0.03 -0.03,0.03z"/>
          <path class="fil60" d="M9.31 15.53l0 0c-0.02,0 -0.03,-0.01 -0.03,-0.03l0 -0.24c0,-0.02 0.01,-0.03 0.03,-0.03l0 0c0.01,0 0.03,0.01 0.03,0.03l0 0.24c0,0.02 -0.02,0.03 -0.03,0.03z"/>
         </g>
        </g>
       </g>
      </g>
     </g>
    </g>
    <g>
     <circle class="fil65" cx="6.94" cy="16.83" r="1.55"/>
     <g>
      <circle class="fil66 str0" cx="6.75" cy="16.83" r="1.55"/>
      <path class="fil67" d="M5.57 16.83c0,0.66 0.53,1.19 1.18,1.19 0.27,0 0.52,-0.09 0.72,-0.24 -0.18,0.11 -0.4,0.18 -0.63,0.18 -0.65,0 -1.18,-0.53 -1.18,-1.19 0,-0.38 0.18,-0.73 0.47,-0.94 -0.34,0.21 -0.56,0.58 -0.56,1z"/>
      <path class="fil68" d="M5.66 16.77c0,0.66 0.53,1.19 1.18,1.19 0.23,0 0.45,-0.07 0.63,-0.18 0.28,-0.22 0.47,-0.56 0.47,-0.95 0,-0.65 -0.53,-1.18 -1.19,-1.18 -0.23,0 -0.44,0.06 -0.62,0.18 -0.29,0.21 -0.47,0.56 -0.47,0.94z"/>
      <path class="fil68" d="M5.66 16.77c0,0.66 0.53,1.19 1.18,1.19 0.23,0 0.45,-0.07 0.63,-0.18 0.28,-0.22 0.47,-0.56 0.47,-0.95 0,-0.65 -0.53,-1.18 -1.19,-1.18 -0.23,0 -0.44,0.06 -0.62,0.18 -0.29,0.21 -0.47,0.56 -0.47,0.94z"/>
     </g>
    </g>
    <g>
     <path class="fil44" d="M6.48 17.97l-2.59 0c0,-0.03 0.03,-0.05 0.06,-0.05l2.47 0c0.03,0 0.05,0.02 0.06,0.05z"/>
     <path class="fil45" d="M6.48 18.33c-0.01,0.03 -0.03,0.05 -0.06,0.05l-2.47 0c-0.03,0 -0.06,-0.02 -0.06,-0.05l2.59 0z"/>
     <path class="fil46" d="M4.53 17.97l0 0.36 -0.64 0c0,0 0,0 0,-0.01l0 -0.34c0,0 0,-0.01 0,-0.01l0.64 0z"/>
     <rect class="fil47" x="4.53" y="17.97" width="1.19" height="0.36"/>
     <path class="fil48" d="M6.48 17.98l0 0.34c0,0.01 0,0.01 0,0.01l-0.76 0 0 -0.36 0.76 0c0,0 0,0.01 0,0.01z"/>
     <g>
      <path class="fil49" d="M3.99 18.3l0 0c-0.01,0 -0.02,-0.01 -0.02,-0.03l0 -0.24c0,-0.01 0.01,-0.03 0.02,-0.03l0 0c0.02,0 0.03,0.02 0.03,0.03l0 0.24c0,0.02 -0.01,0.03 -0.03,0.03z"/>
      <path class="fil49" d="M4.11 18.3l0 0c-0.01,0 -0.03,-0.01 -0.03,-0.03l0 -0.24c0,-0.01 0.02,-0.03 0.03,-0.03l0 0c0.02,0 0.03,0.02 0.03,0.03l0 0.24c0,0.02 -0.01,0.03 -0.03,0.03z"/>
      <path class="fil49" d="M4.23 18.3l0 0c-0.01,0 -0.03,-0.01 -0.03,-0.03l0 -0.24c0,-0.01 0.02,-0.03 0.03,-0.03l0 0c0.02,0 0.03,0.02 0.03,0.03l0 0.24c0,0.02 -0.01,0.03 -0.03,0.03z"/>
      <path class="fil49" d="M4.35 18.3l0 0c-0.01,0 -0.03,-0.01 -0.03,-0.03l0 -0.24c0,-0.01 0.02,-0.03 0.03,-0.03l0 0c0.02,0 0.03,0.02 0.03,0.03l0 0.24c0,0.02 -0.01,0.03 -0.03,0.03z"/>
      <path class="fil49" d="M4.47 18.3l0 0c-0.02,0 -0.03,-0.01 -0.03,-0.03l0 -0.24c0,-0.01 0.01,-0.03 0.03,-0.03l0 0c0.02,0 0.03,0.02 0.03,0.03l0 0.24c0,0.02 -0.01,0.03 -0.03,0.03z"/>
      <path class="fil50" d="M4.59 18.3l0 0c-0.02,0 -0.03,-0.01 -0.03,-0.03l0 -0.24c0,-0.01 0.01,-0.03 0.03,-0.03l0 0c0.01,0 0.03,0.02 0.03,0.03l0 0.24c0,0.02 -0.02,0.03 -0.03,0.03z"/>
      <path class="fil51" d="M4.71 18.3l0 0c-0.02,0 -0.03,-0.01 -0.03,-0.03l0 -0.24c0,-0.01 0.01,-0.03 0.03,-0.03l0 0c0.01,0 0.03,0.02 0.03,0.03l0 0.24c0,0.02 -0.02,0.03 -0.03,0.03z"/>
      <path class="fil52" d="M4.83 18.3l0 0c-0.02,0 -0.03,-0.01 -0.03,-0.03l0 -0.24c0,-0.01 0.01,-0.03 0.03,-0.03l0 0c0.01,0 0.02,0.02 0.02,0.03l0 0.24c0,0.02 -0.01,0.03 -0.02,0.03z"/>
      <path class="fil53" d="M4.94 18.3l0 0c-0.01,0 -0.02,-0.01 -0.02,-0.03l0 -0.24c0,-0.01 0.01,-0.03 0.02,-0.03l0 0c0.02,0 0.03,0.02 0.03,0.03l0 0.24c0,0.02 -0.01,0.03 -0.03,0.03z"/>
      <path class="fil54" d="M5.06 18.3l0 0c-0.01,0 -0.03,-0.01 -0.03,-0.03l0 -0.24c0,-0.01 0.02,-0.03 0.03,-0.03l0 0c0.02,0 0.03,0.02 0.03,0.03l0 0.24c0,0.02 -0.01,0.03 -0.03,0.03z"/>
      <path class="fil55" d="M5.18 18.3l0 0c-0.01,0 -0.03,-0.01 -0.03,-0.03l0 -0.24c0,-0.01 0.02,-0.03 0.03,-0.03l0 0c0.02,0 0.03,0.02 0.03,0.03l0 0.24c0,0.02 -0.01,0.03 -0.03,0.03z"/>
      <path class="fil56" d="M5.3 18.3l0 0c-0.01,0 -0.03,-0.01 -0.03,-0.03l0 -0.24c0,-0.01 0.02,-0.03 0.03,-0.03l0 0c0.02,0 0.03,0.02 0.03,0.03l0 0.24c0,0.02 -0.01,0.03 -0.03,0.03z"/>
      <path class="fil57" d="M5.42 18.3l0 0c-0.02,0 -0.03,-0.01 -0.03,-0.03l0 -0.24c0,-0.01 0.01,-0.03 0.03,-0.03l0 0c0.02,0 0.03,0.02 0.03,0.03l0 0.24c0,0.02 -0.01,0.03 -0.03,0.03z"/>
      <path class="fil58" d="M5.54 18.3l0 0c-0.02,0 -0.03,-0.01 -0.03,-0.03l0 -0.24c0,-0.01 0.01,-0.03 0.03,-0.03l0 0c0.01,0 0.03,0.02 0.03,0.03l0 0.24c0,0.02 -0.02,0.03 -0.03,0.03z"/>
      <path class="fil59" d="M5.66 18.3l0 0c-0.02,0 -0.03,-0.01 -0.03,-0.03l0 -0.24c0,-0.01 0.01,-0.03 0.03,-0.03l0 0c0.01,0 0.03,0.02 0.03,0.03l0 0.24c0,0.02 -0.02,0.03 -0.03,0.03z"/>
      <path class="fil60" d="M5.78 18.3l0 0c-0.02,0 -0.03,-0.01 -0.03,-0.03l0 -0.24c0,-0.01 0.01,-0.03 0.03,-0.03l0 0c0.01,0 0.03,0.02 0.03,0.03l0 0.24c0,0.02 -0.02,0.03 -0.03,0.03z"/>
      <path class="fil61" d="M5.9 18.3l0 0c-0.02,0 -0.03,-0.01 -0.03,-0.03l0 -0.24c0,-0.01 0.01,-0.03 0.03,-0.03l0 0c0.01,0 0.02,0.02 0.02,0.03l0 0.24c0,0.02 -0.01,0.03 -0.02,0.03z"/>
      <path class="fil62" d="M6.01 18.3l0 0c-0.01,0 -0.02,-0.01 -0.02,-0.03l0 -0.24c0,-0.01 0.01,-0.03 0.02,-0.03l0 0c0.02,0 0.03,0.02 0.03,0.03l0 0.24c0,0.02 -0.01,0.03 -0.03,0.03z"/>
      <path class="fil63" d="M6.13 18.3l0 0c-0.01,0 -0.03,-0.01 -0.03,-0.03l0 -0.24c0,-0.01 0.02,-0.03 0.03,-0.03l0 0c0.02,0 0.03,0.02 0.03,0.03l0 0.24c0,0.02 -0.01,0.03 -0.03,0.03z"/>
      <path class="fil64" d="M6.25 18.3l0 0c-0.01,0 -0.03,-0.01 -0.03,-0.03l0 -0.24c0,-0.01 0.02,-0.03 0.03,-0.03l0 0c0.02,0 0.03,0.02 0.03,0.03l0 0.24c0,0.02 -0.01,0.03 -0.03,0.03z"/>
      <path class="fil60" d="M6.37 18.3l0 0c-0.02,0 -0.03,-0.01 -0.03,-0.03l0 -0.24c0,-0.01 0.01,-0.03 0.03,-0.03l0 0c0.02,0 0.03,0.02 0.03,0.03l0 0.24c0,0.02 -0.01,0.03 -0.03,0.03z"/>
     </g>
    </g>
    <g>
     <path class="fil44" d="M11.91 17.97l-2.59 0c0,-0.03 0.03,-0.05 0.06,-0.05l2.47 0c0.03,0 0.05,0.02 0.06,0.05z"/>
     <path class="fil45" d="M11.91 18.33c-0.01,0.03 -0.03,0.05 -0.06,0.05l-2.47 0c-0.03,0 -0.06,-0.02 -0.06,-0.05l2.59 0z"/>
     <path class="fil46" d="M9.96 17.97l0 0.36 -0.64 0c0,0 0,0 0,-0.01l0 -0.34c0,0 0,-0.01 0,-0.01l0.64 0z"/>
     <rect class="fil47" x="9.96" y="17.97" width="1.19" height="0.36"/>
     <path class="fil48" d="M11.91 17.98l0 0.34c0,0.01 0,0.01 0,0.01l-0.76 0 0 -0.36 0.76 0c0,0 0,0.01 0,0.01z"/>
     <g>
      <path class="fil49" d="M9.43 18.3l0 0c-0.02,0 -0.03,-0.01 -0.03,-0.03l0 -0.24c0,-0.01 0.01,-0.03 0.03,-0.03l0 0c0.01,0 0.02,0.02 0.02,0.03l0 0.24c0,0.02 -0.01,0.03 -0.02,0.03z"/>
      <path class="fil49" d="M9.54 18.3l0 0c-0.01,0 -0.02,-0.01 -0.02,-0.03l0 -0.24c0,-0.01 0.01,-0.03 0.02,-0.03l0 0c0.02,0 0.03,0.02 0.03,0.03l0 0.24c0,0.02 -0.01,0.03 -0.03,0.03z"/>
      <path class="fil49" d="M9.66 18.3l0 0c-0.01,0 -0.03,-0.01 -0.03,-0.03l0 -0.24c0,-0.01 0.02,-0.03 0.03,-0.03l0 0c0.02,0 0.03,0.02 0.03,0.03l0 0.24c0,0.02 -0.01,0.03 -0.03,0.03z"/>
      <path class="fil49" d="M9.78 18.3l0 0c-0.01,0 -0.03,-0.01 -0.03,-0.03l0 -0.24c0,-0.01 0.02,-0.03 0.03,-0.03l0 0c0.02,0 0.03,0.02 0.03,0.03l0 0.24c0,0.02 -0.01,0.03 -0.03,0.03z"/>
      <path class="fil49" d="M9.9 18.3l0 0c-0.02,0 -0.03,-0.01 -0.03,-0.03l0 -0.24c0,-0.01 0.01,-0.03 0.03,-0.03l0 0c0.02,0 0.03,0.02 0.03,0.03l0 0.24c0,0.02 -0.01,0.03 -0.03,0.03z"/>
      <path class="fil50" d="M10.02 18.3l0 0c-0.02,0 -0.03,-0.01 -0.03,-0.03l0 -0.24c0,-0.01 0.01,-0.03 0.03,-0.03l0 0c0.02,0 0.03,0.02 0.03,0.03l0 0.24c0,0.02 -0.01,0.03 -0.03,0.03z"/>
      <path class="fil51" d="M10.14 18.3l0 0c-0.02,0 -0.03,-0.01 -0.03,-0.03l0 -0.24c0,-0.01 0.01,-0.03 0.03,-0.03l0 0c0.01,0 0.03,0.02 0.03,0.03l0 0.24c0,0.02 -0.02,0.03 -0.03,0.03z"/>
      <path class="fil52" d="M10.26 18.3l0 0c-0.02,0 -0.03,-0.01 -0.03,-0.03l0 -0.24c0,-0.01 0.01,-0.03 0.03,-0.03l0 0c0.01,0 0.03,0.02 0.03,0.03l0 0.24c0,0.02 -0.02,0.03 -0.03,0.03z"/>
      <path class="fil53" d="M10.38 18.3l0 0c-0.02,0 -0.03,-0.01 -0.03,-0.03l0 -0.24c0,-0.01 0.01,-0.03 0.03,-0.03l0 0c0.01,0 0.02,0.02 0.02,0.03l0 0.24c0,0.02 -0.01,0.03 -0.02,0.03z"/>
      <path class="fil54" d="M10.49 18.3l0 0c-0.01,0 -0.02,-0.01 -0.02,-0.03l0 -0.24c0,-0.01 0.01,-0.03 0.02,-0.03l0 0c0.02,0 0.03,0.02 0.03,0.03l0 0.24c0,0.02 -0.01,0.03 -0.03,0.03z"/>
      <path class="fil55" d="M10.61 18.3l0 0c-0.01,0 -0.03,-0.01 -0.03,-0.03l0 -0.24c0,-0.01 0.02,-0.03 0.03,-0.03l0 0c0.02,0 0.03,0.02 0.03,0.03l0 0.24c0,0.02 -0.01,0.03 -0.03,0.03z"/>
      <path class="fil56" d="M10.73 18.3l0 0c-0.01,0 -0.03,-0.01 -0.03,-0.03l0 -0.24c0,-0.01 0.02,-0.03 0.03,-0.03l0 0c0.02,0 0.03,0.02 0.03,0.03l0 0.24c0,0.02 -0.01,0.03 -0.03,0.03z"/>
      <path class="fil57" d="M10.85 18.3l0 0c-0.02,0 -0.03,-0.01 -0.03,-0.03l0 -0.24c0,-0.01 0.01,-0.03 0.03,-0.03l0 0c0.02,0 0.03,0.02 0.03,0.03l0 0.24c0,0.02 -0.01,0.03 -0.03,0.03z"/>
      <path class="fil58" d="M10.97 18.3l0 0c-0.02,0 -0.03,-0.01 -0.03,-0.03l0 -0.24c0,-0.01 0.01,-0.03 0.03,-0.03l0 0c0.02,0 0.03,0.02 0.03,0.03l0 0.24c0,0.02 -0.01,0.03 -0.03,0.03z"/>
      <path class="fil59" d="M11.09 18.3l0 0c-0.02,0 -0.03,-0.01 -0.03,-0.03l0 -0.24c0,-0.01 0.01,-0.03 0.03,-0.03l0 0c0.01,0 0.03,0.02 0.03,0.03l0 0.24c0,0.02 -0.02,0.03 -0.03,0.03z"/>
      <path class="fil60" d="M11.21 18.3l0 0c-0.02,0 -0.03,-0.01 -0.03,-0.03l0 -0.24c0,-0.01 0.01,-0.03 0.03,-0.03l0 0c0.01,0 0.03,0.02 0.03,0.03l0 0.24c0,0.02 -0.02,0.03 -0.03,0.03z"/>
      <path class="fil61" d="M11.33 18.3l0 0c-0.02,0 -0.03,-0.01 -0.03,-0.03l0 -0.24c0,-0.01 0.01,-0.03 0.03,-0.03l0 0c0.01,0 0.02,0.02 0.02,0.03l0 0.24c0,0.02 -0.01,0.03 -0.02,0.03z"/>
      <path class="fil62" d="M11.44 18.3l0 0c-0.01,0 -0.02,-0.01 -0.02,-0.03l0 -0.24c0,-0.01 0.01,-0.03 0.02,-0.03l0 0c0.02,0 0.03,0.02 0.03,0.03l0 0.24c0,0.02 -0.01,0.03 -0.03,0.03z"/>
      <path class="fil63" d="M11.56 18.3l0 0c-0.01,0 -0.03,-0.01 -0.03,-0.03l0 -0.24c0,-0.01 0.02,-0.03 0.03,-0.03l0 0c0.02,0 0.03,0.02 0.03,0.03l0 0.24c0,0.02 -0.01,0.03 -0.03,0.03z"/>
      <path class="fil64" d="M11.68 18.3l0 0c-0.01,0 -0.03,-0.01 -0.03,-0.03l0 -0.24c0,-0.01 0.02,-0.03 0.03,-0.03l0 0c0.02,0 0.03,0.02 0.03,0.03l0 0.24c0,0.02 -0.01,0.03 -0.03,0.03z"/>
      <path class="fil60" d="M11.8 18.3l0 0c-0.01,0 -0.03,-0.01 -0.03,-0.03l0 -0.24c0,-0.01 0.02,-0.03 0.03,-0.03l0 0c0.02,0 0.03,0.02 0.03,0.03l0 0.24c0,0.02 -0.01,0.03 -0.03,0.03z"/>
     </g>
    </g>
    <g>
     <path class="fil44" d="M11.14 17.51l-2.59 0c0.01,-0.03 0.03,-0.05 0.06,-0.05l2.47 0c0.03,0 0.06,0.02 0.06,0.05z"/>
     <path class="fil45" d="M11.14 17.87c0,0.03 -0.03,0.05 -0.06,0.05l-2.47 0c-0.03,0 -0.05,-0.02 -0.06,-0.05l2.59 0z"/>
     <path class="fil46" d="M9.2 17.51l0 0.36 -0.65 0c0,0 0,-0.01 0,-0.01l0 -0.34c0,0 0,-0.01 0,-0.01l0.65 0z"/>
     <rect class="fil47" x="9.2" y="17.51" width="1.19" height="0.36"/>
     <path class="fil48" d="M11.15 17.52l0 0.34c0,0 0,0.01 -0.01,0.01l-0.75 0 0 -0.36 0.75 0c0.01,0 0.01,0.01 0.01,0.01z"/>
     <g>
      <path class="fil49" d="M8.66 17.84l0 0c-0.02,0 -0.03,-0.01 -0.03,-0.03l0 -0.24c0,-0.02 0.01,-0.03 0.03,-0.03l0 0c0.02,0 0.03,0.01 0.03,0.03l0 0.24c0,0.02 -0.01,0.03 -0.03,0.03z"/>
      <path class="fil49" d="M8.78 17.84l0 0c-0.02,0 -0.03,-0.01 -0.03,-0.03l0 -0.24c0,-0.02 0.01,-0.03 0.03,-0.03l0 0c0.02,0 0.03,0.01 0.03,0.03l0 0.24c0,0.02 -0.01,0.03 -0.03,0.03z"/>
      <path class="fil49" d="M8.9 17.84l0 0c-0.02,0 -0.03,-0.01 -0.03,-0.03l0 -0.24c0,-0.02 0.01,-0.03 0.03,-0.03l0 0c0.01,0 0.03,0.01 0.03,0.03l0 0.24c0,0.02 -0.02,0.03 -0.03,0.03z"/>
      <path class="fil49" d="M9.02 17.84l0 0c-0.02,0 -0.03,-0.01 -0.03,-0.03l0 -0.24c0,-0.02 0.01,-0.03 0.03,-0.03l0 0c0.01,0 0.03,0.01 0.03,0.03l0 0.24c0,0.02 -0.02,0.03 -0.03,0.03z"/>
      <path class="fil49" d="M9.14 17.84l0 0c-0.02,0 -0.03,-0.01 -0.03,-0.03l0 -0.24c0,-0.02 0.01,-0.03 0.03,-0.03l0 0c0.01,0 0.02,0.01 0.02,0.03l0 0.24c0,0.02 -0.01,0.03 -0.02,0.03z"/>
      <path class="fil50" d="M9.25 17.84l0 0c-0.01,0 -0.02,-0.01 -0.02,-0.03l0 -0.24c0,-0.02 0.01,-0.03 0.02,-0.03l0 0c0.02,0 0.03,0.01 0.03,0.03l0 0.24c0,0.02 -0.01,0.03 -0.03,0.03z"/>
      <path class="fil51" d="M9.37 17.84l0 0c-0.01,0 -0.03,-0.01 -0.03,-0.03l0 -0.24c0,-0.02 0.02,-0.03 0.03,-0.03l0 0c0.02,0 0.03,0.01 0.03,0.03l0 0.24c0,0.02 -0.01,0.03 -0.03,0.03z"/>
      <path class="fil52" d="M9.49 17.84l0 0c-0.01,0 -0.03,-0.01 -0.03,-0.03l0 -0.24c0,-0.02 0.02,-0.03 0.03,-0.03l0 0c0.02,0 0.03,0.01 0.03,0.03l0 0.24c0,0.02 -0.01,0.03 -0.03,0.03z"/>
      <path class="fil53" d="M9.61 17.84l0 0c-0.01,0 -0.03,-0.01 -0.03,-0.03l0 -0.24c0,-0.02 0.02,-0.03 0.03,-0.03l0 0c0.02,0 0.03,0.01 0.03,0.03l0 0.24c0,0.02 -0.01,0.03 -0.03,0.03z"/>
      <path class="fil54" d="M9.73 17.84l0 0c-0.02,0 -0.03,-0.01 -0.03,-0.03l0 -0.24c0,-0.02 0.01,-0.03 0.03,-0.03l0 0c0.02,0 0.03,0.01 0.03,0.03l0 0.24c0,0.02 -0.01,0.03 -0.03,0.03z"/>
      <path class="fil55" d="M9.85 17.84l0 0c-0.02,0 -0.03,-0.01 -0.03,-0.03l0 -0.24c0,-0.02 0.01,-0.03 0.03,-0.03l0 0c0.01,0 0.03,0.01 0.03,0.03l0 0.24c0,0.02 -0.02,0.03 -0.03,0.03z"/>
      <path class="fil56" d="M9.97 17.84l0 0c-0.02,0 -0.03,-0.01 -0.03,-0.03l0 -0.24c0,-0.02 0.01,-0.03 0.03,-0.03l0 0c0.01,0 0.03,0.01 0.03,0.03l0 0.24c0,0.02 -0.02,0.03 -0.03,0.03z"/>
      <path class="fil57" d="M10.09 17.84l0 0c-0.02,0 -0.03,-0.01 -0.03,-0.03l0 -0.24c0,-0.02 0.01,-0.03 0.03,-0.03l0 0c0.01,0 0.02,0.01 0.02,0.03l0 0.24c0,0.02 -0.01,0.03 -0.02,0.03z"/>
      <path class="fil58" d="M10.21 17.84l0 0c-0.02,0 -0.03,-0.01 -0.03,-0.03l0 -0.24c0,-0.02 0.01,-0.03 0.03,-0.03l0 0c0.01,0 0.02,0.01 0.02,0.03l0 0.24c0,0.02 -0.01,0.03 -0.02,0.03z"/>
      <path class="fil59" d="M10.32 17.84l0 0c-0.01,0 -0.02,-0.01 -0.02,-0.03l0 -0.24c0,-0.02 0.01,-0.03 0.02,-0.03l0 0c0.02,0 0.03,0.01 0.03,0.03l0 0.24c0,0.02 -0.01,0.03 -0.03,0.03z"/>
      <path class="fil60" d="M10.44 17.84l0 0c-0.01,0 -0.03,-0.01 -0.03,-0.03l0 -0.24c0,-0.02 0.02,-0.03 0.03,-0.03l0 0c0.02,0 0.03,0.01 0.03,0.03l0 0.24c0,0.02 -0.01,0.03 -0.03,0.03z"/>
      <path class="fil61" d="M10.56 17.84l0 0c-0.01,0 -0.03,-0.01 -0.03,-0.03l0 -0.24c0,-0.02 0.02,-0.03 0.03,-0.03l0 0c0.02,0 0.03,0.01 0.03,0.03l0 0.24c0,0.02 -0.01,0.03 -0.03,0.03z"/>
      <path class="fil62" d="M10.68 17.84l0 0c-0.02,0 -0.03,-0.01 -0.03,-0.03l0 -0.24c0,-0.02 0.01,-0.03 0.03,-0.03l0 0c0.02,0 0.03,0.01 0.03,0.03l0 0.24c0,0.02 -0.01,0.03 -0.03,0.03z"/>
      <path class="fil63" d="M10.8 17.84l0 0c-0.02,0 -0.03,-0.01 -0.03,-0.03l0 -0.24c0,-0.02 0.01,-0.03 0.03,-0.03l0 0c0.01,0 0.03,0.01 0.03,0.03l0 0.24c0,0.02 -0.02,0.03 -0.03,0.03z"/>
      <path class="fil64" d="M10.92 17.84l0 0c-0.02,0 -0.03,-0.01 -0.03,-0.03l0 -0.24c0,-0.02 0.01,-0.03 0.03,-0.03l0 0c0.01,0 0.03,0.01 0.03,0.03l0 0.24c0,0.02 -0.02,0.03 -0.03,0.03z"/>
      <path class="fil60" d="M11.04 17.84l0 0c-0.02,0 -0.03,-0.01 -0.03,-0.03l0 -0.24c0,-0.02 0.01,-0.03 0.03,-0.03l0 0c0.01,0 0.03,0.01 0.03,0.03l0 0.24c0,0.02 -0.02,0.03 -0.03,0.03z"/>
     </g>
    </g>
   </g>
   <g>
    <path class="fil69" d="M17.31 12.98c0,-1.25 0.78,-2 1.84,-2 1.07,0 1.86,0.75 1.86,2 0,1.26 -0.79,2 -1.86,2 -1.06,0 -1.84,-0.74 -1.84,-2zm6.11 -1.91l1.48 0 -4.92 7.22 -1.49 0 4.93 -7.22zm-3.66 1.91c0,-0.73 -0.26,-1.02 -0.61,-1.02 -0.33,0 -0.61,0.29 -0.61,1.02 0,0.73 0.28,1.02 0.61,1.02 0.35,0 0.61,-0.29 0.61,-1.02zm2.64 3.4c0,-1.24 0.77,-2 1.84,-2 1.08,0 1.86,0.76 1.86,2 0,1.26 -0.78,2 -1.86,2 -1.07,0 -1.84,-0.74 -1.84,-2zm2.45 0c0,-0.73 -0.27,-1.02 -0.61,-1.02 -0.34,0 -0.6,0.29 -0.6,1.02 0,0.74 0.26,1.02 0.6,1.02 0.34,0 0.61,-0.28 0.61,-1.02z"/>
    <path class="fil11" d="M16.52 12.98c0,-1.25 0.79,-2 1.85,-2 1.07,0 1.86,0.75 1.86,2 0,1.26 -0.79,2 -1.86,2 -1.06,0 -1.85,-0.74 -1.85,-2zm6.12 -1.91l1.48 0 -4.93 7.22 -1.48 0 4.93 -7.22zm-3.66 1.91c0,-0.73 -0.26,-1.02 -0.61,-1.02 -0.33,0 -0.61,0.29 -0.61,1.02 0,0.73 0.28,1.02 0.61,1.02 0.35,0 0.61,-0.29 0.61,-1.02zm2.64 3.4c0,-1.24 0.77,-2 1.84,-2 1.07,0 1.86,0.76 1.86,2 0,1.26 -0.79,2 -1.86,2 -1.07,0 -1.84,-0.74 -1.84,-2zm2.45 0c0,-0.73 -0.27,-1.02 -0.61,-1.02 -0.34,0 -0.61,0.29 -0.61,1.02 0,0.74 0.27,1.02 0.61,1.02 0.34,0 0.61,-0.28 0.61,-1.02z"/>
   </g>
   <g>
    <g>
     <path class="fil70" d="M10.19 3.18l0 0.16 3.62 0c-0.01,-0.02 -0.02,-0.03 -0.04,-0.05 -0.07,-0.07 -0.16,-0.11 -0.27,-0.11l-3.31 0z"/>
     <path class="fil71" d="M10.19 3.34l0 0.12 3.68 0c-0.01,-0.05 -0.03,-0.09 -0.06,-0.12l-3.62 0z"/>
     <path class="fil70" d="M10.19 3.46l0 0.21 3.69 0c0,-0.04 0.01,-0.07 0.01,-0.11 0,-0.04 -0.01,-0.07 -0.02,-0.1l-3.68 0z"/>
     <path class="fil72" d="M10.19 3.67l0 0.5 0.85 0 0.25 -0.28 0.19 0.28 0.17 0 0.25 -0.28 0.19 0.28 0.18 0 0.26 -0.28 0.19 0.28 0.56 0c0.3,0 0.54,-0.22 0.6,-0.5l-3.69 0z"/>
     <path class="fil73" d="M8.87 5.42c-0.05,0.04 -0.12,0.06 -0.18,0.07 0.09,0.01 0.18,-0.02 0.26,-0.07l1.14 -0.72c0.08,-0.05 0.13,-0.13 0.13,-0.23l0 -1.58c0,-0.1 -0.05,-0.18 -0.13,-0.23l-1.14 -0.72c-0.08,-0.05 -0.17,-0.08 -0.26,-0.07 0.06,0.01 0.13,0.03 0.18,0.07l1.14 0.72c0.08,0.05 0.13,0.13 0.13,0.23l0 1.58c0,0.1 -0.05,0.18 -0.13,0.23l-1.14 0.72z"/>
     <path class="fil74" d="M8.69 5.49c0.06,-0.01 0.13,-0.03 0.18,-0.07l1.14 -0.72c0.08,-0.05 0.13,-0.13 0.13,-0.23l0 -1.58c0,-0.1 -0.05,-0.18 -0.13,-0.23l-1.14 -0.72c-0.05,-0.04 -0.12,-0.06 -0.18,-0.07 -0.07,0.01 -0.14,0.03 -0.19,0.07l-1.14 0.72c-0.08,0.05 -0.13,0.13 -0.13,0.23l0 1.58c0,0.1 0.05,0.18 0.13,0.23l1.14 0.72c0.05,0.04 0.12,0.06 0.19,0.07zm-0.88 -1.19c-0.11,-0.01 -0.19,-0.1 -0.19,-0.21l0 -0.84c0,-0.06 0.02,-0.11 0.06,-0.15 0.03,-0.04 0.08,-0.06 0.13,-0.06 0.1,0.01 0.18,0.1 0.18,0.21l0 0.84c0,0.11 -0.08,0.2 -0.18,0.21z"/>
     <path class="fil71" d="M9.5 4.3l0.19 0c0.02,0 0.04,-0.02 0.04,-0.05l0 -1.17c0,-0.02 -0.02,-0.04 -0.04,-0.04l-0.19 0c-0.02,0 -0.04,0.02 -0.04,0.04l0 1.17c0,0.03 0.02,0.05 0.04,0.05z"/>
     <path class="fil75" d="M7.78 4.31c0.01,0 0.02,0 0.03,-0.01 -0.11,-0.01 -0.19,-0.1 -0.19,-0.21l0 -0.84c0,-0.06 0.02,-0.11 0.06,-0.15 0.03,-0.04 0.08,-0.06 0.13,-0.06 -0.01,0 -0.02,0 -0.03,0 -0.06,0 -0.11,0.02 -0.15,0.06 -0.03,0.04 -0.06,0.09 -0.06,0.15l0 0.84c0,0.12 0.1,0.22 0.21,0.22z"/>
    </g>
   </g>
   <path class="fil76" d="M2.26 14.47l0 0c0.01,0 0.23,0 0.26,0 0.08,0 0.17,0 0.24,0.01 0.07,0.02 0.13,0.05 0.17,0.1 0.02,0.02 0.04,0.04 0.05,0.07 0.02,0.03 0.04,0.06 0.04,0.1l-0.69 0c-0.01,0.02 -0.06,0.15 -0.07,0.17l0.78 -0.01c0,0.05 -0.03,0.15 -0.06,0.2 -0.04,0.05 -0.08,0.08 -0.15,0.1 -0.02,0.01 -0.12,0.04 -0.14,0.03 0,0 0,0 -0.01,0 -0.01,0 -0.37,0.01 -0.38,0.01l0.01 0.22c0.03,0 0.07,0 0.11,0 0.04,0 0.08,0 0.12,0 0.19,0 0.3,0 0.41,0.16 0.07,0.09 0.15,0.27 0.21,0.37 0.01,0.02 0.15,0.29 0.15,0.31l0.3 0 -0.23 -0.45c-0.07,-0.12 -0.15,-0.29 -0.25,-0.39 -0.03,-0.03 -0.06,-0.06 -0.11,-0.08 -0.01,-0.01 -0.02,-0.01 -0.03,-0.02 0,0 0.01,0 0.02,-0.01 0.09,-0.02 0.16,-0.07 0.22,-0.15 0.06,-0.08 0.08,-0.15 0.1,-0.25 0,-0.02 0,-0.04 0,-0.05l0.33 0 0.07 -0.16c0,-0.01 0,-0.01 -0.01,-0.01 0,0 -0.01,0 -0.01,0l-0.08 0c-0.03,0 -0.07,0 -0.1,0 -0.05,0 -0.18,0.01 -0.21,0 -0.01,0 -0.01,-0.03 -0.01,-0.04 -0.04,-0.15 -0.13,-0.23 -0.13,-0.23l0.48 -0.01 0.05 -0.12c0.01,-0.01 0.02,-0.03 0.02,-0.04l-1.4 0.01 -0.07 0.16c0,0 0,0 0,0l0 0z"/>
   <path class="fil77" d="M6.33 16.36l0.01 0c0.01,0 0.13,0 0.14,0 0.05,0 0.1,0 0.14,0.01 0.04,0 0.08,0.02 0.1,0.05 0.01,0.01 0.02,0.02 0.03,0.04 0.01,0.02 0.02,0.04 0.02,0.06l-0.39 0c-0.01,0.01 -0.04,0.08 -0.04,0.09l0.44 0c0,0.03 -0.01,0.08 -0.03,0.11 -0.03,0.03 -0.05,0.05 -0.09,0.06 -0.01,0.01 -0.07,0.02 -0.08,0.02 0,0 0,0 0,0 -0.01,0 -0.21,0 -0.22,0l0 0.13c0.02,0 0.05,0 0.07,0 0.02,0 0.04,0 0.06,0 0.11,-0.01 0.18,0 0.24,0.09 0.04,0.05 0.09,0.15 0.12,0.21 0,0.01 0.08,0.16 0.09,0.18l0.16 -0.01 -0.13 -0.25c-0.03,-0.07 -0.08,-0.17 -0.14,-0.22 -0.01,-0.02 -0.03,-0.04 -0.06,-0.05 -0.01,0 -0.01,-0.01 -0.02,-0.01 0,0 0.01,0 0.01,0 0.05,-0.02 0.1,-0.05 0.13,-0.09 0.03,-0.05 0.05,-0.09 0.05,-0.14 0,-0.01 0,-0.02 0,-0.03l0.19 0 0.04 -0.1c0,0 0,0 0,0 0,0 -0.01,0 -0.01,0l-0.04 0c-0.02,0 -0.04,0 -0.06,0 -0.03,0 -0.1,0.01 -0.12,0 0,0 -0.01,-0.01 -0.01,-0.02 -0.02,-0.09 -0.07,-0.13 -0.07,-0.13l0.27 -0.01 0.03 -0.07c0,0 0.01,-0.01 0.01,-0.02l-0.79 0.01 -0.04 0.09c0,0 0,0 0,0l-0.01 0z"/>
  </g>
 </g>
</svg>
