<?xml version="1.0" encoding="UTF-8"?>
<!DOCTYPE svg PUBLIC "-//W3C//DTD SVG 1.1//EN" "http://www.w3.org/Graphics/SVG/1.1/DTD/svg11.dtd">
<!-- Creator: CorelDRAW 2019 (64-Bit) -->
<svg xmlns="http://www.w3.org/2000/svg" xml:space="preserve" width="200px" height="32px" version="1.1" style="shape-rendering:geometricPrecision; text-rendering:geometricPrecision; image-rendering:optimizeQuality; fill-rule:evenodd; clip-rule:evenodd"
viewBox="0 0 18.94 3.07"
 xmlns:xlink="http://www.w3.org/1999/xlink">
 <defs>
  <style type="text/css">
   <![CDATA[
    .fil0 {fill:#2D3190}
    .fil4 {fill:#ED1C23}
    .fil3 {fill:white}
    .fil1 {fill:#00AAE9;fill-rule:nonzero}
    .fil2 {fill:white;fill-rule:nonzero}
   ]]>
  </style>
 </defs>
 <g id="Layer_x0020_1">
  <metadata id="CorelCorpID_0Corel-Layer"/>
  <g id="_2120081260272">
   <polygon class="fil0" points="0,2.41 2.79,2.41 2.79,3 0,3 "/>
   <polygon class="fil0" points="3.21,2.41 6,2.41 6,3 3.21,3 "/>
   <path class="fil1" d="M8.15 1.63c-0.07,0 -0.13,-0.01 -0.18,-0.02 -0.06,-0.01 -0.11,-0.03 -0.15,-0.05 -0.04,-0.03 -0.08,-0.05 -0.12,-0.09 -0.03,-0.03 -0.06,-0.06 -0.09,-0.1l0.27 -0.26c0.04,0.05 0.08,0.08 0.12,0.11 0.03,0.02 0.08,0.04 0.12,0.04 0.06,0 0.1,-0.02 0.13,-0.06 0.03,-0.03 0.05,-0.09 0.05,-0.16l0 -0.97 0.42 0 0 0.97c0,0.1 -0.01,0.18 -0.03,0.25 -0.03,0.07 -0.07,0.13 -0.12,0.19 -0.05,0.05 -0.11,0.09 -0.18,0.11 -0.07,0.03 -0.15,0.04 -0.24,0.04zm0.83 -1.56l0 0 1.23 0 0 0.37 -0.81 0 0 0.26 0.73 0 0 0.36 -0.73 0 0 0.54 -0.42 0 0 -1.53zm1.43 0l0 0 0.43 0 0 1.53 -0.43 0 0 -1.53zm0.71 0l0 0 0.4 0 0.63 0.81 0 -0.81 0.42 0 0 1.53 -0.37 0 -0.66 -0.84 0 0.84 -0.42 0 0 -1.53zm2.33 1.56l0 0c-0.14,0 -0.27,-0.02 -0.39,-0.06 -0.13,-0.04 -0.24,-0.11 -0.33,-0.19l0.23 -0.29c0.16,0.13 0.32,0.19 0.5,0.19 0.06,0 0.1,-0.01 0.13,-0.03 0.03,-0.02 0.05,-0.04 0.05,-0.08l0 0c0,-0.02 0,-0.03 -0.01,-0.05 -0.01,-0.01 -0.02,-0.02 -0.04,-0.03 -0.02,-0.01 -0.05,-0.02 -0.08,-0.04 -0.03,-0.01 -0.08,-0.02 -0.13,-0.03 -0.08,-0.02 -0.16,-0.04 -0.23,-0.06 -0.07,-0.02 -0.13,-0.05 -0.18,-0.09 -0.05,-0.04 -0.1,-0.08 -0.13,-0.13 -0.03,-0.06 -0.04,-0.12 -0.04,-0.2l0 -0.01c0,-0.07 0.01,-0.14 0.04,-0.2 0.03,-0.06 0.07,-0.11 0.12,-0.15 0.05,-0.05 0.11,-0.08 0.19,-0.1 0.07,-0.03 0.15,-0.04 0.25,-0.04 0.13,0 0.24,0.02 0.35,0.05 0.1,0.04 0.19,0.09 0.28,0.15l-0.22 0.31c-0.07,-0.05 -0.14,-0.09 -0.21,-0.12 -0.08,-0.02 -0.15,-0.04 -0.22,-0.04 -0.05,0 -0.09,0.01 -0.11,0.03 -0.03,0.02 -0.04,0.05 -0.04,0.07l0 0.01c0,0.02 0,0.03 0.01,0.04 0.01,0.02 0.02,0.03 0.04,0.04 0.02,0.01 0.05,0.02 0.09,0.03 0.03,0.01 0.07,0.03 0.13,0.04 0.08,0.02 0.16,0.04 0.23,0.06 0.08,0.03 0.14,0.06 0.19,0.1 0.05,0.03 0.08,0.08 0.11,0.13 0.03,0.05 0.04,0.11 0.04,0.19l0 0c0,0.08 -0.02,0.15 -0.05,0.21 -0.03,0.06 -0.07,0.12 -0.12,0.16 -0.06,0.04 -0.12,0.07 -0.2,0.1 -0.07,0.02 -0.16,0.03 -0.25,0.03zm0.83 -1.56l0 0 1.23 0 0 0.36 -0.81 0 0 0.23 0.74 0 0 0.34 -0.74 0 0 0.24 0.82 0 0 0.36 -1.24 0 0 -1.53zm2.17 0.74l0 0c0.07,0 0.13,-0.02 0.17,-0.05 0.04,-0.04 0.06,-0.08 0.06,-0.14l0 0c0,-0.06 -0.02,-0.11 -0.06,-0.14 -0.04,-0.03 -0.1,-0.04 -0.17,-0.04l-0.28 0 0 0.37 0.28 0zm-0.71 -0.74l0 0 0.73 0c0.12,0 0.22,0.01 0.3,0.04 0.08,0.03 0.15,0.07 0.2,0.12 0.09,0.09 0.14,0.21 0.14,0.36l0 0.01c0,0.11 -0.03,0.21 -0.09,0.29 -0.06,0.08 -0.13,0.14 -0.23,0.18l0.37 0.53 -0.5 0 -0.31 -0.46 0 0 -0.18 0 0 0.46 -0.43 0 0 -1.53zm1.46 0l0 0 0.48 0 0.34 0.97 0.35 -0.97 0.47 0 -0.62 1.55 -0.4 0 -0.62 -1.55z"/>
   <path class="fil2" d="M8.08 2.83c0,0.08 -0.02,0.14 -0.06,0.18 -0.05,0.04 -0.1,0.06 -0.18,0.06 -0.08,0 -0.14,-0.03 -0.18,-0.08 -0.04,-0.05 -0.06,-0.13 -0.06,-0.22l0 -0.12c0,-0.1 0.02,-0.17 0.06,-0.22 0.05,-0.05 0.11,-0.08 0.18,-0.08 0.08,0 0.14,0.02 0.18,0.06 0.04,0.05 0.06,0.11 0.06,0.19l-0.14 0c0,-0.05 -0.01,-0.09 -0.02,-0.1 -0.01,-0.02 -0.04,-0.03 -0.08,-0.03 -0.03,0 -0.06,0.01 -0.08,0.04 -0.01,0.02 -0.02,0.07 -0.02,0.13l0 0.13c0,0.07 0.01,0.12 0.02,0.14 0.02,0.03 0.04,0.04 0.08,0.04 0.04,0 0.06,-0.01 0.08,-0.03 0.01,-0.01 0.02,-0.05 0.02,-0.09l0.14 0zm0.58 -0.06l0 0c0,0.1 -0.02,0.17 -0.06,0.22 -0.05,0.05 -0.11,0.08 -0.19,0.08 -0.08,0 -0.14,-0.03 -0.18,-0.08 -0.05,-0.05 -0.07,-0.12 -0.07,-0.21l0 -0.12c0,-0.1 0.02,-0.17 0.06,-0.23 0.05,-0.05 0.11,-0.08 0.19,-0.08 0.08,0 0.14,0.03 0.18,0.08 0.05,0.05 0.07,0.13 0.07,0.22l0 0.12zm-0.14 -0.12l0 0c0,-0.06 -0.01,-0.1 -0.03,-0.14 -0.01,-0.03 -0.04,-0.04 -0.08,-0.04 -0.04,0 -0.06,0.01 -0.08,0.04 -0.02,0.03 -0.03,0.08 -0.03,0.14l0 0.12c0,0.06 0.01,0.11 0.03,0.14 0.01,0.03 0.04,0.04 0.08,0.04 0.04,0 0.07,-0.01 0.08,-0.04 0.02,-0.03 0.03,-0.07 0.03,-0.13l0 -0.13zm0.73 0.41l0 0 -0.14 0 -0.21 -0.46 0 0.46 -0.14 0 0 -0.7 0.14 0 0.21 0.46 0 -0.46 0.14 0 0 0.7zm0.41 -0.18l0 0c0,-0.03 -0.01,-0.05 -0.02,-0.07 -0.02,-0.01 -0.04,-0.03 -0.08,-0.04 -0.07,-0.03 -0.12,-0.06 -0.15,-0.1 -0.03,-0.03 -0.05,-0.08 -0.05,-0.12 0,-0.06 0.02,-0.11 0.06,-0.15 0.05,-0.03 0.1,-0.05 0.16,-0.05 0.05,0 0.08,0.01 0.12,0.03 0.03,0.02 0.06,0.04 0.08,0.07 0.01,0.04 0.02,0.07 0.02,0.12l-0.14 0c0,-0.04 0,-0.06 -0.02,-0.08 -0.01,-0.02 -0.03,-0.02 -0.06,-0.02 -0.02,0 -0.04,0 -0.06,0.02 -0.01,0.01 -0.02,0.03 -0.02,0.06 0,0.02 0.01,0.03 0.03,0.05 0.01,0.01 0.04,0.03 0.08,0.05 0.07,0.02 0.12,0.05 0.15,0.09 0.03,0.03 0.04,0.08 0.04,0.13 0,0.07 -0.02,0.11 -0.06,0.15 -0.03,0.03 -0.09,0.05 -0.15,0.05 -0.05,0 -0.09,-0.01 -0.13,-0.03 -0.03,-0.02 -0.06,-0.04 -0.08,-0.08 -0.02,-0.03 -0.04,-0.07 -0.04,-0.12l0.15 0c0,0.04 0,0.07 0.02,0.09 0.02,0.01 0.04,0.02 0.08,0.02 0.05,0 0.07,-0.02 0.07,-0.07zm0.69 -0.52l0 0 0 0.48c0,0.08 -0.02,0.13 -0.06,0.17 -0.04,0.04 -0.1,0.06 -0.17,0.06 -0.07,0 -0.13,-0.02 -0.17,-0.06 -0.04,-0.04 -0.06,-0.1 -0.06,-0.17l0 -0.48 0.14 0 0 0.48c0,0.04 0.01,0.07 0.02,0.09 0.01,0.01 0.04,0.02 0.07,0.02 0.03,0 0.06,-0.01 0.07,-0.02 0.01,-0.02 0.02,-0.05 0.02,-0.09l0 -0.48 0.14 0zm0.25 0.58l0 0 0.25 0 0 0.12 -0.39 0 0 -0.7 0.14 0 0 0.58zm0.68 -0.46l0 0 -0.17 0 0 0.58 -0.14 0 0 -0.58 -0.17 0 0 -0.12 0.48 0 0 0.12zm0.36 0.44l0 0 -0.19 0 -0.04 0.14 -0.15 0 0.22 -0.7 0.13 0 0.22 0.7 -0.15 0 -0.04 -0.14zm-0.16 -0.12l0 0 0.13 0 -0.07 -0.25 -0.06 0.25zm0.9 0.26l0 0 -0.14 0 -0.21 -0.46 0 0.46 -0.14 0 0 -0.7 0.14 0 0.21 0.46 0 -0.46 0.14 0 0 0.7zm0.55 -0.58l0 0 -0.17 0 0 0.58 -0.14 0 0 -0.58 -0.17 0 0 -0.12 0.48 0 0 0.12zm0.43 0.58l0 0 -0.14 0 0 -0.7 0.14 0 0 0.7zm0.61 0l0 0 -0.14 0 -0.21 -0.46 0 0.46 -0.14 0 0 -0.7 0.14 0 0.21 0.46 0 -0.46 0.14 0 0 0.7zm0.11 0l0 0 0 -0.7 0.19 0c0.08,0 0.14,0.03 0.19,0.08 0.05,0.05 0.07,0.12 0.07,0.21l0 0.11c0,0.1 -0.02,0.17 -0.07,0.22 -0.05,0.05 -0.11,0.08 -0.2,0.08l-0.18 0zm0.14 -0.58l0 0 0 0.46 0.04 0c0.05,0 0.08,-0.01 0.1,-0.04 0.02,-0.02 0.03,-0.06 0.03,-0.12l0 -0.13c0,-0.06 -0.01,-0.11 -0.02,-0.13 -0.02,-0.03 -0.05,-0.04 -0.1,-0.04l-0.05 0zm0.56 0.58l0 0 -0.14 0 0 -0.7 0.14 0 0 0.7zm0.46 -0.14l0 0 -0.19 0 -0.04 0.14 -0.15 0 0.22 -0.7 0.13 0 0.22 0.7 -0.15 0 -0.04 -0.14zm-0.16 -0.12l0 0 0.13 0 -0.06 -0.25 -0.07 0.25zm0.79 0.01l0 0 0 0.25 -0.15 0 0 -0.7 0.24 0c0.07,0 0.13,0.02 0.17,0.06 0.04,0.05 0.06,0.1 0.06,0.17 0,0.07 -0.02,0.12 -0.06,0.16 -0.04,0.04 -0.1,0.06 -0.17,0.06l-0.09 0zm0 -0.11l0 0 0.09 0c0.03,0 0.05,-0.01 0.06,-0.03 0.02,-0.02 0.03,-0.04 0.03,-0.08 0,-0.03 -0.01,-0.06 -0.03,-0.08 -0.01,-0.02 -0.03,-0.03 -0.06,-0.03l-0.09 0 0 0.22zm0.64 0.17l0 0 0.12 -0.51 0.16 0 -0.21 0.7 -0.14 0 -0.2 -0.7 0.15 0 0.12 0.51zm0.79 -0.39l0 0 -0.17 0 0 0.58 -0.14 0 0 -0.58 -0.17 0 0 -0.12 0.48 0 0 0.12zm0.42 0.46l0 0 0.25 0 0 0.12 -0.39 0 0 -0.7 0.14 0 0 0.58zm0.69 -0.46l0 0 -0.17 0 0 0.58 -0.15 0 0 -0.58 -0.17 0 0 -0.12 0.49 0 0 0.12zm0.08 0.58l0 0 0 -0.7 0.18 0c0.09,0 0.15,0.03 0.2,0.08 0.05,0.05 0.07,0.12 0.07,0.21l0 0.11c0,0.1 -0.02,0.17 -0.07,0.22 -0.05,0.05 -0.11,0.08 -0.2,0.08l-0.18 0zm0.14 -0.58l0 0 0 0.46 0.04 0c0.05,0 0.08,-0.01 0.1,-0.04 0.02,-0.02 0.03,-0.06 0.03,-0.12l0 -0.13c0,-0.06 -0.01,-0.11 -0.03,-0.13 -0.01,-0.03 -0.04,-0.04 -0.09,-0.04l-0.05 0z"/>
   <polygon class="fil0" points="0,2.41 2.79,2.41 2.79,3 0,3 "/>
   <polygon class="fil0" points="3.21,2.41 6,2.41 6,3 3.21,3 "/>
   <polygon class="fil0" points="0,2.41 2.79,2.41 2.79,3 0,3 "/>
   <polygon class="fil3" points="3.21,2.41 6,2.41 6,3 3.21,3 "/>
   <polygon class="fil3" points="0,2.41 2.79,2.41 2.79,3 0,3 "/>
   <g>
    <polygon class="fil3" points="2.22,0 2.79,0 2.79,3 2.22,3 "/>
    <polygon class="fil3" points="0,2.59 0.6,2.59 0.6,1.94 0,1.94 "/>
    <polygon class="fil3" points="3.22,0.94 3.8,0.94 3.8,3 3.22,3 "/>
    <polygon class="fil3" points="3.21,0.07 6,0.07 6,0.66 3.21,0.66 "/>
    <polygon class="fil3" points="6.49,0.94 7.07,0.94 7.07,3 6.49,3 "/>
    <polygon class="fil4" points="6.49,0.6 7.07,0.6 7.07,0 6.49,0 "/>
    <polygon class="fil3" points="2.22,0 2.79,0 2.79,3 2.22,3 "/>
    <polygon class="fil3" points="3.21,0.07 6,0.07 6,0.66 3.21,0.66 "/>
    <polygon class="fil3" points="6.49,0.94 7.07,0.94 7.07,3 6.49,3 "/>
    <polygon class="fil3" points="3.21,0.07 6,0.07 6,0.66 3.21,0.66 "/>
    <polygon class="fil3" points="6.49,0.94 7.07,0.94 7.07,3 6.49,3 "/>
    <polygon class="fil3" points="2.22,0 2.79,0 2.79,3 2.22,3 "/>
    <polygon class="fil3" points="3.21,0.07 6,0.07 6,0.66 3.21,0.66 "/>
    <polygon class="fil3" points="6.49,0.94 7.07,0.94 7.07,3 6.49,3 "/>
    <polygon class="fil3" points="0,2.59 0.6,2.59 0.6,1.94 0,1.94 "/>
   </g>
  </g>
 </g>
</svg>
