<?xml version="1.0" encoding="UTF-8"?>
<!DOCTYPE svg PUBLIC "-//W3C//DTD SVG 1.1//EN" "http://www.w3.org/Graphics/SVG/1.1/DTD/svg11.dtd">
<!-- Creator: CorelDRAW 2019 (64-Bit) -->
<svg xmlns="http://www.w3.org/2000/svg" xml:space="preserve" width="480px" height="351px" version="1.1" style="shape-rendering:geometricPrecision; text-rendering:geometricPrecision; image-rendering:optimizeQuality; fill-rule:evenodd; clip-rule:evenodd"
viewBox="0 0 28.63 20.95"
 xmlns:xlink="http://www.w3.org/1999/xlink">
 <defs>
  <style type="text/css">
   <![CDATA[
    .fil30 {fill:#FFF196}
    .fil20 {fill:#2E4882;fill-rule:nonzero}
    .fil26 {fill:#314B87;fill-rule:nonzero}
    .fil25 {fill:#374263;fill-rule:nonzero}
    .fil16 {fill:#3F5A9F;fill-rule:nonzero}
    .fil12 {fill:#446BD0;fill-rule:nonzero}
    .fil11 {fill:#5689C2;fill-rule:nonzero}
    .fil24 {fill:#647CE2;fill-rule:nonzero}
    .fil23 {fill:#6D92F0;fill-rule:nonzero}
    .fil2 {fill:#71C1DC;fill-rule:nonzero}
    .fil3 {fill:#80412F;fill-rule:nonzero}
    .fil28 {fill:#9AADE5;fill-rule:nonzero}
    .fil13 {fill:#A2C3F2;fill-rule:nonzero}
    .fil4 {fill:#A46D47;fill-rule:nonzero}
    .fil27 {fill:#BAC8F3;fill-rule:nonzero}
    .fil6 {fill:#C9284E;fill-rule:nonzero}
    .fil5 {fill:#C98439;fill-rule:nonzero}
    .fil8 {fill:#CB1E48;fill-rule:nonzero}
    .fil9 {fill:#DF3D55;fill-rule:nonzero}
    .fil14 {fill:#E1EAFF;fill-rule:nonzero}
    .fil7 {fill:#E2E0E3;fill-rule:nonzero}
    .fil1 {fill:#E6A347;fill-rule:nonzero}
    .fil10 {fill:#F3EFF1;fill-rule:nonzero}
    .fil19 {fill:#F49B51;fill-rule:nonzero}
    .fil17 {fill:#FCB47E;fill-rule:nonzero}
    .fil18 {fill:#FCC659;fill-rule:nonzero}
    .fil22 {fill:#FFA87D;fill-rule:nonzero}
    .fil31 {fill:#FFBB8D;fill-rule:nonzero}
    .fil21 {fill:#FFC49C;fill-rule:nonzero}
    .fil29 {fill:#FFE6A6;fill-rule:nonzero}
    .fil15 {fill:white;fill-rule:nonzero}
    .fil0 {fill:url(#id0)}
   ]]>
  </style>
  <linearGradient id="id0" gradientUnits="userSpaceOnUse" x1="28.07" y1="19.92" x2="-9.83" y2="-18.67">
   <stop offset="0" style="stop-opacity:1; stop-color:white"/>
   <stop offset="0.541176" style="stop-opacity:1; stop-color:#86DBF3"/>
   <stop offset="1" style="stop-opacity:1; stop-color:#0CB7E7"/>
  </linearGradient>
 </defs>
 <g id="Layer_x0020_1">
  <metadata id="CorelCorpID_0Corel-Layer"/>
  <path class="fil0" d="M27.62 9c-0.65,-0.65 -1.59,-0.73 -2.45,-0.89 -0.86,-0.16 -1.82,-0.53 -2.13,-1.42 -0.24,-0.66 -0.03,-1.4 0.02,-2.11 0.13,-1.76 -0.87,-3.55 -2.36,-4.25 -1.49,-0.7 -3.37,-0.25 -4.46,1.06 -0.44,0.51 -0.74,1.14 -1.14,1.69 -0.4,0.56 -0.92,1.05 -1.56,1.16 -1.1,0.17 -2.01,-0.85 -2.99,-1.41 -1.82,-1.06 -4.31,-0.44 -5.53,1.36 -0.51,0.75 -0.81,1.66 -1.42,2.31 -0.59,0.63 -1.41,0.94 -2.07,1.49 -1.48,1.24 -1.9,3.64 -1.2,5.53 0.69,1.88 2.34,3.24 4.13,3.8 1.8,0.56 3.73,0.4 5.55,-0.09 0.73,-0.2 1.47,-0.45 2.21,-0.31 0.78,0.14 1.43,0.69 2.11,1.11 9.78,9.07 16.74,-5.57 13.29,-9.03z"/>
  <g id="_2123827537616">
   <polygon class="fil1" points="25.72,19.67 13.8,19.67 13.8,11.46 25.72,11.46 "/>
   <polygon class="fil2" points="23.25,14.37 20.19,14.37 20.19,18.89 23.25,18.89 "/>
   <g>
    <image x="20.18" y="14.37" width="2.64" height="4.52" xlink:href="MSME_Lon_Images\MSME_Lon_ImgID1.png"/>
   </g>
   <g>
    <image x="20.61" y="14.37" width="2.64" height="4.52" xlink:href="MSME_Lon_Images\MSME_Lon_ImgID2.png"/>
   </g>
   <g>
    <image x="20.18" y="14.81" width="1.9" height="4.08" xlink:href="MSME_Lon_Images\MSME_Lon_ImgID3.png"/>
   </g>
   <g>
    <image x="22.52" y="17" width="0.73" height="1.9" xlink:href="MSME_Lon_Images\MSME_Lon_ImgID4.png"/>
   </g>
   <path class="fil3" d="M20.19 18.89l0 -2.26 3.06 0 0 -0.21 -3.06 0 0 -2.05 3.06 0 0 4.52 -3.06 0zm-0.33 0.34l3.72 0 0 -5.19 -3.72 0 0 5.19z"/>
   <polygon class="fil4" points="19.76,19.23 19.86,19.23 19.86,14.04 19.76,14.04 "/>
   <polygon class="fil2" points="19.43,14.37 16.37,14.37 16.37,18.89 19.43,18.89 "/>
   <g>
    <image x="16.37" y="17.29" width="3.22" height="1.6" xlink:href="MSME_Lon_Images\MSME_Lon_ImgID5.png"/>
   </g>
   <g>
    <image x="16.37" y="16.27" width="1.9" height="1.31" xlink:href="MSME_Lon_Images\MSME_Lon_ImgID6.png"/>
   </g>
   <g>
    <image x="16.37" y="15.1" width="1.9" height="1.31" xlink:href="MSME_Lon_Images\MSME_Lon_ImgID7.png"/>
   </g>
   <g>
    <image x="18.71" y="16.56" width="0.88" height="1.02" xlink:href="MSME_Lon_Images\MSME_Lon_ImgID8.png"/>
   </g>
   <g>
    <image x="18.71" y="15.69" width="0.88" height="1.02" xlink:href="MSME_Lon_Images\MSME_Lon_ImgID9.png"/>
   </g>
   <g>
    <image x="16.37" y="14.37" width="2.64" height="4.52" xlink:href="MSME_Lon_Images\MSME_Lon_ImgID10.png"/>
   </g>
   <g>
    <image x="16.81" y="14.37" width="2.78" height="4.52" xlink:href="MSME_Lon_Images\MSME_Lon_ImgID11.png"/>
   </g>
   <path class="fil3" d="M16.37 18.89l0 -2.26 3.06 0 0 -0.21 -3.06 0 0 -2.05 3.06 0 0 4.52 -3.06 0zm-0.33 0.34l3.72 0 0 -5.19 -3.72 0 0 5.19z"/>
   <polygon class="fil4" points="15.94,19.23 16.04,19.23 16.04,14.04 15.94,14.04 "/>
   <path class="fil5" d="M25.72 10.91l-11.92 0 0 2.4c0.12,0.14 0.3,0.22 0.5,0.22 0.38,0 0.68,-0.3 0.68,-0.68 0,0.38 0.31,0.68 0.69,0.68 0.37,0 0.68,-0.3 0.68,-0.68 0,0.38 0.3,0.68 0.68,0.68l0 0c0.38,0 0.68,-0.3 0.68,-0.68 0,0.38 0.31,0.68 0.69,0.68 0.37,0 0.68,-0.3 0.68,-0.68 0,0.38 0.31,0.68 0.68,0.68l0 0c0.38,0 0.69,-0.3 0.69,-0.68 0,0.38 0.3,0.68 0.68,0.68 0.37,0 0.68,-0.3 0.68,-0.68 0,0.38 0.31,0.68 0.68,0.68l0 0c0.38,0 0.69,-0.3 0.69,-0.68 0,0.38 0.3,0.68 0.68,0.68 0.38,0 0.68,-0.3 0.68,-0.68 0,0.38 0.31,0.68 0.68,0.68l0 0c0.2,0 0.38,-0.08 0.5,-0.22l0 -2.4z"/>
   <path class="fil6" d="M14.3 12.77l0 0c-0.38,0 -0.68,-0.31 -0.68,-0.68l0 -1.94 1.36 0 0 1.94c0,0.37 -0.3,0.68 -0.68,0.68z"/>
   <path class="fil7" d="M15.66 12.77l0 0c-0.37,0 -0.68,-0.31 -0.68,-0.68l0 -1.94 1.37 0 0 1.94c0,0.37 -0.31,0.68 -0.69,0.68z"/>
   <path class="fil6" d="M25.22 12.77l0 0c-0.38,0 -0.68,-0.31 -0.68,-0.68l0 -1.94 1.36 0 0 1.94c0,0.37 -0.3,0.68 -0.68,0.68z"/>
   <path class="fil6" d="M17.03 12.77l0 0c-0.38,0 -0.68,-0.31 -0.68,-0.68l0 -1.94 1.36 0 0 1.94c0,0.37 -0.3,0.68 -0.68,0.68z"/>
   <path class="fil7" d="M18.39 12.77l0 0c-0.37,0 -0.68,-0.31 -0.68,-0.68l0 -1.94 1.37 0 0 1.94c0,0.37 -0.31,0.68 -0.69,0.68z"/>
   <path class="fil6" d="M19.76 12.77l0 0c-0.38,0 -0.68,-0.31 -0.68,-0.68l0 -1.94 1.36 0 0 1.94c0,0.37 -0.3,0.68 -0.68,0.68z"/>
   <path class="fil7" d="M21.13 12.77l0 0c-0.38,0 -0.69,-0.31 -0.69,-0.68l0 -1.94 1.37 0 0 1.94c0,0.37 -0.31,0.68 -0.68,0.68z"/>
   <path class="fil6" d="M22.49 12.77l0 0c-0.38,0 -0.68,-0.31 -0.68,-0.68l0 -1.94 1.36 0 0 1.94c0,0.37 -0.3,0.68 -0.68,0.68z"/>
   <path class="fil7" d="M23.86 12.77l0 0c-0.38,0 -0.69,-0.31 -0.69,-0.68l0 -1.94 1.37 0 0 1.94c0,0.37 -0.31,0.68 -0.68,0.68z"/>
   <polygon class="fil8" points="26.26,19.27 13.26,19.27 13.26,19.67 26.26,19.67 "/>
   <polygon class="fil9" points="26.26,19.23 13.26,19.23 13.26,19.33 26.26,19.33 "/>
   <polygon class="fil8" points="24.23,9.16 15.29,9.16 15.29,8.72 24.23,8.72 "/>
   <polygon class="fil9" points="16.29,9.16 15.29,9.16 13.62,10.15 14.98,10.15 "/>
   <polygon class="fil10" points="17.28,9.16 16.29,9.16 14.98,10.15 16.35,10.15 "/>
   <polygon class="fil9" points="18.27,9.16 17.28,9.16 16.35,10.15 17.71,10.15 "/>
   <polygon class="fil9" points="24.23,9.16 23.23,9.16 24.54,10.15 25.9,10.15 "/>
   <polygon class="fil10" points="19.26,9.16 18.27,9.16 17.71,10.15 19.08,10.15 "/>
   <polygon class="fil9" points="20.26,9.16 19.26,9.16 19.08,10.15 20.44,10.15 "/>
   <polygon class="fil10" points="21.25,9.16 20.26,9.16 20.44,10.15 21.81,10.15 "/>
   <polygon class="fil9" points="22.24,9.16 21.25,9.16 21.81,10.15 23.17,10.15 "/>
   <polygon class="fil10" points="23.23,9.16 22.24,9.16 23.17,10.15 24.54,10.15 "/>
  </g>
  <path class="fil11" d="M28.63 20.21c0,0.41 -6.34,0.74 -14.16,0.74 -7.82,0 -14.15,-0.33 -14.15,-0.74 0,-0.4 6.33,-0.73 14.15,-0.73 7.82,0 14.16,0.33 14.16,0.73z"/>
  <path class="fil12" d="M4.17 3.06l0 16.11c0,0.23 0.18,0.41 0.4,0.41l7.92 0c0.23,0 0.41,-0.18 0.41,-0.41l0 -16.11c0,-0.22 -0.18,-0.4 -0.41,-0.4l-7.92 0c-0.22,0 -0.4,0.18 -0.4,0.4z"/>
  <path class="fil13" d="M3.79 3.06l0 16.11c0,0.23 0.18,0.41 0.41,0.41l7.92 0c0.22,0 0.4,-0.18 0.4,-0.41l0 -16.11c0,-0.22 -0.18,-0.4 -0.4,-0.4l-7.92 0c-0.23,0 -0.41,0.18 -0.41,0.4z"/>
  <path class="fil14" d="M4.42 4.66l0 12.77c0,0.26 0.2,0.47 0.44,0.47l6.65 0c0.25,0 0.44,-0.21 0.44,-0.47l0 -12.77c0,-0.26 -0.19,-0.47 -0.44,-0.47l-6.65 0c-0.24,0 -0.44,0.21 -0.44,0.47z"/>
  <path class="fil15" d="M4.78 4.29c-0.2,0 -0.36,0.17 -0.36,0.37l0 12.77c0,0.21 0.16,0.38 0.36,0.38l6.82 0c0.2,0 0.36,-0.17 0.36,-0.38l0 -12.77c0,-0.2 -0.16,-0.37 -0.36,-0.37l-6.82 0zm-0.55 13.14l0 -12.77c0,-0.31 0.25,-0.56 0.55,-0.56l6.82 0c0.3,0 0.55,0.25 0.55,0.56l0 12.77c0,0.31 -0.25,0.57 -0.55,0.57l-6.82 0c-0.3,0 -0.55,-0.26 -0.55,-0.57z"/>
  <path class="fil16" d="M12.12 19.61l-6.46 0 0 -0.06 6.46 0c0.2,0 0.37,-0.17 0.37,-0.38l0 -16.11c0,-0.2 -0.17,-0.37 -0.37,-0.37l-7.92 0 0 -0.07 7.92 0c0.24,0 0.44,0.2 0.44,0.44l0 16.11c0,0.24 -0.2,0.44 -0.44,0.44z"/>
  <polygon class="fil16" points="3.83,7.46 3.76,7.46 3.76,3.64 3.83,3.64 "/>
  <path class="fil17" d="M13.61 11.88c0.55,-0.09 2.56,-0.85 2.56,-0.85 0,0 -0.14,-0.29 -0.68,-0.22 -0.53,0.08 -1.89,0.43 -1.89,0.43l0.01 0.64z"/>
  <path class="fil18" d="M15.51 9.36c-0.02,0.46 -0.21,0.88 -0.54,1.19 -0.33,0.31 -0.77,0.47 -1.22,0.46 -0.94,-0.04 -1.68,-0.82 -1.64,-1.76 0.01,-0.46 0.2,-0.88 0.53,-1.19 0.33,-0.3 0.74,-0.46 1.18,-0.46 0.01,0 0.03,0 0.04,0 0.93,0.03 1.65,0.8 1.65,1.71 0,0.02 0,0.04 0,0.05zm-1.63 -2.17c-1.17,-0.04 -2.15,0.88 -2.19,2.04 -0.04,1.17 0.88,2.15 2.05,2.19 1.16,0.04 2.14,-0.88 2.18,-2.04 0.04,-1.17 -0.87,-2.15 -2.04,-2.19z"/>
  <path class="fil19" d="M15.51 9.31c0,0.02 0,0.04 0,0.05 -0.02,0.46 -0.21,0.88 -0.54,1.19 -0.33,0.31 -0.77,0.47 -1.22,0.46 -0.94,-0.04 -1.68,-0.82 -1.64,-1.76 0.01,-0.46 0.2,-0.88 0.53,-1.19 0.32,-0.3 0.74,-0.46 1.18,-0.46 0.01,0 0.03,0 0.04,0 0.93,0.03 1.65,0.8 1.65,1.71z"/>
  <path class="fil20" d="M15.44 8.89c0,-0.02 -0.01,-0.03 -0.01,-0.04 -0.13,-0.47 -0.46,-0.86 -0.9,-1.06l0.02 -0.05c0.45,0.22 0.79,0.61 0.92,1.09 0.01,0.02 0.01,0.03 0.02,0.05l-0.05 0.01z"/>
  <path class="fil20" d="M14.53 7.79c-0.35,-0.17 -0.75,-0.21 -1.13,-0.12l-0.01 -0.04c0.39,-0.1 0.8,-0.06 1.16,0.11l-0.02 0.05z"/>
  <path class="fil20" d="M15.3 10.18l-0.04 -0.02c0.11,-0.19 0.18,-0.4 0.22,-0.62l0.04 0.01c-0.03,0.22 -0.11,0.44 -0.22,0.63z"/>
  <path class="fil20" d="M15.19 7.74c-0.16,-0.14 -0.34,-0.26 -0.54,-0.35l0.02 -0.04c0.2,0.09 0.39,0.21 0.56,0.35l-0.04 0.04z"/>
  <path class="fil20" d="M14.99 11.09l-0.03 -0.04c0.56,-0.38 0.91,-1 0.94,-1.68 0.01,-0.41 -0.1,-0.82 -0.32,-1.18l0.04 -0.02c0.23,0.36 0.34,0.78 0.33,1.21 -0.03,0.69 -0.38,1.33 -0.96,1.71z"/>
  <path class="fil21" d="M14.36 10.78c0,0 -0.05,-0.59 -0.89,-0.63 -0.66,-0.03 -0.87,-0.38 -1.41,-0.44 -0.53,-0.04 -1.06,0.22 -1.06,0.22 0,0 -0.27,0.1 -0.53,0.13 -0.51,0.05 -0.9,-0.18 -0.9,-0.18l0.01 1.81c0,0 1.38,-0.12 1.66,-0.06 0.29,0.07 1.64,0.66 2.19,0.57 0.55,-0.08 2.57,-0.85 2.57,-0.85 0,0 -0.13,-0.34 -0.66,-0.27 -0.53,0.08 -1.01,0.25 -1.17,0.26 -0.16,0.01 -0.3,-0.05 -0.3,-0.05l-1.28 -0.54c0.63,0.07 1.23,0.09 1.77,0.03z"/>
  <path class="fil16" d="M7.22 10.75c0,0.47 0.02,0.91 0.05,1.33 0,0 0,0.01 0,0.01 0.14,1.6 0.51,2.75 0.94,2.75 0.45,0 0.83,-1.23 0.96,-2.91l0 -0.02 0.02 -1.96 0 -0.02c-0.1,-1.86 -0.5,-3.27 -0.98,-3.27 -0.47,0 -0.86,1.33 -0.96,3.12 0,0 -0.01,0.01 -0.01,0.01 -0.01,0.31 -0.02,0.63 -0.02,0.96z"/>
  <path class="fil16" d="M9.34 12.37c-0.19,1.73 -0.67,2.87 -1.22,2.87 -0.46,0 -0.88,-0.81 -1.11,-2.17l0.06 -0.01c0.22,1.31 0.63,2.12 1.05,2.12 0.5,0 0.97,-1.14 1.16,-2.8l0.06 -0.01z"/>
  <path class="fil16" d="M6.84 11.63c-0.01,-0.28 -0.02,-0.58 -0.02,-0.88 0,-0.35 0.01,-0.7 0.04,-1.05 0,0 0,0 0,0l0 -0.01c0.03,-0.48 0.09,-0.93 0.16,-1.35l0.06 0.01c-0.07,0.41 -0.13,0.87 -0.16,1.35 0,0 0,0 0,0l0 0c-0.03,0.35 -0.04,0.7 -0.04,1.05 0,0.3 0.01,0.59 0.03,0.88l-0.07 0z"/>
  <path class="fil16" d="M9.35 9.21l-0.06 0c-0.18,-1.7 -0.65,-2.89 -1.17,-2.89 -0.32,0 -0.64,0.47 -0.87,1.28l-0.06 -0.01c0.25,-0.85 0.58,-1.33 0.93,-1.33 0.31,0 0.59,0.34 0.82,0.98 0.18,0.51 0.33,1.2 0.41,1.97z"/>
  <path class="fil22" d="M9.57 10.25l0.01 1.44c0,0 0.22,-0.02 0.51,-0.04 -0.01,-0.33 -0.07,-1.17 -0.27,-1.56 -0.05,-0.1 -0.14,-0.02 -0.25,0.16z"/>
  <path class="fil20" d="M13.69 10.84c-0.32,0 -0.67,-0.02 -1.09,-0.07l0 -0.04c0.51,0.05 0.92,0.07 1.29,0.06l0 0.04c-0.06,0.01 -0.13,0.01 -0.2,0.01z"/>
  <path class="fil20" d="M14.14 11.36c-0.15,0 -0.27,-0.05 -0.28,-0.05l-0.52 -0.22 0.02 -0.04 0.52 0.22c0,0 0.14,0.05 0.29,0.05 0.07,-0.01 0.19,-0.04 0.35,-0.08 0.21,-0.06 0.51,-0.13 0.82,-0.18 0.54,-0.07 0.68,0.28 0.68,0.28l-0.04 0.01c-0.01,-0.01 -0.13,-0.32 -0.64,-0.24 -0.3,0.04 -0.6,0.12 -0.81,0.17 -0.16,0.04 -0.29,0.08 -0.36,0.08 -0.01,0 -0.02,0 -0.03,0z"/>
  <path class="fil20" d="M10.62 10.16l-0.03 -0.04c0.32,-0.21 0.8,-0.34 0.8,-0.34l0.01 0.04c0,0 -0.47,0.13 -0.78,0.34z"/>
  <path class="fil23" d="M9.86 11.56c-0.02,0.14 -0.04,0.27 -0.06,0.41l-0.44 0.05 -0.13 0.01 -0.08 0.01 -1.84 0.19c0,0 0,-0.01 0,-0.01 -0.04,-0.51 -0.06,-1.06 -0.06,-1.63 0,-0.38 0.01,-0.75 0.03,-1.1 0,-0.02 0,-0.05 0,-0.07 0,0 0,0 0,0l0 0 1.9 0.17 0.06 0.01 0.15 0.01 0.41 0.04c0.11,0.62 0.13,1.25 0.06,1.91z"/>
  <path class="fil24" d="M9.86 11.56c-0.02,0.14 -0.04,0.27 -0.07,0.41l-0.45 0.05 -0.11 0.01 -0.1 0.01 -1.82 0.18 -0.01 0c-0.01,-0.05 -0.01,-0.1 -0.01,-0.15 0,0 0,0 -0.01,-0.01 -0.03,-0.42 -0.05,-0.87 -0.05,-1.33 0,-0.34 0.01,-0.66 0.03,-0.97 0,0 0,0 0,-0.01 0,-0.09 0.01,-0.18 0.02,-0.26 0,-0.02 0,-0.05 0,-0.07l0 0 0.2 0.02c0.04,0.42 0.17,1.52 0.54,1.82 0.25,0.21 0.79,0.27 1.22,0.29 0.34,0.01 0.61,0 0.61,0l0.01 0.01z"/>
  <path class="fil25" d="M22.55 5.25c0,0 -0.17,-0.13 -0.07,-0.31 0.07,-0.13 0.3,-0.18 0.3,-0.18 -0.07,0.09 -0.1,0.34 -0.17,0.43l-0.06 0.06z"/>
  <path class="fil21" d="M23.13 7.03c0,0 0.26,-0.59 -0.03,-1.02l0.53 -0.29c0,0 0.16,0.87 0.54,1.61 -0.28,0.26 -1,0.25 -1.04,-0.3z"/>
  <path class="fil25" d="M23.1 6.01c0.1,0.15 0.14,0.32 0.14,0.48 0.25,-0.18 0.46,-0.58 0.46,-0.58l-0.6 0.1z"/>
  <path class="fil21" d="M23.75 6c-0.09,0.12 -0.51,0.47 -0.8,0.43 -0.36,-0.05 -0.58,-1.36 -0.28,-1.61 0.17,-0.14 0.62,-0.11 0.88,0.19 0.25,0.3 0.33,0.83 0.2,0.99z"/>
  <path class="fil25" d="M21.52 19.13c1.01,0.44 1.94,0 1.94,0l-1 -0.31 -0.94 0.31z"/>
  <path class="fil25" d="M26.49 18.62c0,0 -0.62,0.79 -1.87,0.58l0.02 -0.78 1.85 0.2z"/>
  <path class="fil21" d="M26.52 19.15l-0.3 -0.67 -0.73 0.25 0.39 0.62c0.16,0.24 0.64,0.1 0.64,-0.2z"/>
  <path class="fil21" d="M22.76 19.65l0.13 -0.73 -0.77 0 -0.04 0.71c0.08,0.28 0.58,0.3 0.68,0.02z"/>
  <path class="fil16" d="M26.49 18.62c-0.54,0.32 -1.17,0.51 -1.87,0.58 0,0 -2.65,-3.85 -2.08,-8.45l1.94 0c0,0 -0.47,3.56 2.01,7.87z"/>
  <path class="fil26" d="M23.1 15.96c0.31,0.95 0.67,1.74 0.97,2.3l0.63 -4.34c-0.12,-0.59 -0.19,-1.12 -0.22,-1.57l-0.2 -0.77 -1.18 4.38z"/>
  <path class="fil16" d="M21.49 19.13c0.62,0.09 1.26,0.1 1.95,0l1.06 -6.29c0,0 0.46,-0.49 0.58,-1.2 0.03,-0.21 0.04,-0.44 -0.01,-0.68 -0.01,-0.06 -0.03,-0.13 -0.05,-0.2l-0.07 -0.01 -0.8 -0.11 -0.18 -0.02 -1.46 -0.21 -1.02 8.72z"/>
  <path class="fil26" d="M22.86 10.85c0.48,0.57 1.73,0.75 2.22,0.79 0.03,-0.21 0.04,-0.44 -0.01,-0.68l-0.12 -0.21 0 0 -0.8 -0.11 -0.18 -0.02 -1.11 0.23z"/>
  <path class="fil27" d="M22.33 10.71c0.11,0.07 0.24,0.13 0.37,0.19 0.19,0.07 0.39,0.14 0.59,0.19 1,0.27 2.12,0.32 2.12,0.32 -0.42,-1.41 -0.07,-2.69 -0.36,-3.7 -0.2,-0.68 -0.84,-1 -0.84,-1 -0.22,0.14 -0.79,0.4 -1.03,0.19 -0.03,-0.03 -0.08,-0.03 -0.1,0 -1.01,1.3 -0.71,1.91 -0.7,2.88 0.01,0.43 -0.05,0.93 -0.05,0.93z"/>
  <polygon class="fil15" points="23.77,17.67 24.55,12.83 24.5,12.83 23.72,17.66 "/>
  <path class="fil25" d="M22.56 4.96c-0.04,-0.15 0.05,-0.21 0.15,-0.32 0.11,-0.11 0.28,-0.12 0.42,-0.09 0.14,0.03 0.27,0.08 0.37,0.18 0.18,0.18 0.21,0.65 -0.09,0.66 -0.48,0.03 -0.77,-0.19 -0.85,-0.43z"/>
  <path class="fil25" d="M23.61 5.71c-0.06,-0.2 -0.22,-0.32 -0.35,-0.49l-0.64 -0.4c0.15,-0.24 0.65,-0.43 0.98,-0.31 0.35,0.12 0.55,0.48 0.74,1.02 0.11,0.32 0.31,0.53 0.41,0.62 0.93,0.89 0.97,1.8 0.4,2.15 -0.43,0.27 -0.77,0.12 -0.98,-0.03 -0.63,-0.45 -0.63,-2.11 -0.56,-2.56z"/>
  <path class="fil25" d="M23.01 5.52c0.2,0.03 0.38,-0.03 0.39,-0.03l-0.01 -0.04c0,0 -0.32,0.11 -0.56,-0.03 -0.12,-0.07 -0.21,-0.2 -0.24,-0.37l-0.04 0.01c0.04,0.18 0.13,0.32 0.26,0.39 0.06,0.04 0.13,0.06 0.2,0.07z"/>
  <path class="fil21" d="M23.39 5.57c-0.02,0.09 0.05,0.18 0.14,0.2 0.09,0.01 0.18,-0.05 0.19,-0.15 0.02,-0.09 -0.05,-0.18 -0.14,-0.19 -0.09,-0.02 -0.18,0.05 -0.19,0.14z"/>
  <path class="fil25" d="M25.21 20.42l0.91 0c0.02,0 0.05,-0.01 0.07,-0.03l0.85 -0.89c0.03,-0.03 0.03,-0.08 -0.01,-0.12l-0.39 -0.37c-0.04,-0.05 -0.15,-0.04 -0.15,0.03 0.03,0.32 -0.36,0.38 -0.6,0.33 -0.03,-0.01 -0.06,0.01 -0.07,0.04 -0.03,0.12 -0.07,0.4 -0.13,0.47 -0.1,0.14 -0.25,0.17 -0.36,0.23 -0.21,0.11 -0.12,0.31 -0.12,0.31z"/>
  <path class="fil15" d="M25.97 19.87c-0.16,0.04 -0.24,-0.09 -0.24,-0.09l0.03 -0.02c0,0.01 0.07,0.11 0.2,0.08l0.01 0.03z"/>
  <path class="fil15" d="M25.87 20.03c-0.15,0.03 -0.22,-0.08 -0.23,-0.08l0.03 -0.02c0.01,0 0.07,0.09 0.19,0.07l0.01 0.03z"/>
  <path class="fil15" d="M26.39 19.45c-0.12,0.06 -0.26,0.05 -0.26,0.05l0 -0.03c0,0 0.34,0.02 0.41,-0.23l0.04 0.01c-0.03,0.11 -0.11,0.17 -0.19,0.2z"/>
  <polygon class="fil15" points="26.83,19.55 26.13,20.27 26.1,20.24 26.81,19.53 "/>
  <path class="fil25" d="M22.91 20.41l-1.98 0.01c-0.07,0 -0.13,-0.06 -0.12,-0.13 0,0 0,0 0,0 0,-0.01 0,-0.03 0,-0.04 0.01,-0.06 0.02,-0.11 0.05,-0.14 0.09,-0.13 0.28,-0.19 0.6,-0.32 0.2,-0.08 0.38,-0.19 0.45,-0.24 0.03,-0.01 0.06,-0.01 0.08,0.01 0.4,0.38 0.64,0.3 0.71,0.14 0.05,-0.12 0.13,-0.09 0.15,-0.06 0.07,0.11 0.11,0.44 0.12,0.6 0,0.02 0,0.03 0,0.04 0.01,0.03 0.01,0.05 0.01,0.05 0.01,0.05 -0.03,0.08 -0.07,0.08z"/>
  <path class="fil15" d="M21.57 20c-0.14,-0.07 -0.12,-0.21 -0.12,-0.21l0.04 0c0,0.01 -0.02,0.12 0.1,0.18l-0.02 0.03z"/>
  <path class="fil15" d="M21.4 20.06c-0.13,-0.07 -0.12,-0.2 -0.12,-0.2l0.04 0c0,0.01 -0.01,0.11 0.1,0.17l-0.02 0.03z"/>
  <path class="fil15" d="M22.52 19.97c-0.13,0 -0.25,-0.06 -0.26,-0.06l0.02 -0.03c0,0 0.3,0.15 0.46,-0.04l0.02 0.02c-0.06,0.08 -0.16,0.11 -0.24,0.11z"/>
  <polygon class="fil15" points="22.73,20.29 21.58,20.3 21.58,20.26 22.73,20.26 "/>
  <polygon class="fil15" points="21.43,20.3 21.16,20.3 21.16,20.27 21.43,20.27 "/>
  <path class="fil28" d="M22.7 10.9c0.19,0.07 0.39,0.14 0.59,0.19 0.29,-0.32 0.92,-0.9 0.98,-2.25l-1.57 2.06z"/>
  <path class="fil27" d="M22.07 11.23c1.88,-0.42 2.2,-2.39 2.2,-2.39 0,0 -0.31,-0.87 -0.69,-0.9l-0.01 0c-0.38,-0.03 -0.71,0.26 -0.73,0.64 -0.03,0.68 -0.16,1.53 -1.01,2.04l0.24 0.61z"/>
  <path class="fil20" d="M21.84 10.64l-0.02 -0.04c0.78,-0.47 0.89,-1.22 0.98,-1.89 0.01,-0.04 0.02,-0.09 0.02,-0.13 0.04,-0.23 0.15,-0.8 0.51,-1.05l0.02 0.03c-0.33,0.25 -0.45,0.8 -0.48,1.02 -0.01,0.05 -0.02,0.09 -0.02,0.14 -0.09,0.64 -0.21,1.44 -1.01,1.92z"/>
  <path class="fil20" d="M23.72 10.16l-0.03 -0.03c0.32,-0.37 0.55,-1.18 0.55,-1.19l0.04 0.01c-0.01,0.03 -0.23,0.83 -0.56,1.21z"/>
  <path class="fil15" d="M23.19 11.68c-0.01,-0.01 -0.39,-0.2 -0.44,-0.54l0.05 -0.01c0.04,0.32 0.41,0.51 0.41,0.51l-0.02 0.04z"/>
  <g id="_2134843399664">
   <path class="fil18" d="M21.68 9.88c-0.03,0.38 -0.21,0.73 -0.5,0.98 -0.3,0.26 -0.67,0.38 -1.06,0.35 -0.79,-0.07 -1.39,-0.77 -1.32,-1.56 0.03,-0.39 0.21,-0.74 0.5,-0.99 0.28,-0.24 0.64,-0.36 1.01,-0.34 0.02,0 0.03,0 0.04,0 0.79,0.06 1.37,0.74 1.33,1.52 0,0.01 0,0.03 0,0.04zm-1.3 -1.91c-0.99,-0.08 -1.85,0.66 -1.93,1.65 -0.08,0.99 0.66,1.86 1.64,1.93 0.99,0.08 1.86,-0.65 1.94,-1.64 0.08,-0.99 -0.66,-1.86 -1.65,-1.94z"/>
   <path class="fil19" d="M21.68 9.84c0,0.01 0,0.03 0,0.04 -0.03,0.38 -0.21,0.73 -0.5,0.98 -0.3,0.26 -0.67,0.38 -1.06,0.35 -0.79,-0.07 -1.39,-0.77 -1.32,-1.56 0.03,-0.39 0.21,-0.74 0.5,-0.99 0.28,-0.24 0.64,-0.36 1.01,-0.34 0.02,0 0.03,0 0.04,0 0.79,0.06 1.37,0.74 1.33,1.52z"/>
   <path class="fil20" d="M21.64 9.48c0,-0.02 0,-0.03 -0.01,-0.04 -0.09,-0.4 -0.35,-0.74 -0.71,-0.94l0.01 -0.03c0.38,0.2 0.65,0.55 0.74,0.96 0.01,0.01 0.01,0.03 0.01,0.04l-0.04 0.01z"/>
   <path class="fil20" d="M20.92 8.5c-0.3,-0.15 -0.64,-0.2 -0.96,-0.14l-0.01 -0.04c0.33,-0.06 0.68,-0.01 0.98,0.15l-0.01 0.03z"/>
   <path class="fil20" d="M21.47 10.57l-0.04 -0.02c0.11,-0.16 0.18,-0.33 0.22,-0.52l0.03 0.01c-0.03,0.19 -0.11,0.37 -0.21,0.53z"/>
   <path class="fil20" d="M21.48 8.49c-0.14,-0.13 -0.29,-0.24 -0.45,-0.32l0.02 -0.03c0.17,0.08 0.32,0.19 0.46,0.32l-0.03 0.03z"/>
   <path class="fil20" d="M21.17 11.32l-0.02 -0.03c0.49,-0.3 0.81,-0.81 0.86,-1.38 0.03,-0.36 -0.05,-0.71 -0.22,-1.02l0.03 -0.02c0.18,0.32 0.26,0.68 0.23,1.04 -0.05,0.58 -0.38,1.11 -0.88,1.41z"/>
   <path class="fil29" d="M19.04 8.73c0.07,0.08 0.12,0.17 0.13,0.28 0.07,-0.08 0.16,-0.13 0.27,-0.15 -0.08,-0.08 -0.12,-0.17 -0.13,-0.28 -0.08,0.08 -0.17,0.13 -0.27,0.15z"/>
   <path class="fil30" d="M19.52 8.95l0 0.01c0.02,0 0.23,0 0.26,0 0.08,-0.01 0.16,-0.01 0.24,0.01 0.05,0.01 0.12,0.04 0.16,0.09 0.02,0.02 0.03,0.04 0.05,0.07 0.01,0.03 0.03,0.06 0.04,0.09l-0.67 0.01c-0.01,0.02 -0.07,0.14 -0.07,0.16l0.75 -0.01c0.01,0.05 -0.02,0.15 -0.06,0.19 -0.03,0.05 -0.08,0.08 -0.14,0.11 -0.02,0.01 -0.11,0.03 -0.14,0.02 0,0 0,0 0,0 -0.02,0.01 -0.36,0.01 -0.37,0.01l0 0.21c0.04,0 0.07,0 0.11,0 0.04,0 0.08,0 0.11,0 0.19,0 0.3,0.01 0.41,0.16 0.06,0.09 0.15,0.26 0.2,0.36 0.01,0.02 0.14,0.28 0.15,0.3l0.28 0 -0.22 -0.44c-0.06,-0.12 -0.14,-0.28 -0.24,-0.38 -0.03,-0.03 -0.06,-0.06 -0.1,-0.08 -0.01,0 -0.03,-0.01 -0.04,-0.01 0.01,0 0.02,-0.01 0.02,-0.01 0.09,-0.03 0.16,-0.07 0.22,-0.15 0.05,-0.07 0.08,-0.15 0.09,-0.24 0,-0.02 0,-0.04 0,-0.05l0.33 0 0.06 -0.16c0,0 0,0 0,0 -0.01,0 -0.01,0 -0.02,0l-0.07 0c-0.04,0 -0.07,0 -0.1,0 -0.05,0 -0.18,0 -0.21,0 0,-0.01 -0.01,-0.03 -0.01,-0.04 -0.03,-0.15 -0.12,-0.22 -0.12,-0.23l0.46 0 0.05 -0.12c0.01,-0.01 0.02,-0.03 0.02,-0.05l-1.36 0.02 -0.07 0.15c0,0 0,0 0,0l0 0z"/>
  </g>
  <path class="fil31" d="M21.35 11.22c0.01,0.02 -0.33,0.09 -0.31,0.14 0.03,0.07 0.3,-0.05 0.31,-0.02 0.01,0.01 -0.09,0.04 -0.15,0.07 -0.04,0.01 -0.03,0.04 -0.01,0.04 0.25,0.02 0.6,-0.23 0.64,-0.24 0.07,-0.01 0.14,-0.03 0.21,-0.05l-0.18 -0.45c-0.03,0.02 -0.07,0.04 -0.1,0.06 -0.05,0.03 -0.17,0.1 -0.22,0.11 -0.05,0 -0.32,-0.03 -0.32,0.03 0,0.06 0.19,0.04 0.18,0.08 -0.01,0.03 -0.37,0.08 -0.34,0.14 0.02,0.05 0.23,-0.01 0.23,0.01 0,0.03 -0.28,0.04 -0.25,0.11 0.02,0.07 0.3,-0.06 0.31,-0.03z"/>
  <path class="fil19" d="M6.76 19.83c0,0.12 0.89,0.22 1.99,0.22 1.1,0 2,-0.1 2,-0.22 0,-0.01 0,-0.01 0,-0.01l0 -0.6 -3.99 0 0 0.6c0,0 0,0 0,0.01z"/>
  <path class="fil18" d="M6.76 19.23c0,0.12 0.89,0.22 1.99,0.22 1.1,0 2,-0.1 2,-0.22 0,-0.12 -0.9,-0.22 -2,-0.22 -1.1,0 -1.99,0.1 -1.99,0.22z"/>
  <path class="fil19" d="M6.29 19.11c0,0.12 0.89,0.22 1.99,0.22 1.1,0 2,-0.1 2,-0.22 0,-0.01 0,-0.01 0,-0.01l0 -0.6 -3.99 0 0 0.6c0,0 0,0 0,0.01z"/>
  <path class="fil18" d="M6.29 18.51c0,0.12 0.89,0.22 1.99,0.22 1.1,0 2,-0.1 2,-0.22 0,-0.12 -0.9,-0.22 -2,-0.22 -1.1,0 -1.99,0.1 -1.99,0.22z"/>
  <path class="fil19" d="M6.76 18.39c0,0.12 0.89,0.22 1.99,0.22 1.1,0 2,-0.1 2,-0.22 0,0 0,-0.01 0,-0.01l0 -0.6 -3.99 0 0 0.6c0,0 0,0 0,0.01z"/>
  <path class="fil18" d="M6.76 17.79c0,0.12 0.89,0.22 1.99,0.22 1.1,0 2,-0.1 2,-0.22 0,-0.12 -0.9,-0.22 -2,-0.22 -1.1,0 -1.99,0.1 -1.99,0.22z"/>
  <path class="fil20" d="M8.75 20.07c0.81,0 2.02,-0.06 2.02,-0.24l-0.05 0c0,0.07 -0.67,0.19 -1.97,0.19 -0.05,0 -0.09,0 -0.14,0l0 0.05c0.05,0 0.09,0 0.14,0z"/>
  <path class="fil20" d="M7.96 20.05l0 -0.04c-0.2,-0.01 -0.38,-0.03 -0.55,-0.04l0 0.04c0.16,0.02 0.35,0.03 0.55,0.04z"/>
  <path class="fil20" d="M9.54 19.3c0.75,-0.07 0.75,-0.16 0.75,-0.2l-0.05 0c0,0.03 -0.12,0.1 -0.7,0.15l0 0.05z"/>
  <path class="fil20" d="M8.27 19.35c0.22,0 0.45,-0.01 0.66,-0.01l-0.01 -0.05c-0.37,0.01 -0.79,0.02 -1.17,0l-0.01 0.05c0.18,0.01 0.35,0.01 0.53,0.01z"/>
  <path class="fil20" d="M7.25 19.32l0 -0.05c-0.21,-0.01 -0.4,-0.03 -0.55,-0.05l-0.01 0.04c0.16,0.03 0.35,0.04 0.56,0.06z"/>
  <path class="fil20" d="M10.09 17.98c0.67,-0.07 0.67,-0.16 0.67,-0.19l-0.05 0c0,0 -0.02,0.08 -0.62,0.14l0 0.05z"/>
  <path class="fil20" d="M8.74 18.04c0.23,0 0.45,-0.01 0.67,-0.02l-0.01 -0.04c-0.21,0.01 -0.43,0.01 -0.66,0.01 -0.41,0 -0.8,-0.01 -1.14,-0.04l0 0.05c0.33,0.02 0.73,0.04 1.14,0.04z"/>
  <path class="fil19" d="M6.05 17.67c0,0.12 0.89,0.22 1.99,0.22 1.11,0 2,-0.1 2,-0.22 0,0 0,-0.01 0,-0.01l0 -0.6 -3.99 0 0 0.6c0,0 0,0.01 0,0.01z"/>
  <path class="fil18" d="M6.05 17.07c0,0.12 0.89,0.22 1.99,0.22 1.11,0 2,-0.1 2,-0.22 0,-0.12 -0.89,-0.22 -2,-0.22 -1.1,0 -1.99,0.1 -1.99,0.22z"/>
  <path class="fil19" d="M6.42 17.07c0,0.08 0.73,0.15 1.62,0.15 0.9,0 1.63,-0.07 1.63,-0.15 0,-0.08 -0.73,-0.15 -1.63,-0.15 -0.89,0 -1.62,0.07 -1.62,0.15z"/>
  <path class="fil18" d="M5.03 18.35c-0.01,0.43 -0.19,0.83 -0.51,1.13 -0.31,0.3 -0.73,0.46 -1.16,0.45 -0.89,-0.03 -1.6,-0.78 -1.58,-1.67 0.02,-0.43 0.2,-0.84 0.51,-1.13 0.3,-0.29 0.7,-0.45 1.11,-0.45 0.02,0 0.03,0 0.05,0 0.88,0.03 1.58,0.75 1.58,1.62 0,0.02 0,0.03 0,0.05zm-1.57 -2.06c-1.11,-0.03 -2.04,0.85 -2.07,1.96 -0.03,1.11 0.85,2.04 1.96,2.07 1.11,0.03 2.04,-0.85 2.07,-1.96 0.03,-1.11 -0.85,-2.04 -1.96,-2.07z"/>
  <path class="fil19" d="M5.03 18.3c0,0.02 0,0.03 0,0.05 -0.01,0.43 -0.19,0.83 -0.51,1.13 -0.31,0.3 -0.73,0.46 -1.16,0.45 -0.89,-0.03 -1.6,-0.78 -1.58,-1.67 0.02,-0.43 0.2,-0.84 0.51,-1.13 0.3,-0.29 0.7,-0.45 1.11,-0.45 0.02,0 0.03,0 0.05,0 0.88,0.03 1.58,0.75 1.58,1.62z"/>
  <path class="fil20" d="M4.96 17.9c0,-0.02 -0.01,-0.03 -0.01,-0.04 -0.13,-0.45 -0.44,-0.81 -0.86,-1.01l0.02 -0.04c0.43,0.2 0.75,0.58 0.88,1.03 0.01,0.02 0.01,0.03 0.01,0.05l-0.04 0.01z"/>
  <path class="fil20" d="M4.09 16.85c-0.34,-0.16 -0.72,-0.19 -1.08,-0.1l-0.01 -0.04c0.37,-0.1 0.76,-0.06 1.11,0.1l-0.02 0.04z"/>
  <path class="fil20" d="M4.83 19.13l-0.04 -0.02c0.11,-0.18 0.18,-0.38 0.21,-0.59l0.04 0.01c-0.03,0.21 -0.1,0.42 -0.21,0.6z"/>
  <path class="fil20" d="M4.72 16.81c-0.16,-0.14 -0.33,-0.25 -0.52,-0.33l0.02 -0.05c0.19,0.09 0.37,0.2 0.53,0.34l-0.03 0.04z"/>
  <path class="fil20" d="M4.54 20l-0.02 -0.04c0.53,-0.36 0.86,-0.96 0.88,-1.6 0.01,-0.4 -0.1,-0.79 -0.31,-1.12l0.04 -0.03c0.22,0.34 0.33,0.74 0.31,1.15 -0.01,0.66 -0.35,1.27 -0.9,1.64z"/>
  <path class="fil20" d="M9.45 3.39l-2.2 0c-0.03,0 -0.04,-0.01 -0.04,-0.03 0,-0.03 0.01,-0.04 0.04,-0.04l2.2 0c0.02,0 0.04,0.01 0.04,0.04 0,0.02 -0.02,0.03 -0.04,0.03z"/>
  <path class="fil29" d="M2.2 17.16c0.16,0.08 0.27,0.21 0.35,0.37 0.07,-0.16 0.18,-0.29 0.34,-0.37 -0.16,-0.08 -0.27,-0.2 -0.34,-0.36 -0.08,0.16 -0.19,0.28 -0.35,0.36z"/>
  <path class="fil29" d="M4.19 19.32c0.09,0.05 0.16,0.12 0.2,0.21 0.04,-0.09 0.11,-0.16 0.2,-0.21 -0.09,-0.05 -0.16,-0.12 -0.2,-0.21 -0.04,0.09 -0.11,0.16 -0.2,0.21z"/>
  <path class="fil29" d="M2.06 18.95c0.1,0.04 0.16,0.12 0.2,0.21 0.05,-0.09 0.11,-0.17 0.21,-0.21 -0.1,-0.05 -0.16,-0.12 -0.21,-0.22 -0.04,0.1 -0.1,0.17 -0.2,0.22z"/>
  <path class="fil30" d="M2.73 17.54l0 0c0.01,0 0.21,0 0.24,0 0.07,0 0.15,-0.01 0.22,0.01 0.06,0.01 0.12,0.05 0.16,0.09 0.02,0.02 0.03,0.04 0.05,0.07 0.01,0.02 0.03,0.05 0.03,0.08l-0.63 0.01c-0.01,0.02 -0.06,0.13 -0.07,0.15l0.72 -0.01c0,0.05 -0.03,0.14 -0.06,0.18 -0.03,0.05 -0.07,0.08 -0.13,0.1 -0.03,0.01 -0.11,0.03 -0.14,0.03 0,0 0,0 0,0 -0.01,0 -0.34,0 -0.35,0l0 0.21c0.04,-0.01 0.07,0 0.11,0 0.03,0 0.07,-0.01 0.11,-0.01 0.17,0 0.27,0.01 0.38,0.15 0.06,0.09 0.14,0.25 0.19,0.35 0,0.01 0.13,0.26 0.14,0.28l0.27 0 -0.21 -0.41c-0.06,-0.12 -0.14,-0.27 -0.23,-0.36 -0.03,-0.03 -0.06,-0.06 -0.1,-0.08 -0.01,0 -0.02,-0.01 -0.03,-0.01 0,-0.01 0.01,-0.01 0.02,-0.01 0.08,-0.03 0.15,-0.07 0.2,-0.14 0.06,-0.07 0.08,-0.14 0.09,-0.23 0,-0.02 0,-0.04 0,-0.05l0.31 0 0.06 -0.15c0,-0.01 0,0 0,0 -0.01,0 -0.01,0 -0.02,0l-0.07 0c-0.03,0 -0.06,0 -0.09,0 -0.05,0 -0.17,0 -0.2,0 0,-0.01 0,-0.03 -0.01,-0.04 -0.03,-0.14 -0.11,-0.21 -0.11,-0.22l0.43 0 0.05 -0.11c0.01,-0.01 0.02,-0.03 0.02,-0.04l-1.29 0.01 -0.06 0.15c0,0 0,0 0,0l0 0z"/>
  <path class="fil30" d="M13.13 8.54l0 0c0.02,0 0.22,0 0.24,0 0.08,0 0.16,-0.01 0.23,0.01 0.05,0.01 0.11,0.05 0.15,0.09 0.02,0.02 0.03,0.04 0.05,0.07 0.01,0.02 0.03,0.05 0.03,0.08l-0.63 0.01c-0.01,0.02 -0.06,0.13 -0.07,0.15l0.72 -0.01c0,0.05 -0.03,0.14 -0.06,0.18 -0.03,0.05 -0.07,0.08 -0.13,0.1 -0.03,0.01 -0.11,0.03 -0.14,0.03 0,0 0,0 0,0 -0.01,0 -0.34,0 -0.35,0l0 0.21c0.04,0 0.08,0 0.11,0 0.04,0 0.07,0 0.11,-0.01 0.17,0 0.27,0.01 0.38,0.15 0.06,0.09 0.14,0.25 0.19,0.35 0.01,0.01 0.13,0.26 0.14,0.28l0.27 0 -0.21 -0.41c-0.06,-0.12 -0.13,-0.27 -0.22,-0.36 -0.03,-0.03 -0.07,-0.06 -0.11,-0.08 -0.01,0 -0.02,-0.01 -0.03,-0.01 0.01,-0.01 0.01,-0.01 0.02,-0.01 0.08,-0.03 0.15,-0.07 0.2,-0.14 0.06,-0.07 0.08,-0.14 0.09,-0.23 0,-0.02 0,-0.04 0,-0.05l0.31 0 0.07 -0.15c0,0 0,0 -0.01,0 0,0 -0.01,0 -0.01,0l-0.08 0c-0.03,0 -0.06,0 -0.09,0 -0.04,0 -0.16,0 -0.2,0 0,-0.01 0,-0.03 0,-0.04 -0.04,-0.14 -0.12,-0.21 -0.12,-0.22l0.44 0 0.05 -0.11c0,-0.01 0.01,-0.03 0.01,-0.04l-1.28 0.01 -0.07 0.15c0,0 0,0 0,0l0 0z"/>
  <g id="_2134843433968">
   <path class="fil18" d="M19.1 3.96c0.01,0.44 -0.15,0.85 -0.45,1.16 -0.29,0.32 -0.7,0.5 -1.13,0.51 -0.89,0.03 -1.64,-0.68 -1.67,-1.58 -0.01,-0.43 0.15,-0.84 0.45,-1.16 0.28,-0.3 0.67,-0.48 1.08,-0.5 0.02,0 0.03,0 0.05,0 0.88,-0.03 1.62,0.66 1.66,1.53 0,0.01 0.01,0.03 0.01,0.04zm-1.68 -1.97c-1.12,0.04 -1.99,0.96 -1.96,2.08 0.03,1.11 0.96,1.99 2.07,1.95 1.11,-0.03 1.99,-0.96 1.96,-2.07 -0.03,-1.11 -0.96,-1.99 -2.07,-1.96z"/>
   <path class="fil19" d="M19.09 3.92c0,0.01 0.01,0.03 0.01,0.04 0.01,0.44 -0.15,0.85 -0.45,1.16 -0.29,0.32 -0.7,0.5 -1.13,0.51 -0.89,0.03 -1.64,-0.68 -1.67,-1.58 -0.01,-0.43 0.15,-0.84 0.45,-1.16 0.28,-0.3 0.67,-0.48 1.08,-0.5 0.02,0 0.03,0 0.05,0 0.88,-0.03 1.62,0.66 1.66,1.53z"/>
   <path class="fil20" d="M19 3.52c0,-0.02 0,-0.03 -0.01,-0.04 -0.15,-0.44 -0.48,-0.79 -0.91,-0.96l0.01 -0.04c0.44,0.18 0.79,0.54 0.94,0.98 0.01,0.02 0.01,0.03 0.02,0.04l-0.05 0.02z"/>
   <path class="fil20" d="M18.08 2.52c-0.35,-0.14 -0.73,-0.15 -1.09,-0.04l-0.01 -0.04c0.36,-0.12 0.76,-0.1 1.11,0.04l-0.01 0.04z"/>
   <path class="fil20" d="M18.94 4.76l-0.04 -0.02c0.1,-0.19 0.16,-0.39 0.18,-0.6l0.04 0c-0.02,0.22 -0.08,0.42 -0.18,0.62z"/>
   <path class="fil20" d="M18.7 2.44c-0.16,-0.13 -0.34,-0.23 -0.54,-0.3l0.02 -0.04c0.2,0.07 0.38,0.17 0.55,0.3l-0.03 0.04z"/>
   <path class="fil20" d="M18.7 5.64l-0.02 -0.04c0.51,-0.39 0.8,-1.01 0.79,-1.65 -0.02,-0.4 -0.14,-0.78 -0.38,-1.1l0.04 -0.03c0.24,0.33 0.37,0.72 0.38,1.13 0.02,0.66 -0.28,1.29 -0.81,1.69z"/>
   <path class="fil29" d="M15.79 3.38c0.16,0.09 0.27,0.21 0.35,0.37 0.07,-0.16 0.18,-0.28 0.34,-0.37 -0.16,-0.08 -0.27,-0.2 -0.34,-0.36 -0.08,0.16 -0.19,0.28 -0.35,0.36z"/>
   <path class="fil29" d="M16.34 4.34c0.09,0.04 0.16,0.12 0.2,0.21 0.05,-0.09 0.11,-0.17 0.2,-0.21 -0.09,-0.05 -0.15,-0.12 -0.2,-0.21 -0.04,0.09 -0.11,0.16 -0.2,0.21z"/>
   <path class="fil30" d="M16.8 3.24l0 0.01c0.01,0 0.21,-0.01 0.24,-0.01 0.07,0 0.15,0 0.22,0.01 0.06,0.02 0.12,0.05 0.16,0.09 0.02,0.03 0.03,0.04 0.05,0.07 0.01,0.02 0.02,0.06 0.03,0.09l-0.63 0c-0.01,0.02 -0.07,0.14 -0.07,0.15l0.72 0c0,0.05 -0.03,0.14 -0.06,0.18 -0.03,0.04 -0.07,0.08 -0.14,0.1 -0.02,0 -0.1,0.03 -0.13,0.02 0,0 0,0 0,0 -0.01,0 -0.34,0.01 -0.35,0.01l0 0.2c0.04,0 0.07,0 0.11,0 0.03,0 0.07,0 0.1,0 0.18,0 0.28,0.01 0.39,0.15 0.06,0.08 0.14,0.25 0.18,0.34 0.01,0.02 0.14,0.27 0.15,0.29l0.27 -0.01 -0.21 -0.41c-0.06,-0.11 -0.14,-0.27 -0.23,-0.36 -0.03,-0.03 -0.06,-0.06 -0.1,-0.08 -0.01,0 -0.02,0 -0.03,-0.01 0,0 0.01,0 0.02,-0.01 0.08,-0.02 0.15,-0.07 0.2,-0.14 0.05,-0.07 0.08,-0.14 0.09,-0.23 0,-0.01 0,-0.03 0,-0.04l0.31 -0.01 0.06 -0.14c0,-0.01 0,-0.01 0,-0.01 -0.01,0 -0.01,0 -0.02,0l-0.07 0c-0.03,0 -0.06,0 -0.1,0 -0.04,0 -0.16,0.01 -0.19,0 0,0 -0.01,-0.03 -0.01,-0.03 -0.03,-0.15 -0.11,-0.21 -0.11,-0.22l0.43 0 0.05 -0.12c0.01,-0.01 0.02,-0.03 0.02,-0.04l-1.29 0.01 -0.06 0.15c0,0 0,0 0,0l0 0z"/>
  </g>
 </g>
</svg>
