<?xml version="1.0" encoding="UTF-8"?>
<!DOCTYPE svg PUBLIC "-//W3C//DTD SVG 1.1//EN" "http://www.w3.org/Graphics/SVG/1.1/DTD/svg11.dtd">
<!-- Creator: CorelDRAW 2019 (64-Bit) -->
<svg xmlns="http://www.w3.org/2000/svg" xml:space="preserve" width="480px" height="353px" version="1.1" style="shape-rendering:geometricPrecision; text-rendering:geometricPrecision; image-rendering:optimizeQuality; fill-rule:evenodd; clip-rule:evenodd"
viewBox="0 0 26.32 19.36"
 xmlns:xlink="http://www.w3.org/1999/xlink">
 <defs>
  <style type="text/css">
   <![CDATA[
    .fil30 {fill:#FFF196}
    .fil19 {fill:#2E4882;fill-rule:nonzero}
    .fil27 {fill:#314B87;fill-rule:nonzero}
    .fil26 {fill:#374263;fill-rule:nonzero}
    .fil16 {fill:#3F5A9F;fill-rule:nonzero}
    .fil12 {fill:#446BD0;fill-rule:nonzero}
    .fil11 {fill:#5689C2;fill-rule:nonzero}
    .fil25 {fill:#647CE2;fill-rule:nonzero}
    .fil24 {fill:#6D92F0;fill-rule:nonzero}
    .fil2 {fill:#71C1DC;fill-rule:nonzero}
    .fil3 {fill:#80412F;fill-rule:nonzero}
    .fil29 {fill:#9AADE5;fill-rule:nonzero}
    .fil13 {fill:#A2C3F2;fill-rule:nonzero}
    .fil4 {fill:#A46D47;fill-rule:nonzero}
    .fil28 {fill:#BAC8F3;fill-rule:nonzero}
    .fil6 {fill:#C9284E;fill-rule:nonzero}
    .fil5 {fill:#C98439;fill-rule:nonzero}
    .fil8 {fill:#CB1E48;fill-rule:nonzero}
    .fil9 {fill:#DF3D55;fill-rule:nonzero}
    .fil14 {fill:#E1EAFF;fill-rule:nonzero}
    .fil7 {fill:#E2E0E3;fill-rule:nonzero}
    .fil1 {fill:#E6A347;fill-rule:nonzero}
    .fil10 {fill:#F3EFF1;fill-rule:nonzero}
    .fil18 {fill:#F49B51;fill-rule:nonzero}
    .fil20 {fill:#FCB47E;fill-rule:nonzero}
    .fil17 {fill:#FCC659;fill-rule:nonzero}
    .fil23 {fill:#FFA87D;fill-rule:nonzero}
    .fil31 {fill:#FFBB8D;fill-rule:nonzero}
    .fil21 {fill:#FFC49C;fill-rule:nonzero}
    .fil22 {fill:#FFE6A6;fill-rule:nonzero}
    .fil15 {fill:white;fill-rule:nonzero}
    .fil0 {fill:url(#id0)}
   ]]>
  </style>
  <linearGradient id="id0" gradientUnits="userSpaceOnUse" x1="-0.91" y1="22.63" x2="41.95" y2="-27.41">
   <stop offset="0" style="stop-opacity:1; stop-color:white"/>
   <stop offset="1" style="stop-opacity:1; stop-color:#0CB7E7"/>
  </linearGradient>
 </defs>
 <g id="Layer_x0020_1">
  <metadata id="CorelCorpID_0Corel-Layer"/>
  <path class="fil0" d="M0.82 8.31c0.59,-0.59 1.46,-0.67 2.25,-0.81 0.8,-0.15 1.68,-0.49 1.97,-1.31 0.21,-0.62 0.02,-1.3 -0.03,-1.96 -0.12,-1.63 0.8,-3.28 2.17,-3.93 1.37,-0.64 3.1,-0.23 4.11,0.98 0.39,0.48 0.68,1.06 1.04,1.57 0.37,0.51 0.85,0.97 1.44,1.06 1.01,0.17 1.85,-0.77 2.75,-1.3 1.67,-0.97 3.96,-0.41 5.08,1.26 0.47,0.69 0.74,1.53 1.31,2.13 0.54,0.59 1.29,0.87 1.9,1.38 1.36,1.15 1.75,3.37 1.11,5.11 -0.64,1.74 -2.16,2.99 -3.81,3.51 -1.65,0.52 -3.43,0.38 -5.1,-0.08 -0.67,-0.18 -1.35,-0.41 -2.03,-0.29 -0.71,0.13 -1.31,0.64 -1.94,1.03 -8.99,8.38 -15.39,-5.15 -12.22,-8.35z"/>
  <g id="_2135346695200">
   <polygon class="fil1" points="23.65,18.18 12.69,18.18 12.69,10.63 23.65,10.63 "/>
   <polygon class="fil2" points="21.38,13.31 18.56,13.31 18.56,17.47 21.38,17.47 "/>
   <g>
    <image x="18.55" y="13.31" width="2.42" height="4.16" xlink:href="MSME_Lon_Images\MSME_Lon_ImgID1.png"/>
   </g>
   <g>
    <image x="18.95" y="13.31" width="2.42" height="4.16" xlink:href="MSME_Lon_Images\MSME_Lon_ImgID2.png"/>
   </g>
   <g>
    <image x="18.55" y="13.71" width="1.75" height="3.75" xlink:href="MSME_Lon_Images\MSME_Lon_ImgID3.png"/>
   </g>
   <g>
    <image x="20.71" y="15.72" width="0.67" height="1.74" xlink:href="MSME_Lon_Images\MSME_Lon_ImgID4.png"/>
   </g>
   <path class="fil3" d="M18.56 17.47l0 -2.08 2.82 0 0 -0.2 -2.82 0 0 -1.88 2.82 0 0 4.16 -2.82 0zm-0.3 0.3l3.42 0 0 -4.76 -3.42 0 0 4.76z"/>
   <polygon class="fil4" points="18.17,17.78 18.26,17.78 18.26,13.01 18.17,13.01 "/>
   <polygon class="fil2" points="17.86,13.31 15.05,13.31 15.05,17.47 17.86,17.47 "/>
   <g>
    <image x="15.05" y="15.99" width="2.96" height="1.48" xlink:href="MSME_Lon_Images\MSME_Lon_ImgID5.png"/>
   </g>
   <g>
    <image x="15.05" y="15.05" width="1.75" height="1.21" xlink:href="MSME_Lon_Images\MSME_Lon_ImgID6.png"/>
   </g>
   <g>
    <image x="15.05" y="13.98" width="1.75" height="1.21" xlink:href="MSME_Lon_Images\MSME_Lon_ImgID7.png"/>
   </g>
   <g>
    <image x="17.2" y="15.32" width="0.81" height="0.94" xlink:href="MSME_Lon_Images\MSME_Lon_ImgID8.png"/>
   </g>
   <g>
    <image x="17.2" y="14.52" width="0.81" height="0.94" xlink:href="MSME_Lon_Images\MSME_Lon_ImgID9.png"/>
   </g>
   <g>
    <image x="15.05" y="13.31" width="2.42" height="4.16" xlink:href="MSME_Lon_Images\MSME_Lon_ImgID10.png"/>
   </g>
   <g>
    <image x="15.45" y="13.31" width="2.56" height="4.16" xlink:href="MSME_Lon_Images\MSME_Lon_ImgID11.png"/>
   </g>
   <path class="fil3" d="M15.05 17.47l0 -2.08 2.81 0 0 -0.2 -2.81 0 0 -1.88 2.81 0 0 4.16 -2.81 0zm-0.31 0.3l3.43 0 0 -4.76 -3.43 0 0 4.76z"/>
   <polygon class="fil4" points="14.65,17.78 14.74,17.78 14.74,13.01 14.65,13.01 "/>
   <path class="fil5" d="M23.65 10.13l-10.96 0 0 2.2c0.11,0.13 0.28,0.21 0.46,0.21 0.35,0 0.63,-0.28 0.63,-0.63 0,0.35 0.28,0.63 0.62,0.63 0.35,0 0.63,-0.28 0.63,-0.63 0,0.35 0.28,0.63 0.63,0.63l0 0c0.35,0 0.63,-0.28 0.63,-0.63 0,0.35 0.28,0.63 0.63,0.63 0.34,0 0.62,-0.28 0.62,-0.63 0,0.35 0.28,0.63 0.63,0.63l0 0c0.35,0 0.63,-0.28 0.63,-0.63 0,0.35 0.28,0.63 0.63,0.63 0.34,0 0.62,-0.28 0.62,-0.63 0,0.35 0.29,0.63 0.63,0.63l0 0c0.35,0 0.63,-0.28 0.63,-0.63 0,0.35 0.28,0.63 0.63,0.63 0.34,0 0.63,-0.28 0.63,-0.63 0,0.35 0.28,0.63 0.62,0.63l0 0c0.18,0 0.35,-0.08 0.46,-0.2l0 -2.21z"/>
   <path class="fil6" d="M13.15 11.84l0 0c-0.35,0 -0.63,-0.29 -0.63,-0.63l0 -1.79 1.25 0 0 1.79c0,0.34 -0.28,0.63 -0.62,0.63z"/>
   <path class="fil7" d="M14.4 11.84l0 0c-0.34,0 -0.63,-0.29 -0.63,-0.63l0 -1.79 1.26 0 0 1.79c0,0.34 -0.28,0.63 -0.63,0.63z"/>
   <path class="fil6" d="M23.19 11.84l0 0c-0.35,0 -0.63,-0.29 -0.63,-0.63l0 -1.79 1.26 0 0 1.79c0,0.34 -0.28,0.63 -0.63,0.63z"/>
   <path class="fil6" d="M15.66 11.84l0 0c-0.35,0 -0.63,-0.29 -0.63,-0.63l0 -1.79 1.26 0 0 1.79c0,0.34 -0.29,0.63 -0.63,0.63z"/>
   <path class="fil7" d="M16.91 11.84l0 0c-0.34,0 -0.62,-0.29 -0.62,-0.63l0 -1.79 1.25 0 0 1.79c0,0.34 -0.28,0.63 -0.63,0.63z"/>
   <path class="fil6" d="M18.17 11.84l0 0c-0.35,0 -0.63,-0.29 -0.63,-0.63l0 -1.79 1.26 0 0 1.79c0,0.34 -0.28,0.63 -0.63,0.63z"/>
   <path class="fil7" d="M19.42 11.84l0 0c-0.34,0 -0.62,-0.29 -0.62,-0.63l0 -1.79 1.25 0 0 1.79c0,0.34 -0.28,0.63 -0.63,0.63z"/>
   <path class="fil6" d="M20.68 11.84l0 0c-0.35,0 -0.63,-0.29 -0.63,-0.63l0 -1.79 1.26 0 0 1.79c0,0.34 -0.28,0.63 -0.63,0.63z"/>
   <path class="fil7" d="M21.94 11.84l0 0c-0.35,0 -0.63,-0.29 -0.63,-0.63l0 -1.79 1.25 0 0 1.79c0,0.34 -0.28,0.63 -0.62,0.63z"/>
   <polygon class="fil8" points="24.14,17.81 12.2,17.81 12.2,18.18 24.14,18.18 "/>
   <polygon class="fil9" points="24.14,17.78 12.2,17.78 12.2,17.87 24.14,17.87 "/>
   <polygon class="fil8" points="22.28,8.52 14.06,8.52 14.06,8.11 22.28,8.11 "/>
   <polygon class="fil9" points="14.97,8.52 14.06,8.52 12.52,9.42 13.77,9.42 "/>
   <polygon class="fil10" points="15.89,8.52 14.97,8.52 13.77,9.42 15.03,9.42 "/>
   <polygon class="fil9" points="16.8,8.52 15.89,8.52 15.03,9.42 16.29,9.42 "/>
   <polygon class="fil9" points="22.28,8.52 21.36,8.52 22.56,9.42 23.82,9.42 "/>
   <polygon class="fil10" points="17.71,8.52 16.8,8.52 16.29,9.42 17.54,9.42 "/>
   <polygon class="fil9" points="18.63,8.52 17.71,8.52 17.54,9.42 18.8,9.42 "/>
   <polygon class="fil10" points="19.54,8.52 18.63,8.52 18.8,9.42 20.05,9.42 "/>
   <polygon class="fil9" points="20.45,8.52 19.54,8.52 20.05,9.42 21.31,9.42 "/>
   <polygon class="fil10" points="21.36,8.52 20.45,8.52 21.31,9.42 22.56,9.42 "/>
  </g>
  <path class="fil11" d="M26.32 18.26c0,0.37 -5.82,0.68 -13.01,0.68 -7.19,0 -13.02,-0.31 -13.02,-0.68 0,-0.38 5.83,-0.68 13.02,-0.68 7.19,0 13.01,0.3 13.01,0.68z"/>
  <path class="fil12" d="M3.83 2.91l0 14.81c0,0.21 0.17,0.38 0.38,0.38l7.28 0c0.2,0 0.37,-0.17 0.37,-0.38l0 -14.81c0,-0.21 -0.17,-0.37 -0.37,-0.37l-7.28 0c-0.21,0 -0.38,0.16 -0.38,0.37z"/>
  <path class="fil13" d="M3.49 2.91l0 14.81c0,0.21 0.16,0.38 0.37,0.38l7.28 0c0.21,0 0.38,-0.17 0.38,-0.38l0 -14.81c0,-0.21 -0.17,-0.37 -0.38,-0.37l-7.28 0c-0.21,0 -0.37,0.16 -0.37,0.37z"/>
  <path class="fil14" d="M4.07 4.38l0 11.74c0,0.24 0.18,0.43 0.4,0.43l6.12 0c0.22,0 0.4,-0.19 0.4,-0.43l0 -11.74c0,-0.24 -0.18,-0.43 -0.4,-0.43l-6.12 0c-0.22,0 -0.4,0.19 -0.4,0.43z"/>
  <path class="fil15" d="M4.39 4.04c-0.18,0 -0.33,0.15 -0.33,0.34l0 11.74c0,0.19 0.15,0.35 0.33,0.35l6.28 0c0.18,0 0.32,-0.16 0.32,-0.35l0 -11.74c0,-0.19 -0.14,-0.34 -0.32,-0.34l-6.28 0zm-0.5 12.08l0 -11.74c0,-0.28 0.23,-0.52 0.5,-0.52l6.28 0c0.27,0 0.5,0.24 0.5,0.52l0 11.74c0,0.29 -0.23,0.52 -0.5,0.52l-6.28 0c-0.27,0 -0.5,-0.23 -0.5,-0.52z"/>
  <path class="fil16" d="M11.14 18.13l-5.93 0 0 -0.06 5.93 0c0.19,0 0.35,-0.16 0.35,-0.35l0 -14.81c0,-0.19 -0.16,-0.34 -0.35,-0.34l-7.28 0 0 -0.06 7.28 0c0.22,0 0.41,0.18 0.41,0.4l0 14.81c0,0.23 -0.19,0.41 -0.41,0.41z"/>
  <polygon class="fil16" points="3.52,6.96 3.46,6.96 3.46,3.44 3.52,3.44 "/>
  <path class="fil17" d="M17.05 3.53c0.02,0.39 -0.13,0.77 -0.4,1.06 -0.28,0.29 -0.65,0.46 -1.04,0.47 -0.83,0.02 -1.51,-0.63 -1.54,-1.45 -0.01,-0.4 0.14,-0.78 0.41,-1.07 0.26,-0.28 0.62,-0.44 1,-0.46 0.01,0 0.03,0 0.04,0 0.81,-0.03 1.49,0.6 1.53,1.41 0,0.01 0,0.02 0,0.04zm-1.54 -1.81c-1.02,0.02 -1.83,0.88 -1.8,1.9 0.03,1.02 0.88,1.83 1.91,1.8 1.02,-0.03 1.83,-0.88 1.8,-1.9 -0.03,-1.03 -0.89,-1.83 -1.91,-1.8z"/>
  <path class="fil18" d="M17.05 3.49c0,0.01 0,0.02 0,0.04 0.02,0.39 -0.13,0.77 -0.4,1.06 -0.28,0.29 -0.65,0.46 -1.04,0.47 -0.83,0.02 -1.51,-0.63 -1.54,-1.45 -0.01,-0.4 0.14,-0.78 0.41,-1.07 0.26,-0.28 0.62,-0.44 1,-0.46 0.01,0 0.03,0 0.04,0 0.81,-0.03 1.49,0.6 1.53,1.41z"/>
  <path class="fil19" d="M16.97 3.12c0,-0.02 -0.01,-0.03 -0.01,-0.04 -0.14,-0.4 -0.45,-0.72 -0.84,-0.88l0.01 -0.04c0.41,0.17 0.72,0.49 0.87,0.9 0,0.02 0.01,0.03 0.01,0.04l-0.04 0.02z"/>
  <path class="fil19" d="M16.12 2.2c-0.32,-0.13 -0.67,-0.14 -1,-0.04l-0.01 -0.03c0.33,-0.11 0.7,-0.1 1.02,0.03l-0.01 0.04z"/>
  <path class="fil19" d="M16.91 4.26l-0.03 -0.02c0.09,-0.18 0.14,-0.36 0.16,-0.55l0.04 0c-0.02,0.2 -0.07,0.39 -0.17,0.57z"/>
  <path class="fil19" d="M16.69 2.13c-0.15,-0.12 -0.31,-0.21 -0.49,-0.28l0.01 -0.04c0.18,0.07 0.35,0.16 0.51,0.28l-0.03 0.04z"/>
  <path class="fil19" d="M16.69 5.06l-0.02 -0.03c0.47,-0.36 0.74,-0.92 0.72,-1.51 -0.01,-0.37 -0.12,-0.72 -0.34,-1.02l0.04 -0.02c0.22,0.3 0.34,0.66 0.35,1.04 0.01,0.6 -0.26,1.18 -0.75,1.54z"/>
  <path class="fil20" d="M12.51 11.02c0.51,-0.08 2.36,-0.79 2.36,-0.79 0,0 -0.14,-0.26 -0.63,-0.19 -0.48,0.07 -1.74,0.39 -1.74,0.39l0.01 0.59z"/>
  <path class="fil17" d="M14.26 8.7c-0.01,0.42 -0.19,0.81 -0.5,1.09 -0.3,0.29 -0.7,0.44 -1.12,0.42 -0.86,-0.02 -1.54,-0.75 -1.51,-1.61 0.02,-0.42 0.19,-0.81 0.5,-1.09 0.29,-0.28 0.67,-0.43 1.07,-0.42 0.02,0 0.03,0 0.05,0 0.85,0.02 1.52,0.73 1.51,1.57 0,0.01 0,0.03 0,0.04zm-1.5 -1.99c-1.07,-0.04 -1.97,0.8 -2.01,1.88 -0.03,1.07 0.81,1.97 1.88,2 1.07,0.04 1.97,-0.8 2.01,-1.87 0.03,-1.08 -0.81,-1.98 -1.88,-2.01z"/>
  <path class="fil18" d="M14.26 8.66c0,0.01 0,0.03 0,0.04 -0.01,0.42 -0.19,0.81 -0.5,1.09 -0.3,0.29 -0.7,0.44 -1.12,0.42 -0.86,-0.02 -1.54,-0.75 -1.51,-1.61 0.02,-0.42 0.19,-0.81 0.5,-1.09 0.29,-0.28 0.67,-0.43 1.07,-0.42 0.02,0 0.03,0 0.05,0 0.85,0.02 1.52,0.73 1.51,1.57z"/>
  <path class="fil19" d="M14.2 8.27c0,-0.01 -0.01,-0.03 -0.01,-0.04 -0.12,-0.43 -0.42,-0.78 -0.83,-0.98l0.02 -0.03c0.42,0.19 0.72,0.56 0.85,1 0,0.01 0.01,0.02 0.01,0.04l-0.04 0.01z"/>
  <path class="fil19" d="M13.36 7.25c-0.32,-0.15 -0.69,-0.19 -1.04,-0.1l-0.01 -0.04c0.36,-0.09 0.74,-0.05 1.07,0.11l-0.02 0.03z"/>
  <path class="fil19" d="M14.06 9.46l-0.03 -0.02c0.1,-0.18 0.17,-0.37 0.2,-0.57l0.04 0.01c-0.03,0.2 -0.1,0.4 -0.21,0.58z"/>
  <path class="fil19" d="M13.97 7.21c-0.15,-0.13 -0.32,-0.24 -0.5,-0.32l0.02 -0.04c0.19,0.08 0.36,0.19 0.51,0.33l-0.03 0.03z"/>
  <path class="fil19" d="M13.78 10.29l-0.02 -0.04c0.51,-0.34 0.84,-0.92 0.86,-1.54 0.01,-0.38 -0.09,-0.76 -0.3,-1.08l0.04 -0.02c0.21,0.33 0.31,0.71 0.3,1.11 -0.02,0.63 -0.35,1.22 -0.88,1.57z"/>
  <path class="fil21" d="M13.21 10.01c0,0 -0.05,-0.54 -0.83,-0.58 -0.6,-0.03 -0.8,-0.36 -1.3,-0.4 -0.48,-0.05 -0.97,0.19 -0.97,0.19 0,0 -0.24,0.1 -0.48,0.12 -0.47,0.05 -0.83,-0.16 -0.83,-0.16l0.01 1.66c0,0 1.26,-0.11 1.53,-0.05 0.26,0.06 1.5,0.6 2.01,0.52 0.51,-0.07 2.36,-0.78 2.36,-0.78 0,0 -0.12,-0.31 -0.6,-0.24 -0.49,0.07 -0.93,0.22 -1.08,0.23 -0.15,0.01 -0.28,-0.05 -0.28,-0.05l-1.17 -0.49c0.58,0.06 1.13,0.08 1.63,0.03z"/>
  <path class="fil16" d="M6.64 9.98c0,0.43 0.01,0.84 0.05,1.22 0,0.01 0,0.01 0,0.01 0.12,1.47 0.46,2.53 0.86,2.53 0.41,0 0.76,-1.13 0.88,-2.68l0 -0.02 0.02 -1.8 0 -0.01c-0.09,-1.72 -0.46,-3.01 -0.9,-3.01 -0.43,0 -0.79,1.22 -0.89,2.87 0,0 0,0 0,0.01 -0.02,0.28 -0.02,0.58 -0.02,0.88z"/>
  <path class="fil16" d="M8.59 11.47c-0.18,1.59 -0.62,2.64 -1.12,2.64 -0.43,0 -0.81,-0.75 -1.03,-2l0.06 0c0.21,1.2 0.58,1.95 0.97,1.95 0.46,0 0.89,-1.05 1.06,-2.58l0.06 -0.01z"/>
  <path class="fil16" d="M6.29 10.79c-0.01,-0.26 -0.02,-0.54 -0.02,-0.81 0,-0.32 0.01,-0.65 0.03,-0.96 0,-0.01 0,-0.01 0,-0.01l0 0c0.03,-0.44 0.09,-0.86 0.16,-1.25l0.05 0.01c-0.07,0.38 -0.12,0.8 -0.15,1.24 0,0 0,0 0,0l0 0.01c-0.02,0.32 -0.03,0.64 -0.03,0.96 0,0.27 0,0.55 0.02,0.81l-0.06 0z"/>
  <path class="fil16" d="M8.59 8.56l-0.05 0c-0.17,-1.56 -0.6,-2.66 -1.07,-2.66 -0.3,0 -0.59,0.43 -0.8,1.19l-0.06 -0.01c0.23,-0.79 0.53,-1.23 0.86,-1.23 0.28,0 0.54,0.31 0.75,0.9 0.17,0.47 0.3,1.1 0.37,1.81z"/>
  <path class="fil22" d="M14.01 2.99c0.15,0.08 0.25,0.19 0.32,0.34 0.07,-0.15 0.17,-0.26 0.32,-0.34 -0.15,-0.07 -0.25,-0.19 -0.32,-0.33 -0.07,0.14 -0.17,0.26 -0.32,0.33z"/>
  <path class="fil22" d="M14.52 3.87c0.09,0.04 0.15,0.11 0.19,0.19 0.04,-0.08 0.1,-0.15 0.18,-0.19 -0.08,-0.04 -0.14,-0.11 -0.18,-0.19 -0.04,0.08 -0.1,0.15 -0.19,0.19z"/>
  <path class="fil23" d="M8.8 9.52l0.01 1.32c0,0 0.21,-0.02 0.47,-0.04 -0.01,-0.3 -0.07,-1.07 -0.25,-1.43 -0.05,-0.09 -0.13,-0.02 -0.23,0.15z"/>
  <path class="fil19" d="M12.59 10.06c-0.3,0 -0.62,-0.02 -1.01,-0.06l0.01 -0.04c0.47,0.05 0.85,0.07 1.18,0.06l0.01 0.04c-0.07,0 -0.13,0 -0.19,0z"/>
  <path class="fil19" d="M13 10.54c-0.13,0 -0.25,-0.05 -0.26,-0.05l-0.47 -0.2 0.01 -0.03 0.48 0.2c0,0 0.13,0.05 0.27,0.04 0.06,0 0.18,-0.03 0.32,-0.07 0.2,-0.05 0.47,-0.12 0.75,-0.16 0.5,-0.07 0.63,0.25 0.63,0.25l-0.04 0.02c-0.01,-0.02 -0.12,-0.3 -0.58,-0.23 -0.28,0.04 -0.55,0.11 -0.75,0.16 -0.15,0.04 -0.26,0.07 -0.33,0.07 -0.01,0 -0.02,0 -0.03,0z"/>
  <path class="fil19" d="M9.76 9.44l-0.02 -0.04c0.29,-0.19 0.73,-0.32 0.73,-0.32l0.02 0.04c-0.01,0 -0.44,0.13 -0.73,0.32z"/>
  <path class="fil24" d="M9.06 10.73c-0.01,0.12 -0.03,0.25 -0.05,0.37l-0.4 0.04 -0.12 0.02 -0.07 0 -1.7 0.18c0,0 0,-0.01 0,-0.01 -0.04,-0.47 -0.05,-0.97 -0.05,-1.49 0,-0.35 0.01,-0.69 0.02,-1.02 0,-0.02 0,-0.04 0,-0.06 0,0 0,0 0,-0.01l0.01 0 1.74 0.16 0.06 0.01 0.13 0.01 0.38 0.04c0.1,0.57 0.12,1.15 0.05,1.76z"/>
  <path class="fil25" d="M9.06 10.73c-0.01,0.12 -0.03,0.25 -0.06,0.37l-0.41 0.04 -0.1 0.02 -0.1 0 -1.67 0.17 -0.01 0c0,-0.04 -0.01,-0.09 -0.01,-0.13 0,-0.01 0,-0.01 0,-0.01 -0.04,-0.39 -0.05,-0.8 -0.05,-1.23 0,-0.31 0.01,-0.6 0.02,-0.89 0,0 0,0 0,-0.01 0.01,-0.08 0.01,-0.16 0.02,-0.24 0,-0.02 0,-0.04 0,-0.06l0.01 0 0.18 0.02c0.03,0.38 0.15,1.39 0.49,1.67 0.24,0.19 0.73,0.25 1.13,0.27 0.31,0.01 0.56,-0.01 0.56,-0.01l0 0.02z"/>
  <path class="fil26" d="M20.96 4.88c0,0 -0.15,-0.11 -0.07,-0.27 0.06,-0.11 0.26,-0.16 0.26,-0.16 -0.06,0.08 -0.09,0.31 -0.15,0.39l-0.04 0.04z"/>
  <path class="fil21" d="M21.46 6.43c0,0 0.23,-0.5 -0.03,-0.88l0.46 -0.26c0,0 0.15,0.76 0.48,1.41 -0.25,0.22 -0.87,0.21 -0.91,-0.27z"/>
  <path class="fil26" d="M21.43 5.55c0.09,0.13 0.12,0.28 0.12,0.42 0.22,-0.16 0.4,-0.51 0.4,-0.51l-0.52 0.09z"/>
  <path class="fil21" d="M22 5.54c-0.08,0.1 -0.45,0.4 -0.7,0.37 -0.31,-0.04 -0.51,-1.18 -0.24,-1.4 0.14,-0.12 0.54,-0.1 0.76,0.16 0.22,0.26 0.29,0.72 0.18,0.87z"/>
  <path class="fil26" d="M20.05 16.97c0.89,0.39 1.69,0 1.69,0l-0.87 -0.27 -0.82 0.27z"/>
  <path class="fil26" d="M24.39 16.53c0,0 -0.55,0.68 -1.64,0.5l0.02 -0.68 1.62 0.18z"/>
  <path class="fil21" d="M24.41 16.99l-0.26 -0.58 -0.64 0.22 0.34 0.53c0.15,0.21 0.56,0.09 0.56,-0.17z"/>
  <path class="fil21" d="M21.13 17.43l0.12 -0.64 -0.67 0 -0.03 0.62c0.06,0.24 0.5,0.26 0.58,0.02z"/>
  <path class="fil16" d="M24.39 16.53c-0.48,0.27 -1.02,0.44 -1.64,0.5 0,0 -2.3,-3.35 -1.81,-7.35l1.7 0c0,0 -0.42,3.09 1.75,6.85z"/>
  <path class="fil27" d="M21.43 14.21c0.27,0.83 0.59,1.51 0.85,2l0.54 -3.77c-0.1,-0.52 -0.16,-0.98 -0.19,-1.37l-0.17 -0.67 -1.03 3.81z"/>
  <path class="fil16" d="M20.03 16.98c0.54,0.07 1.1,0.08 1.7,0l0.92 -5.49c0,0 0.41,-0.42 0.51,-1.04 0.03,-0.18 0.03,-0.38 -0.01,-0.59 -0.01,-0.06 -0.03,-0.12 -0.05,-0.18l-0.06 0 -0.69 -0.1 -0.16 -0.02 -1.27 -0.18 -0.89 7.6z"/>
  <path class="fil27" d="M21.22 9.76c0.42,0.5 1.51,0.65 1.94,0.69 0.03,-0.18 0.03,-0.38 -0.01,-0.59l-0.11 -0.18 0 0 -0.69 -0.1 -0.16 -0.02 -0.97 0.2z"/>
  <path class="fil28" d="M20.76 9.64c0.1,0.06 0.21,0.11 0.33,0.16 0.16,0.07 0.33,0.12 0.51,0.17 0.87,0.24 1.84,0.28 1.84,0.28 -0.36,-1.23 -0.05,-2.34 -0.31,-3.22 -0.17,-0.6 -0.73,-0.87 -0.73,-0.87 -0.19,0.12 -0.69,0.35 -0.9,0.16 -0.02,-0.03 -0.07,-0.02 -0.09,0 -0.87,1.14 -0.61,1.67 -0.6,2.51 0,0.37 -0.05,0.81 -0.05,0.81z"/>
  <polygon class="fil15" points="22.02,15.7 22.7,11.49 22.65,11.48 21.97,15.69 "/>
  <path class="fil26" d="M20.96 4.63c-0.04,-0.13 0.04,-0.18 0.13,-0.28 0.1,-0.09 0.24,-0.1 0.37,-0.07 0.12,0.02 0.24,0.07 0.32,0.16 0.15,0.15 0.19,0.56 -0.08,0.57 -0.42,0.02 -0.67,-0.17 -0.74,-0.38z"/>
  <path class="fil26" d="M21.88 5.28c-0.06,-0.17 -0.2,-0.27 -0.3,-0.42l-0.57 -0.35c0.14,-0.21 0.57,-0.38 0.86,-0.27 0.3,0.11 0.48,0.42 0.64,0.89 0.1,0.28 0.27,0.46 0.36,0.54 0.81,0.77 0.84,1.56 0.35,1.87 -0.37,0.24 -0.68,0.1 -0.86,-0.03 -0.55,-0.39 -0.55,-1.83 -0.48,-2.23z"/>
  <path class="fil26" d="M21.36 5.12c0.17,0.03 0.33,-0.02 0.33,-0.03l-0.01 -0.03c0,0 -0.28,0.09 -0.48,-0.03 -0.11,-0.06 -0.18,-0.17 -0.21,-0.32l-0.04 0.01c0.04,0.16 0.11,0.27 0.23,0.34 0.06,0.03 0.12,0.05 0.18,0.06z"/>
  <path class="fil21" d="M21.68 5.16c-0.01,0.09 0.05,0.16 0.13,0.17 0.08,0.02 0.15,-0.04 0.17,-0.12 0.01,-0.08 -0.05,-0.16 -0.13,-0.17 -0.08,-0.01 -0.16,0.04 -0.17,0.12z"/>
  <path class="fil26" d="M23.27 18.1l0.79 0c0.02,0 0.04,-0.01 0.06,-0.03l0.74 -0.77c0.03,-0.03 0.03,-0.08 0,-0.11l-0.34 -0.33c-0.04,-0.04 -0.14,-0.03 -0.13,0.03 0.02,0.28 -0.32,0.33 -0.53,0.29 -0.02,-0.01 -0.05,0.01 -0.06,0.03 -0.03,0.11 -0.06,0.35 -0.11,0.42 -0.09,0.12 -0.22,0.14 -0.32,0.19 -0.18,0.1 -0.1,0.28 -0.1,0.28z"/>
  <path class="fil15" d="M23.93 17.62c-0.14,0.03 -0.21,-0.08 -0.21,-0.08l0.03 -0.01c0,0 0.06,0.09 0.17,0.06l0.01 0.03z"/>
  <path class="fil15" d="M23.84 17.76c-0.13,0.02 -0.19,-0.07 -0.19,-0.08l0.02 -0.01c0.01,0 0.06,0.08 0.17,0.06l0 0.03z"/>
  <path class="fil15" d="M24.3 17.26c-0.11,0.04 -0.23,0.04 -0.23,0.04l0 -0.04c0,0 0.3,0.02 0.36,-0.19l0.03 0.01c-0.03,0.09 -0.09,0.14 -0.16,0.18z"/>
  <polygon class="fil15" points="24.68,17.34 24.07,17.96 24.05,17.94 24.66,17.32 "/>
  <path class="fil26" d="M21.27 18.09l-1.73 0.01c-0.06,0 -0.11,-0.05 -0.1,-0.11 0,0 0,0 0,0 0,-0.02 0,-0.03 0,-0.05 0.01,-0.04 0.02,-0.09 0.04,-0.12 0.08,-0.11 0.24,-0.16 0.52,-0.27 0.18,-0.07 0.33,-0.16 0.4,-0.21 0.02,-0.01 0.05,-0.01 0.07,0.01 0.34,0.33 0.55,0.26 0.61,0.12 0.05,-0.1 0.12,-0.08 0.14,-0.05 0.05,0.09 0.09,0.38 0.1,0.52 0,0.01 0,0.03 0,0.04 0.01,0.02 0.01,0.04 0.01,0.04 0,0.04 -0.03,0.07 -0.06,0.07z"/>
  <path class="fil15" d="M20.1 17.73c-0.12,-0.06 -0.1,-0.18 -0.1,-0.18l0.03 0c0,0 -0.02,0.11 0.09,0.16l-0.02 0.02z"/>
  <path class="fil15" d="M19.95 17.78c-0.11,-0.06 -0.1,-0.17 -0.1,-0.17l0.03 0c0,0 -0.01,0.09 0.09,0.15l-0.02 0.02z"/>
  <path class="fil15" d="M20.93 17.7c-0.12,0.01 -0.22,-0.05 -0.23,-0.05l0.02 -0.02c0,0 0.26,0.13 0.4,-0.04l0.02 0.02c-0.06,0.07 -0.14,0.09 -0.21,0.09z"/>
  <polygon class="fil15" points="21.11,17.99 20.11,17.99 20.11,17.96 21.11,17.96 "/>
  <polygon class="fil15" points="19.98,17.99 19.74,17.99 19.74,17.96 19.98,17.96 "/>
  <path class="fil29" d="M21.09 9.8c0.16,0.07 0.33,0.12 0.51,0.17 0.25,-0.28 0.8,-0.78 0.85,-1.96l-1.36 1.79z"/>
  <path class="fil28" d="M20.53 10.09c1.64,-0.37 1.92,-2.08 1.92,-2.08 0,0 -0.27,-0.76 -0.6,-0.78l-0.01 0c-0.33,-0.03 -0.61,0.22 -0.63,0.55 -0.03,0.6 -0.15,1.34 -0.89,1.78l0.21 0.53z"/>
  <path class="fil19" d="M20.33 9.57l-0.02 -0.03c0.69,-0.4 0.78,-1.06 0.86,-1.64 0.01,-0.04 0.01,-0.08 0.02,-0.12 0.03,-0.2 0.13,-0.69 0.44,-0.91l0.02 0.03c-0.29,0.21 -0.39,0.69 -0.42,0.89 -0.01,0.04 -0.01,0.08 -0.02,0.12 -0.08,0.56 -0.18,1.25 -0.88,1.66z"/>
  <path class="fil19" d="M21.97 9.16l-0.03 -0.03c0.29,-0.32 0.48,-1.03 0.48,-1.03l0.04 0.01c0,0.03 -0.2,0.72 -0.49,1.05z"/>
  <path class="fil15" d="M21.51 10.48c-0.01,0 -0.34,-0.17 -0.38,-0.47l0.04 0c0.04,0.27 0.36,0.44 0.36,0.44l-0.02 0.03z"/>
  <g id="_2135346682048">
   <path class="fil17" d="M20.2 8.92c-0.03,0.33 -0.19,0.64 -0.44,0.85 -0.26,0.22 -0.59,0.33 -0.92,0.3 -0.69,-0.05 -1.21,-0.66 -1.16,-1.36 0.03,-0.33 0.19,-0.64 0.44,-0.85 0.25,-0.21 0.56,-0.32 0.89,-0.3 0.01,0 0.02,0 0.03,0 0.68,0.05 1.19,0.64 1.16,1.32 0,0.01 0,0.02 0,0.04zm-1.14 -1.66c-0.86,-0.07 -1.61,0.57 -1.68,1.43 -0.07,0.86 0.57,1.62 1.43,1.69 0.87,0.06 1.62,-0.58 1.69,-1.44 0.07,-0.86 -0.57,-1.62 -1.44,-1.68z"/>
   <path class="fil18" d="M20.2 8.88c0,0.01 0,0.02 0,0.04 -0.03,0.33 -0.19,0.64 -0.44,0.85 -0.26,0.22 -0.59,0.33 -0.92,0.3 -0.69,-0.05 -1.21,-0.66 -1.16,-1.36 0.03,-0.33 0.19,-0.64 0.44,-0.85 0.25,-0.21 0.56,-0.32 0.89,-0.3 0.01,0 0.02,0 0.03,0 0.68,0.05 1.19,0.64 1.16,1.32z"/>
   <path class="fil19" d="M20.16 8.56c0,-0.01 0,-0.02 0,-0.03 -0.09,-0.35 -0.31,-0.64 -0.63,-0.81l0.02 -0.03c0.32,0.17 0.56,0.48 0.64,0.83 0,0.02 0,0.03 0.01,0.04l-0.04 0z"/>
   <path class="fil19" d="M19.53 7.72c-0.26,-0.14 -0.55,-0.18 -0.83,-0.12l-0.01 -0.04c0.29,-0.06 0.59,-0.01 0.86,0.13l-0.02 0.03z"/>
   <path class="fil19" d="M20.01 9.52l-0.03 -0.02c0.09,-0.14 0.15,-0.29 0.19,-0.45l0.03 0.01c-0.03,0.16 -0.1,0.32 -0.19,0.46z"/>
   <path class="fil19" d="M20.02 7.71c-0.12,-0.12 -0.25,-0.21 -0.39,-0.28l0.02 -0.03c0.14,0.07 0.28,0.17 0.39,0.28l-0.02 0.03z"/>
   <path class="fil19" d="M19.75 10.17l-0.02 -0.03c0.43,-0.25 0.71,-0.7 0.75,-1.2 0.03,-0.31 -0.04,-0.62 -0.19,-0.88l0.03 -0.02c0.15,0.27 0.22,0.59 0.2,0.9 -0.04,0.51 -0.33,0.97 -0.77,1.23z"/>
   <path class="fil22" d="M17.89 7.91c0.07,0.07 0.11,0.15 0.12,0.25 0.06,-0.07 0.14,-0.12 0.24,-0.13 -0.07,-0.07 -0.11,-0.15 -0.12,-0.25 -0.07,0.07 -0.14,0.12 -0.24,0.13z"/>
   <path class="fil30" d="M18.32 8.11l0 0c0.01,0 0.2,0 0.22,0 0.07,0 0.14,0 0.21,0.01 0.05,0.01 0.1,0.04 0.14,0.08 0.01,0.02 0.03,0.04 0.04,0.07 0.01,0.02 0.03,0.05 0.03,0.07l-0.58 0.01c-0.01,0.02 -0.06,0.13 -0.06,0.14l0.66 -0.01c0,0.05 -0.02,0.13 -0.05,0.17 -0.03,0.04 -0.07,0.07 -0.13,0.09 -0.02,0.01 -0.1,0.03 -0.12,0.02 0,0 0,0 0,0 -0.01,0 -0.32,0.01 -0.32,0.01l0 0.19c0.03,-0.01 0.06,-0.01 0.09,-0.01 0.04,0 0.07,0 0.1,0 0.17,0 0.26,0.01 0.35,0.14 0.06,0.08 0.13,0.23 0.18,0.32 0.01,0.01 0.12,0.24 0.13,0.26l0.25 0 -0.2 -0.38c-0.05,-0.11 -0.12,-0.25 -0.2,-0.33 -0.03,-0.03 -0.06,-0.06 -0.1,-0.08 0,0 -0.02,0 -0.02,-0.01 0,0 0.01,0 0.01,0 0.08,-0.03 0.14,-0.07 0.19,-0.13 0.05,-0.07 0.07,-0.13 0.08,-0.22 0,-0.01 0,-0.03 0,-0.04l0.28 0 0.06 -0.14c0,0 0,0 0,0 -0.01,0 -0.01,0 -0.01,0l-0.07 0c-0.03,0 -0.06,0 -0.09,0 -0.04,0 -0.15,0 -0.18,0 0,0 0,-0.03 -0.01,-0.03 -0.02,-0.13 -0.1,-0.2 -0.1,-0.2l0.4 -0.01 0.05 -0.1c0,-0.01 0.01,-0.03 0.01,-0.04l-1.18 0.01 -0.06 0.14c0,0 0,0 0,0l0 0z"/>
  </g>
  <path class="fil31" d="M19.91 10.09c0,0.01 -0.29,0.07 -0.27,0.12 0.02,0.06 0.26,-0.05 0.27,-0.02 0,0.01 -0.08,0.03 -0.14,0.06 -0.02,0.01 -0.02,0.03 0,0.03 0.22,0.02 0.52,-0.2 0.56,-0.2 0.06,-0.02 0.12,-0.03 0.18,-0.05l-0.16 -0.39c-0.02,0.02 -0.06,0.04 -0.09,0.05 -0.04,0.03 -0.15,0.09 -0.19,0.09 -0.04,0.01 -0.27,-0.02 -0.27,0.03 0,0.05 0.16,0.04 0.15,0.08 0,0.02 -0.32,0.06 -0.3,0.12 0.02,0.03 0.21,-0.01 0.21,0.01 0,0.02 -0.25,0.03 -0.23,0.09 0.02,0.06 0.27,-0.05 0.28,-0.02z"/>
  <path class="fil18" d="M6.21 18.33c0,0.11 0.82,0.2 1.84,0.2 1.01,0 1.83,-0.09 1.83,-0.2 0,-0.01 0,-0.01 0,-0.01l0 -0.55 -3.67 0 0 0.55c0,0 0,0 0,0.01z"/>
  <path class="fil17" d="M6.21 17.78c0,0.11 0.82,0.2 1.84,0.2 1.01,0 1.83,-0.09 1.83,-0.2 0,-0.12 -0.82,-0.21 -1.83,-0.21 -1.02,0 -1.84,0.09 -1.84,0.21z"/>
  <path class="fil18" d="M5.78 17.66c0,0.12 0.82,0.21 1.83,0.21 1.02,0 1.84,-0.09 1.84,-0.21 0,0 0,0 0,0l0 -0.55 -3.67 0 0 0.55c0,0 0,0 0,0z"/>
  <path class="fil17" d="M5.78 17.11c0,0.12 0.82,0.21 1.83,0.21 1.02,0 1.84,-0.09 1.84,-0.21 0,-0.11 -0.82,-0.2 -1.84,-0.2 -1.01,0 -1.83,0.09 -1.83,0.2z"/>
  <path class="fil18" d="M6.21 17c0,0.11 0.82,0.21 1.84,0.21 1.01,0 1.83,-0.1 1.83,-0.21 0,0 0,0 0,0l0 -0.55 -3.67 0 0 0.54c0,0.01 0,0.01 0,0.01z"/>
  <path class="fil17" d="M6.21 16.45c0,0.11 0.82,0.21 1.84,0.21 1.01,0 1.83,-0.1 1.83,-0.21 0,-0.11 -0.82,-0.2 -1.83,-0.2 -1.02,0 -1.84,0.09 -1.84,0.2z"/>
  <path class="fil19" d="M8.05 18.55c0.74,0 1.85,-0.06 1.85,-0.22l-0.04 0c0,0.06 -0.62,0.18 -1.81,0.18 -0.05,0 -0.09,0 -0.13,0l0 0.04c0.04,0 0.08,0 0.13,0z"/>
  <path class="fil19" d="M7.32 18.53l0 -0.04c-0.18,-0.01 -0.35,-0.02 -0.5,-0.04l-0.01 0.05c0.15,0.01 0.32,0.02 0.51,0.03z"/>
  <path class="fil19" d="M8.77 17.84c0.69,-0.06 0.69,-0.15 0.69,-0.18l-0.04 0c0,0.02 -0.12,0.09 -0.65,0.14l0 0.04z"/>
  <path class="fil19" d="M7.6 17.89c0.21,0 0.41,-0.01 0.61,-0.02l-0.01 -0.04c-0.34,0.01 -0.72,0.02 -1.08,0.01l0 0.04c0.16,0 0.32,0.01 0.48,0.01z"/>
  <path class="fil19" d="M6.67 17.86l0 -0.05c-0.2,-0.01 -0.37,-0.03 -0.51,-0.05l0 0.05c0.14,0.02 0.31,0.03 0.51,0.05z"/>
  <path class="fil19" d="M9.28 16.63c0.61,-0.07 0.61,-0.15 0.61,-0.18l-0.04 0c0,0.01 -0.02,0.08 -0.57,0.13l0 0.05z"/>
  <path class="fil19" d="M8.04 16.68c0.21,0 0.41,0 0.61,-0.01l0 -0.05c-0.2,0.01 -0.4,0.02 -0.61,0.02 -0.38,0 -0.74,-0.02 -1.05,-0.04l0 0.04c0.31,0.03 0.67,0.04 1.05,0.04z"/>
  <path class="fil18" d="M5.56 16.34c0,0.11 0.82,0.2 1.84,0.2 1.01,0 1.83,-0.09 1.83,-0.2 0,0 0,0 0,-0.01l0 -0.54 -3.67 0 0 0.54c0,0.01 0,0.01 0,0.01z"/>
  <path class="fil17" d="M5.56 15.79c0,0.11 0.82,0.2 1.84,0.2 1.01,0 1.83,-0.09 1.83,-0.2 0,-0.11 -0.82,-0.2 -1.83,-0.2 -1.02,0 -1.84,0.09 -1.84,0.2z"/>
  <path class="fil18" d="M5.9 15.79c0,0.08 0.67,0.14 1.5,0.14 0.82,0 1.49,-0.06 1.49,-0.14 0,-0.07 -0.67,-0.14 -1.49,-0.14 -0.83,0 -1.5,0.07 -1.5,0.14z"/>
  <path class="fil17" d="M4.62 16.97c-0.01,0.39 -0.17,0.76 -0.46,1.04 -0.29,0.27 -0.67,0.42 -1.07,0.41 -0.82,-0.03 -1.47,-0.71 -1.45,-1.54 0.01,-0.39 0.18,-0.76 0.47,-1.04 0.27,-0.26 0.64,-0.41 1.02,-0.41 0.01,0 0.03,0 0.04,0 0.81,0.03 1.45,0.69 1.45,1.5 0,0.01 0,0.02 0,0.04zm-1.44 -1.9c-1.02,-0.03 -1.87,0.78 -1.9,1.8 -0.03,1.03 0.78,1.88 1.8,1.91 1.02,0.03 1.88,-0.78 1.9,-1.8 0.03,-1.03 -0.78,-1.88 -1.8,-1.91z"/>
  <path class="fil18" d="M4.62 16.93c0,0.01 0,0.02 0,0.04 -0.01,0.39 -0.17,0.76 -0.46,1.04 -0.29,0.27 -0.67,0.42 -1.07,0.41 -0.82,-0.03 -1.47,-0.71 -1.45,-1.54 0.01,-0.39 0.18,-0.76 0.47,-1.04 0.27,-0.26 0.64,-0.41 1.02,-0.41 0.01,0 0.03,0 0.04,0 0.81,0.03 1.45,0.69 1.45,1.5z"/>
  <path class="fil19" d="M4.56 16.55c0,-0.01 0,-0.02 -0.01,-0.03 -0.12,-0.41 -0.4,-0.75 -0.79,-0.93l0.02 -0.04c0.39,0.19 0.69,0.53 0.81,0.95 0,0.02 0.01,0.03 0.01,0.04l-0.04 0.01z"/>
  <path class="fil19" d="M3.76 15.59c-0.31,-0.15 -0.66,-0.18 -0.99,-0.09l-0.01 -0.04c0.34,-0.09 0.7,-0.06 1.02,0.09l-0.02 0.04z"/>
  <path class="fil19" d="M4.44 17.69l-0.03 -0.02c0.1,-0.17 0.16,-0.35 0.19,-0.54l0.04 0c-0.03,0.2 -0.1,0.38 -0.2,0.56z"/>
  <path class="fil19" d="M4.34 15.55c-0.15,-0.13 -0.31,-0.23 -0.48,-0.31l0.02 -0.04c0.17,0.08 0.34,0.19 0.49,0.31l-0.03 0.04z"/>
  <path class="fil19" d="M4.18 18.48l-0.03 -0.03c0.49,-0.33 0.8,-0.88 0.81,-1.47 0.01,-0.37 -0.09,-0.73 -0.28,-1.04l0.03 -0.02c0.2,0.32 0.31,0.68 0.3,1.06 -0.02,0.6 -0.33,1.16 -0.83,1.5z"/>
  <path class="fil19" d="M8.69 3.22l-2.03 0c-0.02,0 -0.03,-0.02 -0.03,-0.04 0,-0.02 0.01,-0.04 0.03,-0.04l2.03 0c0.02,0 0.03,0.02 0.03,0.04 0,0.02 -0.01,0.04 -0.03,0.04z"/>
  <path class="fil22" d="M2.02 15.88c0.15,0.07 0.25,0.19 0.32,0.33 0.07,-0.14 0.17,-0.26 0.32,-0.33 -0.15,-0.08 -0.25,-0.19 -0.32,-0.34 -0.07,0.15 -0.17,0.26 -0.32,0.34z"/>
  <path class="fil22" d="M3.85 17.86c0.09,0.04 0.15,0.11 0.19,0.19 0.04,-0.08 0.1,-0.15 0.18,-0.19 -0.08,-0.04 -0.14,-0.11 -0.18,-0.19 -0.04,0.08 -0.1,0.15 -0.19,0.19z"/>
  <path class="fil22" d="M1.9 17.52c0.08,0.04 0.14,0.11 0.18,0.19 0.04,-0.08 0.1,-0.15 0.19,-0.19 -0.09,-0.05 -0.15,-0.12 -0.19,-0.2 -0.04,0.08 -0.1,0.15 -0.18,0.2z"/>
  <path class="fil30" d="M2.51 16.22l0 0c0.01,0 0.2,0 0.22,0 0.07,0 0.14,0 0.21,0.01 0.05,0.01 0.1,0.04 0.14,0.08 0.02,0.02 0.03,0.04 0.04,0.07 0.02,0.02 0.03,0.05 0.04,0.07l-0.59 0.01c-0.01,0.02 -0.05,0.13 -0.06,0.14l0.66 -0.01c0,0.05 -0.02,0.13 -0.05,0.17 -0.03,0.04 -0.07,0.07 -0.13,0.09 -0.02,0.01 -0.1,0.03 -0.12,0.02 0,0 0,0 0,0 -0.01,0 -0.31,0.01 -0.32,0.01l0 0.19c0.03,-0.01 0.06,-0.01 0.1,-0.01 0.03,0 0.06,0 0.09,0 0.17,0 0.26,0.01 0.36,0.14 0.05,0.08 0.12,0.23 0.17,0.32 0.01,0.01 0.13,0.24 0.13,0.26l0.25 0 -0.2 -0.38c-0.05,-0.11 -0.12,-0.25 -0.2,-0.33 -0.03,-0.03 -0.06,-0.06 -0.09,-0.08 -0.01,0 -0.02,0 -0.03,-0.01 0,0 0.01,0 0.01,0 0.08,-0.03 0.14,-0.07 0.19,-0.13 0.05,-0.07 0.07,-0.13 0.08,-0.22 0,-0.01 0,-0.03 0,-0.04l0.28 0 0.06 -0.14c0,0 0.01,0 0,0 0,0 -0.01,0 -0.01,0l-0.07 0c-0.03,0 -0.06,0 -0.09,0 -0.04,0 -0.15,0 -0.18,0 0,0 0,-0.03 0,-0.03 -0.03,-0.13 -0.11,-0.2 -0.11,-0.2l0.4 -0.01 0.05 -0.1c0,-0.01 0.01,-0.03 0.01,-0.04l-1.18 0.01 -0.06 0.14c0,0 0,0 0,0l0 0z"/>
  <path class="fil30" d="M12.07 7.95l0 0c0.02,0 0.2,0 0.22,0 0.07,0 0.15,-0.01 0.21,0.01 0.05,0.01 0.11,0.04 0.14,0.08 0.02,0.02 0.03,0.03 0.05,0.06 0.01,0.02 0.02,0.05 0.03,0.08l-0.58 0c-0.01,0.02 -0.06,0.13 -0.06,0.14l0.65 0c0.01,0.04 -0.02,0.13 -0.05,0.16 -0.03,0.05 -0.07,0.08 -0.12,0.09 -0.02,0.01 -0.1,0.03 -0.12,0.03 -0.01,0 -0.01,0 -0.01,0 -0.01,0 -0.31,0 -0.32,0l0 0.19c0.03,0 0.07,0 0.1,0 0.03,0 0.07,0 0.1,0 0.16,0 0.25,0 0.35,0.13 0.06,0.08 0.13,0.23 0.17,0.32 0.01,0.02 0.13,0.25 0.14,0.26l0.24 0 -0.19 -0.38c-0.05,-0.1 -0.12,-0.25 -0.21,-0.33 -0.02,-0.03 -0.05,-0.05 -0.09,-0.07 -0.01,0 -0.02,-0.01 -0.03,-0.01 0,-0.01 0.01,-0.01 0.02,-0.01 0.07,-0.02 0.14,-0.07 0.18,-0.13 0.05,-0.06 0.08,-0.13 0.09,-0.21 0,-0.02 0,-0.03 0,-0.04l0.28 0 0.06 -0.14c0,-0.01 0,-0.01 -0.01,-0.01 0,0 -0.01,0 -0.01,0l-0.07 0c-0.03,0.01 -0.05,0.01 -0.08,0.01 -0.04,0 -0.15,0 -0.18,0 0,-0.01 -0.01,-0.03 -0.01,-0.04 -0.03,-0.13 -0.1,-0.19 -0.11,-0.2l0.41 0 0.04 -0.11c0.01,0 0.01,-0.02 0.02,-0.03l-1.19 0.01 -0.06 0.13c0,0 0,0 0,0l0 0.01z"/>
  <path class="fil30" d="M14.94 2.86l0 0.01c0.02,0 0.2,-0.01 0.22,-0.01 0.07,0 0.14,0 0.21,0.01 0.05,0.02 0.11,0.05 0.14,0.08 0.02,0.03 0.03,0.04 0.05,0.07 0.01,0.02 0.02,0.05 0.03,0.08l-0.59 0c0,0.02 -0.05,0.13 -0.06,0.14l0.66 0c0.01,0.04 -0.02,0.12 -0.05,0.16 -0.03,0.05 -0.07,0.07 -0.12,0.09 -0.03,0.01 -0.1,0.03 -0.13,0.02 0,0.01 0,0.01 0,0.01 -0.01,0 -0.31,0 -0.32,0l0 0.19c0.03,0 0.07,0 0.1,0 0.03,0 0.06,0 0.1,0 0.16,0 0.25,0 0.35,0.13 0.05,0.08 0.13,0.23 0.17,0.32 0.01,0.01 0.13,0.24 0.13,0.26l0.25 0 -0.19 -0.38c-0.06,-0.11 -0.13,-0.25 -0.21,-0.33 -0.03,-0.03 -0.06,-0.05 -0.09,-0.07 -0.01,-0.01 -0.02,-0.01 -0.03,-0.01 0,-0.01 0.01,-0.01 0.01,-0.01 0.08,-0.03 0.15,-0.07 0.19,-0.13 0.05,-0.07 0.07,-0.13 0.08,-0.21 0,-0.02 0,-0.03 0.01,-0.04l0.28 -0.01 0.06 -0.13c0,-0.01 0,-0.01 -0.01,-0.01 0,0 -0.01,0 -0.01,0l-0.07 0c-0.03,0 -0.06,0 -0.09,0 -0.03,0 -0.14,0.01 -0.17,0 -0.01,0 -0.01,-0.02 -0.01,-0.03 -0.03,-0.13 -0.11,-0.19 -0.11,-0.2l0.4 0 0.05 -0.11c0,-0.01 0.01,-0.02 0.01,-0.03l-1.18 0.01 -0.06 0.13c0,0 0,0 0,0l0 0z"/>
 </g>
</svg>
