<?xml version="1.0" encoding="UTF-8"?>
<!DOCTYPE svg PUBLIC "-//W3C//DTD SVG 1.1//EN" "http://www.w3.org/Graphics/SVG/1.1/DTD/svg11.dtd">
<!-- Creator: CorelDRAW 2019 (64-Bit) -->
<svg xmlns="http://www.w3.org/2000/svg" xml:space="preserve" width="480px" height="351px" version="1.1" style="shape-rendering:geometricPrecision; text-rendering:geometricPrecision; image-rendering:optimizeQuality; fill-rule:evenodd; clip-rule:evenodd"
viewBox="0 0 32.92 24.07"
 xmlns:xlink="http://www.w3.org/1999/xlink">
 <defs>
  <style type="text/css">
   <![CDATA[
    .fil75 {fill:#0042C7}
    .fil82 {fill:#176F84}
    .fil130 {fill:#324A66}
    .fil74 {fill:#336699}
    .fil76 {fill:#43BBD3}
    .fil129 {fill:#45BDD5}
    .fil106 {fill:#48202D}
    .fil109 {fill:#4CCBE5}
    .fil72 {fill:#84A9FF}
    .fil70 {fill:#BBECF6}
    .fil71 {fill:#D5F7FF}
    .fil84 {fill:#E99B92}
    .fil73 {fill:#EAFBFF}
    .fil103 {fill:#F4B4A8}
    .fil128 {fill:#F54F60}
    .fil2 {fill:#FFD26B}
    .fil131 {fill:white}
    .fil6 {fill:#73CCD8;fill-rule:nonzero}
    .fil5 {fill:#A2DADB;fill-rule:nonzero}
    .fil4 {fill:#A2DEEA;fill-rule:nonzero}
    .fil39 {fill:url(#id15)}
    .fil79 {fill:url(#id16)}
    .fil83 {fill:url(#id17)}
    .fil112 {fill:url(#id18)}
    .fil23 {fill:url(#id19)}
    .fil44 {fill:url(#id20)}
    .fil65 {fill:url(#id21)}
    .fil54 {fill:url(#id22)}
    .fil1 {fill:url(#id23)}
    .fil3 {fill:url(#id24)}
    .fil77 {fill:url(#id25)}
    .fil78 {fill:url(#id26)}
    .fil34 {fill:url(#id27)}
    .fil59 {fill:url(#id28)}
    .fil113 {fill:url(#id29)}
    .fil104 {fill:url(#id30)}
    .fil121 {fill:url(#id31)}
    .fil28 {fill:url(#id32)}
    .fil13 {fill:url(#id33)}
    .fil101 {fill:url(#id34)}
    .fil118 {fill:url(#id35)}
    .fil105 {fill:url(#id36)}
    .fil90 {fill:url(#id37)}
    .fil107 {fill:url(#id38)}
    .fil25 {fill:url(#id39)}
    .fil46 {fill:url(#id40)}
    .fil111 {fill:url(#id41)}
    .fil91 {fill:url(#id42)}
    .fil62 {fill:url(#id43)}
    .fil51 {fill:url(#id44)}
    .fil133 {fill:url(#id45)}
    .fil94 {fill:url(#id46)}
    .fil126 {fill:url(#id47)}
    .fil49 {fill:url(#id48)}
    .fil29 {fill:url(#id49)}
    .fil99 {fill:url(#id50)}
    .fil117 {fill:url(#id51)}
    .fil89 {fill:url(#id52)}
    .fil11 {fill:url(#id53)}
    .fil41 {fill:url(#id54)}
    .fil114 {fill:url(#id55)}
    .fil66 {fill:url(#id56)}
    .fil55 {fill:url(#id57)}
    .fil22 {fill:url(#id58)}
    .fil43 {fill:url(#id59)}
    .fil124 {fill:url(#id60)}
    .fil26 {fill:url(#id61)}
    .fil47 {fill:url(#id62)}
    .fil98 {fill:url(#id63)}
    .fil18 {fill:url(#id64)}
    .fil108 {fill:url(#id65)}
    .fil86 {fill:url(#id66)}
    .fil95 {fill:url(#id67)}
    .fil125 {fill:url(#id68)}
    .fil119 {fill:url(#id69)}
    .fil85 {fill:url(#id70)}
    .fil123 {fill:url(#id71)}
    .fil127 {fill:url(#id72)}
    .fil88 {fill:url(#id73)}
    .fil96 {fill:url(#id74)}
    .fil122 {fill:url(#id75)}
    .fil16 {fill:url(#id76)}
    .fil12 {fill:url(#id77)}
    .fil97 {fill:url(#id78)}
    .fil15 {fill:url(#id79)}
    .fil67 {fill:url(#id80)}
    .fil56 {fill:url(#id81)}
    .fil132 {fill:url(#id82)}
    .fil35 {fill:url(#id83)}
    .fil63 {fill:url(#id84)}
    .fil52 {fill:url(#id85)}
    .fil110 {fill:url(#id86)}
    .fil92 {fill:url(#id87)}
    .fil102 {fill:url(#id88)}
    .fil14 {fill:url(#id89)}
    .fil93 {fill:url(#id90)}
    .fil64 {fill:url(#id91)}
    .fil53 {fill:url(#id92)}
    .fil8 {fill:url(#id93)}
    .fil33 {fill:url(#id94)}
    .fil100 {fill:url(#id95)}
    .fil134 {fill:url(#id96)}
    .fil115 {fill:url(#id97)}
    .fil80 {fill:url(#id98)}
    .fil7 {fill:url(#id99)}
    .fil87 {fill:url(#id100)}
    .fil24 {fill:url(#id101)}
    .fil45 {fill:url(#id102)}
    .fil120 {fill:url(#id103)}
    .fil116 {fill:url(#id104)}
    .fil60 {fill:url(#id105)}
    .fil19 {fill:url(#id106)}
    .fil40 {fill:url(#id107)}
    .fil38 {fill:url(#id108)}
    .fil30 {fill:url(#id109)}
    .fil9 {fill:url(#id110)}
    .fil27 {fill:url(#id111)}
    .fil48 {fill:url(#id112)}
    .fil36 {fill:url(#id113)}
    .fil31 {fill:url(#id114)}
    .fil81 {fill:url(#id115)}
    .fil32 {fill:url(#id116)}
    .fil68 {fill:url(#id117)}
    .fil57 {fill:url(#id118)}
    .fil10 {fill:url(#id119)}
    .fil17 {fill:url(#id120)}
    .fil42 {fill:url(#id121)}
    .fil20 {fill:url(#id122)}
    .fil37 {fill:url(#id123)}
    .fil21 {fill:url(#id124)}
    .fil69 {fill:url(#id125)}
    .fil58 {fill:url(#id126)}
    .fil61 {fill:url(#id127)}
    .fil50 {fill:url(#id128)}
    .fil0 {fill:url(#id129)}
   ]]>
  </style>
   <clipPath id="id0">
    <path d="M21.1 15.46c-0.01,0 -0.02,0 -0.03,0 1.26,-0.21 1.82,-0.84 1.92,-1.36 0.13,-0.69 -0.01,-1.49 0.33,-2.06 0.08,-0.14 0.19,-0.27 0.34,-0.38 -0.13,0.11 -0.23,0.25 -0.32,0.42 -0.12,0.26 -0.2,0.6 -0.17,0.94 0.05,0.66 0.06,1.19 0.01,1.77 -0.49,0.43 -1.32,0.67 -2.08,0.67l0 0z"/>
   </clipPath>
   <clipPath id="id1">
    <path d="M26.52 22.75l0 0c0,-0.02 0.01,-0.05 0.01,-0.07l0 0c0,0.02 -0.01,0.05 -0.01,0.07l0 0z"/>
   </clipPath>
   <clipPath id="id2">
    <path d="M27.25 22.66c-0.02,-0.02 -0.03,-0.05 -0.05,-0.07l0 0c0.02,0.02 0.03,0.05 0.05,0.07l0 0z"/>
   </clipPath>
   <clipPath id="id3">
    <path d="M26.67 22.88c-0.08,0 -0.14,-0.02 -0.17,-0.05 0,-0.01 0.01,-0.03 0.01,-0.05 0.01,-0.01 0.01,-0.02 0.01,-0.03 0,-0.02 0.01,-0.05 0.01,-0.07 0,0 0,-0.01 0,-0.01 0.06,0.01 0.13,0.02 0.21,0.02 0.14,0 0.32,-0.03 0.46,-0.1 0.02,0.02 0.03,0.05 0.05,0.07 0.01,0 0.01,0.01 0.01,0.01 -0.11,0.12 -0.39,0.21 -0.59,0.21l0 0z"/>
   </clipPath>
   <clipPath id="id4">
    <path d="M23.94 22.7c-0.11,0 -0.23,-0.02 -0.36,-0.06 0.03,-0.03 0.06,-0.05 0.08,-0.08l0 0c0,0 0,0 0,0 0,0 0,0 0,0 0.01,-0.01 0.01,-0.01 0.01,-0.01 0,0 0,0 0,0 0,0 0,0 0,0 0,0 0,0 0,0 0,0 0,0 0,0 0,0 0,0 0,0 0,0 0,0 0,0 0,0 0,0 0,0 0,0 0,-0.01 0,-0.01 0,0 0,0 0,0 0,0 0,0 0,0 0,0 0.01,0 0.01,0 0,0 0,0 0,0 0,0 0,0 0,0 0,0 0,0 0,0 0,0 0,0 0,0 0,0 0,0 0,0 0,0 0,0 0,0 0,0 0,0 0,0 0,0 0,-0.01 0,-0.01 0,0 0,0 0,0 0,0 0,0 0,0 0,0 0,0 0,0 0,0 0,0 0,0 0,0 0,0 0,0 0,0 0,0 0,0 0,0 0,0 0,0 0.01,0 0.01,0 0.01,0 0,0 0,0 0,0 0,0 0,0 0,0 0,0 0,0 0,0 0,-0.01 0,-0.01 0,-0.01 0,0 0,0 0,0 0,0 0,0 0,0 0,0 0,0 0,0 0,0 0,0 0,0 0,0 0,0 0,0 0,0 0,0 0,0 0,0 0,0 0,0 0,0 0,0 0,0 0,0 0,0 0,0 0,0 0,0 0,-0.01 0.01,0 0.01,0 0.01,0 0,0 0,0 0,0 0,0 0,0 0,0 0,0 0,0 0,0 0,0 0,0 0,0 0,0 0,0 0,0 0,0 0,0 0,0 0,0 0,0 0,0 0,0 0,0 0,0 0,0 0,0 0,0 0,0 0,0 0,0 0,-0.01 0,-0.01 0,-0.01 0,0 0,0 0,0 0,0 0,0 0.01,0 0,0 0,0 0,0 0,0 0,0 0,0 0,0 0,0 0,0 0,0 0,0 0,0 0,0 0,0 0,0 0,0 0,-0.01 0,-0.01 0,0 0,0 0,0 0,0 0,0 0,0l0 0c0,0 0,0 0,0 0,0 0,0 0,0 0,0 0,0 0,0 0,0 0,0 0,0 0,0 0,0 0,0 0,0 0,0 0,0 0,0 0,-0.01 0,-0.01 0.01,0 0.01,0 0.01,0 0,0 0,0 0,0 0,0 0,0 0,0 0,0 0,0 0,0 0,0 0,0 0,0 0,0 0,0 0,0 0,0 0,0 0,0 0,0 0,0 0,0 0,0 0,0 0,0 0,0 0,-0.01 0,-0.01l0 0c0,0 0,0 0,0 0,0 0,0 0,0 0,0 0,0 0,0 0,0 0,0 0,0 0,0 0,0 0,0 0,0 0,0 0,0 0,0 0,0 0,0 0.12,0.03 0.23,0.05 0.34,0.05 0.1,0 0.2,-0.02 0.29,-0.04 0.01,0.03 0.02,0.07 0.03,0.1 -0.09,0.07 -0.25,0.12 -0.44,0.12l0 0z"/>
   </clipPath>
   <clipPath id="id5">
    <path d="M24.63 17.99l0 0c0,-0.03 0,-0.05 0.01,-0.08l0 0c-0.01,0.03 -0.01,0.05 -0.01,0.08l0 0z"/>
   </clipPath>
   <clipPath id="id6">
    <path d="M24.44 22.45c-0.21,-1.68 -0.47,-3.47 -0.49,-5.16 0,-0.3 0,-0.83 0.01,-1.3 0,0.01 0,0.01 0.01,0.01 0.22,0.58 0.45,1.17 0.68,1.77 0,0.05 -0.01,0.09 -0.01,0.14 -0.01,0.03 -0.01,0.05 -0.01,0.08 -0.02,0.21 -0.04,0.42 -0.06,0.64 0,0 0,0 0,0 0,0 0,0.01 0,0.01 0,0 0,0 0,0 0,0 0,0 0,0 0,0.01 0,0.01 0,0.01 0,0 0,0 0,0 0,0 0,0 0,0 0,0 0,0.01 0,0.01 0,0 0,0 0,0 0,0 0,0 0,0 0,0.01 0,0.01 0,0.01 0,0 0,0 0,0 0,0 0,0 0,0 0,0 0,0.01 0,0.01 0,0 0,0.01 0,0.01l0 0c-0.01,0.14 -0.02,0.28 -0.03,0.42 0,0 0,0 0,0 0,0 0,0.01 0,0.01 0,0 0,0 0,0 0,0 0,0 0,0 0,0.01 0,0.01 0,0.01 0,0 0,0 0,0 0,0 0,0.01 0,0.01 -0.01,0.22 -0.02,0.45 -0.03,0.68 -0.03,0.87 -0.05,1.76 -0.07,2.63l0 0 0 0z"/>
   </clipPath>
   <clipPath id="id7">
    <path d="M26.18 16.89c0.01,-0.01 0.02,-0.02 0.02,-0.02 0,0 -0.01,0.01 -0.02,0.02zm0.03 -0.03c0,0 0,0 0,0 0,0 0,0 0,0l0 0z"/>
   </clipPath>
   <clipPath id="id8">
    <path d="M26.44 15.02l0 0c0.04,-0.34 0.01,-0.66 -0.13,-0.97l0 0c0.14,0.31 0.17,0.63 0.13,0.97l0 0z"/>
   </clipPath>
   <clipPath id="id9">
    <path d="M26.13 15.98l0 0c0.02,-0.05 0.05,-0.11 0.07,-0.16l0 0c-0.02,0.05 -0.05,0.11 -0.07,0.16zm0.3 -0.88l0 0c0,-0.03 0.01,-0.06 0.01,-0.09l0 0c0,0.03 -0.01,0.06 -0.01,0.09l0 0z"/>
   </clipPath>
   <clipPath id="id10">
    <path d="M26.1 16.04l0 0c0.01,-0.02 0.02,-0.04 0.03,-0.06l0 0c-0.01,0.02 -0.02,0.04 -0.03,0.06l0 0z"/>
   </clipPath>
   <clipPath id="id11">
    <path d="M26.18 16.89c-0.02,-0.12 -0.12,-0.57 -0.16,-0.71 0,0 0,0 0.01,0 0,0 0,0 0,0 0,0 0,0 0,0 0,0 0,0 0,-0.01 0,0 0,0 0,0 0,0 0,0 0,0 0,0 0,0 0,0 0,0 0,0 0,0 0,0 0,0 0,0 0,0 0,0 0,0 0,-0.01 0,-0.01 0,-0.01 0,0 0,0 0,0 0,0 0,0 0,0 0,0 0.01,0 0.01,0 0,0 0,0 0,0 0,0 0,0 0,0 0,0 0,0 0,0 0,0 0,-0.01 0,-0.01 0,0 0,0 0,0 0.02,-0.04 0.04,-0.08 0.06,-0.11 0.01,-0.02 0.02,-0.04 0.03,-0.06 0.02,-0.05 0.05,-0.11 0.07,-0.16 0.11,-0.25 0.19,-0.49 0.23,-0.72 0,-0.03 0.01,-0.06 0.01,-0.08 0.04,-0.34 0.01,-0.66 -0.13,-0.97 -0.06,-0.15 -0.15,-0.3 -0.26,-0.45l0 0c0.7,0.66 0.79,1.39 0.26,2.62 0.01,0.19 0.01,0.35 0.01,0.5 -0.04,0.05 -0.07,0.1 -0.11,0.14 0,0 0,0 0,0 0,0 0,0.01 -0.01,0.01 0,0 -0.01,0.01 -0.02,0.02 0,0 0,0 0,0l0 0 0 0z"/>
   </clipPath>
   <clipPath id="id12">
    <path d="M12.97 22.87c0.33,-1.59 0.75,-2.54 0.94,-3.3 0.23,-0.89 0.33,-1.85 0.42,-2.86 0.32,0.1 0.64,0.14 0.96,0.15 -0.04,0.16 -0.07,0.31 -0.11,0.47 -0.33,1.31 -0.77,2.31 -1.28,3.43 -0.28,0.61 -0.58,1.27 -0.89,2.03 -0.01,0.03 -0.03,0.05 -0.04,0.08l0 0z"/>
   </clipPath>
   <clipPath id="id13">
    <path d="M16.2 13.56c-0.03,-0.41 -0.14,-0.74 -0.39,-1.02 0.1,0.02 0.19,0.04 0.28,0.06 0.09,0.02 0.17,0.03 0.24,0.04 0.01,0 0.01,0 0.01,0 0,0 0,0 0,0 0,0 0,0 0,0 0.35,0.2 0.59,0.29 0.8,0.29 0.39,0 0.68,-0.32 1.35,-0.94 -0.17,0.24 -0.32,0.44 -0.46,0.61 -0.43,0.52 -0.78,0.75 -1.33,0.88 -0.15,0.03 -0.31,0.06 -0.5,0.08l0 0z"/>
   </clipPath>
   <clipPath id="id14">
    <path d="M16.1 16.16c-0.35,-1 -1.11,-1.46 -0.9,-2.98 0.26,0.22 0.35,0.36 0.68,0.6 0.08,0.44 0.17,0.93 0.23,1.39 0.01,0.05 0.01,0.13 0.01,0.21 0,0.01 0,0.02 0,0.02 -0.01,0.15 -0.02,0.3 -0.02,0.45 -0.01,0.13 -0.01,0.24 0,0.31l0 0z"/>
   </clipPath>
  <linearGradient id="id15" gradientUnits="userSpaceOnUse" x1="27.24" y1="19.61" x2="27.23" y2="18.91">
   <stop offset="0" style="stop-opacity:1; stop-color:#E7984F"/>
   <stop offset="1" style="stop-opacity:1; stop-color:#FFB54A"/>
  </linearGradient>
  <linearGradient id="id16" gradientUnits="userSpaceOnUse" xlink:href="#id15" x1="7.58" y1="22.98" x2="7.57" y2="22.28">
  </linearGradient>
  <linearGradient id="id17" gradientUnits="userSpaceOnUse" x1="19.82" y1="14.99" x2="19.8" y2="15.4">
   <stop offset="0" style="stop-opacity:1; stop-color:#F5B5A9"/>
   <stop offset="1" style="stop-opacity:1; stop-color:#EA9C93"/>
  </linearGradient>
  <linearGradient id="id18" gradientUnits="userSpaceOnUse" x1="15.33" y1="23.58" x2="15.42" y2="23.21">
   <stop offset="0" style="stop-opacity:1; stop-color:#23354A"/>
   <stop offset="1" style="stop-opacity:1; stop-color:#324A66"/>
  </linearGradient>
  <linearGradient id="id19" gradientUnits="userSpaceOnUse" xlink:href="#id15" x1="27.24" y1="16.72" x2="27.23" y2="16.03">
  </linearGradient>
  <linearGradient id="id20" gradientUnits="userSpaceOnUse" xlink:href="#id15" x1="27.24" y1="19.61" x2="27.23" y2="18.91">
  </linearGradient>
  <linearGradient id="id21" gradientUnits="userSpaceOnUse" xlink:href="#id15" x1="27.05" y1="22.5" x2="27.04" y2="21.8">
  </linearGradient>
  <linearGradient id="id22" gradientUnits="userSpaceOnUse" xlink:href="#id15" x1="27.05" y1="20.56" x2="27.04" y2="19.86">
  </linearGradient>
  <linearGradient id="id23" gradientUnits="userSpaceOnUse" x1="4.36" y1="11.32" x2="3.33" y2="9.89">
   <stop offset="0" style="stop-opacity:1; stop-color:#278DA1"/>
   <stop offset="1" style="stop-opacity:1; stop-color:#45BFD7"/>
  </linearGradient>
  <linearGradient id="id24" gradientUnits="userSpaceOnUse" x1="5.04" y1="8.09" x2="4.85" y2="9.12">
   <stop offset="0" style="stop-opacity:1; stop-color:#F64F60"/>
   <stop offset="1" style="stop-opacity:1; stop-color:#CC354B"/>
  </linearGradient>
  <linearGradient id="id25" gradientUnits="userSpaceOnUse" xlink:href="#id15" x1="7.58" y1="21.04" x2="7.57" y2="20.34">
  </linearGradient>
  <linearGradient id="id26" gradientUnits="userSpaceOnUse" xlink:href="#id15" x1="7.85" y1="22.01" x2="7.84" y2="21.31">
  </linearGradient>
  <linearGradient id="id27" gradientUnits="userSpaceOnUse" xlink:href="#id15" x1="26.89" y1="18.65" x2="26.88" y2="17.95">
  </linearGradient>
  <linearGradient id="id28" gradientUnits="userSpaceOnUse" xlink:href="#id15" x1="27.32" y1="21.53" x2="27.31" y2="20.83">
  </linearGradient>
  <linearGradient id="id29" gradientUnits="userSpaceOnUse" xlink:href="#id18" x1="16.34" y1="20.22" x2="13.88" y2="18.53">
  </linearGradient>
  <linearGradient id="id30" gradientUnits="userSpaceOnUse" xlink:href="#id17" x1="24.79" y1="11.34" x2="24.75" y2="11.08">
  </linearGradient>
  <linearGradient id="id31" gradientUnits="userSpaceOnUse" x1="15.09" y1="10.2" x2="14.86" y2="11.27">
   <stop offset="0" style="stop-opacity:1; stop-color:#581A38"/>
   <stop offset="1" style="stop-opacity:1; stop-color:#3C001E"/>
  </linearGradient>
  <linearGradient id="id32" gradientUnits="userSpaceOnUse" xlink:href="#id15" x1="27.59" y1="17.66" x2="27.58" y2="16.97">
  </linearGradient>
  <linearGradient id="id33" gradientUnits="userSpaceOnUse" xlink:href="#id15" x1="27.51" y1="15.75" x2="27.5" y2="15.06">
  </linearGradient>
  <linearGradient id="id34" gradientUnits="userSpaceOnUse" x1="25.48" y1="16.11" x2="26.69" y2="14.47">
   <stop offset="0" style="stop-opacity:1; stop-color:#93A357"/>
   <stop offset="1" style="stop-opacity:1; stop-color:#A2B762"/>
  </linearGradient>
  <linearGradient id="id35" gradientUnits="userSpaceOnUse" x1="17.44" y1="13.18" x2="16.58" y2="12.08">
   <stop offset="0" style="stop-opacity:1; stop-color:#CCCAB0"/>
   <stop offset="1" style="stop-opacity:1; stop-color:#D5D7AD"/>
  </linearGradient>
  <linearGradient id="id36" gradientUnits="userSpaceOnUse" xlink:href="#id31" x1="24.96" y1="9.6" x2="25.34" y2="10.46">
  </linearGradient>
  <linearGradient id="id37" gradientUnits="userSpaceOnUse" x1="23.99" y1="22.64" x2="23.96" y2="22.47">
   <stop offset="0" style="stop-opacity:1; stop-color:#6A8E9E"/>
   <stop offset="1" style="stop-opacity:1; stop-color:#7098AC"/>
  </linearGradient>
  <linearGradient id="id38" gradientUnits="userSpaceOnUse" x1="24.52" y1="10.65" x2="25.15" y2="10.55">
   <stop offset="0" style="stop-opacity:1; stop-color:#FFD8CA"/>
   <stop offset="1" style="stop-opacity:1; stop-color:#F5B5A9"/>
  </linearGradient>
  <linearGradient id="id39" gradientUnits="userSpaceOnUse" xlink:href="#id15" x1="27.24" y1="16.72" x2="27.23" y2="16.03">
  </linearGradient>
  <linearGradient id="id40" gradientUnits="userSpaceOnUse" xlink:href="#id15" x1="27.24" y1="19.61" x2="27.23" y2="18.91">
  </linearGradient>
  <linearGradient id="id41" gradientUnits="userSpaceOnUse" xlink:href="#id18" x1="14.42" y1="19.92" x2="12.91" y2="18.6">
  </linearGradient>
  <linearGradient id="id42" gradientUnits="userSpaceOnUse" xlink:href="#id18" x1="25.1" y1="19.1" x2="23.12" y2="18.08">
  </linearGradient>
  <linearGradient id="id43" gradientUnits="userSpaceOnUse" xlink:href="#id15" x1="27.05" y1="22.5" x2="27.04" y2="21.8">
  </linearGradient>
  <linearGradient id="id44" gradientUnits="userSpaceOnUse" xlink:href="#id15" x1="27.05" y1="20.56" x2="27.04" y2="19.86">
  </linearGradient>
  <linearGradient id="id45" gradientUnits="userSpaceOnUse" xlink:href="#id24" x1="27.19" y1="5.15" x2="27.26" y2="6.41">
  </linearGradient>
  <linearGradient id="id46" gradientUnits="userSpaceOnUse" x1="24.88" y1="19.01" x2="23.72" y2="18.69">
   <stop offset="0" style="stop-opacity:1; stop-color:#BDA054"/>
   <stop offset="1" style="stop-opacity:1; stop-color:#C1A558"/>
  </linearGradient>
  <linearGradient id="id47" gradientUnits="userSpaceOnUse" xlink:href="#id15" x1="16.5" y1="15.86" x2="17.02" y2="13.13">
  </linearGradient>
  <linearGradient id="id48" gradientUnits="userSpaceOnUse" xlink:href="#id15" x1="27.05" y1="20.56" x2="27.04" y2="19.86">
  </linearGradient>
  <linearGradient id="id49" gradientUnits="userSpaceOnUse" xlink:href="#id15" x1="26.89" y1="18.65" x2="26.88" y2="17.95">
  </linearGradient>
  <linearGradient id="id50" gradientUnits="userSpaceOnUse" xlink:href="#id34" x1="25.48" y1="16.11" x2="26.7" y2="14.47">
  </linearGradient>
  <linearGradient id="id51" gradientUnits="userSpaceOnUse" x1="17.44" y1="13.18" x2="16.58" y2="12.08">
   <stop offset="0" style="stop-opacity:1; stop-color:#E0CDB0"/>
   <stop offset="1" style="stop-opacity:1; stop-color:#EADAAD"/>
  </linearGradient>
  <linearGradient id="id52" gradientUnits="userSpaceOnUse" xlink:href="#id18" x1="23.52" y1="23.22" x2="23.41" y2="22.76">
  </linearGradient>
  <linearGradient id="id53" gradientUnits="userSpaceOnUse" xlink:href="#id15" x1="27.51" y1="15.75" x2="27.5" y2="15.06">
  </linearGradient>
  <linearGradient id="id54" gradientUnits="userSpaceOnUse" xlink:href="#id15" x1="27.24" y1="19.61" x2="27.23" y2="18.91">
  </linearGradient>
  <linearGradient id="id55" gradientUnits="userSpaceOnUse" xlink:href="#id38" x1="19.19" y1="11.24" x2="18.37" y2="11.72">
  </linearGradient>
  <linearGradient id="id56" gradientUnits="userSpaceOnUse" xlink:href="#id15" x1="27.05" y1="22.5" x2="27.04" y2="21.8">
  </linearGradient>
  <linearGradient id="id57" gradientUnits="userSpaceOnUse" xlink:href="#id15" x1="27.05" y1="20.56" x2="27.04" y2="19.86">
  </linearGradient>
  <linearGradient id="id58" gradientUnits="userSpaceOnUse" xlink:href="#id15" x1="27.24" y1="16.72" x2="27.23" y2="16.03">
  </linearGradient>
  <linearGradient id="id59" gradientUnits="userSpaceOnUse" xlink:href="#id15" x1="27.24" y1="19.61" x2="27.23" y2="18.91">
  </linearGradient>
  <linearGradient id="id60" gradientUnits="userSpaceOnUse" xlink:href="#id35" x1="16.76" y1="16.48" x2="15.34" y2="13.69">
  </linearGradient>
  <linearGradient id="id61" gradientUnits="userSpaceOnUse" xlink:href="#id15" x1="27.24" y1="16.72" x2="27.23" y2="16.03">
  </linearGradient>
  <linearGradient id="id62" gradientUnits="userSpaceOnUse" xlink:href="#id15" x1="27.24" y1="19.61" x2="27.23" y2="18.91">
  </linearGradient>
  <linearGradient id="id63" gradientUnits="userSpaceOnUse" xlink:href="#id23" x1="25.32" y1="16.65" x2="25.09" y2="11.67">
  </linearGradient>
  <linearGradient id="id64" gradientUnits="userSpaceOnUse" xlink:href="#id15" x1="27.24" y1="16.72" x2="27.23" y2="16.03">
  </linearGradient>
  <linearGradient id="id65" gradientUnits="userSpaceOnUse" xlink:href="#id18" x1="24.25" y1="14.24" x2="24.73" y2="12.38">
  </linearGradient>
  <linearGradient id="id66" gradientUnits="userSpaceOnUse" x1="26.89" y1="22.78" x2="26.84" y2="22.6">
   <stop offset="0" style="stop-opacity:1; stop-color:#919491"/>
   <stop offset="1" style="stop-opacity:1; stop-color:#989E9D"/>
  </linearGradient>
  <linearGradient id="id67" gradientUnits="userSpaceOnUse" x1="24.88" y1="19.01" x2="23.73" y2="18.69">
   <stop offset="0" style="stop-opacity:1; stop-color:#BDBBB1"/>
   <stop offset="1" style="stop-opacity:1; stop-color:#C1C1B8"/>
  </linearGradient>
  <linearGradient id="id68" gradientUnits="userSpaceOnUse" xlink:href="#id38" x1="19.57" y1="14.71" x2="18.63" y2="15.11">
  </linearGradient>
  <linearGradient id="id69" gradientUnits="userSpaceOnUse" xlink:href="#id17" x1="14.93" y1="12.24" x2="15.11" y2="11.88">
  </linearGradient>
  <linearGradient id="id70" gradientUnits="userSpaceOnUse" xlink:href="#id18" x1="27.08" y1="23.32" x2="26.83" y2="22.8">
  </linearGradient>
  <linearGradient id="id71" gradientUnits="userSpaceOnUse" xlink:href="#id51" x1="16.76" y1="16.48" x2="15.34" y2="13.69">
  </linearGradient>
  <linearGradient id="id72" gradientUnits="userSpaceOnUse" xlink:href="#id15" x1="10.08" y1="5.87" x2="10.2" y2="2.67">
  </linearGradient>
  <linearGradient id="id73" gradientUnits="userSpaceOnUse" x1="26.89" y1="22.78" x2="26.85" y2="22.6">
   <stop offset="0" style="stop-opacity:1; stop-color:#917F45"/>
   <stop offset="1" style="stop-opacity:1; stop-color:#98874B"/>
  </linearGradient>
  <linearGradient id="id74" gradientUnits="userSpaceOnUse" xlink:href="#id46" x1="24.88" y1="19.01" x2="23.73" y2="18.69">
  </linearGradient>
  <linearGradient id="id75" gradientUnits="userSpaceOnUse" xlink:href="#id15" x1="15.12" y1="16.26" x2="14.53" y2="12.73">
  </linearGradient>
  <linearGradient id="id76" gradientUnits="userSpaceOnUse" xlink:href="#id15" x1="27.51" y1="15.75" x2="27.5" y2="15.06">
  </linearGradient>
  <linearGradient id="id77" gradientUnits="userSpaceOnUse" xlink:href="#id15" x1="27.51" y1="15.75" x2="27.5" y2="15.06">
  </linearGradient>
  <linearGradient id="id78" gradientUnits="userSpaceOnUse" xlink:href="#id18" x1="27.27" y1="20.1" x2="24.35" y2="17.35">
  </linearGradient>
  <linearGradient id="id79" gradientUnits="userSpaceOnUse" xlink:href="#id15" x1="27.51" y1="15.75" x2="27.5" y2="15.06">
  </linearGradient>
  <linearGradient id="id80" gradientUnits="userSpaceOnUse" xlink:href="#id15" x1="27.05" y1="22.5" x2="27.04" y2="21.8">
  </linearGradient>
  <linearGradient id="id81" gradientUnits="userSpaceOnUse" xlink:href="#id15" x1="27.05" y1="20.56" x2="27.04" y2="19.86">
  </linearGradient>
  <linearGradient id="id82" gradientUnits="userSpaceOnUse" xlink:href="#id24" x1="25.06" y1="3.85" x2="25.23" y2="7.04">
  </linearGradient>
  <linearGradient id="id83" gradientUnits="userSpaceOnUse" xlink:href="#id15" x1="26.89" y1="18.65" x2="26.88" y2="17.95">
  </linearGradient>
  <linearGradient id="id84" gradientUnits="userSpaceOnUse" xlink:href="#id15" x1="27.05" y1="22.5" x2="27.04" y2="21.8">
  </linearGradient>
  <linearGradient id="id85" gradientUnits="userSpaceOnUse" xlink:href="#id15" x1="27.05" y1="20.56" x2="27.04" y2="19.86">
  </linearGradient>
  <linearGradient id="id86" gradientUnits="userSpaceOnUse" xlink:href="#id18" x1="13.04" y1="23.58" x2="13.13" y2="23.21">
  </linearGradient>
  <linearGradient id="id87" gradientUnits="userSpaceOnUse" xlink:href="#id67" x1="24.88" y1="19.01" x2="23.73" y2="18.69">
  </linearGradient>
  <linearGradient id="id88" gradientUnits="userSpaceOnUse" xlink:href="#id34" x1="25.48" y1="16.11" x2="26.69" y2="14.47">
  </linearGradient>
  <linearGradient id="id89" gradientUnits="userSpaceOnUse" xlink:href="#id15" x1="27.51" y1="15.75" x2="27.5" y2="15.06">
  </linearGradient>
  <linearGradient id="id90" gradientUnits="userSpaceOnUse" xlink:href="#id67" x1="24.87" y1="19.01" x2="23.75" y2="18.69">
  </linearGradient>
  <linearGradient id="id91" gradientUnits="userSpaceOnUse" xlink:href="#id15" x1="27.05" y1="22.5" x2="27.04" y2="21.8">
  </linearGradient>
  <linearGradient id="id92" gradientUnits="userSpaceOnUse" xlink:href="#id15" x1="27.05" y1="20.56" x2="27.04" y2="19.86">
  </linearGradient>
  <linearGradient id="id93" gradientUnits="userSpaceOnUse" xlink:href="#id15" x1="27.51" y1="15.75" x2="27.5" y2="15.06">
  </linearGradient>
  <linearGradient id="id94" gradientUnits="userSpaceOnUse" xlink:href="#id15" x1="26.89" y1="18.65" x2="26.88" y2="17.95">
  </linearGradient>
  <linearGradient id="id95" gradientUnits="userSpaceOnUse" x1="25.48" y1="16.11" x2="26.7" y2="14.47">
   <stop offset="0" style="stop-opacity:1; stop-color:#93BFB7"/>
   <stop offset="1" style="stop-opacity:1; stop-color:#A2D7CF"/>
  </linearGradient>
  <linearGradient id="id96" gradientUnits="userSpaceOnUse" xlink:href="#id24" x1="22.75" y1="2.73" x2="22.82" y2="3.99">
  </linearGradient>
  <linearGradient id="id97" gradientUnits="userSpaceOnUse" xlink:href="#id15" x1="17.44" y1="13.17" x2="16.63" y2="12.15">
  </linearGradient>
  <linearGradient id="id98" gradientUnits="userSpaceOnUse" xlink:href="#id23" x1="22.82" y1="13.59" x2="20.82" y2="12.99">
  </linearGradient>
  <linearGradient id="id99" gradientUnits="userSpaceOnUse" xlink:href="#id15" x1="27.25" y1="14.78" x2="27.23" y2="14.09">
  </linearGradient>
  <linearGradient id="id100" gradientUnits="userSpaceOnUse" x1="26.89" y1="22.78" x2="26.84" y2="22.61">
   <stop offset="0" style="stop-opacity:1; stop-color:#5C838D"/>
   <stop offset="1" style="stop-opacity:1; stop-color:#618C99"/>
  </linearGradient>
  <linearGradient id="id101" gradientUnits="userSpaceOnUse" xlink:href="#id15" x1="27.24" y1="16.72" x2="27.23" y2="16.03">
  </linearGradient>
  <linearGradient id="id102" gradientUnits="userSpaceOnUse" xlink:href="#id15" x1="27.24" y1="19.61" x2="27.23" y2="18.91">
  </linearGradient>
  <linearGradient id="id103" gradientUnits="userSpaceOnUse" xlink:href="#id38" x1="15.54" y1="11.05" x2="15.11" y2="11.45">
  </linearGradient>
  <linearGradient id="id104" gradientUnits="userSpaceOnUse" xlink:href="#id35" x1="17.44" y1="13.18" x2="16.58" y2="12.08">
  </linearGradient>
  <linearGradient id="id105" gradientUnits="userSpaceOnUse" xlink:href="#id15" x1="27.05" y1="22.5" x2="27.04" y2="21.8">
  </linearGradient>
  <linearGradient id="id106" gradientUnits="userSpaceOnUse" xlink:href="#id15" x1="27.24" y1="16.72" x2="27.23" y2="16.03">
  </linearGradient>
  <linearGradient id="id107" gradientUnits="userSpaceOnUse" xlink:href="#id15" x1="27.24" y1="19.61" x2="27.23" y2="18.91">
  </linearGradient>
  <linearGradient id="id108" gradientUnits="userSpaceOnUse" xlink:href="#id15" x1="26.89" y1="18.65" x2="26.88" y2="17.95">
  </linearGradient>
  <linearGradient id="id109" gradientUnits="userSpaceOnUse" xlink:href="#id15" x1="26.89" y1="18.65" x2="26.88" y2="17.95">
  </linearGradient>
  <linearGradient id="id110" gradientUnits="userSpaceOnUse" xlink:href="#id15" x1="27.51" y1="15.75" x2="27.5" y2="15.06">
  </linearGradient>
  <linearGradient id="id111" gradientUnits="userSpaceOnUse" xlink:href="#id15" x1="27.24" y1="16.72" x2="27.23" y2="16.03">
  </linearGradient>
  <linearGradient id="id112" gradientUnits="userSpaceOnUse" xlink:href="#id15" x1="27.24" y1="19.61" x2="27.23" y2="18.91">
  </linearGradient>
  <linearGradient id="id113" gradientUnits="userSpaceOnUse" xlink:href="#id15" x1="26.89" y1="18.65" x2="26.88" y2="17.95">
  </linearGradient>
  <linearGradient id="id114" gradientUnits="userSpaceOnUse" xlink:href="#id15" x1="26.89" y1="18.65" x2="26.88" y2="17.95">
  </linearGradient>
  <linearGradient id="id115" gradientUnits="userSpaceOnUse" x1="22.95" y1="14.68" x2="22.39" y2="12.45">
   <stop offset="0" style="stop-opacity:1; stop-color:#87C3D0"/>
   <stop offset="1" style="stop-opacity:1; stop-color:#94DBEB"/>
  </linearGradient>
  <linearGradient id="id116" gradientUnits="userSpaceOnUse" xlink:href="#id15" x1="26.89" y1="18.65" x2="26.88" y2="17.95">
  </linearGradient>
  <linearGradient id="id117" gradientUnits="userSpaceOnUse" xlink:href="#id15" x1="27.05" y1="22.5" x2="27.04" y2="21.8">
  </linearGradient>
  <linearGradient id="id118" gradientUnits="userSpaceOnUse" xlink:href="#id15" x1="27.05" y1="20.56" x2="27.04" y2="19.86">
  </linearGradient>
  <linearGradient id="id119" gradientUnits="userSpaceOnUse" xlink:href="#id15" x1="27.51" y1="15.75" x2="27.5" y2="15.06">
  </linearGradient>
  <linearGradient id="id120" gradientUnits="userSpaceOnUse" xlink:href="#id15" x1="27.51" y1="15.75" x2="27.5" y2="15.06">
  </linearGradient>
  <linearGradient id="id121" gradientUnits="userSpaceOnUse" xlink:href="#id15" x1="27.24" y1="19.61" x2="27.23" y2="18.91">
  </linearGradient>
  <linearGradient id="id122" gradientUnits="userSpaceOnUse" xlink:href="#id15" x1="27.24" y1="16.72" x2="27.23" y2="16.03">
  </linearGradient>
  <linearGradient id="id123" gradientUnits="userSpaceOnUse" xlink:href="#id15" x1="26.89" y1="18.65" x2="26.88" y2="17.95">
  </linearGradient>
  <linearGradient id="id124" gradientUnits="userSpaceOnUse" xlink:href="#id15" x1="27.24" y1="16.72" x2="27.23" y2="16.03">
  </linearGradient>
  <linearGradient id="id125" gradientUnits="userSpaceOnUse" xlink:href="#id15" x1="27.05" y1="22.5" x2="27.04" y2="21.8">
  </linearGradient>
  <linearGradient id="id126" gradientUnits="userSpaceOnUse" xlink:href="#id15" x1="27.05" y1="20.56" x2="27.04" y2="19.86">
  </linearGradient>
  <linearGradient id="id127" gradientUnits="userSpaceOnUse" xlink:href="#id15" x1="27.05" y1="22.5" x2="27.04" y2="21.8">
  </linearGradient>
  <linearGradient id="id128" gradientUnits="userSpaceOnUse" xlink:href="#id15" x1="27.05" y1="20.56" x2="27.04" y2="19.86">
  </linearGradient>
  <linearGradient id="id129" gradientUnits="userSpaceOnUse" x1="-3.49" y1="30.64" x2="47.88" y2="-14.32">
   <stop offset="0" style="stop-opacity:1; stop-color:white"/>
   <stop offset="0.709804" style="stop-opacity:1; stop-color:#86DBF3"/>
   <stop offset="1" style="stop-opacity:1; stop-color:#0CB7E7"/>
  </linearGradient>
 </defs>
 <g id="Layer_x0020_1">
  <metadata id="CorelCorpID_0Corel-Layer"/>
  <path class="fil0" d="M8.76 24.07c-1.72,0 -3.48,-0.15 -4.97,-0.61 -5.94,-1.8 -4.07,-10.02 -0.04,-13.01 1.78,-1.32 0.1,-2.13 1.32,-5.8 0.82,-2.44 3.13,-3.56 5.5,-3.56 0.73,0 1.46,0.1 2.16,0.31 0.45,0.13 0.81,0.21 1.23,0.21 0.74,0 1.64,-0.27 3.44,-1.04 0.93,-0.39 1.95,-0.57 2.97,-0.57 2,0 3.96,0.7 5.09,1.9 1.81,1.91 0.23,4.56 3.42,5.68 2.48,0.88 4.04,3.65 3.5,7.5 -0.16,1.13 -0.41,2.94 -0.32,3.48 0.27,1.57 3.15,4.97 -3.41,5.4 -0.64,0.05 -3.24,0.11 -19.89,0.11z"/>
  <path class="fil1" d="M3.47 10.04c-0.31,0.21 -0.39,0.63 -0.19,0.94 0.21,0.3 0.63,0.39 0.94,0.18 0.31,-0.21 0.39,-0.63 0.18,-0.94 -0.21,-0.3 -0.63,-0.39 -0.93,-0.18zm-0.4 -0.16l-0.14 -0.28 0.33 -0.22 0.2 0.23c0.12,-0.04 0.23,-0.07 0.35,-0.08l0.09 -0.28 0.39 0.08 -0.01 0.27c0.12,0.05 0.23,0.12 0.32,0.21l0.24 -0.12 0.22 0.33 -0.2 0.17c0.05,0.13 0.07,0.26 0.07,0.38l0.26 0.09 -0.07 0.39 -0.3 -0.02c-0.05,0.11 -0.12,0.2 -0.21,0.29l0.14 0.28 -0.33 0.22 -0.2 -0.23c-0.11,0.04 -0.23,0.07 -0.35,0.08l-0.09 0.28 -0.39 -0.08 0.02 -0.27c-0.12,-0.05 -0.23,-0.12 -0.33,-0.21l-0.24 0.12 -0.22 -0.33 0.2 -0.17c-0.04,-0.13 -0.07,-0.26 -0.06,-0.38l-0.27 -0.09 0.08 -0.39 0.3 0.02c0.05,-0.11 0.12,-0.2 0.2,-0.29z"/>
  <path class="fil2" d="M6.34 9.69c-0.41,0.27 -0.53,0.83 -0.25,1.25 0.27,0.41 0.83,0.53 1.25,0.25 0.41,-0.27 0.53,-0.83 0.25,-1.25 -0.27,-0.42 -0.83,-0.53 -1.25,-0.25zm-0.52 -0.23l-0.19 -0.37 0.44 -0.29 0.28 0.31c0.15,-0.06 0.3,-0.09 0.46,-0.1l0.13 -0.38 0.52 0.11 -0.03 0.37c0.16,0.06 0.31,0.16 0.44,0.28l0.32 -0.16 0.29 0.44 -0.27 0.23c0.06,0.17 0.09,0.34 0.08,0.52l0.36 0.12 -0.11 0.52 -0.4 -0.03c-0.07,0.14 -0.16,0.27 -0.28,0.38l0.19 0.38 -0.44 0.29 -0.27 -0.32c-0.15,0.06 -0.31,0.1 -0.47,0.11l-0.13 0.38 -0.52 -0.11 0.03 -0.37c-0.16,-0.07 -0.31,-0.16 -0.44,-0.28l-0.32 0.16 -0.29 -0.45 0.27 -0.23c-0.06,-0.16 -0.09,-0.34 -0.08,-0.51l-0.36 -0.12 0.11 -0.52 0.4 0.03c0.07,-0.14 0.16,-0.27 0.28,-0.39z"/>
  <path class="fil3" d="M4.74 8.08c-0.28,0.12 -0.4,0.44 -0.29,0.71 0.12,0.27 0.43,0.4 0.71,0.29 0.27,-0.12 0.4,-0.44 0.28,-0.71 -0.11,-0.27 -0.43,-0.4 -0.7,-0.29zm-0.29 -0.18l-0.07 -0.24 0.3 -0.13 0.12 0.22c0.1,-0.02 0.19,-0.02 0.28,-0.01l0.12 -0.21 0.3 0.12 -0.06 0.21c0.09,0.06 0.16,0.13 0.23,0.21l0.2 -0.05 0.13 0.29 -0.19 0.11c0.02,0.1 0.02,0.2 -0.01,0.3l0.2 0.11 -0.12 0.3 -0.23 -0.06c-0.06,0.07 -0.13,0.14 -0.21,0.19l0.07 0.24 -0.29 0.13 -0.13 -0.22c-0.09,0.02 -0.19,0.02 -0.28,0.01l-0.12 0.21 -0.29 -0.12 0.06 -0.21c-0.09,-0.06 -0.17,-0.13 -0.23,-0.22l-0.21 0.06 -0.12 -0.29 0.19 -0.11c-0.02,-0.1 -0.02,-0.2 0,-0.31l-0.19 -0.11 0.12 -0.29 0.23 0.06c0.05,-0.07 0.12,-0.14 0.2,-0.19z"/>
  <path class="fil4" d="M17.3 24.07c-0.02,0 -0.03,0 -0.05,0 0.57,-0.06 1.08,-0.09 1.56,-0.09 0.43,0 0.84,0.03 1.24,0.08 -0.89,0.01 -1.81,0.01 -2.75,0.01z"/>
  <path class="fil5" d="M17.25 24.07c-7.43,0 -13.45,-0.33 -13.45,-0.74 0,-0.21 1.56,-0.4 4.08,-0.54l4.4 0c0,0 0,0 0,0 0.03,0.03 0.06,0.05 0.1,0.07 -0.01,0.05 -0.02,0.09 -0.04,0.13 0,0 0,0 0,0 -4.54,0.06 -7.73,0.19 -7.73,0.34 0,0.2 5.68,0.36 12.69,0.36 3.84,0 7.28,-0.05 9.6,-0.13 0.02,0 0.04,0 0.07,0 0.01,0 0.02,0 0.04,0 0.03,0 0.06,0 0.09,0 1.8,-0.07 2.88,-0.15 2.88,-0.23 0,-0.08 -0.9,-0.16 -2.44,-0.22 0,-0.05 -0.01,-0.09 -0.03,-0.13 -0.04,-0.05 -0.08,-0.1 -0.12,-0.15 2.12,0.13 3.4,0.31 3.4,0.5 0,0.36 -4.61,0.66 -10.74,0.73 -0.4,-0.05 -0.81,-0.08 -1.24,-0.08 -0.48,0 -0.99,0.03 -1.56,0.09zm9.19 -0.99c-0.59,-0.02 -1.25,-0.04 -1.97,-0.05 0.02,-0.06 0.03,-0.12 0.02,-0.18 -0.01,-0.02 -0.01,-0.04 -0.01,-0.06l0.42 0c0.04,0 0.08,0 0.12,0 0.09,0 0.18,0 0.27,-0.01 0.05,-0.01 0.11,-0.02 0.16,-0.03l0.36 0c0.24,0.01 0.48,0.02 0.7,0.03 0,0.02 -0.01,0.04 -0.01,0.05l0 0c-0.02,0.09 -0.04,0.17 -0.06,0.25zm-3.75 -0.08c-1.64,-0.02 -3.47,-0.04 -5.39,-0.04 -1.56,0 -3.05,0.01 -4.43,0.03 0,-0.01 0.01,-0.01 0.01,-0.01 0.01,-0.03 0.02,-0.06 0.03,-0.1 0.02,0 0.04,-0.01 0.06,-0.01l0 0c0.01,-0.03 0.02,-0.05 0.04,-0.08l5.52 0c0.04,0 0.08,0 0.12,0 0.02,0 0.04,0 0.06,0l4.61 0c-0.22,0.09 -0.46,0.11 -0.63,0.21z"/>
  <path class="fil6" d="M17.3 23.69c-7.01,0 -12.69,-0.16 -12.69,-0.36 0,-0.15 3.19,-0.28 7.73,-0.34 -0.02,0.08 0.09,0.13 0.22,0.13 0.13,0 0.28,-0.05 0.31,-0.13 1.38,-0.02 2.87,-0.03 4.43,-0.03 1.92,0 3.75,0.02 5.39,0.04 -0.11,0.06 -0.18,0.15 -0.21,0.29l1.66 -0.01c0.18,0 0.29,-0.11 0.33,-0.25 0.72,0.01 1.38,0.03 1.97,0.05 0,0.02 0,0.05 0,0.08 0,0.09 0.04,0.16 0.17,0.26 0.1,0.08 0.16,0.13 0.29,0.14 -2.32,0.08 -5.76,0.13 -9.6,0.13zm9.8 -0.13c0.18,-0.03 0.25,-0.1 0.42,-0.25 0.02,-0.05 0.03,-0.13 0.02,-0.2 1.54,0.06 2.44,0.14 2.44,0.22 0,0.08 -1.08,0.16 -2.88,0.23z"/>
  <path class="fil7" d="M29.88 15.02l-2.56 0c0.09,-0.33 0.11,-0.65 0.05,-0.97l2.44 0c0.07,0 0.12,0.05 0.12,0.12l0 0.74c0,0.05 -0.02,0.08 -0.05,0.11zm-3.44 0l-0.59 0c-0.02,-0.31 -0.03,-0.62 -0.01,-0.97l0.47 0c0.14,0.31 0.17,0.63 0.13,0.97z"/>
  <path class="fil2" d="M24.87 14.1l0.04 0c0.05,0 0.1,0.04 0.1,0.1l0 0.68c0,0.06 -0.05,0.1 -0.1,0.1l-0.04 0c-0.06,0 -0.11,-0.04 -0.11,-0.1l0 -0.68c0,-0.06 0.05,-0.1 0.11,-0.1z"/>
  <path class="fil2" d="M25.45 14.1l0.04 0c0.06,0 0.11,0.04 0.11,0.1l0 0.68c0,0.06 -0.05,0.1 -0.11,0.1l-0.04 0c-0.06,0 -0.1,-0.04 -0.1,-0.1l0 -0.68c0,-0.06 0.04,-0.1 0.1,-0.1z"/>
  <path class="fil2" d="M26.04 14.1l0.04 0c0.06,0 0.11,0.04 0.11,0.1l0 0.68c0,0.06 -0.05,0.1 -0.11,0.1l-0.04 0c-0.06,0 -0.11,-0.04 -0.11,-0.1l0 -0.68c0,-0.06 0.05,-0.1 0.11,-0.1z"/>
  <path class="fil2" d="M26.63 14.1l0.04 0c0.06,0 0.11,0.04 0.11,0.1l0 0.68c0,0.06 -0.05,0.1 -0.11,0.1l-0.04 0c-0.06,0 -0.11,-0.04 -0.11,-0.1l0 -0.68c0,-0.06 0.05,-0.1 0.11,-0.1z"/>
  <path class="fil2" d="M27.22 14.1l0.04 0c0.05,0 0.1,0.04 0.1,0.1l0 0.68c0,0.06 -0.05,0.1 -0.1,0.1l-0.04 0c-0.06,0 -0.11,-0.04 -0.11,-0.1l0 -0.68c0,-0.06 0.05,-0.1 0.11,-0.1z"/>
  <path class="fil2" d="M27.8 14.1l0.04 0c0.06,0 0.11,0.04 0.11,0.1l0 0.68c0,0.06 -0.05,0.1 -0.11,0.1l-0.04 0c-0.06,0 -0.1,-0.04 -0.1,-0.1l0 -0.68c0,-0.06 0.04,-0.1 0.1,-0.1z"/>
  <path class="fil2" d="M28.39 14.1l0.04 0c0.06,0 0.11,0.04 0.11,0.1l0 0.68c0,0.06 -0.05,0.1 -0.11,0.1l-0.04 0c-0.06,0 -0.11,-0.04 -0.11,-0.1l0 -0.68c0,-0.06 0.05,-0.1 0.11,-0.1z"/>
  <path class="fil2" d="M28.98 14.1l0.04 0c0.06,0 0.11,0.04 0.11,0.1l0 0.68c0,0.06 -0.05,0.1 -0.11,0.1l-0.04 0c-0.06,0 -0.11,-0.04 -0.11,-0.1l0 -0.68c0,-0.06 0.05,-0.1 0.11,-0.1z"/>
  <path class="fil2" d="M29.57 14.1l0.04 0c0.05,0 0.1,0.04 0.1,0.1l0 0.68c0,0.06 -0.05,0.1 -0.1,0.1l-0.04 0c-0.06,0 -0.11,-0.04 -0.11,-0.1l0 -0.68c0,-0.06 0.05,-0.1 0.11,-0.1z"/>
  <path class="fil8" d="M30.08 16l-0.2 0c-0.02,-0.01 -0.05,-0.02 -0.07,-0.02l-2.95 0c0.21,-0.33 0.37,-0.65 0.46,-0.96l2.76 0c0.06,0 0.12,0.05 0.12,0.11l0 0.75c0,0.07 -0.06,0.12 -0.12,0.12zm-3.95 -0.02l-0.17 0c-0.01,-0.03 -0.01,-0.05 -0.02,-0.08 0,0 0.01,-0.01 0.01,-0.01 -0.04,-0.31 -0.08,-0.59 -0.1,-0.87l0.59 0c0,0.02 -0.01,0.05 -0.01,0.08 -0.02,-0.02 -0.05,-0.04 -0.08,-0.04l-0.04 0c-0.06,0 -0.11,0.05 -0.11,0.11l0 0.65c-0.02,0.05 -0.05,0.11 -0.07,0.16z"/>
  <path class="fil9" d="M25.13 15.06l0.04 0c0.06,0 0.11,0.05 0.11,0.11l0 0.68c0,0.06 -0.05,0.1 -0.11,0.1l-0.04 0c-0.06,0 -0.1,-0.04 -0.1,-0.1l0 -0.68c0,-0.06 0.04,-0.11 0.1,-0.11z"/>
  <path class="fil10" d="M25.72 15.06l0.04 0c0.06,0 0.11,0.05 0.11,0.11l0 0.68c0,0.06 -0.05,0.1 -0.11,0.1l-0.04 0c-0.06,0 -0.11,-0.04 -0.11,-0.1l0 -0.68c0,-0.06 0.05,-0.11 0.11,-0.11z"/>
  <path class="fil11" d="M26.31 15.06l0.04 0c0.06,0 0.1,0.05 0.1,0.11l0 0.68c0,0.06 -0.04,0.1 -0.1,0.1l-0.04 0c-0.06,0 -0.11,-0.04 -0.11,-0.1l0 -0.68c0,-0.06 0.05,-0.11 0.11,-0.11z"/>
  <path class="fil12" d="M26.9 15.06l0.04 0c0.05,0 0.1,0.05 0.1,0.11l0 0.68c0,0.06 -0.05,0.1 -0.1,0.1l-0.04 0c-0.06,0 -0.11,-0.04 -0.11,-0.1l0 -0.68c0,-0.06 0.05,-0.11 0.11,-0.11z"/>
  <path class="fil13" d="M27.48 15.06l0.04 0c0.06,0 0.11,0.05 0.11,0.11l0 0.68c0,0.06 -0.05,0.1 -0.11,0.1l-0.04 0c-0.06,0 -0.1,-0.04 -0.1,-0.1l0 -0.68c0,-0.06 0.04,-0.11 0.1,-0.11z"/>
  <path class="fil14" d="M28.07 15.06l0.04 0c0.06,0 0.11,0.05 0.11,0.11l0 0.68c0,0.06 -0.05,0.1 -0.11,0.1l-0.04 0c-0.06,0 -0.11,-0.04 -0.11,-0.1l0 -0.68c0,-0.06 0.05,-0.11 0.11,-0.11z"/>
  <path class="fil15" d="M28.66 15.06l0.04 0c0.06,0 0.11,0.05 0.11,0.11l0 0.68c0,0.06 -0.05,0.1 -0.11,0.1l-0.04 0c-0.06,0 -0.11,-0.04 -0.11,-0.1l0 -0.68c0,-0.06 0.05,-0.11 0.11,-0.11z"/>
  <path class="fil16" d="M29.25 15.06l0.04 0c0.05,0 0.1,0.05 0.1,0.11l0 0.68c0,0.06 -0.05,0.1 -0.1,0.1l-0.04 0c-0.06,0 -0.11,-0.04 -0.11,-0.1l0 -0.68c0,-0.06 0.05,-0.11 0.11,-0.11z"/>
  <path class="fil17" d="M29.83 15.06l0.04 0c0.06,0 0.11,0.05 0.11,0.11l0 0.68c0,0.06 -0.05,0.1 -0.11,0.1l-0.04 0c-0.06,0 -0.1,-0.04 -0.1,-0.1l0 -0.68c0,-0.06 0.04,-0.11 0.1,-0.11z"/>
  <path class="fil18" d="M29.81 16.97l-3.61 0c-0.01,-0.02 -0.01,-0.05 -0.02,-0.08 0,0 0,0 0,0 0.01,-0.01 0.02,-0.02 0.02,-0.02 0,-0.01 0.01,-0.01 0.01,-0.01 0,0 0,0 0,0 0.26,-0.31 0.47,-0.6 0.65,-0.88l2.95 0c0.02,0 0.05,0.01 0.07,0.02 0.03,0.02 0.05,0.06 0.05,0.1l0 0.75c0,0.07 -0.05,0.12 -0.12,0.12zm-3.82 -0.92c-0.01,-0.02 -0.02,-0.05 -0.03,-0.07l0.17 0c-0.01,0.02 -0.02,0.04 -0.03,0.06 -0.01,-0.01 -0.01,-0.01 -0.02,-0.01l-0.04 0c-0.02,0 -0.04,0.01 -0.05,0.02z"/>
  <path class="fil19" d="M24.87 16.03l0.04 0c0.05,0 0.1,0.05 0.1,0.11l0 0.68c0,0.05 -0.05,0.1 -0.1,0.1l-0.04 0c-0.06,0 -0.11,-0.05 -0.11,-0.1l0 -0.68c0,-0.06 0.05,-0.11 0.11,-0.11z"/>
  <path class="fil20" d="M25.45 16.03l0.04 0c0.06,0 0.11,0.05 0.11,0.11l0 0.68c0,0.05 -0.05,0.1 -0.11,0.1l-0.04 0c-0.06,0 -0.1,-0.05 -0.1,-0.1l0 -0.68c0,-0.06 0.04,-0.11 0.1,-0.11z"/>
  <path class="fil21" d="M26.04 16.03l0.04 0c0.06,0 0.11,0.05 0.11,0.11l0 0.68c0,0.05 -0.05,0.1 -0.11,0.1l-0.04 0c-0.06,0 -0.11,-0.05 -0.11,-0.1l0 -0.68c0,-0.06 0.05,-0.11 0.11,-0.11z"/>
  <path class="fil22" d="M26.63 16.03l0.04 0c0.06,0 0.11,0.05 0.11,0.11l0 0.68c0,0.05 -0.05,0.1 -0.11,0.1l-0.04 0c-0.06,0 -0.11,-0.05 -0.11,-0.1l0 -0.68c0,-0.06 0.05,-0.11 0.11,-0.11z"/>
  <path class="fil23" d="M27.22 16.03l0.04 0c0.05,0 0.1,0.05 0.1,0.11l0 0.68c0,0.05 -0.05,0.1 -0.1,0.1l-0.04 0c-0.06,0 -0.11,-0.05 -0.11,-0.1l0 -0.68c0,-0.06 0.05,-0.11 0.11,-0.11z"/>
  <path class="fil24" d="M27.8 16.03l0.04 0c0.06,0 0.11,0.05 0.11,0.11l0 0.68c0,0.05 -0.05,0.1 -0.11,0.1l-0.04 0c-0.06,0 -0.1,-0.05 -0.1,-0.1l0 -0.68c0,-0.06 0.04,-0.11 0.1,-0.11z"/>
  <path class="fil25" d="M28.39 16.03l0.04 0c0.06,0 0.11,0.05 0.11,0.11l0 0.68c0,0.05 -0.05,0.1 -0.11,0.1l-0.04 0c-0.06,0 -0.11,-0.05 -0.11,-0.1l0 -0.68c0,-0.06 0.05,-0.11 0.11,-0.11z"/>
  <path class="fil26" d="M28.98 16.03l0.04 0c0.06,0 0.11,0.05 0.11,0.11l0 0.68c0,0.05 -0.05,0.1 -0.11,0.1l-0.04 0c-0.06,0 -0.11,-0.05 -0.11,-0.1l0 -0.68c0,-0.06 0.05,-0.11 0.11,-0.11z"/>
  <path class="fil27" d="M29.57 16.03l0.04 0c0.05,0 0.1,0.05 0.1,0.11l0 0.68c0,0.05 -0.05,0.1 -0.1,0.1l-0.04 0c-0.06,0 -0.11,-0.05 -0.11,-0.1l0 -0.68c0,-0.06 0.05,-0.11 0.11,-0.11z"/>
  <path class="fil28" d="M25.01 16.93l5.15 0c0.07,0 0.12,0.05 0.12,0.12l0 0.74c0,0.07 -0.05,0.12 -0.12,0.12l-5.15 0c-0.06,0 -0.12,-0.05 -0.12,-0.12l0 -0.74c0,-0.07 0.06,-0.12 0.12,-0.12z"/>
  <path class="fil2" d="M25.22 16.98l0.04 0c0.06,0 0.11,0.04 0.11,0.1l0 0.68c0,0.06 -0.05,0.1 -0.11,0.1l-0.04 0c-0.06,0 -0.11,-0.04 -0.11,-0.1l0 -0.68c0,-0.06 0.05,-0.1 0.11,-0.1z"/>
  <path class="fil2" d="M25.81 16.98l0.04 0c0.06,0 0.1,0.04 0.1,0.1l0 0.68c0,0.06 -0.04,0.1 -0.1,0.1l-0.04 0c-0.06,0 -0.11,-0.04 -0.11,-0.1l0 -0.68c0,-0.06 0.05,-0.1 0.11,-0.1z"/>
  <path class="fil2" d="M26.39 16.98l0.04 0c0.06,0 0.11,0.04 0.11,0.1l0 0.68c0,0.06 -0.05,0.1 -0.11,0.1l-0.04 0c-0.06,0 -0.1,-0.04 -0.1,-0.1l0 -0.68c0,-0.06 0.04,-0.1 0.1,-0.1z"/>
  <path class="fil2" d="M26.98 16.98l0.04 0c0.06,0 0.11,0.04 0.11,0.1l0 0.68c0,0.06 -0.05,0.1 -0.11,0.1l-0.04 0c-0.06,0 -0.11,-0.04 -0.11,-0.1l0 -0.68c0,-0.06 0.05,-0.1 0.11,-0.1z"/>
  <path class="fil2" d="M27.57 16.98l0.04 0c0.06,0 0.11,0.04 0.11,0.1l0 0.68c0,0.06 -0.05,0.1 -0.11,0.1l-0.04 0c-0.06,0 -0.11,-0.04 -0.11,-0.1l0 -0.68c0,-0.06 0.05,-0.1 0.11,-0.1z"/>
  <path class="fil2" d="M28.16 16.98l0.04 0c0.06,0 0.1,0.04 0.1,0.1l0 0.68c0,0.06 -0.04,0.1 -0.1,0.1l-0.04 0c-0.06,0 -0.11,-0.04 -0.11,-0.1l0 -0.68c0,-0.06 0.05,-0.1 0.11,-0.1z"/>
  <path class="fil2" d="M28.74 16.98l0.04 0c0.06,0 0.11,0.04 0.11,0.1l0 0.68c0,0.06 -0.05,0.1 -0.11,0.1l-0.04 0c-0.05,0 -0.1,-0.04 -0.1,-0.1l0 -0.68c0,-0.06 0.05,-0.1 0.1,-0.1z"/>
  <path class="fil2" d="M29.33 16.98l0.04 0c0.06,0 0.11,0.04 0.11,0.1l0 0.68c0,0.06 -0.05,0.1 -0.11,0.1l-0.04 0c-0.06,0 -0.11,-0.04 -0.11,-0.1l0 -0.68c0,-0.06 0.05,-0.1 0.11,-0.1z"/>
  <path class="fil2" d="M29.92 16.98l0.04 0c0.06,0 0.11,0.04 0.11,0.1l0 0.68c0,0.06 -0.05,0.1 -0.11,0.1l-0.04 0c-0.06,0 -0.11,-0.04 -0.11,-0.1l0 -0.68c0,-0.06 0.05,-0.1 0.11,-0.1z"/>
  <path class="fil29" d="M24.58 18.9l-0.03 0c0,-0.02 0,-0.04 0.01,-0.05l0 0c0.06,0 0.11,-0.05 0.11,-0.11l0 -0.67c0,-0.04 -0.02,-0.06 -0.04,-0.08 0,-0.03 0,-0.05 0.01,-0.08l0.07 0c0.12,0.32 0.25,0.64 0.37,0.96l-0.42 0c-0.03,0 -0.06,0.01 -0.08,0.03zm4.96 -0.03l-3.06 0c-0.02,-0.12 -0.04,-0.25 -0.06,-0.37 -0.04,-0.2 -0.07,-0.39 -0.09,-0.59l3.13 0c0.07,0 0.12,0.05 0.12,0.12l0 0.75c0,0.03 -0.01,0.07 -0.04,0.09z"/>
  <path class="fil30" d="M24.52 17.96l0.04 0c0.06,0 0.11,0.05 0.11,0.11l0 0.67c0,0.06 -0.05,0.11 -0.11,0.11l-0.04 0c-0.06,0 -0.11,-0.05 -0.11,-0.11l0 -0.67c0,-0.06 0.05,-0.11 0.11,-0.11z"/>
  <path class="fil31" d="M25.11 17.96l0.04 0c0.06,0 0.1,0.05 0.1,0.11l0 0.67c0,0.06 -0.04,0.11 -0.1,0.11l-0.04 0c-0.06,0 -0.11,-0.05 -0.11,-0.11l0 -0.67c0,-0.06 0.05,-0.11 0.11,-0.11z"/>
  <path class="fil32" d="M25.69 17.96l0.04 0c0.06,0 0.11,0.05 0.11,0.11l0 0.67c0,0.06 -0.05,0.11 -0.11,0.11l-0.04 0c-0.06,0 -0.1,-0.05 -0.1,-0.11l0 -0.67c0,-0.06 0.04,-0.11 0.1,-0.11z"/>
  <path class="fil33" d="M26.28 17.96l0.04 0c0.06,0 0.11,0.05 0.11,0.11l0 0.67c0,0.06 -0.05,0.11 -0.11,0.11l-0.04 0c-0.06,0 -0.11,-0.05 -0.11,-0.11l0 -0.67c0,-0.06 0.05,-0.11 0.11,-0.11z"/>
  <path class="fil34" d="M26.87 17.96l0.04 0c0.06,0 0.11,0.05 0.11,0.11l0 0.67c0,0.06 -0.05,0.11 -0.11,0.11l-0.04 0c-0.06,0 -0.11,-0.05 -0.11,-0.11l0 -0.67c0,-0.06 0.05,-0.11 0.11,-0.11z"/>
  <path class="fil35" d="M27.46 17.96l0.04 0c0.06,0 0.1,0.05 0.1,0.11l0 0.67c0,0.06 -0.04,0.11 -0.1,0.11l-0.04 0c-0.06,0 -0.11,-0.05 -0.11,-0.11l0 -0.67c0,-0.06 0.05,-0.11 0.11,-0.11z"/>
  <path class="fil36" d="M28.04 17.96l0.04 0c0.06,0 0.11,0.05 0.11,0.11l0 0.67c0,0.06 -0.05,0.11 -0.11,0.11l-0.04 0c-0.05,0 -0.1,-0.05 -0.1,-0.11l0 -0.67c0,-0.06 0.05,-0.11 0.1,-0.11z"/>
  <path class="fil37" d="M28.63 17.96l0.04 0c0.06,0 0.11,0.05 0.11,0.11l0 0.67c0,0.06 -0.05,0.11 -0.11,0.11l-0.04 0c-0.06,0 -0.11,-0.05 -0.11,-0.11l0 -0.67c0,-0.06 0.05,-0.11 0.11,-0.11z"/>
  <path class="fil38" d="M29.22 17.96l0.04 0c0.06,0 0.11,0.05 0.11,0.11l0 0.67c0,0.06 -0.05,0.11 -0.11,0.11l-0.04 0c-0.06,0 -0.11,-0.05 -0.11,-0.11l0 -0.67c0,-0.06 0.05,-0.11 0.11,-0.11z"/>
  <path class="fil39" d="M29.81 19.86l-0.1 0c-0.03,-0.03 -0.06,-0.04 -0.09,-0.04l-2.96 0c-0.06,-0.32 -0.12,-0.64 -0.18,-0.95l3.33 0c0.07,0 0.12,0.05 0.12,0.12l0 0.75c0,0.06 -0.05,0.12 -0.12,0.12zm-4.37 -0.04l-0.86 0c-0.03,-0.02 -0.04,-0.05 -0.04,-0.08l0 -0.66c0,-0.05 0.01,-0.09 0.01,-0.14 0.01,-0.01 0.02,-0.03 0.03,-0.04 0.02,-0.02 0.05,-0.03 0.08,-0.03l0.42 0c0.07,0.17 0.14,0.35 0.21,0.52 0.05,0.14 0.1,0.29 0.15,0.43z"/>
  <path class="fil40" d="M24.87 18.92l0.04 0c0.05,0 0.1,0.05 0.1,0.1l0 0.68c0,0.06 -0.05,0.11 -0.1,0.11l-0.04 0c-0.06,0 -0.11,-0.05 -0.11,-0.11l0 -0.68c0,-0.05 0.05,-0.1 0.11,-0.1z"/>
  <path class="fil41" d="M25.45 18.92l0.04 0c0.06,0 0.11,0.05 0.11,0.1l0 0.68c0,0.06 -0.05,0.11 -0.11,0.11l-0.04 0c-0.06,0 -0.1,-0.05 -0.1,-0.11l0 -0.68c0,-0.05 0.04,-0.1 0.1,-0.1z"/>
  <path class="fil42" d="M26.04 18.92l0.04 0c0.06,0 0.11,0.05 0.11,0.1l0 0.68c0,0.06 -0.05,0.11 -0.11,0.11l-0.04 0c-0.06,0 -0.11,-0.05 -0.11,-0.11l0 -0.68c0,-0.05 0.05,-0.1 0.11,-0.1z"/>
  <path class="fil43" d="M26.63 18.92l0.04 0c0.06,0 0.11,0.05 0.11,0.1l0 0.68c0,0.06 -0.05,0.11 -0.11,0.11l-0.04 0c-0.06,0 -0.11,-0.05 -0.11,-0.11l0 -0.68c0,-0.05 0.05,-0.1 0.11,-0.1z"/>
  <path class="fil44" d="M27.22 18.92l0.04 0c0.05,0 0.1,0.05 0.1,0.1l0 0.68c0,0.06 -0.05,0.11 -0.1,0.11l-0.04 0c-0.06,0 -0.11,-0.05 -0.11,-0.11l0 -0.68c0,-0.05 0.05,-0.1 0.11,-0.1z"/>
  <path class="fil45" d="M27.8 18.92l0.04 0c0.06,0 0.11,0.05 0.11,0.1l0 0.68c0,0.06 -0.05,0.11 -0.11,0.11l-0.04 0c-0.06,0 -0.1,-0.05 -0.1,-0.11l0 -0.68c0,-0.05 0.04,-0.1 0.1,-0.1z"/>
  <path class="fil46" d="M28.39 18.92l0.04 0c0.06,0 0.11,0.05 0.11,0.1l0 0.68c0,0.06 -0.05,0.11 -0.11,0.11l-0.04 0c-0.06,0 -0.11,-0.05 -0.11,-0.11l0 -0.68c0,-0.05 0.05,-0.1 0.11,-0.1z"/>
  <path class="fil47" d="M28.98 18.92l0.04 0c0.06,0 0.11,0.05 0.11,0.1l0 0.68c0,0.06 -0.05,0.11 -0.11,0.11l-0.04 0c-0.06,0 -0.11,-0.05 -0.11,-0.11l0 -0.68c0,-0.05 0.05,-0.1 0.11,-0.1z"/>
  <path class="fil48" d="M29.57 18.92l0.04 0c0.05,0 0.1,0.05 0.1,0.1l0 0.68c0,0.06 -0.05,0.11 -0.1,0.11l-0.04 0c-0.06,0 -0.11,-0.05 -0.11,-0.11l0 -0.68c0,-0.05 0.05,-0.1 0.11,-0.1z"/>
  <path class="fil49" d="M29.62 20.81l-2.75 0c-0.07,-0.33 -0.14,-0.66 -0.21,-0.99l2.96 0c0.03,0 0.06,0.01 0.09,0.04 0.02,0.02 0.03,0.05 0.03,0.08l0 0.75c0,0.06 -0.05,0.12 -0.12,0.12zm-3.85 -0.05c-0.43,0 -0.86,0 -1.29,0 0.01,-0.32 0.02,-0.63 0.03,-0.94l0.93 0c0.12,0.31 0.22,0.63 0.33,0.94z"/>
  <path class="fil50" d="M24.68 19.87l0.04 0c0.06,0 0.1,0.05 0.1,0.11l0 0.67c0,0.06 -0.04,0.11 -0.1,0.11l-0.04 0c-0.06,0 -0.11,-0.05 -0.11,-0.11l0 -0.67c0,-0.06 0.05,-0.11 0.11,-0.11z"/>
  <path class="fil51" d="M25.26 19.87l0.04 0c0.06,0 0.11,0.05 0.11,0.11l0 0.67c0,0.06 -0.05,0.11 -0.11,0.11l-0.04 0c-0.05,0 -0.1,-0.05 -0.1,-0.11l0 -0.67c0,-0.06 0.05,-0.11 0.1,-0.11z"/>
  <path class="fil52" d="M25.85 19.87l0.04 0c0.06,0 0.11,0.05 0.11,0.11l0 0.67c0,0.06 -0.05,0.11 -0.11,0.11l-0.04 0c-0.06,0 -0.11,-0.05 -0.11,-0.11l0 -0.67c0,-0.06 0.05,-0.11 0.11,-0.11z"/>
  <path class="fil53" d="M26.44 19.87l0.04 0c0.06,0 0.11,0.05 0.11,0.11l0 0.67c0,0.06 -0.05,0.11 -0.11,0.11l-0.04 0c-0.06,0 -0.11,-0.05 -0.11,-0.11l0 -0.67c0,-0.06 0.05,-0.11 0.11,-0.11z"/>
  <path class="fil54" d="M27.03 19.87l0.04 0c0.06,0 0.1,0.05 0.1,0.11l0 0.67c0,0.06 -0.04,0.11 -0.1,0.11l-0.04 0c-0.06,0 -0.11,-0.05 -0.11,-0.11l0 -0.67c0,-0.06 0.05,-0.11 0.11,-0.11z"/>
  <path class="fil55" d="M27.61 19.87l0.04 0c0.06,0 0.11,0.05 0.11,0.11l0 0.67c0,0.06 -0.05,0.11 -0.11,0.11l-0.04 0c-0.05,0 -0.1,-0.05 -0.1,-0.11l0 -0.67c0,-0.06 0.05,-0.11 0.1,-0.11z"/>
  <path class="fil56" d="M28.2 19.87l0.04 0c0.06,0 0.11,0.05 0.11,0.11l0 0.67c0,0.06 -0.05,0.11 -0.11,0.11l-0.04 0c-0.06,0 -0.11,-0.05 -0.11,-0.11l0 -0.67c0,-0.06 0.05,-0.11 0.11,-0.11z"/>
  <path class="fil57" d="M28.79 19.87l0.04 0c0.06,0 0.11,0.05 0.11,0.11l0 0.67c0,0.06 -0.05,0.11 -0.11,0.11l-0.04 0c-0.06,0 -0.11,-0.05 -0.11,-0.11l0 -0.67c0,-0.06 0.05,-0.11 0.11,-0.11z"/>
  <path class="fil58" d="M29.38 19.87l0.04 0c0.06,0 0.1,0.05 0.1,0.11l0 0.67c0,0.06 -0.04,0.11 -0.1,0.11l-0.04 0c-0.06,0 -0.11,-0.05 -0.11,-0.11l0 -0.67c0,-0.06 0.05,-0.11 0.11,-0.11z"/>
  <path class="fil59" d="M24.74 20.79l5.15 0c0.06,0 0.12,0.05 0.12,0.12l0 0.75c0,0.06 -0.06,0.12 -0.12,0.12l-5.15 0c-0.07,0 -0.12,-0.06 -0.12,-0.12l0 -0.75c0,-0.07 0.05,-0.12 0.12,-0.12z"/>
  <path class="fil2" d="M24.94 20.84l0.04 0c0.06,0 0.11,0.05 0.11,0.11l0 0.67c0,0.06 -0.05,0.11 -0.11,0.11l-0.04 0c-0.06,0 -0.1,-0.05 -0.1,-0.11l0 -0.67c0,-0.06 0.04,-0.11 0.1,-0.11z"/>
  <path class="fil2" d="M25.53 20.84l0.04 0c0.06,0 0.11,0.05 0.11,0.11l0 0.67c0,0.06 -0.05,0.11 -0.11,0.11l-0.04 0c-0.06,0 -0.11,-0.05 -0.11,-0.11l0 -0.67c0,-0.06 0.05,-0.11 0.11,-0.11z"/>
  <path class="fil2" d="M26.12 20.84l0.04 0c0.06,0 0.11,0.05 0.11,0.11l0 0.67c0,0.06 -0.05,0.11 -0.11,0.11l-0.04 0c-0.06,0 -0.11,-0.05 -0.11,-0.11l0 -0.67c0,-0.06 0.05,-0.11 0.11,-0.11z"/>
  <path class="fil2" d="M26.71 20.84l0.04 0c0.06,0 0.1,0.05 0.1,0.11l0 0.67c0,0.06 -0.04,0.11 -0.1,0.11l-0.04 0c-0.06,0 -0.11,-0.05 -0.11,-0.11l0 -0.67c0,-0.06 0.05,-0.11 0.11,-0.11z"/>
  <path class="fil2" d="M27.29 20.84l0.04 0c0.06,0 0.11,0.05 0.11,0.11l0 0.67c0,0.06 -0.05,0.11 -0.11,0.11l-0.04 0c-0.05,0 -0.1,-0.05 -0.1,-0.11l0 -0.67c0,-0.06 0.05,-0.11 0.1,-0.11z"/>
  <path class="fil2" d="M27.88 20.84l0.04 0c0.06,0 0.11,0.05 0.11,0.11l0 0.67c0,0.06 -0.05,0.11 -0.11,0.11l-0.04 0c-0.06,0 -0.11,-0.05 -0.11,-0.11l0 -0.67c0,-0.06 0.05,-0.11 0.11,-0.11z"/>
  <path class="fil2" d="M28.47 20.84l0.04 0c0.06,0 0.11,0.05 0.11,0.11l0 0.67c0,0.06 -0.05,0.11 -0.11,0.11l-0.04 0c-0.06,0 -0.11,-0.05 -0.11,-0.11l0 -0.67c0,-0.06 0.05,-0.11 0.11,-0.11z"/>
  <path class="fil2" d="M29.06 20.84l0.04 0c0.06,0 0.1,0.05 0.1,0.11l0 0.67c0,0.06 -0.04,0.11 -0.1,0.11l-0.04 0c-0.06,0 -0.11,-0.05 -0.11,-0.11l0 -0.67c0,-0.06 0.05,-0.11 0.11,-0.11z"/>
  <path class="fil2" d="M29.64 20.84l0.04 0c0.06,0 0.11,0.05 0.11,0.11l0 0.67c0,0.06 -0.05,0.11 -0.11,0.11l-0.04 0c-0.05,0 -0.1,-0.05 -0.1,-0.11l0 -0.67c0,-0.06 0.05,-0.11 0.1,-0.11z"/>
  <path class="fil60" d="M29.62 22.75l-2.3 0c-0.02,-0.03 -0.04,-0.06 -0.07,-0.09 -0.02,-0.02 -0.03,-0.05 -0.05,-0.07 0.04,-0.02 0.07,-0.04 0.11,-0.07 -0.05,-0.16 -0.09,-0.33 -0.14,-0.49l0 -0.12c0,-0.03 -0.02,-0.07 -0.05,-0.09 -0.01,-0.02 -0.01,-0.04 -0.02,-0.06l2.52 0c0.07,0 0.12,0.05 0.12,0.12l0 0.75c0,0.06 -0.05,0.12 -0.12,0.12zm-3.1 0l-1.07 0c0.34,-0.08 0.63,-0.27 0.85,-0.53 0.01,0.03 0.02,0.05 0.03,0.08l0 0.29c0,0.06 0.05,0.11 0.11,0.11l0.04 0c0.02,0 0.04,-0.01 0.05,-0.02 0,0.02 -0.01,0.05 -0.01,0.07z"/>
  <path class="fil61" d="M24.68 21.81l0.04 0c0.06,0 0.1,0.05 0.1,0.1l0 0.68c0,0.06 -0.04,0.11 -0.1,0.11l-0.04 0c-0.06,0 -0.11,-0.05 -0.11,-0.11l0 -0.68c0,-0.05 0.05,-0.1 0.11,-0.1z"/>
  <path class="fil62" d="M25.26 21.81l0.04 0c0.06,0 0.11,0.05 0.11,0.1l0 0.68c0,0.06 -0.05,0.11 -0.11,0.11l-0.04 0c-0.05,0 -0.1,-0.05 -0.1,-0.11l0 -0.68c0,-0.05 0.05,-0.1 0.1,-0.1z"/>
  <path class="fil63" d="M25.85 21.81l0.04 0c0.06,0 0.11,0.05 0.11,0.1l0 0.68c0,0.06 -0.05,0.11 -0.11,0.11l-0.04 0c-0.06,0 -0.11,-0.05 -0.11,-0.11l0 -0.68c0,-0.05 0.05,-0.1 0.11,-0.1z"/>
  <path class="fil64" d="M26.44 21.81l0.04 0c0.06,0 0.11,0.05 0.11,0.1l0 0.68c0,0.06 -0.05,0.11 -0.11,0.11l-0.04 0c-0.06,0 -0.11,-0.05 -0.11,-0.11l0 -0.68c0,-0.05 0.05,-0.1 0.11,-0.1z"/>
  <path class="fil65" d="M27.03 21.81l0.04 0c0.06,0 0.1,0.05 0.1,0.1l0 0.68c0,0.06 -0.04,0.11 -0.1,0.11l-0.04 0c-0.06,0 -0.11,-0.05 -0.11,-0.11l0 -0.68c0,-0.05 0.05,-0.1 0.11,-0.1z"/>
  <path class="fil66" d="M27.61 21.81l0.04 0c0.06,0 0.11,0.05 0.11,0.1l0 0.68c0,0.06 -0.05,0.11 -0.11,0.11l-0.04 0c-0.05,0 -0.1,-0.05 -0.1,-0.11l0 -0.68c0,-0.05 0.05,-0.1 0.1,-0.1z"/>
  <path class="fil67" d="M28.2 21.81l0.04 0c0.06,0 0.11,0.05 0.11,0.1l0 0.68c0,0.06 -0.05,0.11 -0.11,0.11l-0.04 0c-0.06,0 -0.11,-0.05 -0.11,-0.11l0 -0.68c0,-0.05 0.05,-0.1 0.11,-0.1z"/>
  <path class="fil68" d="M28.79 21.81l0.04 0c0.06,0 0.11,0.05 0.11,0.1l0 0.68c0,0.06 -0.05,0.11 -0.11,0.11l-0.04 0c-0.06,0 -0.11,-0.05 -0.11,-0.11l0 -0.68c0,-0.05 0.05,-0.1 0.11,-0.1z"/>
  <path class="fil69" d="M29.38 21.81l0.04 0c0.06,0 0.1,0.05 0.1,0.1l0 0.68c0,0.06 -0.04,0.11 -0.1,0.11l-0.04 0c-0.06,0 -0.11,-0.05 -0.11,-0.11l0 -0.68c0,-0.05 0.05,-0.1 0.11,-0.1z"/>
  <path class="fil70" d="M5.68 22.79c-0.96,0 -1.74,-0.78 -1.74,-1.74l0 -8.88 4.22 0 -0.57 10.62c-0.64,0 -1.28,0 -1.91,0z"/>
  <path class="fil71" d="M8.92 4.56c-0.96,0 -1.75,0.79 -1.75,1.74 0,4.97 0,9.93 0,14.89 0,0.86 -0.67,1.56 -1.51,1.6l0 0 12.87 0c0.13,0 0.26,0 0.39,-0.01 0.78,-0.1 1.39,-0.78 1.39,-1.59l0 -0.43 -0.08 0 0 -14.92 1.61 -1.28c-0.41,0 -2.44,0 -2.85,0 -3.36,0 -6.72,0 -10.07,0z"/>
  <path class="fil72" d="M8.65 7.92l9.55 0c0.23,0 0.42,0.18 0.42,0.41l0 0.05c0,0.23 -0.19,0.41 -0.42,0.41l-9.55 0c-0.23,0 -0.41,-0.18 -0.41,-0.41l0 -0.05c0,-0.23 0.18,-0.41 0.41,-0.41z"/>
  <path class="fil72" d="M8.65 9.84l9.55 0c0.23,0 0.42,0.19 0.42,0.42l0 0.04c0,0.23 -0.19,0.42 -0.42,0.42l-9.55 0c-0.23,0 -0.41,-0.19 -0.41,-0.42l0 -0.04c0,-0.23 0.18,-0.42 0.41,-0.42z"/>
  <path class="fil72" d="M8.65 11.77l9.55 0c0.23,0 0.42,0.18 0.42,0.41l0 0.05c0,0.23 -0.19,0.41 -0.42,0.41l-9.55 0c-0.23,0 -0.41,-0.18 -0.41,-0.41l0 -0.05c0,-0.23 0.18,-0.41 0.41,-0.41z"/>
  <path class="fil72" d="M8.65 13.69l9.55 0c0.23,0 0.42,0.19 0.42,0.42l0 0.04c0,0.23 -0.19,0.42 -0.42,0.42l-9.55 0c-0.23,0 -0.41,-0.19 -0.41,-0.42l0 -0.04c0,-0.23 0.18,-0.42 0.41,-0.42z"/>
  <path class="fil72" d="M8.65 15.62l9.55 0c0.23,0 0.42,0.18 0.42,0.41l0 0.05c0,0.23 -0.19,0.41 -0.42,0.41l-9.55 0c-0.23,0 -0.41,-0.18 -0.41,-0.41l0 -0.05c0,-0.23 0.18,-0.41 0.41,-0.41z"/>
  <path class="fil73" d="M21.67 4.56c0.96,0 1.74,0.79 1.74,1.74l0 14.75c0,0.96 -0.78,1.74 -1.74,1.74l-9.58 0c-0.95,0 -1.74,-0.78 -1.74,-1.74l0 -7.27 -0.01 -7.61c-0.04,-1.39 -1.24,-1.57 -1.46,-1.61l2.72 0c3.35,0 6.71,0 10.07,0z"/>
  <path class="fil70" d="M25.29 22.78c0.78,-0.1 1.39,-0.78 1.39,-1.59l0 -0.43c-4.38,0 -8.76,0 -13.14,0l0 0.43c0,0.86 -0.67,1.56 -1.52,1.6l0 0 12.88 0c0.13,0 0.26,0 0.39,-0.01z"/>
  <path class="fil74" d="M12.11 8.75l9.55 0c0.23,0 0.41,0.19 0.41,0.42l0 0.05c0,0.22 -0.18,0.41 -0.41,0.41l-9.55 0c-0.23,0 -0.42,-0.19 -0.42,-0.41l0 -0.05c0,-0.23 0.19,-0.42 0.42,-0.42z"/>
  <path class="fil74" d="M12.11 10.68l9.55 0c0.23,0 0.41,0.18 0.41,0.41l0 0.05c0,0.23 -0.18,0.41 -0.41,0.41l-9.55 0c-0.23,0 -0.42,-0.18 -0.42,-0.41l0 -0.05c0,-0.23 0.19,-0.41 0.42,-0.41z"/>
  <path class="fil74" d="M12.11 12.6l9.55 0c0.23,0 0.41,0.19 0.41,0.42l0 0.04c0,0.23 -0.18,0.42 -0.41,0.42l-9.55 0c-0.23,0 -0.42,-0.19 -0.42,-0.42l0 -0.04c0,-0.23 0.19,-0.42 0.42,-0.42z"/>
  <path class="fil74" d="M12.11 14.53l9.55 0c0.23,0 0.41,0.18 0.41,0.41l0 0.05c0,0.23 -0.18,0.41 -0.41,0.41l-9.55 0c-0.23,0 -0.42,-0.18 -0.42,-0.41l0 -0.05c0,-0.23 0.19,-0.41 0.42,-0.41z"/>
  <path class="fil74" d="M12.11 16.45l9.55 0c0.23,0 0.41,0.19 0.41,0.42l0 0.04c0,0.23 -0.18,0.42 -0.41,0.42l-9.55 0c-0.23,0 -0.42,-0.19 -0.42,-0.42l0 -0.04c0,-0.23 0.19,-0.42 0.42,-0.42z"/>
  <path class="fil75" d="M21.56 7.98c-0.11,0 -0.18,-0.02 -0.21,-0.06 -0.04,-0.03 -0.06,-0.1 -0.06,-0.19l0 -1.13 -0.14 0 0 -0.2 0.14 0 0 -0.32 0.3 0 0 0.32 0.17 0 0 0.2 -0.17 0 0 1.08c0,0.03 0.01,0.06 0.03,0.07 0.02,0.01 0.07,0.01 0.14,0.01l0 0.22 -0.2 0zm-0.89 -1.64c0.19,0 0.29,0.13 0.29,0.37l0 1.26 -0.3 0 0 -1.25c0,-0.04 -0.01,-0.08 -0.03,-0.11 -0.03,-0.02 -0.06,-0.04 -0.1,-0.04 -0.04,0 -0.08,0.02 -0.1,0.06 -0.03,0.03 -0.04,0.08 -0.04,0.13l0 1.21 -0.3 0 0 -1.61 0.3 0 0 0.19c0.02,-0.06 0.05,-0.11 0.1,-0.15 0.05,-0.04 0.11,-0.06 0.18,-0.06zm-1.39 0.68l0.24 0 0 -0.21c0,-0.08 0,-0.15 -0.02,-0.18 -0.01,-0.04 -0.04,-0.06 -0.09,-0.06l0 0c-0.08,0 -0.12,0.06 -0.13,0.17 0,0.02 0,0.05 0,0.08l0 0.2zm0.12 0.97c-0.19,0 -0.31,-0.07 -0.37,-0.21 -0.04,-0.08 -0.05,-0.2 -0.05,-0.34l0 -0.6c0,-0.33 0.14,-0.5 0.43,-0.5 0.16,0 0.26,0.05 0.32,0.13 0.06,0.09 0.09,0.21 0.09,0.37l0 0.35 -0.54 0 0 0.31c0,0.11 0.01,0.18 0.03,0.22 0.02,0.03 0.05,0.04 0.09,0.04 0.04,0 0.07,-0.01 0.08,-0.03 0.02,-0.03 0.04,-0.06 0.04,-0.09 0,-0.04 0,-0.08 0,-0.14l0 -0.14 0.3 0 0 0.09c0,0.14 -0.01,0.25 -0.04,0.31 -0.02,0.06 -0.05,0.11 -0.08,0.14 -0.07,0.06 -0.17,0.09 -0.3,0.09zm-0.99 -0.02l0 -1.23c0,-0.11 -0.04,-0.16 -0.11,-0.16 -0.05,0 -0.08,0.01 -0.11,0.04 -0.02,0.03 -0.04,0.08 -0.04,0.13l0 1.22 -0.3 0 0 -1.24c0,-0.1 -0.03,-0.15 -0.11,-0.15 -0.05,0 -0.08,0.01 -0.11,0.05 -0.02,0.04 -0.04,0.08 -0.04,0.14l0 1.2 -0.3 0 0 -1.61 0.3 0 0 0.18c0.02,-0.06 0.05,-0.11 0.1,-0.14 0.04,-0.04 0.1,-0.06 0.18,-0.06 0.12,0 0.21,0.06 0.25,0.17 0.06,-0.11 0.16,-0.17 0.29,-0.17 0.11,0 0.18,0.04 0.23,0.11 0.05,0.06 0.07,0.16 0.07,0.29l0 1.23 -0.3 0zm-1.93 -0.95l0.25 0 0 -0.21c0,-0.08 -0.01,-0.15 -0.03,-0.18 -0.01,-0.04 -0.04,-0.06 -0.09,-0.06l0 0c-0.08,0 -0.12,0.06 -0.13,0.17 0,0.02 0,0.05 0,0.08l0 0.2zm0.12 0.97c-0.19,0 -0.31,-0.07 -0.37,-0.21 -0.03,-0.08 -0.05,-0.2 -0.05,-0.34l0 -0.6c0,-0.33 0.14,-0.5 0.43,-0.5 0.16,0 0.27,0.05 0.33,0.13 0.05,0.09 0.08,0.21 0.08,0.37l0 0.35 -0.54 0 0 0.31c0,0.11 0.01,0.18 0.03,0.22 0.02,0.03 0.05,0.04 0.1,0.04 0.04,0 0.06,-0.01 0.08,-0.03 0.02,-0.03 0.03,-0.06 0.03,-0.09 0,-0.04 0.01,-0.08 0.01,-0.14l0 -0.14 0.29 0 0 0.09c0,0.14 -0.01,0.25 -0.03,0.31 -0.03,0.06 -0.06,0.11 -0.09,0.14 -0.06,0.06 -0.16,0.09 -0.3,0.09zm-1.21 -0.97l0.25 0 0 -0.21c0,-0.08 -0.01,-0.15 -0.03,-0.18 -0.01,-0.04 -0.04,-0.06 -0.09,-0.06l0 0c-0.08,0 -0.12,0.06 -0.12,0.17 -0.01,0.02 -0.01,0.05 -0.01,0.08l0 0.2zm0.12 0.97c-0.19,0 -0.31,-0.07 -0.37,-0.21 -0.03,-0.08 -0.05,-0.2 -0.05,-0.34l0 -0.6c0,-0.33 0.15,-0.5 0.44,-0.5 0.15,0 0.26,0.05 0.32,0.13 0.06,0.09 0.09,0.21 0.09,0.37l0 0.35 -0.55 0 0 0.31c0,0.11 0.01,0.18 0.04,0.22 0.02,0.03 0.05,0.04 0.09,0.04 0.04,0 0.06,-0.01 0.08,-0.03 0.02,-0.03 0.03,-0.06 0.03,-0.09 0.01,-0.04 0.01,-0.08 0.01,-0.14l0 -0.14 0.29 0 0 0.09c0,0.14 -0.01,0.25 -0.03,0.31 -0.03,0.06 -0.05,0.11 -0.09,0.14 -0.06,0.06 -0.16,0.09 -0.3,0.09zm-0.58 -1.65c0.01,0 0.01,0.06 0.01,0.18l0 0.06c-0.06,0 -0.12,0.01 -0.18,0.03 -0.06,0.02 -0.1,0.05 -0.12,0.09l0 1.27 -0.3 0 0 -1.61 0.3 0 0 0.18c0.02,-0.06 0.06,-0.11 0.11,-0.14 0.05,-0.04 0.11,-0.06 0.18,-0.06zm-1.43 0.99c0,0.09 0.01,0.16 0.02,0.2 0.02,0.04 0.05,0.06 0.1,0.06 0.05,0 0.08,-0.02 0.1,-0.05 0.02,-0.04 0.03,-0.11 0.03,-0.21l0 -0.52c0,-0.08 -0.01,-0.14 -0.03,-0.18 -0.02,-0.04 -0.06,-0.06 -0.11,-0.06 -0.04,0 -0.08,0.02 -0.09,0.07 -0.01,0.04 -0.02,0.09 -0.02,0.17l0 0.52zm0.55 0.44c0,0.14 -0.04,0.25 -0.11,0.32 -0.07,0.08 -0.19,0.12 -0.36,0.12 -0.17,0 -0.3,-0.04 -0.4,-0.11l0.1 -0.18c0.09,0.05 0.18,0.08 0.26,0.08 0.07,0 0.13,-0.02 0.16,-0.06 0.03,-0.03 0.05,-0.08 0.05,-0.15l0 -0.12c-0.02,0.05 -0.05,0.08 -0.09,0.11 -0.04,0.02 -0.09,0.03 -0.15,0.03 -0.12,0 -0.2,-0.04 -0.25,-0.13 -0.04,-0.08 -0.07,-0.19 -0.07,-0.33l0 -0.52c0,-0.32 0.11,-0.49 0.33,-0.49 0,0 0,0 0,0 0.12,0 0.19,0.06 0.23,0.17l0 -0.15 0.3 0 0 1.41zm-2.03 0.2l0.28 -1.88 0.4 0 0.31 1.88 -0.29 0 -0.05 -0.34 -0.32 0 -0.04 0.34 -0.29 0zm0.62 -0.57l-0.13 -0.94 -0.01 0 -0.12 0.94 0.26 0z"/>
  <path class="fil76" d="M20.47 18.95c0.09,-0.18 0.18,-0.36 0.24,-0.52 0.08,-0.19 0.12,-0.35 0.13,-0.48 0.01,-0.1 -0.01,-0.17 -0.06,-0.19 -0.03,-0.01 -0.05,-0.02 -0.09,-0.02 -0.09,0 -0.17,0.61 -0.22,1.21zm-1.33 -0.76c0.08,-0.26 0.17,-0.44 0.27,-0.56 0.18,-0.21 0.37,-0.24 0.42,-0.22 0.09,0.02 0.05,0.29 -0.02,0.67 -0.11,0.66 -0.28,1.7 -0.2,1.96 0,0.02 0.01,0.04 0.03,0.05 0,0 0.01,0.01 0.01,0.01 0.01,0 0.02,0 0.03,-0.01 0.04,-0.01 0.08,-0.04 0.13,-0.1 0.13,-0.16 0.29,-0.41 0.46,-0.69 0.07,-0.75 0.21,-1.72 0.42,-1.72 0.06,-0.01 0.11,0 0.15,0.02 0.13,0.06 0.18,0.19 0.17,0.36 -0.01,0.15 -0.06,0.33 -0.14,0.53 -0.11,0.27 -0.27,0.58 -0.44,0.87 -0.02,0.22 -0.04,0.42 -0.05,0.57 0.16,-0.25 0.4,-0.62 0.64,-0.59 0.21,0.02 0.21,0.27 0.21,0.52 0,0.17 0,0.33 0.06,0.35 0.08,0.03 0.21,-0.07 0.36,-0.22 0.19,-0.2 0.39,-0.47 0.48,-0.68l0.15 0.07c-0.1,0.22 -0.3,0.52 -0.51,0.73 -0.19,0.19 -0.39,0.31 -0.53,0.26 -0.18,-0.06 -0.17,-0.28 -0.17,-0.51 0,-0.17 0,-0.35 -0.07,-0.36 -0.14,-0.01 -0.36,0.33 -0.49,0.55 -0.09,0.13 -0.15,0.24 -0.22,0.23 -0.07,-0.01 -0.1,-0.05 -0.09,-0.14l0.01 -0.08c0,-0.09 0.01,-0.23 0.03,-0.39 -0.11,0.17 -0.21,0.31 -0.3,0.42 -0.07,0.09 -0.14,0.15 -0.21,0.16 -0.03,0.02 -0.07,0.02 -0.1,0.01 -0.04,0 -0.07,-0.02 -0.1,-0.04 -0.04,-0.03 -0.07,-0.08 -0.09,-0.14 -0.08,-0.29 0.1,-1.35 0.21,-2.03 0.02,-0.12 0.16,-0.65 -0.11,-0.31 -0.08,0.1 -0.17,0.26 -0.24,0.5l-0.16 -0.05z"/>
  <path class="fil77" d="M5 20.3l5.15 0c0.07,0 0.12,0.05 0.12,0.12l0 0.75c0,0.06 -0.05,0.12 -0.12,0.12l-5.15 0c-0.06,0 -0.11,-0.06 -0.11,-0.12l0 -0.75c0,-0.07 0.05,-0.12 0.11,-0.12z"/>
  <path class="fil2" d="M5.21 20.35l0.04 0c0.06,0 0.11,0.05 0.11,0.11l0 0.67c0,0.06 -0.05,0.11 -0.11,0.11l-0.04 0c-0.06,0 -0.11,-0.05 -0.11,-0.11l0 -0.67c0,-0.06 0.05,-0.11 0.11,-0.11z"/>
  <path class="fil2" d="M5.8 20.35l0.04 0c0.06,0 0.1,0.05 0.1,0.11l0 0.67c0,0.06 -0.04,0.11 -0.1,0.11l-0.04 0c-0.06,0 -0.11,-0.05 -0.11,-0.11l0 -0.67c0,-0.06 0.05,-0.11 0.11,-0.11z"/>
  <path class="fil2" d="M6.38 20.35l0.04 0c0.06,0 0.11,0.05 0.11,0.11l0 0.67c0,0.06 -0.05,0.11 -0.11,0.11l-0.04 0c-0.05,0 -0.1,-0.05 -0.1,-0.11l0 -0.67c0,-0.06 0.05,-0.11 0.1,-0.11z"/>
  <path class="fil2" d="M6.97 20.35l0.04 0c0.06,0 0.11,0.05 0.11,0.11l0 0.67c0,0.06 -0.05,0.11 -0.11,0.11l-0.04 0c-0.06,0 -0.11,-0.05 -0.11,-0.11l0 -0.67c0,-0.06 0.05,-0.11 0.11,-0.11z"/>
  <path class="fil2" d="M7.56 20.35l0.04 0c0.06,0 0.11,0.05 0.11,0.11l0 0.67c0,0.06 -0.05,0.11 -0.11,0.11l-0.04 0c-0.06,0 -0.11,-0.05 -0.11,-0.11l0 -0.67c0,-0.06 0.05,-0.11 0.11,-0.11z"/>
  <path class="fil2" d="M8.15 20.35l0.04 0c0.06,0 0.1,0.05 0.1,0.11l0 0.67c0,0.06 -0.04,0.11 -0.1,0.11l-0.04 0c-0.06,0 -0.11,-0.05 -0.11,-0.11l0 -0.67c0,-0.06 0.05,-0.11 0.11,-0.11z"/>
  <path class="fil2" d="M8.73 20.35l0.04 0c0.06,0 0.11,0.05 0.11,0.11l0 0.67c0,0.06 -0.05,0.11 -0.11,0.11l-0.04 0c-0.05,0 -0.1,-0.05 -0.1,-0.11l0 -0.67c0,-0.06 0.05,-0.11 0.1,-0.11z"/>
  <path class="fil2" d="M9.32 20.35l0.04 0c0.06,0 0.11,0.05 0.11,0.11l0 0.67c0,0.06 -0.05,0.11 -0.11,0.11l-0.04 0c-0.06,0 -0.11,-0.05 -0.11,-0.11l0 -0.67c0,-0.06 0.05,-0.11 0.11,-0.11z"/>
  <path class="fil2" d="M9.91 20.35l0.04 0c0.06,0 0.11,0.05 0.11,0.11l0 0.67c0,0.06 -0.05,0.11 -0.11,0.11l-0.04 0c-0.06,0 -0.11,-0.05 -0.11,-0.11l0 -0.67c0,-0.06 0.05,-0.11 0.11,-0.11z"/>
  <path class="fil78" d="M5.27 21.27l5.15 0c0.07,0 0.12,0.05 0.12,0.12l0 0.75c0,0.06 -0.05,0.12 -0.12,0.12l-5.15 0c-0.06,0 -0.12,-0.06 -0.12,-0.12l0 -0.75c0,-0.07 0.06,-0.12 0.12,-0.12z"/>
  <path class="fil2" d="M5.48 21.32l0.04 0c0.06,0 0.1,0.05 0.1,0.11l0 0.67c0,0.06 -0.04,0.11 -0.1,0.11l-0.04 0c-0.06,0 -0.11,-0.05 -0.11,-0.11l0 -0.67c0,-0.06 0.05,-0.11 0.11,-0.11z"/>
  <path class="fil2" d="M6.06 21.32l0.04 0c0.06,0 0.11,0.05 0.11,0.11l0 0.67c0,0.06 -0.05,0.11 -0.11,0.11l-0.04 0c-0.06,0 -0.1,-0.05 -0.1,-0.11l0 -0.67c0,-0.06 0.04,-0.11 0.1,-0.11z"/>
  <path class="fil2" d="M6.65 21.32l0.04 0c0.06,0 0.11,0.05 0.11,0.11l0 0.67c0,0.06 -0.05,0.11 -0.11,0.11l-0.04 0c-0.06,0 -0.11,-0.05 -0.11,-0.11l0 -0.67c0,-0.06 0.05,-0.11 0.11,-0.11z"/>
  <path class="fil2" d="M7.24 21.32l0.04 0c0.06,0 0.11,0.05 0.11,0.11l0 0.67c0,0.06 -0.05,0.11 -0.11,0.11l-0.04 0c-0.06,0 -0.11,-0.05 -0.11,-0.11l0 -0.67c0,-0.06 0.05,-0.11 0.11,-0.11z"/>
  <path class="fil2" d="M7.83 21.32l0.04 0c0.06,0 0.1,0.05 0.1,0.11l0 0.67c0,0.06 -0.04,0.11 -0.1,0.11l-0.04 0c-0.06,0 -0.11,-0.05 -0.11,-0.11l0 -0.67c0,-0.06 0.05,-0.11 0.11,-0.11z"/>
  <path class="fil2" d="M8.41 21.32l0.04 0c0.06,0 0.11,0.05 0.11,0.11l0 0.67c0,0.06 -0.05,0.11 -0.11,0.11l-0.04 0c-0.05,0 -0.1,-0.05 -0.1,-0.11l0 -0.67c0,-0.06 0.05,-0.11 0.1,-0.11z"/>
  <path class="fil2" d="M9 21.32l0.04 0c0.06,0 0.11,0.05 0.11,0.11l0 0.67c0,0.06 -0.05,0.11 -0.11,0.11l-0.04 0c-0.06,0 -0.11,-0.05 -0.11,-0.11l0 -0.67c0,-0.06 0.05,-0.11 0.11,-0.11z"/>
  <path class="fil2" d="M9.59 21.32l0.04 0c0.06,0 0.11,0.05 0.11,0.11l0 0.67c0,0.06 -0.05,0.11 -0.11,0.11l-0.04 0c-0.06,0 -0.11,-0.05 -0.11,-0.11l0 -0.67c0,-0.06 0.05,-0.11 0.11,-0.11z"/>
  <path class="fil2" d="M10.18 21.32l0.04 0c0.06,0 0.1,0.05 0.1,0.11l0 0.67c0,0.06 -0.04,0.11 -0.1,0.11l-0.04 0c-0.06,0 -0.11,-0.05 -0.11,-0.11l0 -0.67c0,-0.06 0.05,-0.11 0.11,-0.11z"/>
  <path class="fil79" d="M5 22.24l5.15 0c0.07,0 0.12,0.05 0.12,0.12l0 0.75c0,0.06 -0.05,0.12 -0.12,0.12l-5.15 0c-0.06,0 -0.11,-0.06 -0.11,-0.12l0 -0.75c0,-0.07 0.05,-0.12 0.11,-0.12z"/>
  <path class="fil2" d="M5.21 22.29l0.04 0c0.06,0 0.11,0.05 0.11,0.1l0 0.68c0,0.06 -0.05,0.11 -0.11,0.11l-0.04 0c-0.06,0 -0.11,-0.05 -0.11,-0.11l0 -0.68c0,-0.05 0.05,-0.1 0.11,-0.1z"/>
  <path class="fil2" d="M5.8 22.29l0.04 0c0.06,0 0.1,0.05 0.1,0.1l0 0.68c0,0.06 -0.04,0.11 -0.1,0.11l-0.04 0c-0.06,0 -0.11,-0.05 -0.11,-0.11l0 -0.68c0,-0.05 0.05,-0.1 0.11,-0.1z"/>
  <path class="fil2" d="M6.38 22.29l0.04 0c0.06,0 0.11,0.05 0.11,0.1l0 0.68c0,0.06 -0.05,0.11 -0.11,0.11l-0.04 0c-0.05,0 -0.1,-0.05 -0.1,-0.11l0 -0.68c0,-0.05 0.05,-0.1 0.1,-0.1z"/>
  <path class="fil2" d="M6.97 22.29l0.04 0c0.06,0 0.11,0.05 0.11,0.1l0 0.68c0,0.06 -0.05,0.11 -0.11,0.11l-0.04 0c-0.06,0 -0.11,-0.05 -0.11,-0.11l0 -0.68c0,-0.05 0.05,-0.1 0.11,-0.1z"/>
  <path class="fil2" d="M7.56 22.29l0.04 0c0.06,0 0.11,0.05 0.11,0.1l0 0.68c0,0.06 -0.05,0.11 -0.11,0.11l-0.04 0c-0.06,0 -0.11,-0.05 -0.11,-0.11l0 -0.68c0,-0.05 0.05,-0.1 0.11,-0.1z"/>
  <path class="fil2" d="M8.15 22.29l0.04 0c0.06,0 0.1,0.05 0.1,0.1l0 0.68c0,0.06 -0.04,0.11 -0.1,0.11l-0.04 0c-0.06,0 -0.11,-0.05 -0.11,-0.11l0 -0.68c0,-0.05 0.05,-0.1 0.11,-0.1z"/>
  <path class="fil2" d="M8.73 22.29l0.04 0c0.06,0 0.11,0.05 0.11,0.1l0 0.68c0,0.06 -0.05,0.11 -0.11,0.11l-0.04 0c-0.05,0 -0.1,-0.05 -0.1,-0.11l0 -0.68c0,-0.05 0.05,-0.1 0.1,-0.1z"/>
  <path class="fil2" d="M9.32 22.29l0.04 0c0.06,0 0.11,0.05 0.11,0.1l0 0.68c0,0.06 -0.05,0.11 -0.11,0.11l-0.04 0c-0.06,0 -0.11,-0.05 -0.11,-0.11l0 -0.68c0,-0.05 0.05,-0.1 0.11,-0.1z"/>
  <path class="fil2" d="M9.91 22.29l0.04 0c0.06,0 0.11,0.05 0.11,0.1l0 0.68c0,0.06 -0.05,0.11 -0.11,0.11l-0.04 0c-0.06,0 -0.11,-0.05 -0.11,-0.11l0 -0.68c0,-0.05 0.05,-0.1 0.11,-0.1z"/>
  <path class="fil80" d="M21.07 15.46c-0.11,0 -0.21,-0.01 -0.31,-0.02 -0.08,-0.01 -0.17,-0.02 -0.25,-0.03 -0.01,0 -0.01,-0.01 -0.02,-0.01 -0.15,-0.03 -0.21,-0.23 -0.19,-0.39 0.01,-0.15 0.09,-0.26 0.56,-0.27 0.29,-0.01 0.59,-0.08 0.86,-0.21 0.24,-0.11 0.45,-0.25 0.63,-0.42 0.23,-0.21 0.32,-0.46 0.45,-0.77 0.23,-0.52 0.26,-1.06 0.61,-1.47 0.07,-0.08 0.14,-0.15 0.23,-0.21 0.07,-0.06 0.14,-0.1 0.21,-0.13 -0.07,0.04 -0.14,0.08 -0.19,0.13 -0.15,0.11 -0.26,0.24 -0.34,0.38 -0.34,0.57 -0.2,1.37 -0.33,2.06 -0.1,0.52 -0.66,1.15 -1.92,1.36z"/>
  <path class="fil81" d="M21.1 15.46c-0.01,0 -0.02,0 -0.03,0l0 0c0.01,0 0.02,0 0.03,0 0.76,0 1.59,-0.24 2.08,-0.67l0 0c-0.49,0.43 -1.32,0.67 -2.08,0.67z"/>
  <g style="clip-path:url(#id0)">
   <image x="21.06" y="11.65" width="2.61" height="3.82" xlink:href="Project_Loan_Images\Project_Loan_ImgID1.png"/>
  </g>
  <path class="fil82" d="M20.54 14.83c0.07,0 0.13,0.11 0.13,0.26 0,0.14 -0.06,0.25 -0.13,0.25 -0.08,0 -0.13,-0.11 -0.13,-0.25 0,-0.15 0.05,-0.26 0.13,-0.26z"/>
  <path class="fil83" d="M20.48 14.86c-0.08,-0.01 -0.09,-0.01 -0.21,-0.04 -0.23,-0.06 -0.43,-0.04 -0.59,0 -0.2,0.04 -0.18,0.12 0.04,0.15 0.06,0.01 0.12,0.01 0.2,0.02 -0.21,0.11 -0.28,0.07 -0.53,0.05 -0.1,0 -0.2,-0.02 -0.21,-0.02 -0.12,0.04 -0.22,0.25 -0.15,0.34 0.06,0.1 0.52,0.16 0.65,0.16 0.23,0.01 0.34,0.01 0.44,-0.05 0.19,-0.13 0.2,-0.12 0.37,-0.16 0.15,-0.04 0.16,-0.43 -0.01,-0.45z"/>
  <path class="fil84" d="M19.68 15.08c0.07,0.15 0.08,0.2 0.12,0.37l0.04 -0.23c0.16,-0.17 0.29,-0.17 0.51,-0.19 -0.23,-0.02 -0.35,0.01 -0.56,0.12l-0.09 -0.08 -0.02 0.01z"/>
  <path class="fil85" d="M26.97 23.56c-0.03,0 -0.05,0 -0.07,0 -0.13,-0.01 -0.19,-0.06 -0.29,-0.14 -0.13,-0.1 -0.17,-0.17 -0.17,-0.26 0,-0.03 0,-0.06 0,-0.08 0.02,-0.08 0.04,-0.16 0.06,-0.25 0.03,0.03 0.09,0.05 0.17,0.05 0.2,0 0.48,-0.09 0.59,-0.21 0,0 0,0 -0.01,-0.01 0.03,0.03 0.05,0.06 0.07,0.09 0.03,0.02 0.05,0.05 0.07,0.08 0.04,0.05 0.08,0.1 0.12,0.15 0.02,0.04 0.03,0.08 0.03,0.13 0.01,0.07 0,0.15 -0.02,0.2 -0.17,0.15 -0.24,0.22 -0.42,0.25 -0.03,0 -0.06,0 -0.09,0 -0.02,0 -0.03,0 -0.04,0z"/>
  <path class="fil86" d="M26.51 22.78l0 0c0.01,-0.01 0.01,-0.02 0.01,-0.03l0 0c0,0.01 0,0.02 -0.01,0.03z"/>
  <path class="fil87" d="M26.5 22.83l0 0c0,-0.01 0.01,-0.03 0.01,-0.05l0 0c0,0.02 -0.01,0.04 -0.01,0.05z"/>
  <g style="clip-path:url(#id1)">
   <image x="26.5" y="22.67" width="0.04" height="0.08" xlink:href="Project_Loan_Images\Project_Loan_ImgID2.png"/>
  </g>
  <path class="fil88" d="M26.53 22.68c0,0 0,-0.01 0,-0.01l0 0c0,0 0,0.01 0,0.01l0 0z"/>
  <g style="clip-path:url(#id2)">
   <image x="27.18" y="22.58" width="0.08" height="0.09" xlink:href="Project_Loan_Images\Project_Loan_ImgID3.png"/>
  </g>
  <g style="clip-path:url(#id3)">
   <image x="26.49" y="22.58" width="0.78" height="0.31" xlink:href="Project_Loan_Images\Project_Loan_ImgID4.png"/>
  </g>
  <path class="fil89" d="M22.48 23.29c0.03,-0.14 0.1,-0.23 0.21,-0.29 0.17,-0.1 0.41,-0.12 0.63,-0.21 0.13,-0.05 0.25,-0.12 0.34,-0.23 -0.02,0.03 -0.05,0.05 -0.08,0.08 0.13,0.04 0.25,0.06 0.36,0.06 0.19,0 0.35,-0.05 0.44,-0.12 0.04,0.08 0.07,0.14 0.1,0.21 0,0.02 0,0.04 0.01,0.06 0.01,0.06 0,0.12 -0.02,0.18 -0.04,0.14 -0.15,0.25 -0.33,0.25l-1.66 0.01zm1.18 -0.73c0,0 0,0 0,0 0,0 0,0 0,0zm0 0c0.01,-0.01 0.01,-0.01 0.01,-0.01 0,0 0,0 -0.01,0.01zm0.01 -0.01c0,0 0,0 0,0 0,0 0,0 0,0zm0 0c0,0 0,0 0,0 0,0 0,0 0,0zm0 0c0,0 0,0 0,0 0,0 0,0 0,0zm0 0c0,0 0,-0.01 0,-0.01 0,0 0,0.01 0,0.01zm0 -0.01c0,0 0,0 0,0 0,0 0,0 0,0zm0.01 0c0,0 0,0 0,0 0,0 0,0 0,0zm0 0c0,0 0,0 0,0 0,0 0,0 0,0zm0 0c0,0 0,0 0,0 0,0 0,0 0,0zm0 0c0,0 0,0 0,0 0,0 0,0 0,0zm0 -0.01c0,0 0,0 0,0 0,0 0,0 0,0zm0 0c0,0 0,0 0,0 0,0 0,0 0,0zm0 0c0,0 0,0 0,0 0,0 0,0 0,0zm0 0c0,0 0,0 0,0 0,0 0,0 0,0zm0.01 0c0,0 0,0 0,0 0,0 0,0 0,0zm0 0c0,0 0,0 0,0 0,0 0,0 0,0zm0 -0.01c0,0 0,0 0,0 0,0 0,0 0,0zm0 0c0,0 0,0 0,0 0,0 0,0 0,0zm0 0c0,0 0,0 0,0 0,0 0,0 0,0zm0 0c0,0 0,0 0,0 0,0 0,0 0,0zm0 0c0,0 0,0 0,0 0,0 0,0 0,0zm0 0c0.01,-0.01 0.01,-0.01 0.01,-0.01 0,0 0,0 -0.01,0.01zm0.01 -0.01c0,0 0,0 0,0 0,0 0,0 0,0zm0 0c0,0 0,0 0,0 0,0 0,0 0,0zm0 0c0,0 0,0 0,0 0,0 0,0 0,0zm0 0c0,0 0,0 0,0 0,0 0,0 0,0zm0 0c0,0 0,0 0,0 0,0 0,0 0,0zm0 -0.01c0,0 0,0 0,0 0,0 0,0 0,0zm0.01 0c0,0 0,0 0,0 0,0 0,0 0,0zm0 0c0,0 0,0 0,0 0,0 0,0 0,0zm0 0c0,0 0,0 0,0 0,0 0,0 0,0zm0 -0.01c0,0 0,0 0,0 0,0 0,0 0,0zm0 0l0 0 0 0zm0 0c0,0 0,0 0,0 0,0 0,0 0,0zm0 0c0,0 0,0 0,0 0,0 0,0 0,0zm0 0c0,0 0,0 0,0 0,0 0,0 0,0zm0 -0.01c0.01,0 0.01,0 0.01,0 0,0 0,0 -0.01,0zm0.01 0c0,0 0,0 0,0 0,0 0,0 0,0zm0 0c0,0 0,0 0,0 0,0 0,0 0,0zm0 0c0,0 0,0 0,0 0,0 0,0 0,0zm0 0c0,0 0,0 0,0 0,0 0,0 0,0zm0 -0.01l0 0 0 0zm0 0c0,0 0,0 0,0 0,0 0,0 0,0zm0 0c0,0 0,0 0,0 0,0 0,0 0,0zm0 0c0,0 0,0 0,0 0,0 0,0 0,0z"/>
  <path class="fil90" d="M24.38 22.58c-0.01,-0.03 -0.02,-0.07 -0.03,-0.1l0 0c0.01,0.03 0.02,0.07 0.03,0.1l0 0zm-0.72 -0.02l0 0 0 0zm0 0c0,0 0,0 0,0 0,0 0,0 0,0zm0.01 -0.01c0,0 0,0 0,0 0,0 0,0 0,0zm0 0c0,0 0,0 0,0 0,0 0,0 0,0zm0 0c0,0 0,0 0,0 0,0 0,0 0,0zm0 0c0,0 0,0 0,0 0,0 0,0 0,0zm0 -0.01c0,0 0,0 0,0 0,0 0,0 0,0zm0 0c0,0 0.01,0 0.01,0 0,0 -0.01,0 -0.01,0zm0.01 0c0,0 0,0 0,0 0,0 0,0 0,0zm0 0c0,0 0,0 0,0 0,0 0,0 0,0zm0 0c0,0 0,0 0,0 0,0 0,0 0,0zm0 0c0,0 0,-0.01 0,-0.01 0,0 0,0.01 0,0.01zm0 -0.01c0,0 0,0 0,0 0,0 0,0 0,0zm0 0c0,0 0,0 0,0 0,0 0,0 0,0zm0 0c0,0 0,0 0,0 0,0 0,0 0,0zm0 0c0.01,0 0.01,0 0.01,0 0,0 0,0 -0.01,0zm0.01 0c0,0 0,0 0,0 0,0 0,0 0,0zm0 0c0,-0.01 0,-0.01 0,-0.01 0,0 0,0 0,0.01zm0 -0.01c0,0 0,0 0,0 0,0 0,0 0,0zm0 0c0,0 0,0 0,0 0,0 0,0 0,0zm0 0c0,0 0,0 0,0 0,0 0,0 0,0zm0 0c0,0 0,0 0,0 0,0 0,0 0,0zm0 0c0,0 0,0 0,0 0,0 0,0 0,0zm0.01 -0.01c0,0 0,0 0,0 0,0 0,0 0,0zm0 0c0,0 0,0 0,0 0,0 0,0 0,0zm0 0c0,0 0,0 0,0 0,0 0,0 0,0zm0 0c0,0 0,0 0,0 0,0 0,0 0,0zm0 0c0,0 0,0 0,0 0,0 0,0 0,0zm0 0c0,-0.01 0,-0.01 0,-0.01 0,0 0,0 0,0.01zm0 -0.01c0,0 0,0 0.01,0 -0.01,0 -0.01,0 -0.01,0zm0.01 0c0,0 0,0 0,0 0,0 0,0 0,0zm0 0c0,0 0,0 0,0 0,0 0,0 0,0zm0 0c0,0 0,-0.01 0,-0.01 0,0 0,0.01 0,0.01zm0 -0.01c0,0 0,0 0,0 0,0 0,0 0,0zm0 0c0,0 0,0 0,0 0,0 0,0 0,0zm0 0c0,0 0,0 0,0 0,0 0,0 0,0zm0 0c0,0 0,0 0,0 0,0 0,0 0,0zm0 0c0,0 0,-0.01 0,-0.01 0,0 0,0.01 0,0.01zm0.01 -0.01c0,0 0,0 0,0 0,0 0,0 0,0zm0 0c0,0 0,0 0,0 0,0 0,0 0,0zm0 0c0,0 0,0 0,0 0,0 0,0 0,0zm0 0c0,0 0,0 0,0 0,0 0,0 0,0zm0 0c0,0 0,-0.01 0,-0.01 0,0 0,0.01 0,0.01zm0 -0.01c0,0 0,0 0,0 0,0 0,0 0,0zm0 0c0,0 0,0 0,0 0,0 0,0 0,0zm0 0c0,0 0,0 0,0 0,0 0,0 0,0zm0 0c0,0 0,0 0,0l0 0c0,0 0,0 0,0z"/>
  <g style="clip-path:url(#id4)">
   <image x="23.57" y="22.45" width="0.83" height="0.26" xlink:href="Project_Loan_Images\Project_Loan_ImgID5.png"/>
  </g>
  <path class="fil91" d="M24.06 22.52c-0.11,0 -0.22,-0.02 -0.34,-0.05l0 0c-0.02,-0.01 -0.05,-0.02 -0.07,-0.03 -0.06,-0.54 -0.13,-1.11 -0.2,-1.68 -0.01,-0.13 -0.02,-0.25 -0.04,-0.37 -0.15,-1.31 -0.28,-2.65 -0.29,-3.88 -0.01,-0.34 0,-0.63 0.03,-0.9 0.25,0.18 0.53,0.3 0.81,0.39 -0.01,0.46 -0.01,0.99 -0.01,1.29 0.02,1.69 0.28,3.48 0.49,5.16 -0.03,0.01 -0.06,0.02 -0.09,0.03l0 0c-0.09,0.02 -0.19,0.04 -0.29,0.04zm0.48 -3.39c0,0 0,0 0,0 0,0 0,0 0,0zm0 -0.01c0,0 0,0 0,0 0,0 0,0 0,0zm0 0c0,0 0,0 0,-0.01 0,0.01 0,0.01 0,0.01zm0 -0.01c0.01,-0.14 0.02,-0.28 0.03,-0.41 -0.01,0.05 -0.01,0.1 -0.01,0.15 -0.01,0.01 -0.01,0.03 -0.01,0.05 0,0.01 0,0.03 0,0.04 0,0.05 -0.01,0.09 -0.01,0.14 0,0.01 0,0.02 0,0.03zm0.03 -0.41c0,-0.01 0,-0.02 0,-0.02 0,0 0,0.01 0,0.02zm0 -0.03c0,0 0,0 0,0 0,0 0,0 0,0zm0 0c0,0 0,-0.01 0,-0.01 0,0 0,0.01 0,0.01zm0 -0.01c0,0 0,0 0,0 0,0 0,0 0,0zm0 -0.01c0,0 0,0 0,0 0,0 0,0 0,0zm0 0c0,-0.01 0,-0.01 0,-0.01 0,0 0,0 0,0.01zm0 -0.01c0,0 0,0 0,0 0,0 0,0 0,0zm0 -0.01c0,0 0,0 0,0 0,0 0,0 0,0z"/>
  <path class="fil92" d="M24.51 19.82l0 0c0.01,-0.23 0.02,-0.46 0.03,-0.68 0,0 0,-0.01 0,-0.01 0,0 0,0.01 0,0.01 -0.01,0.22 -0.02,0.45 -0.03,0.68z"/>
  <path class="fil93" d="M24.54 19.13c0,0 0,0 0,-0.01 0,0.01 0,0.01 0,0.01zm0 -0.01c0,0 0,0 0,0 0,0 0,0 0,0zm0 -0.01c0,0 0,0 0,0 0,0 0,0 0,0z"/>
  <path class="fil94" d="M24.57 18.7l0 0c0,0 0,0 0,0zm0 -0.02c0,0 0,-0.01 0,-0.01 0,0 0,0.01 0,0.01zm0 -0.01c0,0 0,0 0,0 0,0 0,0 0,0zm0 -0.01c0,0 0,0 0,0 0,0 0,0 0,0zm0 0c0,0 0,-0.01 0,-0.01 0,0 0,0.01 0,0.01zm0 -0.01c0,0 0,0 0,0 0,0 0,0 0,0zm0 -0.01c0,0 0,0 0,0 0,0 0,0 0,0zm0 0c0,0 0,-0.01 0,-0.01 0,0 0,0.01 0,0.01z"/>
  <path class="fil95" d="M24.64 17.91l0 0c0,-0.05 0.01,-0.09 0.01,-0.14l0 0c0,0.05 -0.01,0.09 -0.01,0.14z"/>
  <g style="clip-path:url(#id5)">
   <image x="24.62" y="17.9" width="0.03" height="0.1" xlink:href="Project_Loan_Images\Project_Loan_ImgID6.png"/>
  </g>
  <path class="fil96" d="M24.57 18.63c0.02,-0.22 0.04,-0.43 0.06,-0.64l0 0c-0.02,0.21 -0.04,0.42 -0.06,0.64z"/>
  <g style="clip-path:url(#id6)">
   <image x="23.94" y="15.99" width="0.73" height="6.47" xlink:href="Project_Loan_Images\Project_Loan_ImgID7.png"/>
  </g>
  <path class="fil97" d="M26.74 22.69c-0.08,0 -0.15,-0.01 -0.21,-0.02 -0.02,-0.01 -0.03,-0.01 -0.05,-0.02 -0.05,-0.12 -0.1,-0.23 -0.15,-0.35 -0.01,-0.03 -0.02,-0.05 -0.03,-0.08 -0.2,-0.49 -0.36,-0.97 -0.53,-1.46 -0.11,-0.31 -0.21,-0.63 -0.33,-0.94 -0.05,-0.14 -0.1,-0.29 -0.15,-0.43 -0.07,-0.17 -0.14,-0.35 -0.21,-0.52 -0.12,-0.32 -0.25,-0.64 -0.37,-0.96 -0.02,-0.05 -0.04,-0.09 -0.06,-0.14l0 0c-0.23,-0.6 -0.46,-1.19 -0.68,-1.77 0.26,0.07 0.53,0.11 0.8,0.11 0.4,0 0.8,-0.08 1.17,-0.21 0.01,0.03 0.01,0.05 0.02,0.08 0.01,0.02 0.02,0.05 0.03,0.07 0.01,0.04 0.02,0.08 0.03,0.13 0,0 0,0 0,0 0.04,0.14 0.14,0.59 0.16,0.71 0,0 0,0 0,0 0.01,0.03 0.01,0.06 0.02,0.08 0.05,0.32 0.09,0.63 0.13,0.94 0.02,0.2 0.05,0.39 0.09,0.59 0.02,0.12 0.04,0.25 0.06,0.37 0.06,0.31 0.12,0.63 0.18,0.95 0.07,0.33 0.14,0.66 0.21,0.99 0.08,0.31 0.15,0.63 0.23,0.95 0.01,0.02 0.01,0.04 0.02,0.06 0.02,0.07 0.04,0.14 0.05,0.21 0.05,0.16 0.09,0.33 0.14,0.49 -0.04,0.03 -0.07,0.05 -0.11,0.07 -0.14,0.07 -0.32,0.1 -0.46,0.1zm-0.21 -0.02l0 0zm-0.51 -6.49l0 0zm0.16 0.71l0 0zm1.02 5.7l0 0z"/>
  <path class="fil98" d="M26.18 16.89c0,0 0,0 0,0 0,0 0,0 0,0 0,0 0,0 0,0zm0.02 -0.02c0,-0.01 0.01,-0.01 0.01,-0.01 0,0 -0.01,0 -0.01,0.01zm0.01 -0.01c0.04,-0.04 0.07,-0.09 0.11,-0.14 0,-0.15 0,-0.31 -0.01,-0.5 0.53,-1.23 0.44,-1.96 -0.26,-2.62l0 0c-0.05,-0.06 -0.1,-0.12 -0.15,-0.18 -0.03,0.23 -0.05,0.44 -0.06,0.63 -0.02,0.35 -0.01,0.66 0.01,0.97 0.02,0.28 0.06,0.56 0.1,0.87 0,0 -0.01,0.01 -0.01,0.01 -0.37,0.13 -0.77,0.21 -1.17,0.21 -0.27,0 -0.54,-0.04 -0.8,-0.11 -0.01,0 -0.01,0 -0.01,0 -0.28,-0.09 -0.56,-0.21 -0.81,-0.39 -0.02,-0.02 -0.03,-0.03 -0.05,-0.04 0.04,-0.28 0.07,-0.54 0.08,-0.78l0 0c0.05,-0.58 0.04,-1.11 -0.01,-1.77 -0.03,-0.34 0.05,-0.68 0.17,-0.94 0.09,-0.17 0.19,-0.31 0.32,-0.42 0.05,-0.05 0.12,-0.09 0.19,-0.13 0.19,-0.1 0.43,-0.15 0.72,-0.15 0.1,0 0.2,0.01 0.31,0.02 0.37,0.04 0.78,0.17 1.12,0.42 0.58,0.42 1.17,1.37 1.34,2.04 0.01,0.06 0.02,0.12 0.03,0.19 0.06,0.32 0.04,0.64 -0.05,0.97 -0.09,0.31 -0.25,0.63 -0.46,0.96 -0.18,0.28 -0.39,0.57 -0.65,0.88zm-0.19 -0.68l0 0c0,0 0,0 0,0 0,0 0.01,0 0.01,0 -0.01,0 -0.01,0 -0.01,0zm0.01 0c0,0 0,0 0,0 0,0 0,0 0,0zm0 -0.01c0,0 0,0 0,0 0,0 0,0 0,0zm0 0c0,0 0,0 0,0 0,0 0,0 0,0zm0 0c0,0 0,0 0,0 0,0 0,0 0,0zm0 0c0,0 0,-0.01 0,-0.01 0,0 0,0.01 0,0.01zm0 -0.01c0,0 0,0 0,0 0,0 0,0 0,0zm0.01 0c0,0 0,0 0,0 0,0 0,0 0,0zm0 0c0,0 0,0 0,0 0,0 0,0 0,0zm0 -0.01c0,0 0,0 0,0 0,0 0,0 0,0z"/>
  <g style="clip-path:url(#id7)">
   <image x="26.17" y="16.85" width="0.05" height="0.05" xlink:href="Project_Loan_Images\Project_Loan_ImgID8.png"/>
  </g>
  <path class="fil99" d="M26.03 16.18c0,0 0,0 0,0 0,0 0,0 0,0zm0 0c0,0 0,-0.01 0,-0.01 0,0 0,0.01 0,0.01zm0 -0.01c0,0 0,0 0,0 0,0 0,0 0,0zm0 0c0,0 0,0 0,0 0,0 0,0 0,0zm0 0c0,0 0,0 0,0 0,0 0,0 0,0zm0 -0.01c0,0 0,0 0,0 0,0 0,0 0,0zm0 0c0,0 0.01,0 0.01,0 0,0 -0.01,0 -0.01,0zm0.01 0c0,0 0,0 0,0 0,0 0,0 0,0zm0 0c0,0 0,-0.01 0,-0.01 0,0 0,0.01 0,0.01z"/>
  <path class="fil100" d="M26.31 14.05l0 0c-0.06,-0.15 -0.15,-0.3 -0.26,-0.45l0 0c0.11,0.15 0.2,0.3 0.26,0.45z"/>
  <g style="clip-path:url(#id8)">
   <image x="26.3" y="14.04" width="0.19" height="0.99" xlink:href="Project_Loan_Images\Project_Loan_ImgID9.png"/>
  </g>
  <g style="clip-path:url(#id9)">
   <image x="26.11" y="15" width="0.34" height="1" xlink:href="Project_Loan_Images\Project_Loan_ImgID10.png"/>
  </g>
  <path class="fil101" d="M26.2 15.82l0 0c0.11,-0.25 0.19,-0.49 0.23,-0.72l0 0c-0.04,0.23 -0.12,0.47 -0.23,0.72z"/>
  <g style="clip-path:url(#id10)">
   <image x="26.09" y="15.97" width="0.04" height="0.07" xlink:href="Project_Loan_Images\Project_Loan_ImgID11.png"/>
  </g>
  <path class="fil102" d="M26.04 16.15c0.02,-0.04 0.04,-0.08 0.06,-0.11l0 0c-0.02,0.03 -0.04,0.07 -0.06,0.11z"/>
  <g style="clip-path:url(#id11)">
   <image x="26.01" y="13.59" width="0.85" height="3.32" xlink:href="Project_Loan_Images\Project_Loan_ImgID12.png"/>
  </g>
  <path class="fil103" d="M25.11 11.01c0.01,0.17 0.02,0.3 0.05,0.47 -0.07,0.26 -0.3,0.47 -0.54,0.43 -0.2,-0.03 -0.27,-0.34 -0.2,-0.52 0.01,-0.08 0.01,-0.15 0.02,-0.23l0.52 -0.16 0.15 0.01z"/>
  <path class="fil104" d="M25.11 11.01c0.01,0.05 0.01,0.09 0.01,0.14 -0.22,0.25 -0.51,0.29 -0.7,0.24 0.01,-0.08 0.01,-0.15 0.02,-0.23l0.52 -0.16 0.15 0.01z"/>
  <path class="fil105" d="M25.23 10.95c0.12,0.05 0.16,0.01 0.21,-0.07 0.05,-0.08 0.04,-0.06 0.11,-0.12 0.03,-0.03 0.06,-0.06 0.08,-0.09 0.06,-0.1 0.05,-0.17 0.07,-0.26 0.02,-0.1 0.07,-0.14 0.11,-0.2 0.15,-0.32 -0.08,-0.66 -0.42,-0.57 -0.08,-0.22 -0.26,-0.26 -0.44,-0.2 -0.17,-0.15 -0.35,-0.17 -0.51,-0.05 -0.3,0.24 -0.12,0.58 0.03,0.69l0.48 0.49 0.28 0.38z"/>
  <path class="fil106" d="M25.23 10.95c0.12,0.05 0.16,0.01 0.21,-0.07 0.05,-0.08 0.04,-0.06 0.11,-0.12 0.03,-0.03 0.06,-0.06 0.08,-0.09 0.06,-0.1 0.05,-0.17 0.07,-0.26l0 0c-0.11,0.12 -0.29,0.12 -0.27,-0.08 -0.07,-0.09 -0.11,-0.18 -0.1,-0.28 0,-0.13 -0.04,-0.21 -0.18,-0.2 -0.34,0.04 -0.64,0.15 -0.87,-0.17 -0.01,0.17 0.09,0.33 0.19,0.4l0.48 0.49 0.28 0.38z"/>
  <path class="fil107" d="M24.42 10.02c-0.09,0.34 -0.21,0.68 -0.14,1.03 0.03,0.12 0.09,0.21 0.28,0.2 0.13,0 0.27,-0.03 0.4,-0.06 0.19,-0.04 0.18,-0.11 0.22,-0.17 0.02,-0.02 0.04,-0.05 0.08,-0.07 0.08,-0.07 0.21,-0.1 0.24,-0.22 0.02,-0.1 -0.05,-0.18 -0.1,-0.11 -0.08,0.09 -0.25,0.24 -0.04,-0.28 -0.1,-0.1 -0.11,-0.14 -0.12,-0.24 -0.02,-0.09 -0.03,-0.16 -0.15,-0.13 -0.23,0.08 -0.44,0.15 -0.67,0.05z"/>
  <path class="fil103" d="M24.42 10.02c-0.01,0.04 -0.02,0.07 -0.03,0.1 0.32,0.12 0.51,0.01 0.75,-0.09 0.05,0.15 0.06,0.19 0.15,0.31 -0.01,0.04 -0.09,0.24 -0.08,0.35 0,0.09 0.05,0.08 0.11,0.04 0.04,-0.03 0.14,-0.17 0.18,-0.06 -0.01,-0.07 -0.06,-0.1 -0.1,-0.05 -0.08,0.09 -0.25,0.24 -0.04,-0.28 -0.1,-0.1 -0.11,-0.14 -0.12,-0.24 -0.02,-0.09 -0.03,-0.16 -0.15,-0.13 -0.23,0.08 -0.44,0.15 -0.67,0.05z"/>
  <path class="fil108" d="M24.67 12.22l-0.09 2.13 -0.38 0.48 -0.25 -0.57 0.58 -2.08c-0.06,-0.18 -0.04,-0.22 -0.01,-0.24 0.04,-0.03 0,-0.04 0.13,-0.02 0.09,0.01 0.18,0.02 0.17,0.11 -0.01,0.07 -0.08,0.13 -0.15,0.19z"/>
  <path class="fil109" d="M25.15 11.4c0.08,0.02 0.14,0.05 0.15,0.09 0.04,0.17 -0.24,0.64 -0.43,0.68 -0.06,-0.12 -0.12,-0.18 -0.23,-0.26 0.31,-0.09 0.48,-0.24 0.51,-0.51z"/>
  <path class="fil109" d="M24.42 11.39c-0.06,0.01 -0.11,0.05 -0.12,0.06 -0.08,0.09 -0.07,0.46 0.06,0.67 0.1,-0.1 0.2,-0.16 0.29,-0.21 -0.27,-0.16 -0.26,-0.35 -0.23,-0.52z"/>
  <path class="fil110" d="M12.27 22.97c-0.06,0.08 -0.1,0.18 -0.11,0.26 -0.03,0.19 0.09,0.38 0.32,0.39 0.5,0.02 0.94,0.03 1.44,0.03 0.07,0 0.06,-0.07 0.06,-0.08 -0.13,-0.39 -0.74,-0.25 -1.08,-0.6 -0.16,-0.16 -0.51,-0.18 -0.63,0z"/>
  <path class="fil103" d="M13.1 22.37c-0.06,0.19 -0.17,0.42 -0.22,0.61 -0.05,0.18 -0.59,0.18 -0.54,0.01 0.05,-0.15 0.07,-0.31 0.12,-0.46l0.64 -0.16z"/>
  <path class="fil111" d="M12.65 22.91c-0.09,0 -0.19,-0.01 -0.27,-0.05 -0.04,-0.02 -0.07,-0.04 -0.1,-0.07 0,0 0,0 0,0 0,-0.01 0.01,-0.02 0.01,-0.04 0.56,-1.79 1.01,-3.64 1.2,-5.42 0.01,-0.02 0.01,-0.04 0.01,-0.06 0.03,-0.29 0.06,-0.54 0.13,-0.82 0,-0.01 0,-0.02 0,-0.03 0.24,0.12 0.47,0.22 0.7,0.29 -0.09,1.01 -0.19,1.97 -0.42,2.87 -0.2,0.75 -0.61,1.7 -0.94,3.29l0 0c-0.02,0 -0.04,0.01 -0.06,0.01 -0.08,0.02 -0.17,0.03 -0.26,0.03z"/>
  <g style="clip-path:url(#id12)">
   <image x="12.96" y="16.7" width="2.34" height="6.18" xlink:href="Project_Loan_Images\Project_Loan_ImgID13.png"/>
  </g>
  <path class="fil112" d="M14.56 22.97c-0.05,0.08 -0.1,0.18 -0.11,0.26 -0.02,0.19 0.09,0.38 0.32,0.39 0.5,0.02 0.95,0.03 1.45,0.03 0.07,0 0.05,-0.07 0.05,-0.08 -0.12,-0.39 -0.74,-0.25 -1.08,-0.6 -0.16,-0.16 -0.51,-0.18 -0.63,0z"/>
  <path class="fil103" d="M15.19 22.37c-0.01,0.19 -0.04,0.37 -0.04,0.56 0,0.17 -0.51,0.24 -0.51,0.07 0.01,-0.15 0,-0.3 0.01,-0.45l0.54 -0.18z"/>
  <path class="fil113" d="M14.47 15.94c-0.11,0.46 -0.17,0.84 -0.1,1.25 0.32,1.86 0.32,3.69 0.17,5.59 0.19,0.16 0.48,0.17 0.67,0.07 0.46,-2.61 1.03,-3.8 0.86,-6.67l-1.6 -0.24z"/>
  <path class="fil114" d="M18.47 11.98c-0.12,-0.14 -0.16,-0.19 -0.31,-0.29 0.05,-0.06 0.09,-0.11 0.15,-0.2 0.12,-0.19 0.27,-0.31 0.41,-0.39 0.05,-0.03 0.09,-0.05 0.12,-0.05 0.06,0 0.05,0.07 -0.05,0.19 -0.03,0.04 -0.07,0.08 -0.12,0.14 0.21,-0.07 0.23,-0.14 0.4,-0.31 0.07,-0.07 0.12,-0.15 0.14,-0.16 0.02,-0.01 0.04,-0.01 0.06,-0.01 0.11,0 0.25,0.07 0.27,0.16 0.01,0.1 -0.27,0.45 -0.36,0.54 -0.15,0.15 -0.23,0.23 -0.34,0.24 -0.21,0.04 -0.21,0.05 -0.37,0.14z"/>
  <path class="fil115" d="M17.14 12.93c-0.21,0 -0.45,-0.09 -0.8,-0.29 0,0 0,0 0,0 0.07,0.01 0.14,0.01 0.21,0.01 0.13,0 0.25,-0.01 0.36,-0.05 0.06,-0.02 0.12,-0.04 0.18,-0.07 0.31,-0.17 0.6,-0.49 1.05,-0.86 0.01,0 0.01,0.01 0.02,0.02 0.15,0.1 0.19,0.15 0.31,0.29 0.01,0 0.01,0.01 0.02,0.01l0 0c-0.67,0.62 -0.96,0.94 -1.35,0.94zm-0.8 -0.29c0,0 -0.01,0 -0.01,0 0,0 0.01,0 0.01,0z"/>
  <path class="fil116" d="M16.7 13.48l0 0c0.55,-0.13 0.9,-0.36 1.33,-0.88l0 0c-0.43,0.52 -0.78,0.75 -1.33,0.88zm-0.36 -0.84c0,0 0,0 0,0 0,0 0,0 0,0z"/>
  <path class="fil117" d="M16.09 12.6l0 0c-0.09,-0.02 -0.18,-0.04 -0.28,-0.06l0 0c0.1,0.02 0.19,0.04 0.28,0.06z"/>
  <path class="fil118" d="M16.33 12.64c-0.07,-0.01 -0.15,-0.02 -0.24,-0.04l0 0c0.09,0.02 0.17,0.03 0.24,0.04z"/>
  <g style="clip-path:url(#id13)">
   <image x="15.8" y="11.98" width="2.7" height="1.6" xlink:href="Project_Loan_Images\Project_Loan_ImgID14.png"/>
  </g>
  <path class="fil119" d="M15.35 11.81c-0.03,0.17 -0.08,0.34 0.02,0.57l-0.98 0.01c0.33,-0.31 0.35,-0.5 0.35,-0.79l0.36 0.08 0.25 0.13z"/>
  <path class="fil120" d="M15.63 10.64c0.15,0.2 0.25,0.65 0.2,1 -0.02,0.11 -0.03,0.26 -0.11,0.3 -0.09,0.05 -0.22,0.03 -0.43,0.01 -0.29,-0.04 -0.26,-0.11 -0.41,-0.38l-0.26 -0.63 0.53 -0.52 0.48 0.22z"/>
  <path class="fil103" d="M15.63 10.64c0.02,0.03 0.04,0.07 0.06,0.11 -0.08,0.05 -0.13,0.06 -0.29,0.04 -0.02,0.17 -0.1,0.57 -0.29,0.52 -0.04,0 -0.08,-0.05 -0.11,-0.08 -0.05,-0.02 -0.11,-0.01 -0.08,0.08 0.07,0.24 0.13,0.28 0.05,0.44 -0.02,-0.05 -0.05,-0.11 -0.09,-0.18l-0.26 -0.63 0.53 -0.52 0.48 0.22z"/>
  <path class="fil121" d="M15.34 10.73c0.47,0.06 0.54,-0.24 0.43,-0.46 -0.14,-0.28 -0.55,-0.47 -0.82,-0.03 -0.2,-0.1 -0.28,-0.08 -0.37,0.15 -0.36,-0.09 -0.49,0.24 -0.4,0.54 0.08,0.29 0.28,0.47 0.45,0.68 0.05,0.07 0.1,0.14 0.14,0.21 0.11,-0.03 0.14,-0.08 0.16,-0.16 0.01,-0.06 -0.06,-0.25 -0.07,-0.37 -0.01,-0.1 0.05,-0.17 0.15,-0.11 0.03,0.02 0.05,0.07 0.1,0.11 0.22,-0.13 0.2,-0.33 0.23,-0.56z"/>
  <path class="fil106" d="M15.34 10.73c0.47,0.06 0.54,-0.24 0.43,-0.46 0,-0.01 0,-0.01 -0.01,-0.02 -0.01,0.2 -0.13,0.31 -0.32,0.3 -0.21,-0.01 -0.28,0.01 -0.31,0.28 -0.02,0.14 -0.04,0.23 -0.13,0.21 -0.19,-0.05 -0.3,0.04 -0.3,0.27 0,0.11 -0.04,0.2 -0.12,0.23 0.02,0.02 0.03,0.05 0.05,0.07 0.05,0.07 0.09,0.15 0.1,0.24 0.33,-0.11 0.16,-0.33 0.13,-0.56 -0.01,-0.1 0.05,-0.17 0.15,-0.11 0.03,0.02 0.05,0.07 0.1,0.11 0.22,-0.13 0.2,-0.33 0.23,-0.56z"/>
  <path class="fil122" d="M15.35 16.86c-0.02,0 -0.04,0 -0.06,0l0 0c-0.32,-0.01 -0.64,-0.06 -0.96,-0.15 -0.23,-0.07 -0.46,-0.17 -0.7,-0.29 0,0 0,-0.01 -0.01,-0.01 0.05,-0.32 0.08,-0.66 0.11,-1.01 0.03,-0.3 0.05,-0.6 0.06,-0.87 0.03,-0.49 0.05,-0.89 0.08,-1.03 0,-0.01 0,-0.02 0,-0.02 0.06,-0.33 0.11,-0.61 0.29,-0.88 0.1,-0.15 0.24,-0.31 0.44,-0.47 0.47,0.04 0.83,0 1.2,0.4 0,0 0.01,0.01 0.01,0.01l0 0c0.25,0.28 0.36,0.61 0.39,1.02l0 0c0.02,0.29 0.01,0.61 -0.01,0.97 -0.02,0.23 -0.04,0.47 -0.06,0.74 0,0.03 -0.01,0.07 -0.01,0.11 0,-0.08 0,-0.16 -0.01,-0.21 -0.06,-0.46 -0.15,-0.95 -0.23,-1.39 -0.33,-0.24 -0.42,-0.38 -0.68,-0.6 -0.21,1.52 0.55,1.98 0.9,2.98 -0.01,-0.07 -0.01,-0.19 0,-0.31 0,0.18 0,0.38 0,0.6 0,0.11 0.01,0.22 0.01,0.34 -0.25,0.04 -0.51,0.07 -0.76,0.07z"/>
  <path class="fil123" d="M16.1 15.85c0,-0.15 0.01,-0.3 0.02,-0.45l0 0c0,0.14 -0.01,0.31 -0.02,0.45z"/>
  <path class="fil124" d="M16.12 15.4l0 0c0,-0.01 0,-0.01 0,-0.02 0,0.01 0,0.01 0,0.02z"/>
  <g style="clip-path:url(#id14)">
   <image x="14.98" y="13.16" width="1.16" height="3" xlink:href="Project_Loan_Images\Project_Loan_ImgID15.png"/>
  </g>
  <path class="fil125" d="M18.35 15.15l-0.19 -0.38c0.19,-0.02 0.26,-0.03 0.44,-0.08 0.21,-0.07 0.41,-0.07 0.57,-0.04 0.19,0.03 0.17,0.11 -0.03,0.15 -0.06,0.01 -0.12,0.02 -0.19,0.03 0.21,0.09 0.27,0.05 0.5,0.02 0.1,-0.01 0.2,-0.04 0.21,-0.04 0.11,0.04 0.22,0.23 0.16,0.33 -0.05,0.09 -0.49,0.17 -0.61,0.18 -0.22,0.03 -0.33,0.04 -0.43,-0.02 -0.2,-0.12 -0.19,-0.09 -0.43,-0.15z"/>
  <path class="fil126" d="M18.4 14.72c-2.18,0.07 -1.93,-0.21 -2.19,-1.19 -0.09,-0.33 -0.16,-0.57 -0.27,-0.75 -0.41,-0.66 -0.82,-0.13 -0.76,0.48 0.03,0.3 0.08,0.55 0.21,1 0.49,1.51 1.66,1.19 3.06,0.96 0.04,-0.1 0.05,-0.34 -0.05,-0.5z"/>
  <path class="fil127" d="M8.25 1.8l3.85 0c0.27,0 0.49,0.24 0.49,0.53l-0.05 3.48c0,0.21 -0.25,0.35 -0.44,0.35l-3.85 0c-0.27,0 -0.49,-0.23 -0.49,-0.52l0 -3.31c0,-0.29 0.22,-0.53 0.49,-0.53z"/>
  <polygon class="fil128" points="8.14,5.19 8.73,5.19 8.73,4.03 8.14,4.03 "/>
  <polygon class="fil129" points="9,5.19 9.59,5.19 9.59,2.89 9,2.89 "/>
  <polygon class="fil130" points="9.85,5.19 10.44,5.19 10.44,3.68 9.85,3.68 "/>
  <polygon class="fil71" points="10.7,5.19 11.29,5.19 11.29,3.14 10.7,3.14 "/>
  <polygon class="fil131" points="11.55,5.19 12.14,5.19 12.14,2.26 11.55,2.26 "/>
  <path class="fil131" d="M8.14 5.39c1.35,0 2.7,0 4.05,0l0 0.17c-1.35,0 -2.7,0 -4.05,0l0 -0.17z"/>
  <path class="fil132" d="M23.6 3.56l0 0.01c0.04,0 0.51,0 0.56,0 0.18,0 0.36,-0.01 0.53,0.03 0.13,0.03 0.27,0.1 0.35,0.2 0.04,0.06 0.08,0.09 0.11,0.16 0.03,0.06 0.07,0.13 0.08,0.2l-1.47 0c-0.02,0.05 -0.14,0.32 -0.15,0.35l1.65 0.01c0.02,0.1 -0.05,0.31 -0.12,0.41 -0.09,0.11 -0.18,0.18 -0.32,0.23 -0.06,0.01 -0.26,0.06 -0.31,0.05 -0.01,0 0,0 -0.01,0 -0.03,0.01 -0.79,0 -0.81,0.01l0 0.47c0.08,0 0.17,0 0.25,0 0.08,0 0.16,0 0.24,0 0.41,0 0.65,0.02 0.89,0.35 0.14,0.19 0.32,0.58 0.43,0.8 0.02,0.04 0.31,0.63 0.33,0.67l0.62 0 -0.48 -0.97c-0.13,-0.26 -0.31,-0.62 -0.51,-0.83 -0.07,-0.07 -0.15,-0.14 -0.24,-0.18 -0.02,-0.01 -0.05,-0.02 -0.07,-0.04 0.01,0 0.03,-0.01 0.04,-0.01 0.19,-0.06 0.36,-0.17 0.48,-0.32 0.12,-0.17 0.18,-0.33 0.2,-0.54 0.01,-0.04 0.01,-0.08 0.01,-0.1l0.71 0 0.16 -0.35c0,-0.01 0,-0.01 -0.02,-0.01 -0.01,0 -0.02,0 -0.03,0l-0.17 0c-0.07,0 -0.15,0 -0.22,0 -0.1,0 -0.38,0.01 -0.45,0 -0.01,-0.01 -0.01,-0.07 -0.02,-0.09 -0.07,-0.33 -0.26,-0.49 -0.27,-0.5l1.02 0 0.12 -0.27c0.01,-0.02 0.03,-0.06 0.04,-0.09l-2.99 0 -0.15 0.34c0,0 0,0.01 0,0.01l-0.01 0z"/>
  <path class="fil133" d="M26.62 5.04l0 0c0.01,0 0.19,0 0.22,0 0.06,0 0.14,-0.01 0.2,0.01 0.05,0.01 0.11,0.04 0.14,0.08 0.02,0.02 0.03,0.04 0.05,0.06 0.01,0.03 0.02,0.06 0.03,0.08l-0.58 0c-0.01,0.02 -0.06,0.13 -0.06,0.14l0.65 0c0.01,0.05 -0.02,0.13 -0.05,0.17 -0.03,0.04 -0.07,0.07 -0.13,0.09 -0.02,0 -0.1,0.02 -0.12,0.02 0,0 0,0 0,0 -0.01,0 -0.31,0 -0.32,0l0 0.19c0.03,0 0.06,0 0.1,0 0.03,0 0.06,0 0.09,0 0.17,0 0.26,0.01 0.35,0.14 0.06,0.07 0.13,0.23 0.18,0.32 0,0.01 0.12,0.24 0.13,0.26l0.24 0 -0.19 -0.38c-0.05,-0.11 -0.12,-0.25 -0.2,-0.33 -0.03,-0.03 -0.06,-0.06 -0.09,-0.08 -0.01,0 -0.02,0 -0.03,-0.01 0,0 0.01,0 0.01,0 0.08,-0.03 0.14,-0.07 0.19,-0.13 0.05,-0.07 0.07,-0.13 0.08,-0.22 0,-0.01 0,-0.03 0.01,-0.04l0.28 0 0.06 -0.13c0,-0.01 0,-0.01 -0.01,-0.01 0,0 -0.01,0 -0.01,0l-0.07 0c-0.03,0 -0.06,0 -0.09,0 -0.03,0 -0.14,0.01 -0.17,0 -0.01,0 -0.01,-0.02 -0.01,-0.03 -0.03,-0.13 -0.1,-0.2 -0.11,-0.2l0.41 0 0.04 -0.11c0.01,0 0.02,-0.02 0.02,-0.03l-1.18 0 -0.06 0.13c0,0 0,0 0,0l0 0.01z"/>
  <path class="fil134" d="M22.17 2.61l0 0.01c0.02,0 0.2,0 0.22,0 0.07,0 0.15,-0.01 0.21,0.01 0.05,0.01 0.11,0.04 0.14,0.08 0.02,0.02 0.03,0.04 0.05,0.06 0.01,0.03 0.02,0.05 0.03,0.08l-0.58 0c-0.01,0.02 -0.06,0.13 -0.07,0.14l0.66 0c0.01,0.04 -0.02,0.13 -0.05,0.17 -0.03,0.04 -0.07,0.07 -0.13,0.09 -0.02,0 -0.1,0.02 -0.12,0.02 0,0 0,0 0,0 -0.01,0 -0.31,0 -0.32,0l0 0.19c0.03,0 0.06,0 0.1,0 0.03,0 0.06,0 0.09,0 0.17,0 0.26,0 0.35,0.14 0.06,0.07 0.13,0.22 0.17,0.31 0.01,0.02 0.13,0.25 0.13,0.27l0.25 0 -0.19 -0.39c-0.05,-0.1 -0.12,-0.24 -0.2,-0.33 -0.03,-0.02 -0.06,-0.05 -0.1,-0.07 0,0 -0.02,-0.01 -0.02,-0.01 0,0 0.01,0 0.01,-0.01 0.08,-0.02 0.14,-0.06 0.19,-0.12 0.05,-0.07 0.07,-0.13 0.08,-0.22 0,-0.01 0,-0.03 0.01,-0.04l0.27 0 0.07 -0.13c0,-0.01 0,-0.01 -0.01,-0.01 0,0 -0.01,0 -0.01,0l-0.07 0c-0.03,0 -0.06,0 -0.09,0 -0.03,0 -0.14,0 -0.17,0 -0.01,0 -0.01,-0.03 -0.01,-0.03 -0.03,-0.13 -0.1,-0.2 -0.11,-0.2l0.4 0 0.05 -0.11c0.01,-0.01 0.01,-0.02 0.02,-0.03l-1.18 0 -0.06 0.13c0,0 0,0 -0.01,0l0 0z"/>
 </g>
</svg>
