<?xml version="1.0" encoding="UTF-8"?>
<svg xmlns="http://www.w3.org/2000/svg" version="1.1" xmlns:xlink="http://www.w3.org/1999/xlink" viewBox="0 0 5000 4000">
  <!-- Generator: Adobe Illustrator 29.1.0, SVG Export Plug-In . SVG Version: 2.1.0 Build 142)  -->
  <defs>
    <style>
      .st0 {
        stroke-width: 7px;
      }

      .st0, .st1, .st2, .st3, .st4, .st5, .st6 {
        stroke-miterlimit: 10;
      }

      .st0, .st1, .st3, .st5 {
        fill: none;
        stroke-linecap: round;
      }

      .st0, .st3 {
        stroke: #acbcf8;
      }

      .st7, .st8, .st9, .st10, .st11, .st12 {
        fill: #fff;
      }

      .st7, .st13 {
        opacity: .2;
      }

      .st8 {
        mix-blend-mode: screen;
      }

      .st8, .st14 {
        opacity: 0;
      }

      .st9, .st15 {
        opacity: 0;
      }

      .st16 {
        fill: #7ac943;
      }

      .st17 {
        fill: #081956;
      }

      .st1 {
        stroke: #cdd7fb;
      }

      .st1, .st5 {
        stroke-width: 20px;
      }

      .st18 {
        fill: #0b2581;
      }

      .st19 {
        opacity: .3;
      }

      .st20 {
        fill: #86a4f7;
      }

      .st21 {
        fill: #de995f;
      }

      .st22 {
        fill: #fdb606;
      }

      .st11, .st23 {
        opacity: .5;
      }

      .st24, .st25 {
        fill: #040c2b;
      }

      .st24, .st26 {
        opacity: .1;
      }

      .st27 {
        fill: #fdc538;
      }

      .st28 {
        fill: #db965f;
      }

      .st29 {
        fill: #c9885b;
      }

      .st30 {
        fill: #1a2e35;
      }

      .st31 {
        fill: #040c2b;
      }

      .st32 {
        isolation: isolate;
      }

      .st2 {
        stroke: #040c2b;
        stroke-width: .5px;
      }

      .st2, .st33 {
        fill: #acbcf8;
      }

      .st34 {
        fill: #e3e9f7;
      }

      .st35 {
        fill: #829cf8;
      }

      .st36 {
        fill: #3f5abd;
      }

      .st37 {
        fill: #dee4fc;
      }

      .st38 {
        fill: #6288f4;
      }

      .st39 {
        fill: #fee29b;
      }

      .st3 {
        stroke-width: 17px;
      }

      .st12 {
        opacity: .8;
      }

      .st40 {
        fill: #0f31ac;
      }

      .st41 {
        mix-blend-mode: multiply;
      }

      .st42, .st6 {
        fill: #131a3f;
      }

      .st4 {
        fill: #9aaaf7;
      }

      .st4, .st6 {
        stroke: #131a3f;
        stroke-width: .9px;
      }

      .st43 {
        fill: #9bb0f9;
      }

      .st5 {
        stroke: #0f31ac;
        stroke-dasharray: 50 50 50 50 50 50;
      }

      .st44 {
        fill: #8fadef;
      }

      .st45 {
        fill: #758cfa;
      }

      .st46 {
        fill: #547ced;
      }

      .st47 {
        fill: #6275ba;
      }
    </style>
  </defs>
  <g class="st32">
    <g id="Background">
      <g class="st13">
        <g>
          <path class="st5" d="M1284.2,1141.9c-55.3-26-146.8,16.3-175.9,78.2-55.7,118.1,124.4,289.2,189.9,270.8,73.2-20.5,87.6-301.2-13.9-349Z"/>
          <path class="st5" d="M1007.6,1409.5c-19.7-11.4-228.8-132.4-347.1-36.6-83.1,67.2-83.9,210.9-21.4,291.6,123.6,159.9,507.1,88.2,546.9-26.2,26.8-77.1-99-182.9-178.3-228.7Z"/>
          <path class="st5" d="M1276.6,3384c508.9-126.3,1087.1-254.9,1985-233,502.1,12.2,615.9-143.6,996.5-337.3,339.2-172.7,505.8-516.1,403.5-710.7-103.3-196.5-417.9-118.2-675.6-410.7-117.4-133.2-96.7-226.6-164.5-374.3-214.5-467.7-1018.7-833.3-1415.2-639.8-523.9,255.6-76,1360-661.6,1661.6-370.4,190.8-650.4-175.5-1016.1,104.2-181.2,138.6-402.9,332.9-420,544,0,0-24,516,968,396Z"/>
        </g>
        <path class="st33" d="M4088.1,2809.3s-92.2,122.2-184.4,289.9c-83.1,151.2-146.3,355-160.3,525.1-39.1-1.9-82.1-3.6-128.6-5.2-275.3-9.8-672.8-15.9-1114.8-15.9s-947.4,7.9-1220.8,20.1c-9.4.4-18.6.8-27.6,1.3-341.3-423-1028.5-1159.9-396.1-1463.1,0,0,46.3-14.1,115.8-44.4,219.8-95.9,671.6-354.1,621.4-840.9,0,0-17.1-90.8-17.1-217.2,0-295.6,93.6-785.5,718.2-763.1,378.3,13.6,726.7,206.1,937.3,514.2,206.6,302.2,536.9,674,806,461.8,62.1-49,144.2-67.2,220.9-45.6,193.6,54.4,413.6,336-169.8,1583.2Z"/>
      </g>
      <path class="st24" d="M4590.5,3640.8c0,20-935.9,36.2-2090.5,36.2s-1233.3-5.2-1616.7-13.3c-88.3-1.9-166.1-3.9-231.7-6-43.3-1.4-81.3-2.9-113.6-4.4-83.1-3.9-128.5-8.1-128.5-12.5s73.7-10.9,205.2-15.7c53.9-1.9,117.4-3.8,189.6-5.5,379.7-9.1,997.8-15,1695.7-15s1166.1,4.6,1548.5,11.9c336.8,6.4,542,15,542,24.3Z"/>
    </g>
    <g id="Design">
      <g>
        <g>
          <path class="st37" d="M4490.4,2099.2h-199.8c-22.2,0-40.2-18-40.2-40.2v-174.3c0-22.2,18-40.2,40.2-40.2h199.8c22.2,0,40.2,18,40.2,40.2v174.3c0,22.2-18,40.2-40.2,40.2Z"/>
          <g>
            <rect class="st10" x="4300.6" y="1864.4" width="179.9" height="214.9" rx="9.3" ry="9.3"/>
            <rect class="st34" x="4318.7" y="1883.5" width="143.7" height="43.6"/>
            <rect class="st34" x="4398.7" y="1989.5" width="26.8" height="27.3"/>
            <rect class="st34" x="4358.7" y="1989.5" width="26.8" height="27.3"/>
            <rect class="st34" x="4318.7" y="1989.5" width="26.8" height="27.3"/>
            <rect class="st34" x="4398.7" y="1946" width="26.8" height="27.3"/>
            <rect class="st34" x="4358.7" y="1946" width="26.8" height="27.3"/>
            <rect class="st34" x="4318.7" y="1946" width="26.8" height="27.3"/>
            <rect class="st34" x="4398.7" y="2032.9" width="26.8" height="27.3"/>
            <rect class="st34" x="4358.7" y="2032.9" width="26.8" height="27.3"/>
            <rect class="st34" x="4318.7" y="2032.9" width="26.8" height="27.3"/>
            <rect class="st34" x="4439.3" y="1946" width="23.1" height="57.1"/>
            <rect class="st47" x="4439.3" y="2016.8" width="23.1" height="43.4"/>
            <path class="st40" d="M4443.8,1916.7v-2.8c-1.7,0-3.4-.5-4.4-1.2l.7-1.9c1,.7,2.5,1.2,4.1,1.2s3.4-1.1,3.4-2.7-1.1-2.5-3.2-3.3c-2.9-1.1-4.7-2.4-4.7-4.8s1.7-4.1,4.3-4.5v-2.8h1.8v2.7c1.7,0,2.9.5,3.7,1l-.7,1.8c-.6-.3-1.8-.9-3.6-.9s-3,1.3-3,2.4,1.1,2.2,3.5,3.2c2.9,1.2,4.4,2.6,4.4,5.1s-1.6,4.3-4.5,4.7v2.9h-1.8Z"/>
          </g>
        </g>
        <g>
          <path class="st37" d="M869.9,2384.3l-199.7,3.8c-22.2.4-40.5-17.2-40.9-39.4l-3.3-174.3c-.4-22.2,17.2-40.5,39.4-40.9l199.7-3.8c22.2-.4,40.5,17.2,40.9,39.4l3.3,174.3c.4,22.2-17.2,40.5-39.4,40.9Z"/>
          <g>
            <path class="st10" d="M845,2226.6c-4.2-9.9-10.3-18.8-18-26.4-7.7-7.6-16.7-13.6-26.7-17.8-10.4-4.3-21.4-6.5-32.7-6.5s-22.3,2.2-32.7,6.5c-10,4.2-19,10.2-26.7,17.8-7.7,7.6-13.8,16.5-18,26.4-4.4,10.2-6.6,21.1-6.6,32.3s2.2,22.1,6.6,32.3c4.2,9.9,10.3,18.8,18,26.4,7.7,7.6,16.7,13.6,26.7,17.8,10.4,4.3,21.4,6.5,32.7,6.5s22.3-2.2,32.7-6.5c10-4.2,19-10.2,26.7-17.8,7.7-7.6,13.8-16.5,18-26.4,4.4-10.2,6.6-21.1,6.6-32.3s-2.2-22.1-6.6-32.3ZM767.5,2335.2c-42.6,0-77.2-34.1-77.2-76.3s34.6-76.3,77.2-76.3,77.2,34.1,77.2,76.3-34.6,76.3-77.2,76.3Z"/>
            <rect class="st10" x="762.6" y="2175.9" width="9.9" height="9.8"/>
            <rect class="st10" x="762.6" y="2329.2" width="9.9" height="9.8"/>
            <rect class="st10" x="839.7" y="2254.5" width="9.8" height="9.9" transform="translate(3106.1 1420.3) rotate(90.1)"/>
            <rect class="st10" x="684.4" y="2253.8" width="9.8" height="9.9" transform="translate(2949.7 1574.9) rotate(90.1)"/>
            <path class="st10" d="M752.3,2252h0c.7-1.5,2-2.5,2.7-2.1l61.9,29.6,5,6.1h0l-7.7-.6-61.9-29.6c-.8-.4-.8-1.9,0-3.4Z"/>
            <path class="st10" d="M767.7,2272.5h0c-1.7,0-3.1-.4-3.1-.9l-.3-39.4,3.3-6.8h0l3,6.8.3,39.4c0,.5-1.4.9-3.1.9Z"/>
            <ellipse class="st10" cx="767.5" cy="2259.6" rx="8.3" ry="8.2"/>
          </g>
        </g>
        <g>
          <path class="st37" d="M1537.4,1884.2h-199.8c-22.2,0-40.2-18-40.2-40.2v-174.3c0-22.2,18-40.2,40.2-40.2h199.8c22.2,0,40.2,18,40.2,40.2v174.3c0,22.2-18,40.2-40.2,40.2Z"/>
          <path class="st10" d="M1430.8,1836.8v-19.7c-11.6-.2-23.5-3.7-30.5-8.6l4.8-13c7.2,4.7,17.5,8.4,28.7,8.4s23.7-8,23.7-19.1-7.8-17.3-22.5-23.2c-20.3-7.8-32.9-16.7-32.9-33.7s11.8-28.4,30.1-31.3v-19.7h12.3v18.9c12,.4,20.1,3.5,25.9,6.8l-5,12.8c-4.2-2.3-12.3-6.6-25.1-6.6s-21.1,9-21.1,16.7,7.4,15.2,24.7,22.2c20.5,8.2,30.9,18.3,30.9,35.6s-11,29.8-31.5,33.1v20.2h-12.5Z"/>
        </g>
        <g>
          <path class="st37" d="M3904.4,1463.2h-199.8c-22.2,0-40.2-18-40.2-40.2v-174.3c0-22.2,18-40.2,40.2-40.2h199.8c22.2,0,40.2,18,40.2,40.2v174.3c0,22.2-18,40.2-40.2,40.2Z"/>
          <g>
            <path class="st12" d="M3885.5,1330.9c-6.2-8.1-15.1-12.2-26.7-12.2s-1.2,0-1.8,0c-.6,0-1.1,0-1.7,0-23.7,0-35.5,15.7-35.5,47.1s3.1,27,9.3,35.2c6.2,8.1,14.9,12.2,26.3,12.2.6,0,1.2,0,1.8,0,.6,0,1.1,0,1.7,0,11.8,0,20.8-4,26.9-11.9,6.1-7.9,9.2-19.8,9.2-35.5s-3.1-26.7-9.3-34.9ZM3851.5,1385.5c-1.5-4.3-2.3-10.8-2.3-19.5s.8-15.2,2.3-19.4c1.3-3.5,3.2-5.5,5.7-6.1,5.5,1.4,8.2,9.9,8.2,25.5s-2.7,24.3-8.2,25.7c-2.5-.6-4.4-2.7-5.7-6.2Z"/>
            <polygon class="st12" points="3856.8 1260.7 3835.5 1260.7 3832 1260.7 3748.5 1411.3 3751.9 1411.3 3773.2 1411.3 3776.7 1411.3 3860.2 1260.7 3856.8 1260.7"/>
            <path class="st12" d="M3751.6,1353.1c.6,0,1.1,0,1.7,0,11.8,0,20.8-4,26.9-11.9,6.1-7.9,9.2-19.8,9.2-35.6s-3.1-26.7-9.3-34.9c-6.2-8.1-15.1-12.2-26.7-12.2s-1.2,0-1.8,0c-.6,0-1.1,0-1.7,0-23.7,0-35.5,15.7-35.5,47.1s3.1,27.1,9.3,35.3c6.2,8.1,14.9,12.2,26.3,12.2s1.2,0,1.8,0ZM3746,1325.4c-1.5-4.3-2.3-10.8-2.3-19.5s.8-15.2,2.3-19.4c1.3-3.5,3.2-5.5,5.7-6.1,5.5,1.4,8.2,9.9,8.2,25.5s-2.7,24.3-8.2,25.7c-2.5-.6-4.4-2.7-5.7-6.2Z"/>
          </g>
        </g>
      </g>
      <g>
        <g>
          <rect class="st35" x="2013.9" y="1568.4" width="1522.1" height="2043.6" rx="80" ry="80"/>
          <rect class="st10" x="2084.6" y="1646" width="1380.6" height="1888.3"/>
          <path class="st40" d="M3038.4,1648.5l-53.2-100.6-24.7-46.6-.3-.6h-75.4v-48.2c0-55.8-49.2-101-109.8-101s-109.8,45.2-109.8,101v48.2h-75.4l-.3.6-24.7,46.6-53.2,100.6c-10.3,19.5,3.1,43.5,24.3,43.5h478.3c21.2,0,34.6-24,24.3-43.5ZM2774.9,1399c27.4,0,49.5,20.4,49.5,45.5s-22.2,45.6-49.5,45.6-49.5-20.4-49.5-45.6,22.2-45.5,49.5-45.5Z"/>
          <polygon class="st26" points="2985.2 1547.9 2564.7 1547.9 2589.4 1501.3 2960.5 1501.3 2985.2 1547.9"/>
          <g>
            <rect class="st34" x="2169.6" y="1852.8" width="1210.7" height="174.7"/>
            <g>
              <line class="st1" x1="2312.9" y1="2129.5" x2="3321.2" y2="2129.5"/>
              <line class="st1" x1="2228.9" y1="2214.5" x2="3321.2" y2="2214.5"/>
              <line class="st1" x1="2228.9" y1="2299.5" x2="3321.2" y2="2299.5"/>
              <line class="st1" x1="2228.9" y1="2384.5" x2="3321.2" y2="2384.5"/>
              <line class="st1" x1="2228.9" y1="2469.5" x2="3321.2" y2="2469.5"/>
              <line class="st1" x1="2312.9" y1="2548.6" x2="3321.2" y2="2548.6"/>
              <line class="st1" x1="2228.9" y1="2639.6" x2="3321.2" y2="2639.6"/>
              <line class="st1" x1="2228.9" y1="2724.6" x2="3321.2" y2="2724.6"/>
              <line class="st1" x1="2228.9" y1="2809.6" x2="3321.2" y2="2809.6"/>
              <line class="st1" x1="2228.9" y1="2894.6" x2="3235.9" y2="2894.6"/>
            </g>
            <g>
              <path class="st40" d="M2600.5,1986.6v-92.8h19.7v76.5h37.6v16.2h-57.3Z"/>
              <path class="st40" d="M2758.1,1940.1c0,15.4-3.8,27.2-11.4,35.4-7.6,8.2-18.5,12.4-32.7,12.4s-25.1-4.1-32.7-12.4c-7.6-8.2-11.4-20.1-11.4-35.5s3.8-27.2,11.5-35.4c7.6-8.1,18.6-12.2,32.8-12.2s25.2,4.1,32.7,12.3c7.6,8.2,11.3,20,11.3,35.4ZM2690.4,1940.1c0,10.4,2,18.2,5.9,23.4,3.9,5.2,9.8,7.9,17.6,7.9,15.7,0,23.5-10.4,23.5-31.3s-7.8-31.3-23.4-31.3-13.7,2.6-17.7,7.9c-4,5.3-6,13.1-6,23.4Z"/>
              <path class="st40" d="M2834.1,1986.6l-6.7-22.1h-33.8l-6.7,22.1h-21.2l32.7-93.1h24l32.9,93.1h-21.2ZM2822.7,1948.1c-6.2-20-9.7-31.3-10.5-33.9-.8-2.6-1.3-4.7-1.7-6.2-1.4,5.4-5.4,18.8-12,40.2h24.2Z"/>
              <path class="st40" d="M2949.3,1986.6h-25l-40.4-70.2h-.6c.8,12.4,1.2,21.2,1.2,26.5v43.7h-17.6v-92.8h24.8l40.3,69.5h.4c-.6-12.1-1-20.6-1-25.6v-43.9h17.7v92.8Z"/>
            </g>
            <line class="st3" x1="2900.9" y1="3327.5" x2="3321.2" y2="3327.5"/>
            <g>
              <path class="st16" d="M3261.6,2769.2l-497.2,135.8c-8.2,2.2-13.1,10.7-10.8,19l40.2,147c2.2,8.2,10.7,13.1,19,10.8l497.2-135.8c8.2-2.2,13.1-10.7,10.8-19l-40.2-147c-2.2-8.2-10.7-13.1-19-10.8ZM3301.7,2916.2c2.2,8.2-2.6,16.7-10.8,19l-467.4,127.7c-8.2,2.2-16.7-2.6-19-10.8l-32-117.2c-2.2-8.2,2.6-16.7,10.8-19l467.4-127.7c8.2-2.2,16.7,2.6,19,10.8l32,117.2Z"/>
              <g>
                <path class="st16" d="M2886.5,2995.3l-7.3-11.6-19.4,5.3-.4,13.7-12.1,3.3,4.2-58.5,13.8-3.8,33.4,48.3-12.1,3.3ZM2873.9,2975c-6.7-10.5-10.5-16.4-11.3-17.8-.9-1.4-1.5-2.5-1.9-3.3,0,3.3-.1,11.6-.6,24.9l13.9-3.8Z"/>
                <path class="st16" d="M2932.1,2943.5c1.6,5.7,1,10.6-1.8,14.6-2.7,4-7.4,6.9-14,8.7l-4.8,1.3,5.2,18.9-11.3,3.1-14.5-53.2,17-4.6c6.4-1.8,11.7-1.7,15.9.1,4.1,1.9,6.9,5.5,8.4,11ZM2908.9,2958.9l3.7-1c3.5-.9,5.9-2.3,7.2-4.2,1.3-1.8,1.7-4.1.9-6.7-.7-2.6-2-4.4-3.8-5.3-1.8-.9-4.2-.9-7.3,0l-5.1,1.4,4.3,15.8Z"/>
                <path class="st16" d="M2978.8,2930.7c1.6,5.7,1,10.6-1.8,14.6-2.7,4-7.4,6.9-14,8.7l-4.8,1.3,5.2,18.9-11.3,3.1-14.5-53.2,17-4.6c6.5-1.8,11.7-1.7,15.9.1,4.1,1.9,6.9,5.5,8.4,11ZM2955.7,2946.1l3.7-1c3.5-.9,5.9-2.3,7.2-4.2,1.3-1.8,1.7-4.1.9-6.7-.7-2.6-2-4.4-3.8-5.3-1.8-.9-4.2-.9-7.3,0l-5.1,1.4,4.3,15.8Z"/>
                <path class="st16" d="M3004.6,2941.1l5.6,20.4-11.3,3.1-14.5-53.2,15.5-4.2c7.2-2,12.9-2.1,17.1-.4,4.2,1.7,7,5.2,8.5,10.6.9,3.1.8,6.1-.3,9.1-1.1,2.9-3,5.5-5.7,7.7,11.3,9.8,18.6,16.1,22,18.9l-12.5,3.4-18.3-16.9-6,1.6ZM3002.1,2931.9l3.6-1c3.6-1,6-2.3,7.4-3.9,1.4-1.7,1.7-3.8,1-6.3-.7-2.5-2-4.1-4.1-4.7-2-.6-4.9-.4-8.5.6l-3.4.9,3.9,14.4Z"/>
                <path class="st16" d="M3089,2911.3c2.4,8.8,2.1,16.2-1,22.1s-8.7,10-16.8,12.2c-8.1,2.2-15.1,1.6-20.7-2-5.7-3.5-9.7-9.7-12.1-18.6-2.4-8.9-2.1-16.2,1-22.1,3.1-5.9,8.7-9.9,16.9-12.1,8.2-2.2,15.1-1.6,20.7,1.9,5.6,3.5,9.6,9.7,12,18.5ZM3050.2,2921.9c1.6,5.9,4,10.1,7,12.5,3.1,2.4,6.9,3,11.3,1.7,9-2.5,11.9-9.7,8.6-21.6-3.3-12-9.4-16.7-18.3-14.3-4.5,1.2-7.5,3.7-8.9,7.3-1.5,3.6-1.4,8.4.3,14.4Z"/>
                <path class="st16" d="M3123.2,2873.5l11.4-3.1-3.6,58.1-12.3,3.4-32.6-48.3,11.4-3.1,18.6,28.9c1.1,1.7,2.2,3.7,3.5,6.1,1.3,2.3,2.1,4,2.5,4.9-.3-2.3-.5-6.5-.5-12.5l1.4-34.4Z"/>
                <path class="st16" d="M3186.4,2913.4l-30.6,8.4-14.5-53.2,30.6-8.4,2.5,9.2-19.4,5.3,3.2,11.7,18-4.9,2.5,9.2-18,4.9,3.7,13.7,19.4-5.3,2.5,9.3Z"/>
                <path class="st16" d="M3234.2,2871.2c2.4,8.8,1.7,16.1-2,22.2-3.7,6-10.3,10.3-19.7,12.9l-15.1,4.1-14.5-53.2,16.7-4.6c8.7-2.4,16-1.9,22.1,1.4,6.1,3.3,10.2,9,12.4,17.2ZM3222.6,2874.7c-3.1-11.4-9.7-15.8-19.8-13l-6,1.6,9.5,34.6,4.8-1.3c10.9-3,14.7-10.3,11.5-21.9Z"/>
              </g>
            </g>
            <g>
              <path class="st0" d="M2995,3091.7c-12.4-6.9-26.6-13.7-39-6.8-9.8,5.4-15.8,18.1-20.6,30.3-3.6,9.1-6.9,19.8-4.1,29.3,1.2,4.3,3.6,7.8,6.1,11.1,16.3,21.6,39,34,54.2,56.9,7.7,11.7,13.1,29.5,6.1,41.9-5.9,10.5-17.6,11.8-27.5,10.1-8.6-1.5-17.1-4.5-25-9-5.6-3.1-11.8-9.2-10.7-16.9"/>
              <path class="st0" d="M3001.1,3283.1c31.1-13.5,56.7-46.4,67.3-86.5-6.1,28.4-12.2,56.9-18.3,85.3,18.6-8.7,34.8-25.6,45.4-47.1,3.7,7.4,9.8,12.5,16.5,13.8.5-4.3,1-8.6,1.5-12.8-9.6,2-16.6,16.3-13.8,28.4,16.4,1.5,33.2-7.4,44.1-23.4-2.5,10.1,8.7,18.4,16.2,14,7.5-4.4,11.2-15.1,14.2-25-2.2-1.9-4.5-3.9-6.7-5.8,3,10.7,6,21.4,9.1,32.1.7,2.4,1.5,5,3.3,6.1,2.2,1.3,4.6-.2,6.8-1.6,13-8.2,27.8-9.8,42.3-11.4,21-2.2,42-4.5,63-6.7"/>
              <path class="st0" d="M2934.2,3240.2c9.5-14.6,27.9-14.6,40.4-4.4,12.4,10.2,19.9,28.1,24.9,46"/>
            </g>
          </g>
        </g>
        <g>
          <g>
            <path class="st27" d="M3408.9,3514.7h589.7c7.4,0,13.4,6,13.4,13.4v77.5c0,7.4-6,13.4-13.4,13.4h-589.7c-7.4,0-13.4-6-13.4-13.4v-77.5c0-7.4,6-13.4,13.4-13.4Z"/>
            <rect class="st39" x="3688.8" y="3514.7" width="29.8" height="104.3"/>
            <rect class="st39" x="3728.9" y="3514.7" width="29.8" height="104.3"/>
            <rect class="st39" x="3648.7" y="3514.7" width="29.8" height="104.3"/>
          </g>
          <g>
            <path class="st22" d="M3431.8,3410.5h589.7c7.4,0,13.4,6,13.4,13.4v77.5c0,7.4-6,13.4-13.4,13.4h-589.7c-7.4,0-13.4-6-13.4-13.4v-77.5c0-7.4,6-13.4,13.4-13.4Z"/>
            <g>
              <rect class="st39" x="3840" y="3410.5" width="29.8" height="104.3"/>
              <rect class="st39" x="3880.1" y="3410.5" width="29.8" height="104.3"/>
              <rect class="st39" x="3799.9" y="3410.5" width="29.8" height="104.3"/>
            </g>
          </g>
          <g>
            <path class="st27" d="M3383.7,3306.2h589.7c7.4,0,13.4,6,13.4,13.4v77.5c0,7.4-6,13.4-13.4,13.4h-589.7c-7.4,0-13.4-6-13.4-13.4v-77.5c0-7.4,6-13.4,13.4-13.4Z"/>
            <rect class="st39" x="3663.6" y="3306.2" width="29.8" height="104.3"/>
            <rect class="st39" x="3703.7" y="3306.2" width="29.8" height="104.3"/>
            <rect class="st39" x="3623.5" y="3306.2" width="29.8" height="104.3"/>
          </g>
          <g>
            <path class="st22" d="M3421.5,3202h589.7c7.4,0,13.4,6,13.4,13.4v77.5c0,7.4-6,13.4-13.4,13.4h-589.7c-7.4,0-13.4-6-13.4-13.4v-77.5c0-7.4,6-13.4,13.4-13.4Z"/>
            <g>
              <rect class="st39" x="3829.7" y="3202" width="29.8" height="104.3"/>
              <rect class="st39" x="3869.8" y="3202" width="29.8" height="104.3"/>
              <rect class="st39" x="3789.6" y="3202" width="29.8" height="104.3"/>
            </g>
          </g>
          <g>
            <path class="st27" d="M3395.1,3097.7h589.7c7.4,0,13.4,6,13.4,13.4v77.5c0,7.4-6,13.4-13.4,13.4h-589.7c-7.4,0-13.4-6-13.4-13.4v-77.5c0-7.4,6-13.4,13.4-13.4Z"/>
            <rect class="st39" x="3675" y="3097.7" width="29.8" height="104.3"/>
            <rect class="st39" x="3715.1" y="3097.7" width="29.8" height="104.3"/>
            <rect class="st39" x="3634.9" y="3097.7" width="29.8" height="104.3"/>
          </g>
        </g>
        <g class="st26">
          <image width="150" height="826" transform="translate(1122.9 2785.5) scale(.2)" xlink:href="Car_loan-1.png"/>
          <image width="151" height="826" transform="translate(2232.4 2785.5) scale(.2)" xlink:href="Car_loan-2.png"/>
          <g class="st41">
            <image width="3067" height="24" transform="translate(1330.7 3116.7) scale(.2)" xlink:href="Car_loan-3.png"/>
          </g>
        </g>
        <path class="st14" d="M2365,2732.4c-69.3-17.3-58.9,52-58.9,52l-14.1.6-13.3-45.4c.1,0-55.9-157.4-90.7-222.1-9.9-18.5-30.6-31.9-54.4-40.9-4.7-4.4-14-8.6-27.5-12.6-3.9-7.5-21.2-30.4-31.2-41.7-11.3-12.9-15.8-12.4-25.6-11.4-8.6.8-25.5,8.4-35.4,14.9v1003.3h188.4v134.7c0,11.2,3.5,21.5,9.4,30,3.4,4.9,7.6,9.2,12.5,12.7,3,2.2,6.3,4.1,9.8,5.6.8.3,1.5.6,2.3,1,.8,1.5,1.7,3,2.7,4.4,3.4,4.9,7.7,9.2,12.5,12.7,4.6,3.3,9.8,5.9,15.3,7.6v1.8c2.7.3,5.4.5,8.2.5h108.6c2.8,0,5.5-.2,8.2-.5v-1.8c5.5-1.7,10.7-4.3,15.3-7.6,4.9-3.5,9.1-7.8,12.5-12.7,1.2-1.7,2.3-3.5,3.2-5.3,3.9-7.4,6.1-15.8,6.1-24.7v-204.4c9.1-12.4,14.3-26.6,14.3-41.6,0-48.4-.4-112.6-.4-150.1h-1.7v-107.7c0-18.7-6.3-55.8-15.9-86.9-6.1-19.7-13.5-36.9-21.5-45.6l-86.9-94.3-5.7-6.2-2.8-9.5c38.9,2.9,146.1,8.4,146.8-18.5,2-74.5-20.8-72.8-90.1-90.1ZM2022.2,2448.3c-.5-5-.2-10.8,2.8-12.6,8.6-5.2,11.9-6.6,18.8-3.8,5.1,2.1,11.2,14.9,14.1,21.6-10.9-1.8-22.8-3.6-35.7-5.2Z"/>
        <g>
          <g>
            <g>
              <g>
                <path d="M1218.3,3197.8v365.9c0,11.2-3.5,21.5-9.4,30-3.4,4.9-7.7,9.2-12.5,12.7-8.7,6.3-19.3,9.9-30.8,9.9h-93.9c-11.5,0-22.1-3.7-30.8-9.9-4.9-3.5-9.1-7.8-12.5-12.7-5.9-8.5-9.4-18.9-9.4-30v-365.9c0-11.2,3.5-21.5,9.4-30,3.4-4.9,7.7-9.2,12.5-12.7,8.7-6.3,19.3-9.9,30.8-9.9h93.9c11.5,0,22.1,3.7,30.8,9.9,4.9,3.5,9.1,7.8,12.5,12.7,5.9,8.5,9.4,18.9,9.4,30Z"/>
                <path class="st13" d="M1181.1,3145.6v470.3c-2.8.3-5.6.5-8.5.5h-108c-2.9,0-5.7-.2-8.5-.5v-470.3c2.8-.3,5.6-.5,8.5-.5h108c2.9,0,5.7.2,8.5.5Z"/>
                <path class="st13" d="M1171.3,3145.6v470.3c-2.3.3-4.7.5-7.1.5h-91c-2.4,0-4.8-.2-7.1-.5v-470.3c2.3-.3,4.7-.5,7.1-.5h91c2.4,0,4.8.2,7.1.5Z"/>
                <path class="st13" d="M1157.1,3145.6v470.3c-1.7.3-3.4.5-5.2.5h-66.6c-1.8,0-3.5-.2-5.2-.5v-470.3c1.7-.3,3.4-.5,5.2-.5h66.6c1.8,0,3.5.2,5.2.5Z"/>
                <path class="st13" d="M1148.3,3145.6v470.3c-1.3.3-2.7.5-4,.5h-51.4c-1.4,0-2.7-.2-4-.5v-470.3c1.3-.3,2.7-.5,4-.5h51.4c1.4,0,2.7.2,4,.5Z"/>
                <path class="st13" d="M1064.3,3615.8c2.4.3,4.9.5,7.4.5h-7.4v-.5Z"/>
                <path class="st13" d="M1165.6,3616.4c2.5,0,5-.2,7.4-.5v.5h-7.4Z"/>
                <g>
                  <path class="st15" d="M1218.3,3197.8v365.9c0,11.2-3.5,21.5-9.4,30-3.4,4.9-7.7,9.2-12.5,12.7v-480.5h12.5v41.8c5.9,8.5,9.4,18.9,9.4,30Z"/>
                  <path class="st15" d="M1218.3,3197.8v365.9c0,11.2-3.5,21.5-9.4,30v-426c5.9,8.5,9.4,18.9,9.4,30Z"/>
                  <path class="st15" d="M1028.3,3167.7v426c-5.9-8.5-9.4-18.9-9.4-30v-365.9c0-11.2,3.5-21.5,9.4-30Z"/>
                  <path class="st15" d="M1040.8,3129v477.4c-4.9-3.5-9.1-7.8-12.5-12.7-5.9-8.5-9.4-18.9-9.4-30v-365.9c0-11.2,3.5-21.5,9.4-30v-38.7h12.5Z"/>
                </g>
              </g>
              <g>
                <path d="M2372.6,3197.8v365.9c0,11.2-3.5,21.5-9.4,30-3.4,4.9-7.7,9.2-12.5,12.7-8.7,6.3-19.3,9.9-30.8,9.9h-93.9c-11.5,0-22.1-3.7-30.8-9.9-4.9-3.5-9.1-7.8-12.5-12.7-5.9-8.5-9.4-18.9-9.4-30v-365.9c0-11.2,3.5-21.5,9.4-30,3.4-4.9,7.7-9.2,12.5-12.7,8.7-6.3,19.3-9.9,30.8-9.9h93.9c11.5,0,22.1,3.7,30.8,9.9,4.9,3.5,9.1,7.8,12.5,12.7,5.9,8.5,9.4,18.9,9.4,30Z"/>
                <path class="st13" d="M2335.4,3145.6v470.3c-2.8.3-5.6.5-8.5.5h-108c-2.9,0-5.7-.2-8.5-.5v-470.3c2.8-.3,5.6-.5,8.5-.5h108c2.9,0,5.7.2,8.5.5Z"/>
                <path class="st13" d="M2325.6,3145.6v470.3c-2.3.3-4.7.5-7.1.5h-91c-2.4,0-4.8-.2-7.1-.5v-470.3c2.3-.3,4.7-.5,7.1-.5h91c2.4,0,4.8.2,7.1.5Z"/>
                <path class="st13" d="M2311.4,3145.6v470.3c-1.7.3-3.4.5-5.2.5h-66.6c-1.8,0-3.5-.2-5.2-.5v-470.3c1.7-.3,3.4-.5,5.2-.5h66.6c1.8,0,3.5.2,5.2.5Z"/>
                <path class="st13" d="M2302.6,3145.6v470.3c-1.3.3-2.7.5-4,.5h-51.4c-1.4,0-2.7-.2-4-.5v-470.3c1.3-.3,2.7-.5,4-.5h51.4c1.4,0,2.7.2,4,.5Z"/>
                <path class="st13" d="M2218.6,3615.8c2.4.3,4.9.5,7.4.5h-7.4v-.5Z"/>
                <path class="st13" d="M2319.9,3616.4c2.5,0,5-.2,7.4-.5v.5h-7.4Z"/>
                <g>
                  <path class="st15" d="M2372.6,3197.8v365.9c0,11.2-3.5,21.5-9.4,30-3.4,4.9-7.7,9.2-12.5,12.7v-480.5h12.5v41.8c5.9,8.5,9.4,18.9,9.4,30Z"/>
                  <path class="st15" d="M2372.6,3197.8v365.9c0,11.2-3.5,21.5-9.4,30v-426c5.9,8.5,9.4,18.9,9.4,30Z"/>
                  <path class="st15" d="M2182.7,3167.7v426c-5.9-8.5-9.4-18.9-9.4-30v-365.9c0-11.2,3.5-21.5,9.4-30Z"/>
                  <path class="st15" d="M2195.2,3129v477.4c-4.9-3.5-9.1-7.8-12.5-12.7-5.9-8.5-9.4-18.9-9.4-30v-365.9c0-11.2,3.5-21.5,9.4-30v-38.7h12.5Z"/>
                </g>
              </g>
            </g>
            <g>
              <path class="st31" d="M2400,3221.4v365.9c0,11.2-3.5,21.5-9.4,30-3.4,4.9-7.7,9.2-12.5,12.7-8.7,6.3-19.3,9.9-30.8,9.9h-93.9c-11.5,0-22.1-3.7-30.8-9.9-4.9-3.5-9.1-7.8-12.5-12.7-5.9-8.5-9.4-18.9-9.4-30v-365.9c0-11.2,3.5-21.5,9.4-30,3.4-4.9,7.7-9.2,12.5-12.7,8.7-6.3,19.3-9.9,30.8-9.9h93.9c11.5,0,22.1,3.7,30.8,9.9,4.9,3.5,9.1,7.8,12.5,12.7,5.9,8.5,9.4,18.9,9.4,30Z"/>
              <path class="st13" d="M2362.8,3169.2v470.3c-2.8.3-5.6.5-8.5.5h-108c-2.9,0-5.7-.2-8.5-.5v-470.3c2.8-.3,5.6-.5,8.5-.5h108c2.9,0,5.7.2,8.5.5Z"/>
              <path class="st13" d="M2353,3169.2v470.3c-2.3.3-4.7.5-7.1.5h-91c-2.4,0-4.8-.2-7.1-.5v-470.3c2.3-.3,4.7-.5,7.1-.5h91c2.4,0,4.8.2,7.1.5Z"/>
              <path class="st13" d="M2338.8,3169.2v470.3c-1.7.3-3.4.5-5.2.5h-66.6c-1.8,0-3.5-.2-5.2-.5v-470.3c1.7-.3,3.4-.5,5.2-.5h66.6c1.8,0,3.5.2,5.2.5Z"/>
              <path class="st13" d="M2330,3169.2v470.3c-1.3.3-2.7.5-4,.5h-51.4c-1.4,0-2.7-.2-4-.5v-470.3c1.3-.3,2.7-.5,4-.5h51.4c1.4,0,2.7.2,4,.5Z"/>
              <path class="st13" d="M2246,3639.5c2.4.3,4.9.5,7.4.5h-7.4v-.5Z"/>
              <path class="st13" d="M2347.3,3640c2.5,0,5-.2,7.4-.5v.5h-7.4Z"/>
              <g>
                <path class="st9" d="M2400,3221.4v365.9c0,11.2-3.5,21.5-9.4,30-3.4,4.9-7.7,9.2-12.5,12.7v-480.5h12.5v41.8c5.9,8.5,9.4,18.9,9.4,30Z"/>
                <path class="st9" d="M2400,3221.4v365.9c0,11.2-3.5,21.5-9.4,30v-426c5.9,8.5,9.4,18.9,9.4,30Z"/>
                <path class="st9" d="M2210,3191.4v426c-5.9-8.5-9.4-18.9-9.4-30v-365.9c0-11.2,3.5-21.5,9.4-30Z"/>
                <path class="st9" d="M2222.5,3152.7v477.4c-4.9-3.5-9.1-7.8-12.5-12.7-5.9-8.5-9.4-18.9-9.4-30v-365.9c0-11.2,3.5-21.5,9.4-30v-38.7h12.5Z"/>
              </g>
            </g>
            <g>
              <path class="st31" d="M1190.9,3221.2v365.9c0,11.2-3.5,21.5-9.4,30-3.4,4.9-7.7,9.2-12.5,12.7-8.7,6.3-19.3,9.9-30.8,9.9h-93.9c-11.5,0-22.1-3.7-30.8-9.9-4.9-3.5-9.1-7.8-12.5-12.7-5.9-8.5-9.4-18.9-9.4-30v-365.9c0-11.2,3.5-21.5,9.4-30,3.4-4.9,7.7-9.2,12.5-12.7,8.7-6.3,19.3-9.9,30.8-9.9h93.9c11.5,0,22.1,3.7,30.8,9.9,4.9,3.5,9.1,7.8,12.5,12.7,5.9,8.5,9.4,18.9,9.4,30Z"/>
              <path class="st13" d="M1153.7,3169v470.3c-2.8.3-5.6.5-8.5.5h-108c-2.9,0-5.7-.2-8.5-.5v-470.3c2.8-.3,5.6-.5,8.5-.5h108c2.9,0,5.7.2,8.5.5Z"/>
              <path class="st13" d="M1143.9,3169v470.3c-2.3.3-4.7.5-7.1.5h-91c-2.4,0-4.8-.2-7.1-.5v-470.3c2.3-.3,4.7-.5,7.1-.5h91c2.4,0,4.8.2,7.1.5Z"/>
              <path class="st13" d="M1129.7,3169v470.3c-1.7.3-3.4.5-5.2.5h-66.6c-1.8,0-3.5-.2-5.2-.5v-470.3c1.7-.3,3.4-.5,5.2-.5h66.6c1.8,0,3.5.2,5.2.5Z"/>
              <path class="st13" d="M1121,3169v470.3c-1.3.3-2.7.5-4,.5h-51.4c-1.4,0-2.7-.2-4-.5v-470.3c1.3-.3,2.7-.5,4-.5h51.4c1.4,0,2.7.2,4,.5Z"/>
              <path class="st13" d="M1036.9,3639.3c2.4.3,4.9.5,7.4.5h-7.4v-.5Z"/>
              <path class="st13" d="M1138.2,3639.8c2.5,0,5-.2,7.4-.5v.5h-7.4Z"/>
              <g>
                <path class="st9" d="M1190.9,3221.2v365.9c0,11.2-3.5,21.5-9.4,30-3.4,4.9-7.7,9.2-12.5,12.7v-480.5h12.5v41.8c5.9,8.5,9.4,18.9,9.4,30Z"/>
                <path class="st9" d="M1190.9,3221.2v365.9c0,11.2-3.5,21.5-9.4,30v-426c5.9,8.5,9.4,18.9,9.4,30Z"/>
                <path class="st9" d="M1001,3191.2v426c-5.9-8.5-9.4-18.9-9.4-30v-365.9c0-11.2,3.5-21.5,9.4-30Z"/>
                <path class="st9" d="M1013.5,3152.5v477.4c-4.9-3.5-9.1-7.8-12.5-12.7-5.9-8.5-9.4-18.9-9.4-30v-365.9c0-11.2,3.5-21.5,9.4-30v-38.7h12.5Z"/>
              </g>
            </g>
          </g>
          <g>
            <path class="st31" d="M2277.1,2784.4s-10.4-69.3,58.9-52c69.3,17.3,92.1,15.6,90.1,90.1-.9,32.9-160.7,17.3-160.7,17.3l-30-53.6,41.6-1.9Z"/>
            <path class="st31" d="M1114.4,2784.4s10.4-69.3-58.9-52c-69.3,17.3-92.1,15.6-90.1,90.1.9,32.9,160.7,17.3,160.7,17.3l30-53.6-41.6-1.9Z"/>
          </g>
          <path class="st35" d="M2412.1,3083.5v245.7l-716.5-7.3-716.5,7.3v-245.7c0-18.7,6.3-55.8,15.9-86.9h1401.3c9.6,31.1,15.9,68.3,15.9,86.9Z"/>
          <path class="st20" d="M2396.2,2996.6H994.9c6.1-19.7,13.5-36.9,21.5-45.6l86.9-94.3h1184.6l86.9,94.3c8,8.7,15.4,25.9,21.5,45.6Z"/>
          <path class="st44" d="M2287.9,2856.6h-1184.6l5.7-6.2,32.5-110.8,94.7-222.2c13.5-25.2,40.1-40.9,69.2-49.1,53.5-19.6,198.7-35.5,391.9-35.5s381.7,20,407.3,43.6c23.8,9.1,44.4,22.4,54.4,40.9,34.8,64.7,90.8,222.2,90.7,222.2l32.5,110.8,5.7,6.2Z"/>
          <path class="st8" d="M1130,2789s21.9,75.4,29.2,197c104.3,23.7,186.6,115.5,186.6,115.5l-215.8-312.5Z"/>
          <path class="st8" d="M2257.9,2789s-21.9,75.4-29.2,197c-104.3,23.7-186.6,115.5-186.6,115.5l215.8-312.5Z"/>
          <path class="st31" d="M2198.8,2768.5l-75.1-223.1c-13.2-23.3-52-45.4-79.9-45.4h-696c-27.9,0-66.7,22-79.5,44.6l-75.5,224c-1.4,3.2-1.2,4.9-1.1,5.2.2.3,1.7,1.1,5.1,1.1h998.1c3.4,0,4.9-.9,5-1.1.1-.3.3-2.1-1.1-5.2ZM1223.3,2751.4l66.4-196.9c9.8-14.8,39.8-31,58.1-31h696c18.7,0,48.4,16.4,58.5,31.9l66,196.1h-945Z"/>
          <path class="st34" d="M2168.3,2751.4h-945l66.4-196.9c9.8-14.8,39.8-31,58.1-31h696c18.7,0,48.4,16.4,58.5,31.9l66,196.1Z"/>
          <g class="st26">
            <image width="150" height="826" transform="translate(1122.9 2785.5) scale(.2)" xlink:href="Car_loan-4.png"/>
            <image width="151" height="826" transform="translate(2232.4 2785.5) scale(.2)" xlink:href="Car_loan-5.png"/>
            <g class="st41">
              <image width="3067" height="24" transform="translate(1330.7 3116.7) scale(.2)" xlink:href="Car_loan-6.png"/>
            </g>
          </g>
          <path class="st31" d="M1338.4,3087.8s-176.4-157.8-268.1-92.2c-91.8,65.6,10.3,128.4,40.6,137.3,49.3,14.5,152.6,22.9,202.9,14.3,14.1-2.4,52.9-18.4,24.7-59.4Z"/>
          <path class="st10" d="M1261.9,3141.5c-52,0-114.7-7.4-149.1-17.5-18.6-5.5-67.3-33.6-71.7-67.3-2.4-17.9,8.9-35.8,33.3-53.3,13.6-9.7,30.2-14.6,49.4-14.6,86.2,0,198.7,96.6,209,105.6,6.8,10.1,9.1,18.6,6.9,25.2-3.6,10.7-18.5,17-27.1,18.5-12.9,2.2-30.4,3.4-50.7,3.4Z"/>
          <g>
            <path class="st31" d="M2049.6,3087.8s176.4-157.8,268.1-92.2c91.8,65.6-10.3,128.4-40.6,137.3-49.3,14.5-152.6,22.9-202.9,14.3-14.1-2.4-52.9-18.4-24.7-59.4Z"/>
            <path class="st10" d="M2126.1,3141.5c52,0,114.7-7.4,149.1-17.5,18.6-5.5,67.3-33.6,71.7-67.3,2.4-17.9-8.9-35.8-33.3-53.3-13.6-9.7-30.2-14.6-49.4-14.6-86.2,0-198.7,96.6-209,105.6-6.8,10.1-9.1,18.6-6.9,25.2,3.6,10.7,18.5,17,27.1,18.5,12.9,2.2,30.4,3.4,50.7,3.4Z"/>
          </g>
          <path class="st31" d="M1967.3,3146.2h-546.6c-30.5,0-48.4-23.7-40-53l12.1-42.4c3.5-12.3,11.1-23.6,20.9-32.5,6.6-6,14.3-11.1,22.4-14.6,8.7-3.8,17.9-5.9,27-5.9h461.5c9,0,18,2,26.5,5.7,8.2,3.5,15.8,8.4,22.5,14.4,10.1,9,17.8,20.5,21.3,32.9l12.2,42.4c8.4,29.3-9.5,53-40,53Z"/>
          <path class="st31" d="M2414.2,3341.3c0,48.4-53.5,87.7-119.4,87.7h-1197c-65.9,0-119.3-39.3-119.3-87.7,0,0-1.2-111.1-1.2-150.1h237.8c27.6,0,55.1,6,81.8,17.8l100.5,44.6h589.4l100.4-44.6c26.6-11.8,54.1-17.8,81.8-17.8h244.9c0,37.5.5,101.7.5,150.1Z"/>
          <path class="st17" d="M1380.7,3331.6v19.2h-282.8c-22.8,0-37-8.7-41.2-13.2,0-8.8-.4-37.6-.7-68.3h159.1c16.6,0,33.5,3.7,50.1,11.1l115.5,51.2Z"/>
          <path class="st17" d="M2336.1,3337.7c-4.3,4.4-18.5,13.1-41.2,13.1h-283.5v-22.8l107.4-47.7c16.6-7.4,33.4-11.1,50.1-11.1h167c0,23.5.2,47.2.2,68.4Z"/>
          <path class="st14" d="M1030.6,3168.5h7.4c-2.5,0-5,.2-7.4.5v-.5Z"/>
          <path class="st14" d="M1139.2,3168.5v.5c-2.4-.3-4.9-.5-7.4-.5h7.4Z"/>
          <g class="st23">
            <polygon class="st10" points="1747.2 2523.5 1519.3 2751.4 1441.9 2751.4 1669.8 2523.5 1747.2 2523.5"/>
            <polygon class="st10" points="1949.7 2523.5 1721.7 2751.4 1644.3 2751.4 1872.3 2523.5 1949.7 2523.5"/>
          </g>
          <g>
            <path class="st17" d="M1243.1,2766.8h0c-.3-4.8,3.3-9,8.1-9.3,50.3-3.2,295.1-17.3,415.4-.7,4.8.7,8.2,5.2,7.4,10h0c-.8,4.7-5.1,7.9-9.8,7.2-117.2-16.2-362.8-2.3-411.9.8-4.8.3-8.9-3.3-9.2-8.1Z"/>
            <path class="st17" d="M1665,2774.9h-116.3c-6.8,0-12.3-5.5-12.3-12.3h0c0-6.8,5.5-12.3,12.3-12.3h116.3c6.8,0,12.3,5.5,12.3,12.3h0c0,6.8-5.5,12.3-12.3,12.3Z"/>
          </g>
          <g>
            <path class="st17" d="M1698.5,2766.8h0c-.3-4.8,3.3-9,8.1-9.3,48.4-3.2,277.8-17.2,397.1-.6,4.8.7,8.2,5.2,7.4,10h0c-.8,4.7-5.1,7.9-9.8,7.2-116.1-16.1-346.1-2.3-393.5.8-4.8.3-8.9-3.3-9.3-8.1Z"/>
            <path class="st17" d="M2102,2774.9h-116.3c-6.8,0-12.3-5.5-12.3-12.3h0c0-6.8,5.5-12.3,12.3-12.3h116.3c6.8,0,12.3,5.5,12.3,12.3h0c0,6.8-5.5,12.3-12.3,12.3Z"/>
          </g>
          <g>
            <path class="st31" d="M2078,2466.2c0-3.3-20.7-31-32.1-43.9-11.3-12.9-15.8-12.4-25.7-11.4-12.3,1.2-41.6,16.2-43.1,21.9-1.5,5.7-2.3,24.3-2.3,24.3l19.7-.5s-4.4-17.5,1.5-21c8.6-5.2,11.9-6.6,18.8-3.8,6.9,2.9,15.8,25.8,15.8,25.8l47.4,8.6Z"/>
            <path class="st31" d="M1319.3,2466.2c0-3.3,20.7-31,32.1-43.9,11.3-12.9,15.8-12.4,25.7-11.4,12.3,1.2,41.6,16.2,43.1,21.9,1.5,5.7,2.3,24.3,2.3,24.3l-19.7-.5s4.4-17.5-1.5-21c-8.6-5.2-11.9-6.6-18.8-3.8-6.9,2.9-15.8,25.8-15.8,25.8l-47.4,8.6Z"/>
            <path class="st30" d="M2080.7,2466.8c0,.7-99.1,1.2-337.9,1.2s-432.5-.5-432.5-1.2,193.6-1.2,432.5-1.2,337.9.5,337.9,1.2Z"/>
          </g>
          <path d="M1951.3,3311.5c0,27.7-22.5,50.2-50.2,50.2h-404.7c-27.7,0-50.2-22.5-50.2-50.2h0c0-27.8,22.5-50.3,50.2-50.3h404.7c27.8,0,50.2,22.5,50.2,50.3h0Z"/>
          <path class="st17" d="M1496.3,3352.6c-22.6,0-41-18.4-41-41s18.4-41.1,41-41.1h404.7c22.6,0,41,18.4,41,41.1s-18.4,41-41,41h-404.7Z"/>
          <path class="st10" d="M1139.2,3269.3v81.5h-41.4c-22.8,0-37-8.7-41.2-13.2,0-8.8-.4-37.6-.7-68.3h83.3Z"/>
          <path class="st10" d="M2252.8,3269.3v81.5h41.4c22.8,0,37-8.7,41.2-13.2,0-8.8.4-37.6.7-68.3h-83.3Z"/>
          <path class="st13" d="M1380.7,3342.2v8.6h-282.8c-22.8,0-37-8.7-41.2-13.2,0-8.8-.4-37.6-.7-68.3h5.5c.3,27.4.5,51.8.6,59.7,4.2,4.4,18.4,13.2,41.2,13.2h277.3Z"/>
          <path class="st13" d="M2011.4,3342.2v8.6h282.8c22.8,0,37-8.7,41.2-13.2,0-8.8.4-37.6.7-68.3h-5.5c-.3,27.4-.5,51.8-.6,59.7-4.2,4.4-18.4,13.2-41.2,13.2h-277.3Z"/>
          <g>
            <path class="st17" d="M1777.5,2997.1h-167.4c2.1,3.5,33.2,24.5,47.5,34l12.6,114.9h46.9l12.3-111.4,48-37.4Z"/>
            <polygon class="st18" points="1634.6 3002.9 1675.7 3029.7 1711.8 3029.7 1752.7 3002.9 1634.6 3002.9"/>
            <g>
              <polygon class="st17" points="1594.2 3146.2 1571.4 3146.2 1557.7 2997.7 1583.1 2997.7 1594.2 3146.2"/>
              <polygon class="st17" points="1526.5 3146.2 1503.7 3146.2 1482.5 2997.7 1507.9 2997.7 1526.5 3146.2"/>
              <path class="st17" d="M1461.1,3146.2h-22.8l-24.5-128c6.6-6,14.3-11.1,22.4-14.6l24.9,142.6Z"/>
              <path class="st17" d="M1973.8,3017.8l-24.6,128.4h-22.8l24.9-142.9c8.2,3.5,15.8,8.4,22.5,14.4Z"/>
              <polygon class="st17" points="1902.4 2997.7 1881.5 3146.2 1858.7 3146.2 1877.1 2997.7 1902.4 2997.7"/>
              <polygon class="st17" points="1829.8 2997.7 1816.1 3146.2 1793.3 3146.2 1804.4 2997.7 1829.8 2997.7"/>
            </g>
          </g>
        </g>
        <g>
          <path class="st33" d="M3642.3,2883s106,16,103,12-32-133-32-133l-71,121Z"/>
          <path class="st28" d="M3521.4,2622.3l-43.6,27.1-60.2-102.5s-15.7-3.3-30.2-22.6c-2.8-3.8-5.6-8.1-8.2-13.2-11.1-21.7-12.4-31.3,11-38,5.5-1.6,38.6-12.1,41.1-8.2l5,7.8-1.3-20.4v-.8c-.6-6.3,4-11.8,10.2-12.5,0,0,13.9,38.8,13.9,68.1s-.3,9.1-1.2,13c0,0,.6,19.1,17.8,38l45.6,64.3Z"/>
          <g>
            <path class="st21" d="M3412,3237s-33.7,132.8-77.5,181.7l-51.7,59.4,71.3,9.2,84-82.9s-16.3-22,11.2-93.6l-37.3-73.7Z"/>
            <path class="st25" d="M3306.1,3504.1c43.8,7.4,57.3-8.6,57.3-8.6l33-25.8,28.2-21.9-2.8,42.2h12.4l3.9-47.1c6.9-14.7,8-26.1,6.5-34.7-2.8-15.8-12.4-22.2-12.4-22.2-7.3,37.3-78.3,79-78.3,79-43.8,12.9-48.8-12.3-48.8-12.3l-49.4,23.3c-15.7,27.5,50.5,28.2,50.5,28.2Z"/>
            <path class="st26" d="M3396.5,3469.7l28.2-21.9-2.8,42.2h12.4l3.9-47.1c6.9-14.7,8-26.1,6.5-34.7l-7.7,17.2s-42.9,18.5-40.4,44.3Z"/>
            <path class="st25" d="M3375.1,3205.4l15.9,13.8c.5.4.9.8,1.2,1.3,1.6,2,2.4,4.5,2.3,7.1-.4,11.3.8,20.6,2.3,27.2,1.7,7.5,3.6,11.8,3.6,11.8.7,1.3,1.4,2.5,2,3.7,18.5,33.7,34.3,48.2,42,53.8,3.1,2.3,4.9,3.1,4.9,3.1l23.3-39.1,45.4-76.4,12.1-20.4,7.9-13.3,6.2-10.4c3.4-3,6.7-5.9,10-8.6,11.9-10,23.2-18.5,33.7-25.7,2.9-2,5.8-3.9,8.5-5.7,4.4-2.8,8.7-5.4,12.8-7.8,16.1-9.4,29.8-15.4,40.9-19.4,20-7.2,31.1-7.4,31.1-7.4,15.8,2.5,28.5,11,42.2,12.4,25.3,2.6,49.3,3.3,68.1,3.1,26.7-.3,46.8-9.1,61.5-12,25.6-5.1,46.3-25.8,53-53.2,8.6-35.2,3.2-74.2-1.7-97.3-1.5-6.9-2.9-12.4-3.8-15.9-.8-3-1.4-4.6-1.4-4.6l-59.5,9.2-46.5,5.3h-.2s-15.7,1.8-15.7,1.8l-33.2,3.8-7.1.8-115.1,13-155.7,17.6-46.8,92.9-12.6,25.1-.5,1-4.3,8.6-1.5,3.1h0s-31.7,63-31.7,63c-6,11.9-3.3,26.7,6.4,35.1Z"/>
            <path class="st21" d="M3430.3,3445.9h51.1l57.8-96.1-14.6-41,8.9-86.9,4.5-44.1,1.1-11-89.9-42.8,5.7,38.2,16.3,109.9c.7,5.3,1.1,10.6,1.4,15.9,3.8,83.2-42.4,157.8-42.4,157.8Z"/>
            <path class="st25" d="M3524,3318.7s38.8,8,31.5,58.1l-5.6,9.2-1.1,36.7h-9.5l-4.5-26.3s-12.9,5.5-38.8,39.2c0,0-11.2,47.7-92.7,39.8,0,0-18.2-19.1,36.7-47.5,0,0,21.2,12.6,44.7-7,0,0,48.9-66.7,39.3-102.2Z"/>
            <path class="st26" d="M3406.8,3094.6v16.3c.1,0,21.1,28.5,48.2,51.4,19.6,16.6,42.5,35,63,49.4,5.4,3.8,10.6,7.3,15.5,10.3l4.5-44.1,6.2-10.4c3.4-3,6.7-5.8,10-8.6l-134.8-89.4-12.6,25.1Z"/>
            <path class="st26" d="M3588,3133.2c7.5-5.1,14.6-9.6,21.3-13.5,24-52.9,31-132.1,31-132.1l152.9-48-171.2,19.4-14.2,17.6-19.7,156.6Z"/>
            <path class="st26" d="M3753.5,2952.1s61.4,8,85.6,47.2c0,0,28.1,20.8,57.8,26.9l-50.5-32.4s-34.7-48.4-92.9-41.7Z"/>
            <path class="st26" d="M3634.7,3046.4c.2.1,3.3,2.6,9.2,6.7,13.5,9.4,41.6,27.5,81.6,45.7,25.3,2.6,47.2,3.5,66,3.3,0,0-68.2-15-138-46.7-6.3-2.8-12.5-5.8-18.8-8.9Z"/>
            <path class="st25" d="M3400.5,3102.7c41.6,44.1,156.1,102.8,156.1,102.8,69.1-97.9,66.8-228.2,66.8-228.2l200.2-44.4-60.4-54.9s-251,7-282.4,26.4c-28.6,17.7-31.5,70.4-31.5,70.4-13.5,58.1-48.9,127.9-48.9,127.9Z"/>
            <path class="st45" d="M3400.2,3294.4l-1.2-3.6c.6,2.1,1.1,3.3,1.2,3.6Z"/>
            <path class="st26" d="M3394.6,3227.7c-.4,11.3.8,20.6,2.3,27.2,1.6-17.3,6.7-40.4,19.1-69.3l-23.7,35c1.6,2,2.4,4.5,2.3,7.1Z"/>
          </g>
          <path class="st42" d="M3838,2317.9s-4.9-14.2-40.3-14.8c0,0-41-3.3-65.7,34-1.5,2.3-3.2,4.4-5,6.4-3.7,4-10.1,12-10.8,20.7-.3,3.4-.6,6.7-1.3,10-1.1,5.5-2.8,12.6-4.6,14.4-.6.6-1.1,1.2-1.6,1.9-2.4,4.2-8.6,16.6-6.7,32.8,0,0,2.2,7.4,2.7,15,.2,4.4-.6,8.7-2.3,12.7-2.3,5.3-6.4,16.7-4.1,27.6,1.2,5.7,2,11.5,1.8,17.4-.1,3.2-.4,6.3-.9,8.1,0,0-5.3,24.4,33.6,28,0,0,41.4,2.4,54.3-14.6l87.8-37.9-21-151.4-15.8-10.3Z"/>
          <path class="st29" d="M3770.5,2464.6s9.4,80.3,0,98.2l32.3,34.7,60-46.8-26.5-134.1-65.9,47.9Z"/>
          <path class="st10" d="M3709,2647.5c-29.6,17.8-86.4,29.8-127.2,36.6-27.4,4.5-47.6,6.7-47.6,6.7l-3.9-70,127.8-55.5,18.9-8.2c79.5-10.4,32.1,90.4,32.1,90.4Z"/>
          <path class="st10" d="M3559,2668s-21.1,47.7-66.1,6.5l-27.1-41.1-17.2-26.1s33.2-22.9,37.6-42.9c0,0,9.1,10.3,21.2,25.6,16.8,21.2,39.3,51.9,51.5,78.1Z"/>
          <path class="st34" d="M3864.5,2529.7l-.6,23.8v2.6c0,0-3.3,124-3.3,124l-16.3,162.1-1.1,10.8-2.9,29h-117.3s-20.4-1.6-20.4-1.6c-15.4-7-24.8-23.2-20.6-38.9l42.3-155.7,6.1-23.6,25.7-93.5.8-1.8,1.1-2.4,17.6-38.7c.6,14.5,11.4,26.4,15.5,30.5.4.4.8.7,1,1,.4.4.6.5.6.5,2.1-.9,4.2-1.9,6.3-2.9.3-.1.6-.3.9-.5,30.5-15.7,60.7-46.5,60.7-46.5l3.9,21.8Z"/>
          <rect class="st4" x="3742.9" y="2857.8" width="27.3" height="40.5" transform="translate(189.4 -231.7) rotate(3.6)"/>
          <path class="st26" d="M3863.9,2553.5v2.6c0,0-43.8,37.5-43.8,37.5l-21-38.8c.3-.1.6-.3.9-.5l22.5,31.4,41.5-32.3Z"/>
          <path class="st26" d="M3792.2,2557.2l-27.5,42.6-7.8-33,1.1-2.4,7.5,26,25.7-34.2c.4.4.8.7,1,1Z"/>
          <path class="st10" d="M3779.4,2860.9c0,1.3,0,2.6,0,3.9.2,6.9.4,14.1.6,21.5.4,11.6.9,23.7,1.5,36.1,1.5,30,3.7,61.4,6.9,90.6.6,5.1,5.3,8.7,10.4,7.9,22.1-3.6,78.8-13.3,120.1-25,0,0-3.9-32-15.6-74,0,0-1-3.8-2.5-10.6-1.1-5.1-2.5-12-3.8-20.3-.6-3.9-1.3-8.1-1.9-12.6-.4-2.9-.8-6-1.1-9.1-1.3-11.6-2.3-24.6-2.7-38.7-.1-4.2-.2-8.6-.2-13,0-18.8,1.4-39.1,4.9-59.7,1.3-7.9,2.9-15.9,4.9-23.9l13.9-40.2.7-2.1,40.4-117.1,2.6-7.5s-4.4-1.6-10.1-3.7c-5.6-2.1-12.5-4.6-17.7-6.4-10-3.5-25.1-7.8-46.3-11.6v-.2c-.1,0-1.1-1.3-1.1-1.3l-21.4-27s-54.6,89.9-67.1,173.3l-15.4,87.9-.3,1.5-.7,4.1s-.4,32.2.7,77.1Z"/>
          <path class="st26" d="M3954.4,2572.4l-53.3,161.5c-2,8-3.6,16-4.9,23.9,7.1-95.8,14-146.3,30.4-176.2,3.7-6.7,10.4-11.4,18-12,7.3-.6,9.9,2.8,9.9,2.8Z"/>
          <path class="st26" d="M3709,2647.5c-29.6,17.8-86.4,29.8-127.2,36.6,44.8-70.2,73.4-96.3,97.5-118.2l20.9,5.1c79.5-10.4,8.9,76.5,8.9,76.5Z"/>
          <polygon class="st26" points="3889.4 2564 3779.5 2779.7 3779.7 2778.2 3884 2564.8 3875.4 2556.2 3883.6 2543.9 3884.6 2545.1 3879.3 2556.2 3889.4 2564"/>
          <path class="st10" d="M3776,2526.2c-.1.6-4.4,19.5-10.5,47.1,0,0-5.2,59.7-27.2,170.6-.1.7-5.3,28.7-5.5,29.4-19.5,111.6-71.5,104.6-90.5,109.6,0,0,23.4-68,25.8-97.6,0,0-.8-41.3-5.5-92,0,0-14-136.4,24.9-137.2l55-5.6,1.6-.2h.8c0,0,11.9-1.3,11.9-1.3l19.1-23Z"/>
          <path class="st26" d="M3725,2720.7l8.3,50.6c-.1.7-.3,1.4-.4,2.1-3.1-13.3-7.2-31.1-7.3-30.5-6.5-63.5-15-152.9-5.2-186.7l15.6,5.5,6.7-11,1.6-.2h.8c0,0-6,15.9-6,15.9l-14-5.5s-12.5,18.7,0,159.8Z"/>
          <path class="st6" d="M3728.8,2787.7s0,0,0,0"/>
          <path class="st28" d="M3829.1,2479s-57.1,53.6-79.8,21.7c0,0-58.6-117,4.8-165.6,0,0,54.1-44.6,79.2,18.4,0,0,57.7,60.8-4.2,125.5Z"/>
          <path class="st42" d="M3789.9,2314.9c-75.6-6-68.5,122.4-68.5,122.4,7.9-55.7,38.9-91.4,54.6-94.3,5.9-1.1,12,.1,17,3.4,17.2,11.2,55.7,47.9,36.7,143.7,0,0-16.2,59.8,55.4,34.5,0,0,39.2-13.7,27.8-37.5,0,0-9.4-15.6-2.1-32.6,0,0,4.4-13.4-5.9-28-3.6-5.1-5.6-11.2-5.6-17.5,0-9.6-1.1-23.6-6.9-31.7-2.7-3.8-5.1-7.9-6.8-12.3-1.6-4.3-3.4-9.4-4.5-13.9-1.5-6-4.2-11.7-8-16.7-8-10.5-22.7-23.9-44.2-20.2l-39.1.7Z"/>
          <path class="st42" d="M3761.2,2335.2s-4.7,35.9,84.2,95.9c88.9,60-17.9-106-17.9-106l-66.3,10.1Z"/>
          <path class="st34" d="M3486.3,2564.3s9.1,10.3,21.2,25.6c-6.8,14-19.2,30.7-41.7,43.4l-17.2-26.1s33.2-22.9,37.6-42.9Z"/>
          <path class="st4" d="M3524.6,2539.7h0s0,0,0,0Z"/>
          <path class="st14" d="M3913.6,2673.3l1.4,20.3,41.2-119.2c-.2,0-.5.1-.7.2,0,0-37.1-1.9-41.9,98.7Z"/>
          <path class="st14" d="M3710.1,2906.4c5-15.2,27-25,40.4-29.7l7.5-3-15.6,1.2c-3.3.3-6.5-.7-9-2.6-2.5-1.9-4.4-4.6-5-7.9,22.7-4.4,39.4-4.6,51-3.4,2.7.3,5.1.6,7.2,1l66.8-27.3,37.9-17.1c0,4.4,0,8.7.2,13,.4,14.1,1.4,27.1,2.7,38.7.2,1.4.3,2.8.5,4.2,0,.2,0,.5,0,.7.2,1.4.3,2.7.5,4,.6,4.5,1.2,8.8,1.9,12.7l-28.7,6.7-27.9,6.6c0-.9,0-1.8,0-2.8,0-.8,0-1.6-.2-2.5l-31.4,8.2-27.4,15.2-8.5,4.7c-64.9,11.1-63-20.7-63-20.7Z"/>
          <g>
            <path class="st10" d="M3984.5,2762.2l2.8,67.2c.9,22.3-25.1,34.9-42.1,20.5l-25.2-21.5-3-39.8-4.1-71.2-3.6-52.8c4.8-100.6,41.9-98.7,41.9-98.7,23.3-6.2,24.4,64.7,24.4,64.7l9,131.6Z"/>
            <g>
              <path class="st28" d="M3705.8,2897.7c7.3-22.2,51.2-33,51.2-33l-18.9,1.5c-3.3.3-6.5-.7-9-2.6-2.5-1.9-4.4-4.6-5-7.9,52.8-10.3,72.9,2.2,72.9,2.2,13.2,0,36.9-8.3,50.2-13.4,5.9-2.3,9.8-3.9,9.8-3.9l8.8,42-7.7,2-53.4,14-35.9,20c-64.9,11.1-63-20.7-63-20.7Z"/>
              <path class="st10" d="M3836.2,2895.5c0-.9,0-1.8,0-2.8-.5-12.5-8.2-33-10.9-40-.6-1.6-1-2.5-1-2.5l24.7-11.2,70.5-31.9,49.6-16.2,14.7,33.8c6.2,14.4-1,31-15.8,36.3l-30.6,10.8-73.4,17.2-27.9,6.6Z"/>
              <path class="st34" d="M3836.2,2895.5c0-.9,0-1.8,0-2.8-.5-12.5-8.2-33-10.9-40-.6-1.6-1-2.5-1-2.5l24.7-11.2c5.3,10.7,15,32.7,15,49.9l-27.9,6.6Z"/>
            </g>
          </g>
          <g>
            <g>
              <path class="st2" d="M3383.6,2576.7l-25.3,45.7-2.4.4c-.9.2-1.6,1.1-1.4,2l.6,3.4-3.8,6.9h0c-1.3-.8-2.9-.9-4.2-.5-1.3.4-2.4,1.3-3,2.5-.6,1.2-.8,2.5-.4,3.7.3,1.3,1.2,2.6,2.5,3.3h.2c0,0-.3.6-.3.6l-10.9,4.7-.5.2c-.6.3-1.3.2-1.8-.2-.2-.1-.3-.3-.5-.5-.1-.2-.2-.4-.2-.7v-.5c0,0-1.9-11.7-1.9-11.7l.4-.7,3.1-.9c1.3-.4,2.1-1.7,1.8-3-.2-1-.5-2.3-.8-3.6l5-9,2.3-.8c1.4-.5,2.2-2,1.9-3.5l-.5-2.3.9-1.6h.3c.9.3,1.8-.1,2.3-1l9.3-16.7c.3-.6.3-1.3,0-1.9-.1-.3-.3-.6-.5-1l12.2-22,15.8,8.7Z"/>
              <path class="st11" d="M3383.6,2576.7l-7.5,13.5-1.1-.6c-1.4-.7-3.1-.3-3.8,1.1l-24.4,44.1c-1.3.4-2.4,1.3-3,2.5-.6,1.2-.8,2.5-.4,3.7l-1.1,1.9-6.3,4.6-2.4,1.7c-.4.3-.7.3-.9.2-.2,0-.4-.2-.5-.5,0-.2,0-.3,0-.6v-1.2c0,0,.8-9.5.8-9.5l28.9-52.2c.7-1.4.3-3.1-1.1-3.8l-.4-.2,7.5-13.5,15.8,8.7Z"/>
              <path class="st14" d="M3377.3,2573.1l-41.2,74.4-2.4,1.7c-.4.3-.7.3-.9.2-.2-.1-.3-.3-.5-.5,0-.2,0-.3,0-.6v-1.2c0,0,42.1-75.8,42.1-75.8l3,1.7Z"/>
              <path class="st14" d="M3383.5,2577l-1.7,3.1-2.2-.9c-1.5-.6-3-1.3-4.4-2.1-.5-.3-1-.5-1.5-.8s-1-.6-1.5-.9c-1.4-.8-2.8-1.7-4.1-2.7l-2-1.4,1.7-3.1,1.3,1c1.5,1.1,3.1,2.2,4.7,3.1.5.3,1,.6,1.5.9.5.3,1,.5,1.5.8,1.7.9,3.4,1.7,5.2,2.4l1.5.6Z"/>
              <path class="st40" d="M3415.9,2565.7l-4.6,8.4c-.7.5-1.3,1-2.1,1.3l5.7-10.3c3.7-6.6,4.9-14.3,3.4-21.7-1.5-7.4-5.5-14.1-11.4-18.8-1.1-.9-2.2-1.6-3.4-2.3s-2.5-1.2-3.8-1.7c-7.1-2.5-14.9-2.4-22,.3-7.1,2.7-12.9,7.8-16.6,14.4l-5.7,10.3c0-.8,0-1.6,0-2.5l4.6-8.4c7.8-14.1,24.7-20.6,40-15.2,1.4.5,2.7,1.1,4,1.8,1.3.7,2.5,1.5,3.6,2.4,6.3,5,10.3,12,11.8,19.5,1.5,7.5.4,15.4-3.5,22.5Z"/>
              <path class="st46" d="M3409.1,2577.9c-3.3,5.8-10.4,8.2-16.5,5.6l-12.5-5.3c-4.1-1.8-8.1-4-11.8-6.5l-11.1-7.7c-5.5-3.8-7.2-11.1-4-16.9-.1,1-.1,2,0,3-1.4,4.8.4,10,4.7,13l11.1,7.7c1.8,1.3,3.7,2.4,5.6,3.5,1.9,1.1,3.9,2,6,2.9l12.5,5.3c4.8,2,10.1.8,13.5-2.9.9-.4,1.7-1,2.6-1.6Z"/>
              <path class="st40" d="M3409.1,2577.9c-3.3,5.8-10.4,8.2-16.5,5.6l-12.5-5.3c-4.1-1.8-8.1-4-11.8-6.5l-11.1-7.7c-5.5-3.8-7.2-11.1-4-16.9-.1,1-.1,2,0,3-1.4,4.8.4,10,4.7,13l11.1,7.7c1.8,1.3,3.7,2.4,5.6,3.5,1.9,1.1,3.9,2,6,2.9l12.5,5.3c4.8,2,10.1.8,13.5-2.9.9-.4,1.7-1,2.6-1.6Z"/>
              <path class="st40" d="M3418.3,2543.5c-1.5-7.4-5.5-14.1-11.4-18.8-1.1-.9-2.2-1.6-3.4-2.3s-2.5-1.2-3.8-1.7c-7.1-2.5-14.9-2.4-22,.3-7.1,2.7-12.9,7.8-16.6,14.4l-6.7,12c-.5.8-.8,1.7-1,2.5-1.4,4.8.4,10,4.7,13l11.1,7.7c1.8,1.3,3.7,2.4,5.6,3.5,1.9,1.1,3.9,2,6,2.9l12.5,5.3c4.8,2,10.1.8,13.5-2.9.6-.7,1.1-1.4,1.6-2.2l6.7-12c3.7-6.6,4.9-14.3,3.4-21.7ZM3405.3,2539.7l-4.7-2c-1.5-.6-3-1.4-4.4-2.2-1.4-.8-2.8-1.7-4.2-2.6l-4.2-2.9c-.4-.3-.3-.9.1-1.1,0,0,0,0,0,0,3.4-1.3,7.1-1.3,10.5-.1.4.1.8.3,1.2.5.4.2.8.5,1.1.7,2.8,2.2,4.7,5.4,5.4,9,0,0,0,0,0,0,0,.5-.4.9-.9.7Z"/>
              <path class="st35" d="M3418.3,2543.5c-1.5-7.4-5.5-14.1-11.4-18.8-1.1-.9-2.2-1.6-3.4-2.3s-2.5-1.2-3.8-1.7c-7.1-2.5-14.9-2.4-22,.3-7.1,2.7-12.9,7.8-16.6,14.4l-6.7,12c-.5.8-.8,1.7-1,2.5.3,3.3,1.8,6.2,4.3,8l12.5,9.2c2,1.5,4.1,2.8,6.2,4,2.1,1.2,4.4,2.3,6.7,3.2l14.5,5.7c2.9,1.1,6.1.8,9.1-.6.6-.7,1.1-1.4,1.6-2.2l6.7-12c3.7-6.6,4.9-14.3,3.4-21.7ZM3387.9,2528.9s0,0,0,0c3.4-1.3,7.1-1.3,10.5-.1.4.1.8.3,1.2.5.4.2.8.5,1.1.7,2.8,2.2,4.7,5.4,5.4,9,0,0,0,0,0,0,0,.5-.4.9-.9.7l-4.7-2c-1.5-.6-3-1.4-4.4-2.2-1.4-.8-2.8-1.7-4.2-2.6l-4.2-2.9c-.4-.3-.3-.9.1-1.1Z"/>
              <path class="st38" d="M3406.6,2579.5c-3.3,3.7-8.7,5-13.5,2.9l-12.5-5.3c-2-.9-4-1.8-6-2.9-1.9-1.1-3.8-2.2-5.6-3.5l-11.1-7.7c-4.2-3-6-8.2-4.7-13,.3,3.3,1.8,6.2,4.3,8l12.5,9.2c2,1.5,4.1,2.8,6.2,4,2.1,1.2,4.4,2.3,6.7,3.2l14.5,5.7c2.9,1.1,6.1.8,9.1-.6Z"/>
              <path class="st40" d="M3412.3,2556.2c.4-2.6.9-7.4,0-11.6-1.2-6-4.5-11.4-9.3-15.3-.8-.7-1.7-1.2-2.6-1.7-.9-.5-1.9-.9-2.9-1.3-5.8-2-12.1-1.9-17.8.2-4,1.5-7.8,4.5-9.8,6.2-2.7,2.3-2.7,6.6.2,8.8,0,0,.1,0,.2.1l11.1,7.7c1.6,1.1,3.4,2.2,5.1,3.2,1.7,1,3.6,1.9,5.4,2.6l12.5,5.3c0,0,.1,0,.2,0,3.4,1.3,7-.9,7.6-4.5ZM3405.3,2539.7l-4.7-2c-1.5-.6-3-1.4-4.4-2.2-1.4-.8-2.8-1.7-4.2-2.6l-4.2-2.9c-.4-.3-.3-.9.1-1.1,0,0,0,0,0,0,3.4-1.3,7.1-1.3,10.5-.1.4.1.8.3,1.2.5.4.2.8.5,1.1.7,2.8,2.2,4.7,5.4,5.4,9,0,0,0,0,0,0,0,.5-.4.9-.9.7Z"/>
              <g>
                <path class="st35" d="M3411.2,2574.1l-2,3.7s0,0,0,0c-.8.6-1.7,1.2-2.6,1.6.6-.7,1.1-1.4,1.6-2.2l1-1.8c.7-.4,1.4-.8,2.1-1.3Z"/>
                <path class="st35" d="M3353.3,2550c0-1,0-2,0-3,0,0,0,0,0,0l2-3.7c0,.8-.1,1.7,0,2.5l-1,1.8c-.5.8-.8,1.7-1,2.5Z"/>
              </g>
              <path class="st43" d="M3409.2,2575.5l-1,1.8c-.5.8-1,1.6-1.6,2.2-3,1.5-6.2,1.8-9.1.6l-14.5-5.7c-2.3-.9-4.5-2-6.7-3.2-2.1-1.2-4.2-2.5-6.2-4l-12.5-9.2c-2.5-1.8-3.9-4.7-4.3-8,.2-.9.6-1.7,1-2.5l1-1.8c.2,3.5,1.7,6.6,4.3,8.6l12.5,9.2c2,1.5,4.1,2.8,6.2,4,2.1,1.2,4.4,2.3,6.7,3.2l14.5,5.7c3,1.2,6.5.8,9.6-.9Z"/>
            </g>
            <g>
              <path class="st40" d="M3513.4,2661.9l.3-102.3v-2.1c0-15.7-12.4-28.7-28.2-29.2l-34.6-1.1c-15.7-.5-29,11.6-30,27.3v2.1c-.1,0-6.5,102.1-6.5,102.1-1,16.4,11.7,30.3,28.1,30.9l40.8,1.3c16.4.5,30-12.6,30-29ZM3436.2,2541.1s0,0,0,0c4-3.6,9.1-5.5,14.5-5.3l34.6,1.1c5.4.2,10.4,2.4,14.1,6.3,0,0,0,0,0,0,2.6,2.8.6,7.3-3.2,7.2l-57.3-1.9c-3.8-.1-5.6-4.8-2.8-7.4Z"/>
              <g class="st14">
                <path d="M3433.4,2615.9c-5.6-.2-11.1-.8-16.3-1.9l.4-2c5.2,1,10.7,1.7,16.4,1.9l62.9,2.1c5.7.2,11.3,0,16.5-.8l.3,2c-5.4.7-11,1-16.9.8l-62.9-2.1c-.2,0-.3,0-.5,0Z"/>
              </g>
              <path class="st13" d="M3444.4,2662.3c-4.2-.1-6.8-1.8-8.1-2.8-1.3-1-3.4-3.2-3.1-6.4l5.7-77.4c.2-2.3,1.5-4.3,3.8-5.8,2.2-1.4,5-2.2,8-2.1l35.6,1.2c3,0,5.8,1,7.9,2.6,2.2,1.6,3.4,3.8,3.4,6l.6,77.6c0,3.2-2.2,5.2-3.5,6.1-1.3.9-4.1,2.4-8.2,2.2l-42-1.4Z"/>
              <path class="st35" d="M3444.4,2661.6c-4-.1-6.5-1.7-7.6-2.6-1.2-.9-3.1-2.9-2.9-5.7l5.7-77.4c.1-2,1.4-3.9,3.5-5.3,2.1-1.4,4.8-2.1,7.6-2l35.6,1.2c2.8,0,5.5,1,7.5,2.5,2,1.5,3.1,3.4,3.1,5.5l.6,77.6c0,2.9-2,4.7-3.2,5.5-1.2.8-3.8,2.2-7.8,2.1l-42-1.4Z"/>
              <g class="st23">
                <path class="st10" d="M3437.3,2647c.3-9.8.8-19.5,1.4-29.2.6-9.7,1.2-19.5,1.9-29.2l.6-7.3.3-3.6v-1.8c.2-.8.6-1.6,1-2.1.9-1.2,2.1-1.9,3.4-2.4,1.2-.5,2.6-.7,3.9-.8.3,0,.7,0,1,0h.9s1.8.1,1.8.1l3.7.2c9.7.4,19.5,1,29.2,1.7-9.8,0-19.5,0-29.3-.2h-3.7c0,0-1.8-.1-1.8-.1h-.9c-.3,0-.6,0-.8,0-1.1,0-2.2.3-3.3.7-1,.4-2,1-2.5,1.8-.3.4-.5.8-.5,1.2v1.8c-.1,0-.4,3.6-.4,3.6l-.5,7.3c-.7,9.7-1.5,19.4-2.4,29.2-.8,9.7-1.8,19.4-2.9,29.1Z"/>
              </g>
              <path class="st11" d="M3494.3,2660.8c-1.2.8-3.8,2.2-7.8,2.1l-42-1.4c-4-.1-6.5-1.7-7.6-2.6-1.2-.9-3.1-2.9-2.9-5.7v-1.4c.4,2.3,1.9,3.9,2.9,4.7,1.2.9,3.7,2.5,7.6,2.6l42,1.4c4,.1,6.6-1.3,7.8-2.1,1.1-.7,2.7-2.2,3.1-4.5v1.4c0,2.9-2,4.7-3.2,5.5Z"/>
              <g>
                <path class="st40" d="M3461.3,2653.4c-.4,0-.9-.2-1.2-.5-.3-.3-.5-.8-.5-1.2l.2-5.1c0-.9.8-1.6,1.7-1.6l7.8.3s0,0,0,0c.9,0,1.6.8,1.6,1.7l-.2,5.1c0,.9-.8,1.6-1.7,1.6l-7.8-.3s0,0,0,0ZM3469.3,2646.7h0l-7.8-.3c-.1,0-.2.1-.2.2l-.2,5.1c0,0,0,.1,0,.2,0,0,0,0,.2,0h0l7.8.3c.1,0,.2,0,.2-.2l.2-5.1c0-.1,0-.2-.2-.2Z"/>
                <path class="st40" d="M3461.2,2646.4v-3.2c.1-1.1.6-2.2,1.4-2.9s1.9-1.2,3-1.1c0,0,0,0,0,0,2.3,0,4.1,2,4.1,4.4v3.2c-.1,0-8.5-.3-8.5-.3ZM3465.6,2640.6s0,0,0,0c-.7,0-1.5.2-2,.8-.5.5-.9,1.2-.9,1.9v1.8c0,0,5.5.2,5.5.2v-1.8c.1-1.5-1.1-2.8-2.6-2.9Z"/>
                <path class="st40" d="M3465.3,2651.1c-.4,0-.7-.4-.7-.8v-1c-.2-.2-.3-.6-.3-.9,0-.3.1-.6.4-.8.2-.2.5-.3.8-.3,0,0,0,0,0,0,.3,0,.6.1.8.4.2.2.3.5.3.9h0c0,.4-.2.7-.4.9v1c0,.2-.1.4-.3.5-.1.1-.3.2-.5.2,0,0,0,0,0,0ZM3465.4,2647.9s0,0,0,0c-.1,0-.3,0-.4.2-.1.1-.2.3-.2.5,0,.2,0,.4.3.6h.1c0,0,0,1.4,0,1.4,0,0,0,.2.2.2,0,0,0,0,.1,0,0,0,0,0,0-.1v-1.3s.2,0,.2,0c.2-.1.3-.3.3-.5h0c0-.2,0-.3-.2-.5-.1-.1-.2-.2-.4-.2Z"/>
              </g>
              <g>
                <path class="st40" d="M3463.3,2591.8c-.9,0-1.6-.8-1.6-1.7l.2-5.1c0-.4.2-.9.5-1.2.3-.3.8-.5,1.2-.5l7.8.3c.4,0,.9.2,1.2.5.3.3.5.8.5,1.2h0s-.2,5.1-.2,5.1c0,.4-.2.9-.5,1.2-.3.3-.8.5-1.2.5l-7.8-.3s0,0,0,0ZM3471.3,2585.1h0l-7.8-.3c0,0-.1,0-.2,0,0,0,0,0,0,.2l-.2,5.1c0,.1,0,.2.2.2,0,0,0,0,0,0l7.8.3c0,0,.1,0,.2,0,0,0,0,0,0-.2l.2-5.1c0,0,0-.1,0-.2,0,0,0,0-.2,0Z"/>
                <path class="st40" d="M3463.9,2584.8c-.4,0-.7-.3-.7-.7,0-.4.3-.7.7-.7l6.3.2v-1.8c0-.7-.2-1.5-.7-2-.5-.5-1.2-.9-1.9-.9,0,0,0,0,0,0-1.1,0-2.1.6-2.6,1.5-.2.4-.6.5-1,.3-.4-.2-.5-.6-.3-1,.7-1.4,2.3-2.3,3.9-2.3,0,0,0,0,0,0,1.1,0,2.2.5,2.9,1.3.8.8,1.2,1.9,1.1,3v3.2c-.1,0-7.8-.3-7.8-.3,0,0,0,0,0,0Z"/>
                <path class="st40" d="M3467.3,2589.5c-.4,0-.7-.4-.7-.8v-1c-.2-.2-.3-.6-.3-.9,0-.7.6-1.2,1.2-1.2,0,0,0,0,0,0,.3,0,.6.2.8.4.2.2.3.5.3.9h0c0,.4-.2.7-.4.9v1c0,.4-.4.7-.8.7,0,0,0,0,0,0ZM3467.4,2586.2s0,0,0,0c-.3,0-.6.3-.6.6,0,.2,0,.4.3.6h.1c0,0,0,1.4,0,1.4,0,0,0,.2.2.2,0,0,.2,0,.2-.2v-1.3s.2,0,.2,0c.2-.1.3-.3.3-.5h0c0-.2,0-.3-.2-.5-.1-.1-.2-.2-.4-.2Z"/>
              </g>
              <g>
                <path class="st40" d="M3465.7,2619.2c-1.7,0-3.5-.2-5.5-.3h-.8s.1-.8.1-.8c0,0,0,0,0-.1,0-.7-.5-1.2-1.2-1.3,0,0,0,0,0,0-.7,0-1.2.5-1.3,1.2v.8c0,0-.8,0-.8,0-.6,0-1.1,0-1.5-.1h-.1c-.6,0-1.1-.4-1.4-.8-.3-.5-.4-1.1-.2-1.6.2-.5.6-1,1.1-1.5.6-.5,1.4-.9,2.3-1.1,3.5-.7,5.7-1.5,6.9-2.1,2.2-1,4.9-.9,6.7-.6,4.8.7,6.4,3.9,6.6,4.4.6,1,.9,1.9.7,2.6-.2.7-.7,1-.8,1h0s0,0,0,0c-.3,0-.6.1-.9.2h-.8c0,0,0-.7,0-.7,0-.6-.5-1.1-1.2-1.1h0c-.7,0-1.2.5-1.3,1.2,0,0,0,0,0,.1v.8c0,0-.7,0-.7,0-1.7,0-3.7,0-6.1,0ZM3457.2,2617.9h0s0,0,0,0ZM3461,2617.5c4,.2,7.4.4,10.1.3.3-1.2,1.4-2.1,2.7-2.1,0,0,0,0,0,0,1.1,0,2,.7,2.4,1.7,0,0,0,0,0,0,0-.1.1-.6-.5-1.5h0c0,0,0-.1,0-.1,0-.1-1.3-3-5.5-3.6-2.3-.3-4.4-.1-5.9.5-1.3.6-3.5,1.4-7.2,2.1-.6.1-1.2.4-1.7.8-.4.3-.6.6-.7.9,0,.2,0,.3,0,.3,0,0,.1.2.3.2h.1c.2,0,.5,0,.8,0,.3-1.1,1.4-1.9,2.6-1.9,0,0,0,0,0,0,1.3,0,2.3,1,2.5,2.2Z"/>
                <path class="st40" d="M3458.3,2620.6c-1.4,0-2.5-1.2-2.5-2.6,0,0,0,0,0-.1,0-1.5,1.3-2.6,2.7-2.6,1.5,0,2.6,1.3,2.6,2.7,0,0,0,.2,0,.3-.2,1.3-1.3,2.3-2.7,2.3h0s0,0,0,0ZM3457.2,2617.9h0c0,.7.5,1.2,1.2,1.3,0,0,0,0,0,0h0c.6,0,1.2-.4,1.2-1,0,0,0,0,0-.1,0-.7-.5-1.2-1.2-1.3,0,0,0,0,0,0-.7,0-1.2.5-1.3,1.2ZM3457.2,2617.9h0s0,0,0,0Z"/>
                <path class="st40" d="M3473.6,2621.1c-1.4,0-2.5-1.1-2.5-2.5,0,0,0-.2,0-.3,0-1.5,1.3-2.6,2.7-2.6,1.4,0,2.5,1.1,2.6,2.5,0,0,0,.2,0,.3,0,1.5-1.3,2.6-2.7,2.6,0,0,0,0,0,0ZM3473.8,2617.2h0c-.7,0-1.2.5-1.3,1.2,0,0,0,0,0,.1,0,.6.5,1.1,1.2,1.1,0,0,0,0,0,0h0c.7,0,1.2-.5,1.3-1.2,0,0,0,0,0-.1h0c0-.6-.5-1.1-1.2-1.2Z"/>
              </g>
              <g class="st14">
                <path d="M3442.8,2632.4c-2.7-.1-5.3-.7-7.6-1.7l.8-1.8c2,.9,4.3,1.5,6.8,1.6,0,0,0,0,0,0l47.2,1.5c2.4,0,4.7-.3,6.8-1l.7,1.9c-2.3.8-4.8,1.2-7.5,1.1l-47.2-1.5s0,0-.1,0Z"/>
              </g>
              <g class="st14">
                <path d="M3443.9,2598.6c-2.2,0-4.2-.5-6.1-1.2l.7-1.9c1.7.6,3.6,1,5.6,1l47.2,1.5c1.9,0,3.8-.1,5.5-.6l.5,1.9c-1.9.5-3.9.8-6.1.7l-47.2-1.5s0,0-.1,0Z"/>
              </g>
              <path class="st40" d="M3485,2630.7l-37-1.2c-1.1,0-2,.8-2,1.9h0c0,1.1.8,2,1.9,2l37,1.2c1.1,0,2-.8,2-1.9h0c0-1.1-.8-2-1.9-2Z"/>
              <path class="st40" d="M3486.1,2597.1l-37-1.2c-1.1,0-2,.8-2,1.9h0c0,1.1.8,2,1.9,2l37,1.2c1.1,0,2-.8,2-1.9h0c0-1.1-.8-2-1.9-2Z"/>
              <g class="st19">
                <path class="st10" d="M3447,2631.8c-.2,0-.4-.2-.4-.4,0-.3.2-.7.4-.9.3-.2.6-.4.9-.4l37,1.2s0,0,0,0c.2,0,.4.2.4.4,0,.2-.2.4-.4.4l-37-1.2c-.1,0-.3,0-.4.1s-.2.2-.2.4c0,.2-.2.4-.4.4h0Z"/>
                <path class="st10" d="M3448.1,2598.2c-.2,0-.4-.2-.4-.4,0-.7.6-1.3,1.3-1.3l37,1.2s0,0,0,0c.2,0,.4.2.4.4,0,.2-.2.4-.4.4l-37-1.2c-.3,0-.6.2-.6.5,0,.2-.2.4-.4.4h0Z"/>
              </g>
              <path class="st40" d="M3442.6,2548.6l24.9.8-24.6-.8c-.1,0-.2,0-.3,0Z"/>
              <path class="st40" d="M3483.5,2536.8l-15.4-.5,14.8.5c.2,0,.4,0,.6,0Z"/>
              <path class="st18" d="M3513.8,2557.5c0-2.5-.3-4.8-.9-7.1-1.1-4.4-3.2-8.5-6.1-11.8-4.7-5.5-11.5-9.3-19.2-10.1-.7,0-1.3-.1-2-.1l-13.7-.4-20.9-.7c-9.7-.3-18.5,4.2-24.1,11.4-1.6,2-2.8,4.3-3.8,6.7-1.2,2.9-1.9,6-2.1,9.2v2.1c-.1,0,23.9.8,23.9.8l63,2.1,5.8.2v-2.1ZM3442.6,2548.6c-3-.4-4.3-4.9-2-7.3,0,0,0,0,0,0,3.4-3.6,7.9-5.6,12.5-5.4l14.2.5,18,.6h-1.9c4.4.2,8.5,2.4,11.5,6.1,0,0,0,0,0,0,2.2,2.7.4,7.3-2.8,7.2l-23.8-.8-25.8-.8Z"/>
              <g class="st14">
                <path d="M3496.3,2550.4l-28.7-.9,24.6.8c3.3.1,5.1-4.5,2.8-7.2,0,0,0,0,0,0-3-3.7-7.1-5.9-11.5-6.2h1.9c5.4.2,10.4,2.5,14.1,6.3,0,0,0,0,0,0,2.6,2.8.6,7.3-3.2,7.2Z"/>
                <path d="M3440.6,2541.3c-2.3,2.5-1,6.9,2,7.3h-3.7c-3.8-.2-5.6-4.9-2.8-7.5,0,0,0,0,0,0,4-3.6,9.1-5.5,14.5-5.3l17.4.6-14.9-.5c-4.6-.1-9,1.8-12.5,5.4,0,0,0,0,0,0Z"/>
              </g>
              <path class="st7" d="M3452.3,2689.8l-9.7-.3c-16.4-.5-29.1-14.5-28.1-30.9l6.5-104.2c1-15.7,14.3-27.8,30-27.3l9.7.3c-15.7-.5-29,11.6-30,27.3l-6.5,104.2c-1,16.4,11.7,30.3,28.1,30.9Z"/>
            </g>
            <g>
              <path class="st36" d="M3449.9,2470.2c-19.9-11-45-3.8-56,16.1-11,19.9-3.8,45,16.1,56,19.9,11,45,3.8,56-16.1,11-19.9,3.8-45-16.1-56ZM3411.7,2539.1c-8.8-4.9-15.2-12.9-17.9-22.5-2.8-9.7-1.6-19.8,3.3-28.6,4.9-8.8,12.9-15.2,22.5-17.9,9.7-2.8,19.8-1.6,28.6,3.3,8.8,4.9,15.2,12.9,17.9,22.5,2.8,9.7,1.6,19.8-3.3,28.6-4.9,8.8-12.9,15.2-22.5,17.9-9.7,2.8-19.8,1.6-28.6-3.3Z"/>
              <path class="st17" d="M3449.9,2470.2c-19.9-11-45-3.8-56,16.1-11,19.9-3.8,45,16.1,56,19.9,11,45,3.8,56-16.1,11-19.9,3.8-45-16.1-56ZM3411.7,2539.1c-8.8-4.9-15.2-12.9-17.9-22.5-2.8-9.7-1.6-19.8,3.3-28.6,4.9-8.8,12.9-15.2,22.5-17.9,9.7-2.8,19.8-1.6,28.6,3.3,8.8,4.9,15.2,12.9,17.9,22.5,2.8,9.7,1.6,19.8-3.3,28.6-4.9,8.8-12.9,15.2-22.5,17.9-9.7,2.8-19.8,1.6-28.6-3.3Z"/>
              <path class="st18" d="M3468.2,2495.3c-2.9-10.2-9.7-18.7-19-23.8-9.3-5.1-20-6.4-30.2-3.4-10.2,2.9-18.7,9.7-23.8,19-5.1,9.1-6.3,19.7-3.6,29.8,0,.2,0,.3.1.5,1.6,5.5,4.2,10.4,7.8,14.7,3.1,3.7,6.9,6.8,11.2,9.2,9.3,5.1,20,6.4,30.2,3.4,2.8-.8,5.6-1.9,8.1-3.3,3.9-2.1,7.3-4.8,10.3-8.1,2.1-2.3,3.9-4.8,5.4-7.6,5.1-9.3,6.4-20,3.4-30.2ZM3462.9,2524.5c-1,1.8-2.1,3.5-3.4,5.1-4,5-9.1,8.9-15,11.4-1.3.5-2.7,1-4.1,1.4-9.7,2.8-19.8,1.6-28.6-3.3-3.3-1.8-6.2-4.1-8.7-6.7-4.2-4.3-7.3-9.5-9-15.3,0-.2-.1-.4-.2-.5-2.8-9.7-1.6-19.8,3.3-28.6,4.9-8.8,12.9-15.2,22.5-17.9,9.7-2.8,19.8-1.6,28.6,3.3,8.8,4.9,15.2,12.9,17.9,22.5,2.8,9.7,1.6,19.8-3.3,28.6Z"/>
              <path class="st14" d="M3459.5,2529.6v3.5c-3.1,3.3-6.6,6-10.4,8.1l-4.6-.2c5.9-2.5,11.1-6.4,15-11.4Z"/>
              <path class="st14" d="M3403,2532.5l-3.5-.6c-3.6-4.2-6.2-9.2-7.8-14.7,0-.2,0-.3-.1-.5l2.4.4c1.8,5.9,4.9,11.1,9,15.3Z"/>
            </g>
            <g>
              <path class="st40" d="M3403.4,2522.4c-1.2-.7-2.5-1.2-3.8-1.7-7.1-2.5-14.9-2.4-22,.3-7.1,2.7-17.6,13.8-17.6,13.8,7.8-14.1,24.7-20.6,40-15.2,1.4.5,4.6,3.4,3.4,2.8Z"/>
              <path class="st35" d="M3406.4,2525c-1.1-.9-5.7-4-7-4.4-7.1-2.5-14.4-2.5-21.4.1-7.1,2.7-12.9,7.8-16.6,14.4,0,0,2.4-1.7,7.7-3.2,2.8-.8,7.8-4.6,11.1-5.6,6.6-1.9,14.5,1,19,.3,4.2-.7,7.5-1.4,7.2-1.6Z"/>
              <path class="st40" d="M3401.8,2528.5c-.9-.5-3.2-1.8-4.2-2.2-5.8-2-12.1-1.9-17.8.2-1.6.6-4.5,10.1-1.6,7.1,2.2-2.4,10.1-5.5,14.4-5.8,2.3-.1,6.8.8,8.8,2.6,1.3,1.2.7-1.9.5-2Z"/>
            </g>
            <polygon class="st40" points="3472.8 2536.5 3451.2 2535.7 3458.6 2527.5 3473.1 2528 3472.8 2536.5"/>
          </g>
          <path class="st28" d="M3429.2,2508l6.3-40.4-1.4-15.2c-.6-6.3,4-11.8,10.3-12.5h0s18.7,46.1,12.8,75.1c0,0,5,6-7,13l-21-20Z"/>
          <path class="st14" d="M3434.1,2514.6c-7,9-16.7,13.8-27.9,13.8s-10.5-1-16.2-2.9l-.7-.2-.7-.3c-.2-.1-.6-.3-1.2-.6-2.8-3.8-5.6-8.1-8.2-13.2-11.1-21.7-12.4-31.3,11-38,5.5-1.6,38.6-12.1,41.1-8.2l5,7.8-1.3-20.4c4.4,4.6,8.4,11.4,10.9,21.4,1,4-.3,26.3-11.8,41.1Z"/>
          <path class="st28" d="M3436.2,2476c.5,1.9-2,54-43,40,0,0-48-25-1-55,0,0,34-25,44,15Z"/>
        </g>
      </g>
    </g>
  </g>
</svg>