<?xml version="1.0" encoding="UTF-8"?>
<svg id="OBJECTS" xmlns="http://www.w3.org/2000/svg" version="1.1" xmlns:xlink="http://www.w3.org/1999/xlink" viewBox="0 0 750 593.4">
  <!-- Generator: Adobe Illustrator 29.1.0, SVG Export Plug-In . SVG Version: 2.1.0 Build 142)  -->
  <defs>
    <style>
      .st0 {
        fill: #2c87a3;
      }

      .st1 {
        fill: #ff5b59;
      }

      .st2 {
        fill: #00c5e6;
      }

      .st3 {
        fill: #fff;
      }

      .st4 {
        fill: none;
        stroke: #2c87a3;
        stroke-linecap: round;
        stroke-linejoin: round;
        stroke-width: 2px;
      }

      .st5 {
        fill: url(#linear-gradient);
        opacity: .4;
      }

      .st6 {
        fill: #ffb312;
      }

      .st7 {
        fill: #b84240;
      }

      .st8 {
        fill: #00aac7;
      }

      .st9 {
        fill: #00cdc1;
      }

      .st10 {
        fill: #db9a0f;
      }

      .st11 {
        fill: #00b5aa;
      }
    </style>
    <linearGradient id="linear-gradient" x1="358.6" y1="254.1" x2="419.4" y2="456.7" gradientUnits="userSpaceOnUse">
      <stop offset="0" stop-color="#fff" stop-opacity="0"/>
      <stop offset="1" stop-color="#94d1ff"/>
    </linearGradient>
  </defs>
  <g>
    <path class="st3" d="M371.1,142.9c-84.3,0-153,68.6-153,153s68.6,153,153,153,153-68.6,153-153-68.6-153-153-153Z"/>
    <path class="st0" d="M371.1,165.7c-71.7,0-130.1,58.4-130.1,130.1s58.4,130.1,130.1,130.1,130.1-58.4,130.1-130.1-58.4-130.1-130.1-130.1Z"/>
    <path class="st3" d="M371.1,189.9c-58.4,0-105.9,47.5-105.9,105.9s47.5,105.9,105.9,105.9,105.9-47.5,105.9-105.9-47.5-105.9-105.9-105.9Z"/>
    <path class="st2" d="M371.1,219.2c-42.2,0-76.6,34.4-76.6,76.6s34.4,76.6,76.6,76.6,76.6-34.4,76.6-76.6-34.4-76.6-76.6-76.6Z"/>
    <path class="st3" d="M371.1,241.9c-29.8,0-54,24.2-54,54s24.2,54,54,54,54-24.2,54-54-24.2-54-54-54Z"/>
    <path class="st1" d="M371.1,273.8c-12.1,0-22,9.9-22,22s9.9,22,22,22,22-9.9,22-22-9.9-22-22-22Z"/>
    <path class="st5" d="M371.1,142.9c-84.3,0-153,68.6-153,153s68.6,153,153,153,153-68.6,153-153-68.6-153-153-153Z"/>
  </g>
  <g>
    <line class="st4" x1="371.1" y1="296.7" x2="174.6" y2="100.1"/>
    <g>
      <polygon class="st1" points="252 123.3 216.6 87.9 215.7 141.3 251.1 176.7 252 123.3"/>
      <polygon class="st1" points="210.8 82.1 175.4 46.7 174.5 100.1 209.9 135.5 210.8 82.1"/>
    </g>
    <g>
      <polygon class="st7" points="174.5 100.1 209.9 135.5 156.5 136.4 121.1 101 174.5 100.1"/>
      <polygon class="st7" points="215.7 141.3 251.1 176.7 197.7 177.6 162.3 142.2 215.7 141.3"/>
    </g>
  </g>
  <g>
    <line class="st4" x1="371.1" y1="296.7" x2="567.7" y2="100.1"/>
    <g>
      <polygon class="st2" points="544.6 177.6 579.9 142.2 526.5 141.3 491.2 176.7 544.6 177.6"/>
      <polygon class="st2" points="585.7 136.4 621.1 101 567.7 100.1 532.3 135.5 585.7 136.4"/>
    </g>
    <g>
      <polygon class="st8" points="567.7 100.1 532.3 135.5 531.4 82.1 566.8 46.7 567.7 100.1"/>
      <polygon class="st8" points="526.5 141.3 491.2 176.7 490.2 123.3 525.6 87.9 526.5 141.3"/>
    </g>
  </g>
  <g>
    <line class="st4" x1="371.1" y1="296.7" x2="567.7" y2="493.3"/>
    <g>
      <polygon class="st9" points="490.2 470.1 525.6 505.5 526.5 452.1 491.2 416.7 490.2 470.1"/>
      <polygon class="st9" points="531.4 511.3 566.8 546.7 567.7 493.3 532.3 457.9 531.4 511.3"/>
    </g>
    <g>
      <polygon class="st11" points="567.7 493.3 532.3 457.9 585.7 457 621.1 492.4 567.7 493.3"/>
      <polygon class="st11" points="526.5 452.1 491.2 416.7 544.6 415.8 579.9 451.2 526.5 452.1"/>
    </g>
  </g>
  <g>
    <line class="st4" x1="371.1" y1="296.7" x2="174.6" y2="493.3"/>
    <g>
      <polygon class="st6" points="197.7 415.8 162.3 451.2 215.7 452.1 251.1 416.7 197.7 415.8"/>
      <polygon class="st6" points="156.5 457 121.1 492.4 174.5 493.3 209.9 457.9 156.5 457"/>
    </g>
    <g>
      <polygon class="st10" points="174.5 493.3 209.9 457.9 210.8 511.3 175.4 546.7 174.5 493.3"/>
      <polygon class="st10" points="215.7 452.1 251.1 416.7 252 470.1 216.6 505.5 215.7 452.1"/>
    </g>
  </g>
</svg>