<svg version="1.2" xmlns="http://www.w3.org/2000/svg" viewBox="0 0 256 256" width="256" height="256">
	<title>bat-svg</title>
	<style>
		.s0 { fill: #000000 } 
	</style>
	<filter id="f0">
		<feFlood flood-color="#d9a02d" flood-opacity="1" />
		<feBlend mode="normal" in2="SourceGraphic"/>
		<feComposite in2="SourceAlpha" operator="in" />
	</filter>
	<g id="Layer" filter="url(#f0)">
		<g id="Layer">
			<g id="Layer">
				<path id="Layer" fill-rule="evenodd" class="s0" d="m75.3 8.1c15.9 3.3 32.4 12.2 44.4 23.8 16.9 16.5 23.7 37.4 18.3 56.7-2.3 8.1-7.8 17.8-13.5 23.9l-1.9 2 7.3 7.5c4.1 4.1 16.6 17 27.8 28.4 17.2 17.8 20.7 21.1 22 21 6.1-0.5 9.1-0.3 11.4 0.8 3.8 1.7 51.4 51.2 53.4 55.6 4.8 10-2.3 20.7-13.6 20.8-3.3 0-4.7-0.3-6.8-1.6-2.9-1.7-50.8-51-52.3-53.7-1.6-3.1-2.2-7.3-1.5-10.2 0.4-1.4 0.7-2.9 0.8-3.3 0.1-0.4-12.3-13.7-27.6-29.5l-27.7-28.8-1.7 1.3c-14.2 11-27.4 15.3-42 13.8-28.8-2.9-55.5-31.8-61.2-66.2-1.5-8.3-1.1-20.2 0.9-27.1 5.4-19.4 21.2-33.2 40.8-36 5.7-0.8 16.5-0.3 22.7 0.8zm-17.4 9.1c0 0.4 13.7 2 17.4 2 2.4 0-0.1-1.1-4.2-1.8-4.8-0.8-13.2-0.9-13.2-0.2zm-8.1 2.2c-4.3-0.3-5.4-0.1-8.1 1.2-1.7 0.8-3.5 1.9-3.9 2.4-0.3 0.6-0.8 2.8-1.1 5.1l-0.4 4.2 8.3 0.8c4.5 0.4 8.4 0.6 8.7 0.4 0.4-0.4 2-13.2 1.7-13.5-0.1-0.1-2.4-0.4-5.2-0.6zm10.5 0.9c-1.6-0.2-2.6 0-2.7 0.4-0.4 1.3-1.8 13.1-1.5 13.4 0.2 0.1 4.1 0.6 9 1.1 6.1 0.7 8.8 0.7 8.9 0.3 0.5-1.5 1.7-13.1 1.4-13.4-0.2-0.2-3.1-0.6-6.5-0.9-3.5-0.4-7.3-0.8-8.6-0.9zm20 1.8c-1.2-0.2-2.1-0.2-2.1-0.1-0.1 0.1-0.5 3.2-0.9 7.1-0.5 3.8-0.8 7-0.7 7.1 0.2 0.3 17.5 2.1 17.7 1.9 0.2-0.3 1.5-9.7 1.5-11 0-1.4-5.6-3.9-9.8-4.3-2.1-0.2-4.8-0.6-5.7-0.7zm-48.8 6.2c-2.9 3-2.7 3.6 0.8 3.6 1.2 0 1.6-0.4 1.9-2.1 0.8-4.2 0.3-4.5-2.7-1.5zm67.2-0.1c-0.7 0-1 1.5-1.1 6l-0.2 4.4 3.8 0.4c2.1 0.2 5.8 0.6 8.2 0.8l4.4 0.4-3.7-3.5c-2-2-5.3-4.7-7.4-6.1-2-1.4-3.9-2.5-4-2.4zm-69.8 5.7c-2.1 0-2.4 0.2-4.2 3.9-2.2 4.4-4.4 11.6-3.7 12.3 0.5 0.5 10 1.5 10.4 1.1 0.2-0.2 0.7-4 1.3-8.5 1-8.1 1-8.2-0.3-8.5-0.8-0.2-2.4-0.4-3.5-0.3zm9.2 0.8c-1.8-0.3-2.4-0.1-2.4 0.5 0 0.5-0.4 4.2-1 8.3-0.5 4.1-0.8 7.6-0.6 7.8 0.6 0.6 16.5 1.9 16.9 1.5 0.4-0.3 2.5-16 2.2-16.3 0 0-2.9-0.4-6.4-0.8-3.4-0.4-7.3-0.8-8.7-1zm26.4 2.7c-6-0.6-8.8-0.6-9-0.2-0.2 0.9-2 15.7-1.8 16 0.2 0.2 17.6 2 17.8 1.8 0.3-0.3 2.2-16.3 2-16.5-0.1 0-4.1-0.5-9-1.1zm15.1 1.6c-2.8-0.3-3.3-0.2-3.6 0.8-0.6 2.3-1.9 14.8-1.5 15.2 0.6 0.7 17.2 2 17.6 1.4 0.6-0.9 2-14.8 1.6-15.5-0.2-0.3-2.8-0.7-5.6-1-2.9-0.3-6.7-0.6-8.5-0.9zm19.8 2.1c-1.7-0.2-3-0.1-3 0.1 0 0.2-0.4 3.9-0.9 8-0.5 4.2-0.8 7.7-0.7 7.8 0.1 0.1 4.1 0.6 8.8 1 7.6 0.7 8.5 0.7 8.8-0.2 0.6-1.8 1.8-14.6 1.5-14.9-0.2-0.1-2.8-0.6-5.9-0.9-3.1-0.3-6.9-0.8-8.6-0.9zm17.2 2.3c0 0.1-0.4 3.6-0.9 7.7-0.5 4.2-0.9 7.6-0.8 7.7 0.2 0.3 12 1.5 12.3 1.2 0.4-0.3-4.9-9.7-7.4-13.1-2.4-3.2-3.2-4.1-3.2-3.5zm-91.6 9.6l-5.2-0.4 0.3 8.6c0.3 9.9 0.3 10 5.6 9.7l3.5-0.2 1-8.2c0.5-4.6 0.9-8.4 0.6-8.6-0.2-0.2-2.8-0.6-5.8-0.9zm11.8 1.2l-3.2-0.3-1.1 8.6c-0.6 4.8-1 8.8-0.9 8.9 0.3 0.4 16.8 1.8 17.1 1.5 0.3-0.3 2.3-15.3 2.3-16.9 0-0.3-2.5-0.7-5.5-1-3.1-0.2-7.1-0.6-8.7-0.8zm16.4 3.2c-0.5 2.5-1.9 15.6-1.6 15.9 0.5 0.5 16.9 1.9 17.4 1.4 0.5-0.5 2-12.1 2.1-15.3v-2l-8-0.8c-10.1-0.9-9.4-1-9.9 0.8zm20.5 0.9c0 0.3-0.4 4.1-1 8.6-0.5 4.4-0.9 8.2-0.8 8.3 0.6 0.6 17.1 1.6 17.5 1.2 0.3-0.3 0.9-3.7 1.3-7.5 0.4-3.9 0.9-7.5 1.1-8.3 0.3-1.3-0.1-1.3-7.8-2.1-9.4-0.8-10.3-0.8-10.3-0.2zm25.1 1.6l-4.7-0.4-0.8 7.1c-0.4 3.9-0.9 7.9-1.1 8.8l-0.3 1.6 8.1 0.7c4.4 0.5 8.5 0.8 9.1 0.8 0.8 0 1.2-1.4 1.8-7.1 0.4-3.8 0.9-7.8 1.1-8.7 0.4-1.6 0.3-1.6-4-2-2.4-0.2-6.5-0.6-9.2-0.8zm22 2l-6.4-0.4-0.9 8.1c-0.5 4.4-0.9 8.3-0.9 8.7 0 0.5 10.1 2 15.3 2.1l2 0.1v-5c0-5.6-1-11.3-2.1-12.4-0.4-0.5-3.6-1-7-1.2zm-95.7 11.5l-3.3-0.4 0.4 2.4c0.4 2.9 4.3 13.3 4.6 12.4 0.3-0.9 2-13.9 1.9-14-0.1 0-1.7-0.2-3.6-0.4zm11.6 1l-5.7-0.4-1.1 9c-0.7 5-0.9 9.3-0.6 9.6 0.5 0.5 11.8 1.9 15.3 1.9 1.7 0 1.7-0.1 2.5-5.6 0.4-3 0.9-7.2 1.1-9.3l0.4-3.9-3.1-0.4c-1.7-0.3-5.7-0.6-8.8-0.9zm14.1 3.5c-0.7 3.3-1.9 16.6-1.6 16.9 0.3 0.4 17.1 2.2 17.4 1.9 0.2-0.2 2.5-18.9 2.4-19.1 0-0.1-3-0.5-6.6-0.8-10.4-1.1-11.3-1-11.6 1.1zm29.5 0.4c-6-0.6-8.7-0.6-8.9-0.2-0.2 0.4-0.7 4.6-1.3 9.5-0.7 6.2-0.8 8.9-0.3 9.2 0.9 0.6 16.5 2.1 16.9 1.7 0.4-0.3 2.8-18.8 2.5-19.1-0.1-0.1-4.1-0.5-8.9-1.1zm20.2 2c-6-0.6-8.7-0.6-8.8-0.2-0.4 1.2-2.4 18.8-2.1 19 0.6 0.6 17.1 1.7 17.5 1.2 0.5-0.6 2.7-18.6 2.3-19-0.1-0.1-4.1-0.5-8.9-1zm14.1 1.2c-2.2-0.3-2.4-0.1-2.7 1.7-0.6 3.8-2.2 17.6-2 17.9 0.1 0.1 2.4 0.5 5.2 0.8 4.7 0.5 5.1 0.5 6.1-0.8 2.9-3.6 8.7-17 7.8-17.9-0.2-0.2-3-0.6-6.2-0.9-3.2-0.3-7-0.6-8.2-0.8zm-83.4 14.9c3.1 5.3 11.6 15.7 12.8 15.7 0.4 0 2.2-14.4 1.8-14.8-0.1-0.1-3-0.5-6.3-0.9-8-0.9-8.9-0.9-8.3 0zm17.2 1.6c0 0.3-0.4 3.4-0.9 7.1-1.4 10.3-2.2 9.2 7.1 10.1 4.5 0.4 8.5 0.8 9 0.8 0.7 0.2 1.1-1.7 1.9-8.3 0.7-5.7 0.8-8.5 0.3-8.6-0.3-0.1-3.7-0.5-7.6-0.9-8.2-0.8-9.8-0.8-9.8-0.2zm21.1 1.3c-0.6 0-3.1 16.4-2.6 16.9 0.5 0.4 17.1 2.1 17.4 1.8 0.2-0.2 0.8-4 1.4-8.5l1-8.1-2.5-0.4c-1.5-0.1-5.1-0.6-8.3-0.9-3.1-0.3-6-0.7-6.4-0.8zm21.2 2.3l-1.6-0.3-1 8.4c-0.6 4.5-0.9 8.4-0.7 8.6 0.2 0.3 3.3 0.7 6.8 1.1 9.8 1 10.9 0.1 12.2-9.4 0.4-3.5 0.7-6.4 0.6-6.5-0.1 0-3.4-0.4-7.4-0.8-4-0.5-8.1-0.9-8.9-1.1zm20.8 2.5l-2.3-0.1-0.4 3.8c-0.7 7.8-0.9 7.7 4.7 2.1l5.1-5.1-2.4-0.4c-1.4-0.3-3.4-0.5-4.7-0.3zm-58.9 13.1c-2.2-0.3-2.4-0.2-1.7 0.6 0.7 1 12.1 7.1 12.4 6.7 0.1-0.1 0.3-1.5 0.6-3.1l0.4-2.9-4.6-0.4c-2.6-0.2-5.8-0.6-7.1-0.9zm13.3 5.8c-0.2 2.3-0.2 2.4 2.3 3.1 2.6 0.7 14.5 1.1 15.1 0.5 0.2-0.2 0.5-1.6 0.6-3.2l0.2-2.8-7.3-0.8c-11.3-1.1-10.4-1.4-10.9 3.2zm20.8-1.7c-0.2 0.3-0.4 1.4-0.4 2.6 0 2.1 0.1 2.2 1.6 1.8 3.7-0.9 8.6-3.1 8.1-3.5-0.7-0.7-8.8-1.4-9.3-0.9z"/>
				<path id="Layer" fill-rule="evenodd" class="s0" d="m86.6 167.4c2.2 0.7 2.8 0.7 5.3-0.1 2.6-0.8 3.1-0.8 5.6 0.1 2.5 0.9 2.9 0.9 5.4 0 2.5-1 3-1 5.5-0.1 2.4 0.9 3.1 0.9 5.4 0.1 6.3-2.1 13.4 3.8 13.5 11.2 0 1.4-2.7 13.4-6 26.8-4.4 18-6 25.5-6 28.5 0 6.6-2.8 11.1-8.5 13.8-3.5 1.6-8.9 2-12.1 0.8-6.3-2.4-9.7-7.3-10-14.1q-0.1-4.5-6-28.5c-3.5-14.5-5.8-25.3-5.8-27.3 0-5.4 3.4-10.1 8.3-11.6 2.3-0.7 2.6-0.7 5.4 0.4zm1.3 5.9c-0.4 0.7 4.5 51 5.1 51.9 0.7 1.3 2.1 0.5 2.1-1.2 0-3.8-4.5-48.5-5.1-49.9-0.5-1.5-1.5-1.9-2.1-0.8zm20.9 0c-0.4 0.6-5.4 47.8-5.4 50.9 0 1.1 0.4 1.5 1.2 1.5 1.4 0 1.2 1.6 4.2-28.6 1.2-12.5 2.1-23 1.9-23.5-0.4-1.1-1.4-1.2-1.9-0.3z"/>
			</g>
		</g>
	</g>
</svg>