<?xml version="1.0" encoding="UTF-8"?>
<!DOCTYPE svg PUBLIC "-//W3C//DTD SVG 1.1//EN" "http://www.w3.org/Graphics/SVG/1.1/DTD/svg11.dtd">
<!-- Creator: CorelDRAW -->
<svg xmlns="http://www.w3.org/2000/svg" xml:space="preserve" width="79px" height="65px" version="1.1" style="shape-rendering:geometricPrecision; text-rendering:geometricPrecision; image-rendering:optimizeQuality; fill-rule:evenodd; clip-rule:evenodd"
viewBox="0 0 206.6 169.48"
 xmlns:xlink="http://www.w3.org/1999/xlink"
 xmlns:xodm="http://www.corel.com/coreldraw/odm/2003">
 <defs>
  <style type="text/css">
   <![CDATA[
    .fil0 {fill:#015FC9;fill-rule:nonzero}
    .fil1 {fill:#ED1C23;fill-rule:nonzero}
   ]]>
  </style>
 </defs>
 <g id="Layer_x0020_1">
  <metadata id="CorelCorpID_0Corel-Layer"/>
  <path class="fil0" d="M188.44 0l-170.28 0c-10.01,0 -18.16,8.15 -18.16,18.16l0 60.53c0,10.01 8.15,18.15 18.16,18.15l170.28 0c10.01,0 18.16,-8.14 18.16,-18.15l0 -60.53c0,-10.01 -8.15,-18.16 -18.16,-18.16l0 0zm-103.3 163.42l0 -48.42c0,-3.34 -2.71,-6.05 -6.05,-6.05 -3.35,0 -6.05,2.71 -6.05,6.05l0 48.42c0,3.35 2.7,6.06 6.05,6.06 3.34,0 6.05,-2.71 6.05,-6.06zm48.42 0l0 -48.42c0,-3.34 -2.7,-6.05 -6.05,-6.05 -3.35,0 -6.05,2.71 -6.05,6.05l0 48.42c0,3.35 2.7,6.06 6.05,6.06 3.35,0 6.05,-2.71 6.05,-6.06zm18.16 -54.47c-3.35,0 -6.05,2.71 -6.05,6.05l0 9.25c0,19.01 10.55,36.09 27.55,44.59 3.02,1.5 6.64,0.26 8.13,-2.71 1.49,-2.99 0.28,-6.63 -2.71,-8.12 -12.87,-6.44 -20.87,-19.37 -20.87,-33.76l0 -9.25c0,-3.34 -2.7,-6.05 -6.05,-6.05zm-96.84 0c-3.35,0 -6.05,2.71 -6.05,6.05l0 9.25c0,14.39 -8,27.32 -20.87,33.76 -2.99,1.49 -4.2,5.13 -2.71,8.12 1.49,2.97 5.1,4.21 8.12,2.71 17,-8.5 27.56,-25.58 27.56,-44.59l0 -9.25c0,-3.34 -2.71,-6.05 -6.05,-6.05zm97.24 -72.63c3.35,0 6.06,2.71 6.06,6.05 0,3.34 -2.71,6.05 -6.06,6.05 -3.34,0 -6.05,-2.71 -6.05,-6.05 0,-3.34 2.71,-6.05 6.05,-6.05zm24.21 36.31l-146.07 0c-3.34,0 -6.05,-2.7 -6.05,-6.05 0,-3.35 2.71,-6.05 6.05,-6.05l146.07 0c3.35,0 6.06,2.7 6.06,6.05 0,3.35 -2.71,6.05 -6.06,6.05l0 0zm0 -24.21c-3.34,0 -6.05,-2.71 -6.05,-6.05 0,-3.34 2.71,-6.05 6.05,-6.05 3.35,0 6.06,2.71 6.06,6.05 0,3.34 -2.71,6.05 -6.06,6.05z"/>
  <path class="fil1" d="M109.35 163.42l0 -48.42c0,-3.34 -2.71,-6.05 -6.05,-6.05 -3.35,0 -6.05,2.71 -6.05,6.05l0 48.42c0,3.35 2.7,6.06 6.05,6.06 3.34,0 6.05,-2.71 6.05,-6.06z"/>
 </g>
</svg>
