<?xml version="1.0" encoding="UTF-8"?>
<!DOCTYPE svg PUBLIC "-//W3C//DTD SVG 1.1//EN" "http://www.w3.org/Graphics/SVG/1.1/DTD/svg11.dtd">
<!-- Creator: CorelDRAW -->
<svg xmlns="http://www.w3.org/2000/svg" xml:space="preserve" width="65px" height="65px" version="1.1" style="shape-rendering:geometricPrecision; text-rendering:geometricPrecision; image-rendering:optimizeQuality; fill-rule:evenodd; clip-rule:evenodd"
viewBox="0 0 9.41 9.41"
 xmlns:xlink="http://www.w3.org/1999/xlink"
 xmlns:xodm="http://www.corel.com/coreldraw/odm/2003"
 enable-background="new 0 0 32 32">
 <defs>
  <style type="text/css">
   <![CDATA[
    .fil0 {fill:#015FC9;fill-rule:nonzero}
    .fil1 {fill:#ED1C23;fill-rule:nonzero}
   ]]>
  </style>
 </defs>
 <g id="Layer_x0020_1">
  <metadata id="CorelCorpID_0Corel-Layer"/>
  <g id="balcony_x0020__x0028_1_x0029_.svg">
   <path class="fil0" d="M4.96 5.54l2.01 0 0 -1.93 -2.01 0 0 1.93zm0.47 -0.91l0.55 -0.55c0.04,-0.04 0.1,-0.04 0.14,0l0.21 0.22c0.04,0.04 0.04,0.1 0,0.14l-0.55 0.55c-0.04,0.04 -0.1,0.04 -0.14,0l-0.21 -0.21c-0.04,-0.04 -0.04,-0.11 0,-0.15z"/>
   <path class="fil1" d="M6.97 3.11l-2.01 0 0 -2.02 0.08 0c1.07,0 1.93,0.87 1.93,1.93l0 0.09z"/>
   <path class="fil0" d="M4.45 1.09l-0.08 0c-1.07,0 -1.93,0.87 -1.93,1.93l0 0.09 2.01 0 0 -2.02zm-0.47 1l-0.55 0.55c-0.04,0.04 -0.1,0.04 -0.14,0l-0.21 -0.22c-0.04,-0.04 -0.04,-0.1 0,-0.14l0.55 -0.55c0.03,-0.04 0.1,-0.04 0.14,0l0.21 0.21c0.04,0.04 0.04,0.11 0,0.15z"/>
   <polygon class="fil0" points="2.44,3.61 4.45,3.61 4.45,5.54 2.44,5.54 "/>
   <path class="fil0" d="M1.93 5.54l-0.59 0 0 -2.52c0,-1.67 1.36,-3.02 3.03,-3.02l0.67 0c1.67,0 3.02,1.35 3.02,3.02l0 2.52 -0.58 0 0 -2.52c0,-1.34 -1.1,-2.43 -2.44,-2.43l-0.67 0c-1.35,0 -2.44,1.09 -2.44,2.43l0 2.52z"/>
   <path class="fil0" d="M9.41 6.72l0 -0.67 -9.41 0 0 0.67 0.34 0 0 2.02 -0.34 0 0 0.67 9.41 0 0 -0.67 -0.34 0 0 -2.02 0.34 0zm-7.73 2.02l-0.67 0 0 -2.02 0.67 0 0 2.02zm1.34 0l-0.67 0 0 -2.02 0.67 0 0 2.02zm1.35 0l-0.67 0 0 -2.02 0.67 0 0 2.02zm1.34 0l-0.67 0 0 -2.02 0.67 0 0 2.02zm1.35 0l-0.68 0 0 -2.02 0.68 0 0 2.02zm1.34 0l-0.67 0 0 -2.02 0.67 0 0 2.02z"/>
  </g>
 </g>
</svg>
