<?xml version="1.0" encoding="UTF-8"?>
<!DOCTYPE svg PUBLIC "-//W3C//DTD SVG 1.1//EN" "http://www.w3.org/Graphics/SVG/1.1/DTD/svg11.dtd">
<!-- Creator: CorelDRAW -->
<svg xmlns="http://www.w3.org/2000/svg" xml:space="preserve" width="78px" height="65px" version="1.1" style="shape-rendering:geometricPrecision; text-rendering:geometricPrecision; image-rendering:optimizeQuality; fill-rule:evenodd; clip-rule:evenodd"
viewBox="0 0 26.41 21.93"
 xmlns:xlink="http://www.w3.org/1999/xlink"
 xmlns:xodm="http://www.corel.com/coreldraw/odm/2003">
 <defs>
  <style type="text/css">
   <![CDATA[
    .fil0 {fill:#015FC9;fill-rule:nonzero}
    .fil1 {fill:#ED1C23;fill-rule:nonzero}
   ]]>
  </style>
 </defs>
 <g id="Layer_x0020_1">
  <metadata id="CorelCorpID_0Corel-Layer"/>
  <path class="fil0" d="M4.09 7.22c-0.02,0 -0.04,0 -0.06,0 -0.67,0 -1.23,0.55 -1.23,1.23l0 12.22c0,0.7 0.57,1.26 1.26,1.26 0.7,0 1.27,-0.56 1.27,-1.26l0 -12.23c-0.01,-0.67 -0.56,-1.22 -1.24,-1.22 0,0 0,0 0,0l0 0z"/>
  <path class="fil0" d="M8.67 7.22c-0.02,0 -0.04,0 -0.06,0 -0.68,0 -1.24,0.55 -1.24,1.23l0 12.22c0,0.7 0.56,1.26 1.26,1.26 0.7,0 1.26,-0.56 1.26,-1.26l0 -12.23c0,-0.67 -0.55,-1.22 -1.22,-1.22z"/>
  <path class="fil0" d="M13.24 7.22c-0.02,0 -0.04,0 -0.07,0 -0.67,0 -1.23,0.55 -1.23,1.23l0 12.22c0,0.7 0.57,1.26 1.26,1.26 0.7,0 1.27,-0.56 1.27,-1.26l0 -12.23c0,-0.67 -0.55,-1.22 -1.23,-1.22z"/>
  <path class="fil0" d="M17.81 7.22c-0.02,0 -0.04,0 -0.06,0 -0.68,0 -1.23,0.55 -1.24,1.23l0 12.22c0.01,0.7 0.57,1.26 1.27,1.26 0.69,0 1.26,-0.56 1.26,-1.26l0 -12.23c0,-0.67 -0.56,-1.22 -1.23,-1.22 0,0 0,0 0,0z"/>
  <path class="fil0" d="M22.38 7.22c-0.02,0 -0.04,0 -0.06,0 -0.68,0 -1.23,0.55 -1.24,1.23l0 12.22c0,0.7 0.57,1.26 1.26,1.26 0.7,0 1.27,-0.56 1.27,-1.26l0 -12.23c0,0.01 0,0.01 0,0.01 0,-0.68 -0.55,-1.23 -1.23,-1.23l0 0z"/>
  <path class="fil1" d="M24.99 7.73l-0.54 0c0.09,0.25 0.13,0.52 0.13,0.79 0,0.05 0,0.1 -0.01,0.15l0 4.7 0.45 0c0.77,-0.02 1.38,-0.64 1.39,-1.41l0 -2.82c0,-0.78 -0.64,-1.41 -1.42,-1.41z"/>
  <path class="fil1" d="M1.86 20.04l0 -4.71 -0.45 0c-0.78,0 -1.41,0.63 -1.41,1.41 0,0 0,0 0,0l0 2.82c0,0 0,0 0,0 0,0.78 0.63,1.42 1.41,1.42l0.49 0c-0.03,-0.27 -0.04,-0.55 -0.04,-0.82 0,-0.04 0,-0.09 0,-0.12z"/>
  <path class="fil0" d="M8.03 3.38c0.27,0.12 0.43,0.34 0.43,0.58 0,0.07 -0.01,0.13 -0.03,0.2l-0.57 1.55c0,0 0,0 0,0.01 0,0.21 0.22,0.38 0.49,0.38 0.18,0 0.34,-0.07 0.42,-0.19l0.56 -1.55c0.05,-0.13 0.07,-0.26 0.07,-0.39 0,-0.51 -0.34,-0.98 -0.9,-1.23 -0.26,-0.11 -0.42,-0.33 -0.42,-0.57 0,-0.1 0.02,-0.2 0.08,-0.29l0.74 -1.24c0.07,-0.07 0.12,-0.16 0.12,-0.25 0,-0.22 -0.22,-0.39 -0.49,-0.39 -0.24,0 -0.44,0.14 -0.49,0.32l-0.73 1.23c-0.11,0.19 -0.17,0.39 -0.17,0.6 0,0.51 0.34,0.98 0.9,1.23l-0.01 0z"/>
  <path class="fil0" d="M12.97 3.38c0.27,0.12 0.43,0.34 0.43,0.57 0,0.07 -0.01,0.14 -0.04,0.21l-0.56 1.55c0,0 0,0 0,0 0,0.21 0.22,0.39 0.49,0.39 0.17,0 0.33,-0.07 0.42,-0.19l0.56 -1.55c0.05,-0.13 0.07,-0.26 0.07,-0.39 0,-0.51 -0.35,-0.98 -0.91,-1.23 -0.26,-0.11 -0.42,-0.34 -0.42,-0.57 0,-0.1 0.03,-0.2 0.08,-0.29l0.75 -1.24c0.07,-0.07 0.11,-0.16 0.11,-0.25 0,-0.22 -0.21,-0.39 -0.48,-0.39 -0.24,0 -0.44,0.14 -0.49,0.32l-0.75 1.23c-0.11,0.18 -0.17,0.39 -0.17,0.6 0,0.51 0.35,0.98 0.91,1.23l0 0z"/>
  <path class="fil0" d="M18.37 2.73c-0.26,-0.12 -0.42,-0.34 -0.42,-0.58 0,-0.1 0.03,-0.19 0.08,-0.28l0.74 -1.23c0,-0.02 0.01,-0.04 0.01,-0.07 0,-0.21 -0.22,-0.38 -0.49,-0.38 -0.14,0 -0.28,0.05 -0.37,0.13l-0.74 1.23c-0.11,0.19 -0.17,0.4 -0.17,0.61 0,0.5 0.34,0.97 0.9,1.22 0.26,0.12 0.43,0.34 0.43,0.58 0,0.07 -0.01,0.14 -0.04,0.2l-0.56 1.55c0,0 0,0 0,0 0,0.22 0.22,0.39 0.49,0.39 0.17,0 0.32,-0.07 0.41,-0.18l0.56 -1.55c0.06,-0.14 0.08,-0.28 0.08,-0.41 0,-0.51 -0.35,-0.98 -0.91,-1.23l0 0z"/>
 </g>
</svg>
