<?xml version="1.0" encoding="UTF-8"?>
<!DOCTYPE svg PUBLIC "-//W3C//DTD SVG 1.1//EN" "http://www.w3.org/Graphics/SVG/1.1/DTD/svg11.dtd">
<!-- Creator: CorelDRAW -->
<svg xmlns="http://www.w3.org/2000/svg" xml:space="preserve" width="82px" height="65px" version="1.1" style="shape-rendering:geometricPrecision; text-rendering:geometricPrecision; image-rendering:optimizeQuality; fill-rule:evenodd; clip-rule:evenodd"
viewBox="0 0 27.08 21.45"
 xmlns:xlink="http://www.w3.org/1999/xlink"
 xmlns:xodm="http://www.corel.com/coreldraw/odm/2003">
 <defs>
  <style type="text/css">
   <![CDATA[
    .fil0 {fill:#015FC9;fill-rule:nonzero}
    .fil1 {fill:#ED1C23;fill-rule:nonzero}
   ]]>
  </style>
 </defs>
 <g id="Layer_x0020_1">
  <metadata id="CorelCorpID_0Corel-Layer"/>
  <g id="_2338683464576">
   <path class="fil0" d="M18.32 4.97c0,-0.8 -0.6,-1.45 -1.35,-1.45 -0.03,0 -0.08,0 -0.14,0.01 0.04,-0.04 0.08,-0.07 0.11,-0.1 0.25,-0.26 0.39,-0.61 0.37,-0.99 -0.02,-0.37 -0.18,-0.72 -0.45,-0.98 -0.56,-0.57 -1.44,-0.6 -1.97,-0.08 -0.03,0.03 -0.06,0.06 -0.1,0.11 0.01,-0.06 0.01,-0.11 0.01,-0.15 0,-0.74 -0.65,-1.34 -1.45,-1.34 -0.8,0 -1.45,0.6 -1.45,1.34 0,0.04 0.01,0.09 0.01,0.15 -0.04,-0.05 -0.07,-0.08 -0.1,-0.11 -0.52,-0.52 -1.41,-0.49 -1.97,0.08 -0.27,0.26 -0.43,0.61 -0.44,0.98 -0.02,0.38 0.11,0.73 0.37,0.99 0.02,0.03 0.06,0.06 0.1,0.1 -0.05,-0.01 -0.1,-0.01 -0.14,-0.01 -0.74,0 -1.35,0.65 -1.35,1.45 0,0.8 0.61,1.45 1.35,1.45 0.04,0 0.09,0 0.14,-0.01 -0.04,0.04 -0.08,0.07 -0.1,0.1 -0.26,0.26 -0.39,0.61 -0.37,0.99 0.01,0.36 0.17,0.71 0.44,0.98 0.56,0.56 1.45,0.6 1.97,0.07 0.03,-0.03 0.06,-0.06 0.1,-0.1 0,0.05 -0.01,0.1 -0.01,0.14 0,0.63 0.47,1.17 1.11,1.31l0 3.88c0,-1.8 -1.47,-3.27 -3.27,-3.27l-0.87 0 0 0.36c0,1.8 1.46,3.26 3.26,3.26l2.44 0c1.8,0 3.26,-1.46 3.26,-3.26l0 -0.36 -0.87 0c-1.8,0 -3.26,1.47 -3.26,3.27l0 -3.88c0.63,-0.14 1.1,-0.68 1.1,-1.31 0,-0.04 0,-0.09 -0.01,-0.14 0.04,0.04 0.07,0.07 0.1,0.1 0.53,0.53 1.41,0.5 1.97,-0.07 0.27,-0.27 0.43,-0.62 0.45,-0.98 0.02,-0.38 -0.12,-0.73 -0.37,-0.99 -0.03,-0.03 -0.07,-0.06 -0.11,-0.1 0.06,0.01 0.11,0.01 0.14,0.01 0.75,0 1.35,-0.65 1.35,-1.45l0 0zm-3.93 1.62c-0.09,0.06 -0.2,0.11 -0.3,0.16 -0.11,0.04 -0.22,0.08 -0.33,0.1 -0.13,0.03 -0.27,0.05 -0.41,0.05 -0.14,0 -0.28,-0.02 -0.41,-0.05 -0.11,-0.02 -0.22,-0.06 -0.33,-0.1 -0.1,-0.05 -0.2,-0.1 -0.3,-0.16 -0.23,-0.15 -0.43,-0.35 -0.58,-0.58 -0.06,-0.1 -0.12,-0.2 -0.16,-0.31 -0.05,-0.1 -0.08,-0.21 -0.1,-0.32 -0.03,-0.13 -0.05,-0.27 -0.05,-0.41 0,-0.14 0.02,-0.28 0.05,-0.41 0.02,-0.12 0.06,-0.23 0.1,-0.33 0.04,-0.11 0.1,-0.21 0.16,-0.31 0.15,-0.23 0.35,-0.42 0.58,-0.57 0.1,-0.06 0.2,-0.12 0.31,-0.16 0.1,-0.05 0.21,-0.08 0.32,-0.11 0.27,-0.05 0.55,-0.06 0.82,0.01 0.11,0.02 0.22,0.05 0.33,0.1 0.11,0.04 0.21,0.1 0.3,0.16 0.23,0.14 0.43,0.34 0.58,0.57 0.07,0.1 0.12,0.2 0.16,0.31 0.05,0.1 0.08,0.21 0.11,0.33 0.03,0.13 0.04,0.27 0.04,0.41 0,0.14 -0.01,0.28 -0.04,0.41 -0.03,0.11 -0.07,0.22 -0.11,0.33 -0.04,0.11 -0.1,0.21 -0.16,0.3 -0.15,0.23 -0.35,0.43 -0.58,0.58l0 0z"/>
   <path class="fil1" d="M14.5 4.49l0 0c-0.13,-0.31 -0.37,-0.54 -0.67,-0.67 -0.15,-0.06 -0.31,-0.09 -0.48,-0.09 -0.17,0 -0.33,0.03 -0.47,0.09l0 0c-0.31,0.13 -0.55,0.37 -0.67,0.67 -0.07,0.15 -0.1,0.31 -0.1,0.48 0,0.16 0.03,0.31 0.09,0.45 0,0.01 0,0.02 0.01,0.02 0,0.01 0,0.01 0,0.01 0.13,0.3 0.37,0.54 0.67,0.66 0.29,0.13 0.64,0.13 0.93,0.01 0.01,0 0.01,0 0.02,-0.01 0,0 0,0 0.01,0 0.3,-0.13 0.54,-0.37 0.66,-0.67 0.06,-0.15 0.09,-0.3 0.09,-0.47 0,-0.17 -0.03,-0.33 -0.09,-0.47 0,0 0,0 0,-0.01l0 0z"/>
   <polygon class="fil0" points="9.35,14.82 17.36,14.82 17.36,15.5 9.35,15.5 "/>
   <polygon class="fil0" points="16.07,19.95 16.69,16.19 10.01,16.19 10.63,19.95 "/>
   <path class="fil0" d="M22.29 20.05c0,0 -0.01,0 -0.01,0 -0.4,-0.16 -0.83,-0.32 -1.29,-0.47 -0.01,0 -0.03,-0.01 -0.04,-0.02 -0.55,-0.18 -1.16,-0.35 -1.8,-0.51 -0.03,0 -0.06,-0.01 -0.08,-0.01 -1.3,-0.3 -2.64,-0.49 -4,-0.57 -0.02,0 -0.04,0 -0.06,0 -0.46,-0.03 -0.93,-0.04 -1.46,-0.04l-0.03 0c-0.61,0 -1.19,0.02 -1.77,0.06l-0.03 0c-1.4,0.1 -2.75,0.31 -4.01,0.62 -0.02,0.01 -0.05,0.01 -0.07,0.02 -0.59,0.14 -1.1,0.3 -1.58,0.46 -0.01,0 -0.01,0.01 -0.03,0.01 -0.52,0.17 -1,0.35 -1.44,0.55l-0.01 0c-1.08,0.45 -1.91,0.92 -2.5,1.3l22.93 0c-0.62,-0.39 -1.5,-0.89 -2.64,-1.36 -0.03,-0.01 -0.05,-0.02 -0.08,-0.04l0 0z"/>
   <path class="fil0" d="M26.55 13.99c-1.42,0.44 -2.32,1.35 -2.89,2.36l0 -2.54c0.62,-0.08 1.2,-0.37 1.65,-0.82 0.56,-0.55 0.86,-1.29 0.86,-2.07l0 -2.17c0,-0.22 -0.18,-0.41 -0.41,-0.41 -0.37,0 -0.73,0.07 -1.07,0.21 -0.55,-0.91 -1.21,-1.29 -1.24,-1.31 -0.12,-0.07 -0.28,-0.07 -0.41,0 -0.03,0.02 -0.68,0.4 -1.23,1.31 -0.34,-0.14 -0.71,-0.21 -1.08,-0.21 -0.22,0 -0.41,0.19 -0.41,0.41l0 2.17c0,0.78 0.31,1.52 0.86,2.07 0.45,0.45 1.03,0.74 1.66,0.82l0 4.36c-0.95,-1.77 -2.37,-2.39 -2.44,-2.42 -0.15,-0.06 -0.32,-0.03 -0.44,0.07 -0.11,0.1 -0.16,0.26 -0.12,0.41l1.03 3.93c0.22,0.05 0.45,0.1 0.67,0.15 0.08,0.02 0.16,0.03 0.24,0.06 0.34,0.08 0.67,0.17 0.98,0.26 0.03,0.01 0.05,0.02 0.08,0.03 0.11,0.03 0.23,0.07 0.35,0.11 0.06,0.02 0.12,0.03 0.17,0.05 0.09,0.03 0.18,0.06 0.26,0.09 0.21,0.07 0.42,0.15 0.62,0.23 0.15,0.05 0.29,0.11 0.43,0.17 0.11,0.05 0.22,0.09 0.34,0.14l2.06 -6.96c0.04,-0.14 0,-0.3 -0.11,-0.4 -0.11,-0.11 -0.27,-0.15 -0.41,-0.1l0 0z"/>
   <path class="fil0" d="M0.54 13.99c1.42,0.44 2.31,1.35 2.88,2.36l0 -2.54c-0.62,-0.08 -1.2,-0.37 -1.65,-0.82 -0.55,-0.55 -0.86,-1.29 -0.86,-2.07l0 -2.17c0,-0.22 0.19,-0.41 0.41,-0.41 0.38,0 0.74,0.07 1.08,0.21 0.55,-0.91 1.2,-1.29 1.23,-1.31 0.13,-0.07 0.28,-0.07 0.41,0 0.03,0.02 0.69,0.4 1.24,1.31 0.33,-0.14 0.7,-0.21 1.07,-0.21 0.23,0 0.41,0.19 0.41,0.41l0 2.17c0,0.78 -0.3,1.52 -0.86,2.07 -0.45,0.45 -1.03,0.74 -1.65,0.82l0 4.36c0.94,-1.77 2.36,-2.39 2.44,-2.42 0.14,-0.06 0.31,-0.03 0.43,0.07 0.12,0.1 0.17,0.26 0.13,0.41l-1.04 3.93c-0.22,0.05 -0.44,0.1 -0.66,0.15 -0.08,0.02 -0.16,0.03 -0.24,0.06 -0.34,0.08 -0.67,0.17 -0.98,0.26 -0.03,0.01 -0.06,0.02 -0.08,0.03 -0.12,0.03 -0.24,0.07 -0.36,0.11 -0.05,0.02 -0.11,0.03 -0.17,0.05 -0.09,0.03 -0.17,0.06 -0.25,0.09 -0.22,0.07 -0.43,0.15 -0.62,0.23 -0.15,0.05 -0.29,0.11 -0.43,0.17 -0.12,0.05 -0.23,0.09 -0.34,0.14l-2.06 -6.96c-0.05,-0.14 0,-0.3 0.1,-0.4 0.11,-0.11 0.27,-0.15 0.42,-0.1l0 0z"/>
  </g>
 </g>
</svg>
