<?xml version="1.0" encoding="UTF-8"?>
<!DOCTYPE svg PUBLIC "-//W3C//DTD SVG 1.1//EN" "http://www.w3.org/Graphics/SVG/1.1/DTD/svg11.dtd">
<!-- Creator: CorelDRAW -->
<svg xmlns="http://www.w3.org/2000/svg" xml:space="preserve" width="70px" height="65px" version="1.1" style="shape-rendering:geometricPrecision; text-rendering:geometricPrecision; image-rendering:optimizeQuality; fill-rule:evenodd; clip-rule:evenodd"
viewBox="0 0 31.66 29.49"
 xmlns:xlink="http://www.w3.org/1999/xlink"
 xmlns:xodm="http://www.corel.com/coreldraw/odm/2003">
 <defs>
  <style type="text/css">
   <![CDATA[
    .fil1 {fill:#015FC9}
    .fil0 {fill:#ED1C23}
   ]]>
  </style>
 </defs>
 <g id="Layer_x0020_1">
  <metadata id="CorelCorpID_0Corel-Layer"/>
  <path class="fil0" d="M30.24 13.45l0.71 0c0.34,0 0.71,-0.2 0.71,-0.51l0 -8.69c0,-0.31 -0.37,-0.51 -0.71,-0.51l-0.71 0c-0.07,0 -0.13,0.06 -0.13,0.12l0 9.47c0,0.07 0.06,0.12 0.13,0.12l0 0z"/>
  <path class="fil1" d="M28.3 0l-2.63 0c-0.62,0 -1.12,0.51 -1.13,1.13l0 6.12c0,0.07 -0.05,0.12 -0.12,0.12l-0.77 0c-0.07,0 -0.13,0.06 -0.13,0.13l0 1.51c0,0.48 -0.2,0.65 -0.08,0.77 0.02,0.03 0.05,0.04 0.08,0.04 0,0 0,0 0.01,0l0.89 0c0.07,0 0.12,0.06 0.12,0.12l0 6.12c0.01,0.63 0.51,1.13 1.13,1.13l2.63 0c0.62,0 1.13,-0.5 1.13,-1.13l0 -14.93c0,-0.62 -0.51,-1.13 -1.13,-1.13l0 0z"/>
  <path class="fil0" d="M1.42 3.74l-0.71 0c-0.34,0 -0.71,0.2 -0.71,0.51l0 8.69c0,0.31 0.37,0.51 0.71,0.51l0.71 0c0.07,0 0.13,-0.05 0.13,-0.12l0 -9.47c0,-0.06 -0.06,-0.12 -0.13,-0.12l0 0z"/>
  <path class="fil1" d="M18.72 4.21c-0.47,0 -0.84,-0.04 -1.22,0.35 -0.22,0.22 -0.35,0.52 -0.35,0.83l0 3.41c0,0.65 0.53,1.17 1.18,1.18 0.47,0 0.84,0.03 1.22,-0.35 0.22,-0.22 0.35,-0.52 0.35,-0.83 0,0 0,0 0,0l0 -3.41c-0.01,-0.65 -0.53,-1.18 -1.18,-1.18l0 0z"/>
  <path class="fil1" d="M13.72 5.39l0 2.03c0,0.07 0.05,0.13 0.12,0.13l1.2 0c0,0 0,0 0,0 0.45,0 0.88,0.16 1.22,0.45 0.02,0.02 0.05,0.03 0.08,0.03 0.07,0 0.12,-0.05 0.12,-0.12 0,0 0,0 0,0l0 -2.52c0,-0.65 -0.53,-1.18 -1.18,-1.18 -0.47,0 -0.83,-0.04 -1.22,0.35 -0.22,0.22 -0.34,0.52 -0.34,0.83l0 0z"/>
  <path class="fil1" d="M13.03 7.42l0 -1.57c0,-0.65 -0.53,-1.18 -1.18,-1.18 -0.47,0 -0.84,-0.04 -1.22,0.35 -0.22,0.22 -0.34,0.52 -0.35,0.83l0 1.57c0.01,0.07 0.06,0.13 0.13,0.13l2.5 0c0.07,0 0.12,-0.06 0.12,-0.13l0 0z"/>
  <path class="fil1" d="M20.87 5.41c-0.19,0.18 -0.29,0.43 -0.29,0.68l0 2.71 0 0.16c0.01,0.3 0.07,0.51 0.29,0.73 0.31,0.32 0.62,0.29 1,0.29 0.54,-0.01 0.97,-0.44 0.97,-0.97l0 -2.92c0,-0.53 -0.43,-0.96 -0.97,-0.96 -0.38,0 -0.69,-0.03 -1,0.28l0 0z"/>
  <path class="fil1" d="M8.63 10.15c0.01,-0.55 -0.03,-1.21 0.19,-1.57 0.12,-0.22 0.37,-0.35 0.81,-0.35l5.41 0c0.31,0 0.61,0.13 0.83,0.35 0.38,0.38 0.35,0.75 0.35,1.22 0,0.65 -0.53,1.18 -1.18,1.18l-2.56 0c-0.45,0 -0.45,0.68 0,0.68l0.65 0c0,0 0,0 0,0 0.05,0 0.09,0.03 0.11,0.08 0.51,1.27 2.5,2.18 2.43,3.59 -0.02,0.45 0.66,0.48 0.68,0.03 0.09,-1.6 -1.57,-2.53 -2.26,-3.5 -0.02,-0.02 -0.03,-0.05 -0.03,-0.07 0,-0.07 0.06,-0.13 0.13,-0.13 0,0 0,0 0,0l0.85 0c0.86,0 1.62,-0.6 1.82,-1.44 0.01,-0.05 0.06,-0.09 0.12,-0.09 0.03,0 0.06,0.01 0.08,0.03 0.34,0.32 0.8,0.5 1.27,0.5 0,0 0,0 0,0l0.39 0c0.52,0 1.02,-0.22 1.37,-0.6 0.02,-0.03 0.05,-0.04 0.09,-0.04 0.04,0 0.07,0.01 0.09,0.04 0.32,0.38 0.78,0.6 1.28,0.6 0.38,0 0.67,0.01 1.01,-0.14 0.01,-0.01 0.03,-0.02 0.05,-0.02 0.06,0 0.12,0.06 0.12,0.12 0.01,0.39 0.03,0.77 0.04,1.14 0.11,2.53 0.22,4.94 -1.45,7.66 -0.17,0.28 -0.27,0.61 -0.27,0.95 0,0.02 0,0.05 0,0.07 0.09,2.54 0.09,5.81 0.09,8.49 0,0 0,0 0,0 0,0.03 -0.02,0.06 -0.04,0.09 -0.11,0.11 -0.47,0.47 -0.58,0.47l-8.5 0c0,0 0,0 0,0 -0.02,0 -0.05,-0.01 -0.07,-0.02 -0.27,-0.2 -0.47,-0.17 -0.59,-0.88 -0.03,-0.21 -0.02,-1.65 -0.01,-3.35 0.02,-2.66 0.04,-5.98 -0.11,-6.53 -0.23,-0.77 -2.33,-3.79 -2.59,-4.99 -0.14,-0.61 -0.05,-2.49 -0.02,-3.57l0 0z"/>
  <path class="fil1" d="M5.99 0l-2.63 0c-0.62,0 -1.13,0.51 -1.13,1.13l0 14.93c0,0.63 0.51,1.13 1.13,1.13l2.63 0c0.62,0 1.13,-0.5 1.13,-1.13l0 -6.12c0,-0.06 0.05,-0.12 0.12,-0.12l0.59 0c0.07,0 0.12,-0.05 0.12,-0.12 0.01,-0.55 0.03,-1.04 0.28,-1.47 0.25,-0.42 0.66,-0.68 1.37,-0.68 0,-0.08 -0.01,-0.18 -0.12,-0.18l-2.24 0c-0.07,0 -0.12,-0.05 -0.12,-0.12 0,0 0,0 0,0l0 -6.12c-0.01,-0.62 -0.51,-1.13 -1.13,-1.13l0 0z"/>
 </g>
</svg>
