<?xml version="1.0" encoding="UTF-8"?>
<!DOCTYPE svg PUBLIC "-//W3C//DTD SVG 1.1//EN" "http://www.w3.org/Graphics/SVG/1.1/DTD/svg11.dtd">
<!-- Creator: CorelDRAW -->
<svg xmlns="http://www.w3.org/2000/svg" xml:space="preserve" width="65px" height="65px" version="1.1" style="shape-rendering:geometricPrecision; text-rendering:geometricPrecision; image-rendering:optimizeQuality; fill-rule:evenodd; clip-rule:evenodd"
viewBox="0 0 16.57 16.57"
 xmlns:xlink="http://www.w3.org/1999/xlink"
 xmlns:xodm="http://www.corel.com/coreldraw/odm/2003">
 <defs>
  <style type="text/css">
   <![CDATA[
    .fil0 {fill:#015FC9}
    .fil1 {fill:#ED1C23}
   ]]>
  </style>
 </defs>
 <g id="Layer_x0020_1">
  <metadata id="CorelCorpID_0Corel-Layer"/>
  <g id="_2338840450128">
   <path class="fil0" d="M3.5 6.76l0 3.01 1.52 0 0 -1.84 0.97 0 0 3.56 4.5 0c0.73,0 1.45,0.83 1.45,1.55 0,0.41 0.02,0.61 -0.16,0.97 -0.11,0.24 -0.16,0.31 -0.32,0.49 0.17,0.26 0.48,0.56 0.48,1.1 0,0.38 0.02,0.63 -0.16,0.97l2.33 0 0 -8.64 0.94 0 0 1.84 1.52 0 0 -2.97c0,-0.47 -0.18,-0.83 -0.4,-1.09 -0.4,-0.48 -1.38,-0.82 -1.93,-1.04l-1.1 -0.43c-0.11,0.49 -0.71,1.18 -1.15,1.51 -0.26,0.2 -0.52,0.35 -0.85,0.47 -1.12,0.4 -2.12,0.22 -3.06,-0.48 -0.42,-0.32 -1.04,-1.01 -1.15,-1.5 -0.1,0.05 -0.15,0.06 -0.26,0.1l-1.35 0.52c-0.4,0.16 -1.14,0.5 -1.41,0.83 -0.21,0.26 -0.41,0.62 -0.41,1.07z"/>
   <path class="fil0" d="M0 15.7l0 0.16c0,0.35 0.36,0.71 0.71,0.71l9.52 0c0.48,0 0.77,-0.38 0.77,-0.84 0,-0.37 -0.37,-0.74 -0.74,-0.74l-9.52 0c-0.35,0 -0.74,0.35 -0.74,0.71z"/>
   <path class="fil0" d="M0 13.17c0,0.5 0.32,0.84 0.71,0.84l9.58 0c0.57,0 1.01,-0.84 0.47,-1.36 -0.14,-0.13 -0.32,-0.22 -0.56,-0.22l-9.46 0c-0.37,0 -0.74,0.37 -0.74,0.74z"/>
   <path class="fil0" d="M9.55 0.97c0.51,0 0.87,-0.07 0.87,0.52 0,0.39 -0.42,0.36 -0.61,0.35 -0.16,0 -0.25,-0.03 -0.29,0.07 -0.02,0.06 0,1.2 0,1.36 -0.29,0.06 -1.43,0.56 -1.66,0.61 0.03,0.3 0.39,0.67 0.52,0.88 0.11,-0.03 0.29,-0.1 0.41,-0.15 0.15,-0.06 0.26,-0.1 0.42,-0.16 1.01,-0.41 0.66,-0.37 1.65,-0.04 0.92,0.31 0.81,0.46 1.15,-0.07 0.17,-0.27 0.12,-0.23 0.22,-0.46l-1.25 -0.45c-0.14,-0.05 -0.27,-0.12 -0.43,-0.16l0 -0.52c0.27,-0.14 0.42,-0.21 0.61,-0.46 0.78,-1.05 -0.09,-2.29 -1.03,-2.29l-0.58 0 0 0.97z"/>
   <path class="fil1" d="M1.1 1.59l0 0.55c0.89,0 1.59,0.69 1.59,1.58l0.55 0c0.1,-0.45 0.04,-0.68 0.47,-1.11 0.31,-0.3 0.66,-0.47 1.14,-0.47l0 -0.55c-0.46,0 -0.82,-0.16 -1.12,-0.47 -0.13,-0.13 -0.26,-0.28 -0.34,-0.46 -0.11,-0.25 -0.09,-0.4 -0.15,-0.66l-0.55 0c0,0.89 -0.7,1.59 -1.59,1.59z"/>
  </g>
 </g>
</svg>
