<?xml version="1.0" encoding="UTF-8"?>
<!DOCTYPE svg PUBLIC "-//W3C//DTD SVG 1.1//EN" "http://www.w3.org/Graphics/SVG/1.1/DTD/svg11.dtd">
<!-- Creator: CorelDRAW -->
<svg xmlns="http://www.w3.org/2000/svg" xml:space="preserve" width="54px" height="65px" version="1.1" style="shape-rendering:geometricPrecision; text-rendering:geometricPrecision; image-rendering:optimizeQuality; fill-rule:evenodd; clip-rule:evenodd"
viewBox="0 0 34.87 42.19"
 xmlns:xlink="http://www.w3.org/1999/xlink"
 xmlns:xodm="http://www.corel.com/coreldraw/odm/2003">
 <defs>
  <style type="text/css">
   <![CDATA[
    .fil0 {fill:#015FC9;fill-rule:nonzero}
    .fil1 {fill:#ED1C23;fill-rule:nonzero}
   ]]>
  </style>
 </defs>
 <g id="Layer_x0020_1">
  <metadata id="CorelCorpID_0Corel-Layer"/>
  <g id="_2338840434144">
   <path class="fil0" d="M29.81 5.14c-6.85,-6.85 -17.91,-6.85 -24.67,0 -6.85,6.85 -6.85,17.82 0,24.67l12.29 12.38 12.29 -12.29c6.85,-6.85 6.85,-17.91 0.09,-24.76zm-12.38 24.49c-6.67,0 -12.12,-5.44 -12.12,-12.11 0,-6.68 5.45,-12.12 12.12,-12.12 6.67,0 12.12,5.44 12.12,12.12 0,6.67 -5.45,12.11 -12.12,12.11z"/>
   <path class="fil1" d="M23.14 11.55c-1.06,-0.88 -2.64,-1.32 -4.92,-1.32l-5.18 0 0 14.57 3.25 0 0 -4.03 2.02 0c2.19,0 3.77,-0.44 4.83,-1.23 1.05,-0.88 1.58,-2.2 1.58,-3.95 0,-1.85 -0.53,-3.17 -1.58,-4.04zm-2.37 5.7c-0.36,0.44 -1.15,0.62 -2.2,0.62l-2.19 0 0 -4.92 1.84 0c1.05,0 1.84,0.18 2.37,0.53 0.53,0.35 0.79,0.96 0.79,1.75 0,0.97 -0.26,1.58 -0.61,2.02z"/>
  </g>
 </g>
</svg>
