<?xml version="1.0" encoding="UTF-8"?>
<!DOCTYPE svg PUBLIC "-//W3C//DTD SVG 1.1//EN" "http://www.w3.org/Graphics/SVG/1.1/DTD/svg11.dtd">
<!-- Creator: CorelDRAW -->
<svg xmlns="http://www.w3.org/2000/svg" xml:space="preserve" width="70px" height="59px" version="1.1" style="shape-rendering:geometricPrecision; text-rendering:geometricPrecision; image-rendering:optimizeQuality; fill-rule:evenodd; clip-rule:evenodd"
viewBox="0 0 11.21 9.43"
 xmlns:xlink="http://www.w3.org/1999/xlink"
 xmlns:xodm="http://www.corel.com/coreldraw/odm/2003">
 <defs>
  <style type="text/css">
   <![CDATA[
    .fil0 {fill:#015FC9}
    .fil2 {fill:#ED1C23}
    .fil1 {fill:white}
   ]]>
  </style>
 </defs>
 <g id="Layer_x0020_1">
  <metadata id="CorelCorpID_0Corel-Layer"/>
  <path id="path2436" class="fil0" d="M5.75 0.96l-0.15 0.15 -0.14 -0.15c-1.25,-1.28 -3.27,-1.28 -4.52,0 -0.55,0.57 -0.86,1.28 -0.93,2.01 -0.1,1.11 0.37,2.19 1.22,2.89l4.37 3.57 4.38 -3.57c0.85,-0.7 1.32,-1.78 1.22,-2.89 -0.05,-0.52 -0.22,-1.03 -0.51,-1.48 -0.18,0.2 -0.43,0.33 -0.72,0.33 -0.53,0 -0.95,-0.42 -0.95,-0.95 0,-0.23 0.09,-0.45 0.23,-0.61 -1.16,-0.51 -2.56,-0.27 -3.5,0.7z"/>
  <path id="path2440" class="fil1" d="M6.83 6.94l-1.11 -0.11c-0.05,-0.01 -0.1,-0.01 -0.15,0l-1.12 0.11c-0.44,0.04 -0.83,-0.31 -0.83,-0.76 0,-1.11 0.91,-2.02 2.02,-2.02 1.12,0 2.03,0.91 2.03,2.02 0,0.45 -0.39,0.8 -0.84,0.76z"/>
  <path id="path2444" class="fil1" d="M8.17 4.54c-0.31,0 -0.56,-0.25 -0.56,-0.56 0,-0.31 0.25,-0.56 0.56,-0.56 0.31,0 0.56,0.25 0.56,0.56 0,0.31 -0.25,0.56 -0.56,0.56z"/>
  <path id="path2448" class="fil1" d="M3.04 4.54c-0.31,0 -0.56,-0.25 -0.56,-0.56 0,-0.31 0.25,-0.56 0.56,-0.56 0.31,0 0.56,0.25 0.56,0.56 0,0.31 -0.25,0.56 -0.56,0.56z"/>
  <path id="path2452" class="fil1" d="M6.67 3.29c-0.37,0 -0.68,-0.31 -0.68,-0.68 0,-0.38 0.31,-0.69 0.68,-0.69 0.38,0 0.69,0.31 0.69,0.69 0,0.37 -0.31,0.68 -0.69,0.68z"/>
  <path id="path2452_0" class="fil2" d="M9.97 1.47c-0.33,0 -0.6,-0.27 -0.6,-0.6 0,-0.33 0.27,-0.59 0.6,-0.59 0.33,0 0.59,0.26 0.59,0.59 0,0.33 -0.26,0.6 -0.59,0.6z"/>
  <path id="path2456" class="fil1" d="M4.54 3.29c-0.38,0 -0.68,-0.31 -0.68,-0.68 0,-0.38 0.3,-0.69 0.68,-0.69 0.38,0 0.69,0.31 0.69,0.69 0,0.37 -0.31,0.68 -0.69,0.68z"/>
 </g>
</svg>
