<?xml version="1.0" encoding="UTF-8"?>
<!DOCTYPE svg PUBLIC "-//W3C//DTD SVG 1.1//EN" "http://www.w3.org/Graphics/SVG/1.1/DTD/svg11.dtd">
<!-- Creator: CorelDRAW -->
<svg xmlns="http://www.w3.org/2000/svg" xml:space="preserve" width="65px" height="65px" version="1.1" style="shape-rendering:geometricPrecision; text-rendering:geometricPrecision; image-rendering:optimizeQuality; fill-rule:evenodd; clip-rule:evenodd"
viewBox="0 0 27.38 27.38"
 xmlns:xlink="http://www.w3.org/1999/xlink"
 xmlns:xodm="http://www.corel.com/coreldraw/odm/2003">
 <defs>
  <style type="text/css">
   <![CDATA[
    .fil0 {fill:#015FC9;fill-rule:nonzero}
    .fil1 {fill:#ED1C23;fill-rule:nonzero}
   ]]>
  </style>
 </defs>
 <g id="Layer_x0020_1">
  <metadata id="CorelCorpID_0Corel-Layer"/>
  <path class="fil0" d="M13.59 5.21l3.4 -2.27c0.73,-0.49 0.94,-1.48 0.44,-2.22 -0.49,-0.74 -1.48,-0.95 -2.22,-0.45l-4.82 3.21c-0.77,0.52 -0.94,1.57 -0.39,2.3l3.69 4.97 -8.18 5.45c0.9,0.21 1.75,0.61 2.5,1.21 0.58,0.46 1.24,0.46 1.81,0 1.14,-0.91 2.49,-1.39 3.91,-1.39 1.42,0 2.77,0.48 3.91,1.39 0.57,0.46 1.24,0.46 1.81,0 0.71,-0.57 1.52,-0.95 2.37,-1.17l-8.23 -11.03z"/>
  <path class="fil0" d="M26.93 19.06c-0.21,-0.11 -0.42,-0.24 -0.61,-0.39 -1.74,-1.4 -4.13,-1.4 -5.87,0 -1.16,0.92 -2.65,0.92 -3.81,0 -1.74,-1.4 -4.08,-1.4 -5.82,0 -1.15,0.92 -2.65,0.92 -3.81,0 -1.74,-1.4 -4.13,-1.4 -5.87,0 -0.21,0.17 -0.44,0.31 -0.68,0.42 -0.28,0.13 -0.46,0.41 -0.46,0.73l0 2.63c0.4,-0.12 0.79,-0.29 1.14,-0.57 1.74,-1.4 4.13,-1.4 5.87,-0.01 1.16,0.93 2.66,0.93 3.81,0 1.74,-1.39 4.08,-1.39 5.82,0 1.16,0.93 2.65,0.93 3.81,0 1.74,-1.39 4.13,-1.39 5.87,0 0.33,0.27 0.69,0.43 1.06,0.54l0 -2.63c0,-0.31 -0.17,-0.59 -0.45,-0.72z"/>
  <path class="fil0" d="M25.32 23.13c-1.16,-0.93 -2.71,-0.93 -3.87,0 -1.74,1.39 -4.07,1.39 -5.81,0 -1.16,-0.93 -2.66,-0.93 -3.81,0 -1.74,1.39 -4.08,1.39 -5.82,0 -1.16,-0.93 -2.71,-0.93 -3.86,0 -0.66,0.52 -1.39,0.85 -2.15,0.98l0 2.47c0,0.44 0.36,0.8 0.8,0.8l25.78 0c0.44,0 0.8,-0.36 0.8,-0.8l0 -2.49c-0.73,-0.14 -1.43,-0.46 -2.06,-0.96z"/>
  <path class="fil1" d="M22.52 6.47c-1.77,0 -3.21,1.44 -3.21,3.21 0,1.77 1.44,3.21 3.21,3.21 1.77,0 3.2,-1.44 3.2,-3.21 0,-1.77 -1.43,-3.21 -3.2,-3.21z"/>
 </g>
</svg>
