<?xml version="1.0" encoding="UTF-8"?>
<!DOCTYPE svg PUBLIC "-//W3C//DTD SVG 1.1//EN" "http://www.w3.org/Graphics/SVG/1.1/DTD/svg11.dtd">
<!-- Creator: CorelDRAW -->
<svg xmlns="http://www.w3.org/2000/svg" xml:space="preserve" width="66px" height="65px" version="1.1" style="shape-rendering:geometricPrecision; text-rendering:geometricPrecision; image-rendering:optimizeQuality; fill-rule:evenodd; clip-rule:evenodd"
viewBox="0 0 117.9 115.62"
 xmlns:xlink="http://www.w3.org/1999/xlink"
 xmlns:xodm="http://www.corel.com/coreldraw/odm/2003">
 <defs>
  <style type="text/css">
   <![CDATA[
    .fil0 {fill:#015FC9}
    .fil1 {fill:#ED1C23}
   ]]>
  </style>
 </defs>
 <g id="Layer_x0020_1">
  <metadata id="CorelCorpID_0Corel-Layer"/>
  <path class="fil0" d="M24.56 13.42c0,-7.61 34.39,-13.42 34.39,-13.42 0,0 34.39,5.81 34.39,13.42 0,10.14 -6.26,14.42 -6.26,14.42l-56.27 0c0,0 -6.25,-4.28 -6.25,-14.42l0 0zm39.3 1.32c0,2.71 -2.2,4.91 -4.91,4.91 -2.71,0 -4.91,-2.2 -4.91,-4.91 0,-2.72 2.2,-4.92 4.91,-4.92 2.71,0 4.91,2.2 4.91,4.92z"/>
  <path class="fil0" d="M33.03 39.72c-0.18,1.26 -0.28,2.54 -0.28,3.85 0,14.47 11.73,26.2 26.2,26.2 14.47,0 26.2,-11.73 26.2,-26.2 0,-1.37 -0.1,-2.71 -0.31,-4.02 -1.75,1.27 -3.88,2.33 -6.26,3.19 0.01,0.27 0.02,0.55 0.02,0.83 0,10.85 -8.8,19.65 -19.65,19.65 -10.85,0 -19.65,-8.8 -19.65,-19.65 0,-0.29 0.01,-0.58 0.02,-0.87 -2.39,-0.82 -4.52,-1.81 -6.29,-2.98z"/>
  <path class="fil1" d="M31.4 30.6c0.73,3.21 4.84,5.74 10.45,7.43 3.87,1.17 8.41,1.91 13.1,2.2 4.71,0.28 9.56,0.11 14.04,-0.55 8.54,-1.26 15.64,-4.24 17.25,-9.08l-54.84 0z"/>
  <path class="fil0" d="M63.86 76.32c1.81,0 3.28,1.46 3.28,3.27l0 4.53c0,1.24 -0.7,2.37 -1.81,2.93l-1.47 0.73 1.89 9.45 13.89 -20.83c0.95,0 1.83,0.01 2.63,0.01 17.7,4.04 35.63,12.27 35.63,24.66l0 14.55 -117.9 0 0 -14.55c0,-12.39 18.71,-20.71 36.41,-24.75 -0.06,0.01 0.6,0.02 1.82,0.03l14.03 21.04 1.78 -9.61 -1.47 -0.73c-1.11,-0.56 -1.81,-1.69 -1.81,-2.93l0 -4.53c0,-1.81 1.47,-3.27 3.28,-3.27l9.82 0zm31.11 17.46c0,0 -4.36,-2.18 -6.55,-4.36 -2.18,2.18 -6.55,4.36 -6.55,4.36 0,0 2.29,8.74 6.55,8.74 4.27,0 6.55,-8.74 6.55,-8.74z"/>
 </g>
</svg>
