<?xml version="1.0" encoding="UTF-8"?>
<!DOCTYPE svg PUBLIC "-//W3C//DTD SVG 1.1//EN" "http://www.w3.org/Graphics/SVG/1.1/DTD/svg11.dtd">
<!-- Creator: CorelDRAW -->
<svg xmlns="http://www.w3.org/2000/svg" xml:space="preserve" width="69px" height="65px" version="1.1" style="shape-rendering:geometricPrecision; text-rendering:geometricPrecision; image-rendering:optimizeQuality; fill-rule:evenodd; clip-rule:evenodd"
viewBox="0 0 10.93 10.25"
 xmlns:xlink="http://www.w3.org/1999/xlink"
 xmlns:xodm="http://www.corel.com/coreldraw/odm/2003">
 <defs>
  <style type="text/css">
   <![CDATA[
    .fil0 {fill:#015FC9;fill-rule:nonzero}
    .fil1 {fill:#ED1C23;fill-rule:nonzero}
   ]]>
  </style>
 </defs>
 <g id="Layer_x0020_1">
  <metadata id="CorelCorpID_0Corel-Layer"/>
  <g id="spa.svg">
   <g>
    <g id="Spa_1_">
     <path class="fil0" d="M5.51 8.07c-0.03,0.02 -0.06,0.02 -0.09,0 -0.19,-0.1 -1.76,-2.32 -1.76,-4.02 0,-1.52 0.75,-3.03 1.74,-4.02 0.03,-0.04 0.09,-0.04 0.13,0 0,0 0,0 0.01,0 0.99,1 1.74,2.51 1.74,4.02 0,1.69 -1.57,3.92 -1.77,4.02l0 0z"/>
     <path class="fil0" d="M9.22 5.89c0.4,0.04 0.8,0.14 1.18,0.3 0.05,0.02 0.08,0.09 0.05,0.14 0,0 0,0 0,0 -0.25,0.48 -0.59,0.9 -0.99,1.25 -0.96,0.83 -1.95,0.91 -3.14,0.69 1.28,-0.52 2.3,-1.19 2.9,-2.38l0 0z"/>
     <path class="fil0" d="M2.55 8.22c-0.9,-0.35 -1.64,-1.02 -2.07,-1.89 -0.02,-0.05 0,-0.11 0.05,-0.14 0,0 0,0 0.01,0 0.37,-0.16 0.77,-0.26 1.18,-0.3 0.57,1.19 1.66,1.88 2.9,2.38 -0.7,0.13 -1.41,0.18 -2.07,-0.05l0 0z"/>
     <path class="fil0" d="M8.55 6.25c-0.59,0.84 -1.72,1.39 -2.43,1.68 1.46,-2.04 1.65,-3.46 1.5,-4.57 0.49,-0.29 1.02,-0.49 1.57,-0.61 0.05,-0.01 0.1,0.02 0.11,0.08 0,0 0,0 0,0 0.19,1.19 -0.08,2.41 -0.75,3.42l0 0z"/>
     <path class="fil0" d="M4.81 7.93c-0.7,-0.29 -1.84,-0.84 -2.43,-1.68 -0.66,-1.01 -0.93,-2.23 -0.75,-3.42 0.01,-0.05 0.06,-0.09 0.11,-0.08 0,0 0,0 0.01,0 0.55,0.12 1.08,0.32 1.56,0.61 -0.15,1.12 0.04,2.53 1.5,4.57l0 0z"/>
     <path class="fil1" d="M3.87 9.25c-0.56,-0.09 -1.46,-0.31 -1.68,-0.76 0.4,0.18 0.83,0.27 1.26,0.27l0.01 0c0.14,0.04 0.3,0.07 0.48,0.1 0.1,0.02 0.17,0.12 0.16,0.23 -0.02,0.1 -0.12,0.17 -0.23,0.16z"/>
     <path class="fil1" d="M8.74 8.49c-0.36,0.79 -2.69,0.91 -3.68,0.87 -0.11,-0.01 -0.19,-0.1 -0.19,-0.2 0.01,-0.11 0.09,-0.19 0.2,-0.19 0.81,0.04 1.62,-0.03 2.41,-0.21 0.44,0 0.87,-0.09 1.26,-0.27z"/>
     <path class="fil0" d="M1.88 9.89c-0.86,-0.2 -1.88,-0.58 -1.88,-1.21 0,-0.39 0.4,-0.71 1.05,-0.95 0.11,0.1 0.22,0.2 0.34,0.29 -0.65,0.21 -1,0.45 -1,0.66 0,0.23 0.49,0.57 1.58,0.83 0.11,0.02 0.17,0.13 0.15,0.23 -0.03,0.11 -0.13,0.17 -0.24,0.15z"/>
     <path class="fil0" d="M10.93 8.68c0,1.03 -2.75,1.57 -5.46,1.57 -0.71,0 -1.41,-0.04 -2.11,-0.12 -0.1,-0.01 -0.18,-0.1 -0.17,-0.21 0.01,-0.11 0.11,-0.19 0.22,-0.17 0.68,0.07 1.37,0.11 2.06,0.1 3.14,0 5.07,-0.68 5.07,-1.17 0,-0.21 -0.35,-0.45 -1,-0.66 0.12,-0.09 0.24,-0.19 0.35,-0.29 0.64,0.24 1.04,0.56 1.04,0.95z"/>
     <circle class="fil1" cx="4.49" cy="9.11" r="0.2"/>
     <circle class="fil0" cx="2.64" cy="9.85" r="0.2"/>
    </g>
   </g>
  </g>
 </g>
</svg>
