<?xml version="1.0" encoding="UTF-8"?>
<!DOCTYPE svg PUBLIC "-//W3C//DTD SVG 1.1//EN" "http://www.w3.org/Graphics/SVG/1.1/DTD/svg11.dtd">
<!-- Creator: CorelDRAW -->
<svg xmlns="http://www.w3.org/2000/svg" xml:space="preserve" width="86px" height="65px" version="1.1" style="shape-rendering:geometricPrecision; text-rendering:geometricPrecision; image-rendering:optimizeQuality; fill-rule:evenodd; clip-rule:evenodd"
viewBox="0 0 47.93 36.23"
 xmlns:xlink="http://www.w3.org/1999/xlink"
 xmlns:xodm="http://www.corel.com/coreldraw/odm/2003">
 <defs>
  <style type="text/css">
   <![CDATA[
    .fil0 {fill:#015FC9;fill-rule:nonzero}
    .fil1 {fill:#ED1C23;fill-rule:nonzero}
   ]]>
  </style>
 </defs>
 <g id="Layer_x0020_1">
  <metadata id="CorelCorpID_0Corel-Layer"/>
  <path class="fil0" d="M14.73 23.58c-1,1 -1,2.63 0,3.64 1,1 2.62,1 3.63,0 3.09,-3.1 8.12,-3.1 11.21,0 0.5,0.5 1.16,0.75 1.81,0.75 0.66,0 1.31,-0.25 1.81,-0.75 1,-1 1,-2.63 0,-3.63 -5.08,-5.1 -13.37,-5.1 -18.46,-0.01z"/>
  <path class="fil1" d="M27.38 32.81c0,-1.89 -1.53,-3.42 -3.41,-3.42 -1.89,0 -3.42,1.53 -3.42,3.42 0,1.89 1.53,3.42 3.42,3.42 1.88,0 3.41,-1.53 3.41,-3.42z"/>
  <path class="fil0" d="M47.18 9.6c-12.8,-12.8 -33.63,-12.8 -46.43,0 -1,0.99 -1,2.62 0,3.63 1,1 2.62,1 3.63,0 10.8,-10.81 28.37,-10.81 39.18,0 0.5,0.5 1.15,0.75 1.81,0.75 0.66,0 1.31,-0.25 1.81,-0.75 1,-1 1,-2.63 0,-3.63z"/>
  <path class="fil0" d="M7.79 16.65c-1,1 -1,2.62 0,3.63 1,1 2.63,1 3.64,0 6.91,-6.91 18.17,-6.91 25.08,0 0.5,0.5 1.16,0.76 1.82,0.76 0.65,0 1.31,-0.26 1.81,-0.76 1,-1 1,-2.62 0,-3.63 -8.92,-8.93 -23.43,-8.93 -32.35,0z"/>
 </g>
</svg>
